<svg width="450" height="475" viewBox="0 0 450 475" fill="none" xmlns="http://www.w3.org/2000/svg">
<ellipse cx="178.285" cy="446.394" rx="66.0458" ry="9.8366" fill="#C4C4C4"/>
<ellipse cx="302.882" cy="431.874" rx="129.749" ry="14.0523" fill="#C4C4C4"/>
<path d="M226.521 0C145.185 0 132.627 58.9558 114.894 96.8761C88.8741 152.511 12 172.448 12 213.855C12 255.262 66.4111 319.721 114.894 348.752C189.677 393.531 260.776 376.546 319.267 368.691C348.92 364.706 469.356 326.352 436.312 231.098C393.732 108.384 307.857 0 226.521 0Z" fill="url(#paint0_linear)" fill-opacity="0.3"/>
<path d="M403.868 424.816H313.656C307.665 424.816 302.805 419.95 302.805 413.954V285.13C302.805 279.134 307.665 274.268 313.656 274.268H403.868C409.858 274.268 414.719 279.126 414.719 285.13V413.954C414.711 419.958 409.858 424.816 403.868 424.816Z" fill="#007BFF"/>
<path d="M325.39 327.532C350.862 307.76 383.415 298.428 414.711 301.748V285.13C414.711 279.134 409.858 274.268 403.86 274.268H313.648C307.657 274.268 302.797 279.126 302.797 285.13V357.298C307.188 345.314 315.255 335.28 325.39 327.532Z" fill="#007BFF"/>
<path d="M331.34 424.816H314.618V428.503H331.34V424.816Z" fill="#133265"/>
<path d="M402.905 424.816H386.183V428.503H402.905V424.816Z" fill="#133265"/>
<path d="M402.897 424.816H314.618V341.611C314.618 336.379 318.85 332.143 324.077 332.143H393.455C398.673 332.143 402.905 336.379 402.905 341.611V424.816H402.897Z" fill="#133265"/>
<path d="M401.163 424.816H316.36V342.654C316.36 337.821 320.274 333.903 325.095 333.903H392.42C397.249 333.903 401.155 337.821 401.155 342.654V424.816H401.163Z" fill="#007BFF"/>
<path d="M392.198 348.332H325.31C324.936 348.332 324.626 348.029 324.626 347.647C324.626 347.273 324.928 346.962 325.31 346.962H392.198C392.572 346.962 392.882 347.265 392.882 347.647C392.882 348.029 392.579 348.332 392.198 348.332Z" fill="#DADADA"/>
<path d="M327.84 347.647H326.296L326.05 350.45C325.994 351.047 326.471 351.565 327.068 351.565C327.665 351.565 328.142 351.047 328.086 350.45L327.84 347.647ZM327.609 349.057H326.519V348.053H327.609V349.057Z" fill="#DADADA"/>
<path d="M327.068 348.65C326.941 348.65 326.829 348.547 326.829 348.411V347.488C326.829 347.36 326.933 347.249 327.068 347.249C327.195 347.249 327.307 347.352 327.307 347.488V348.411C327.307 348.547 327.195 348.65 327.068 348.65Z" fill="#DADADA"/>
<path d="M398.657 311.917H318.858C316.511 311.917 314.61 310.014 314.61 307.665V293.706C314.61 291.357 316.511 289.454 318.858 289.454H398.657C401.004 289.454 402.905 291.357 402.905 293.706V307.665C402.897 310.014 401.004 311.917 398.657 311.917Z" fill="#133265"/>
<path d="M398.506 310.237H319.001C317.538 310.237 316.352 309.05 316.352 307.585V293.793C316.352 292.328 317.538 291.142 319.001 291.142H398.506C399.97 291.142 401.155 292.328 401.155 293.793V307.585C401.163 309.05 399.97 310.237 398.506 310.237Z" fill="#007BFF"/>
<path d="M392.198 299.75H325.31C324.936 299.75 324.626 299.447 324.626 299.065C324.626 298.691 324.928 298.38 325.31 298.38H392.198C392.572 298.38 392.882 298.683 392.882 299.065C392.882 299.447 392.579 299.75 392.198 299.75Z" fill="#DADADA"/>
<path d="M327.84 299.073H326.296L326.05 301.876C325.994 302.473 326.471 302.991 327.068 302.991C327.665 302.991 328.142 302.473 328.086 301.876L327.84 299.073ZM327.609 300.475H326.519V299.471H327.609V300.475Z" fill="#DADADA"/>
<path d="M327.068 300.076C326.941 300.076 326.829 299.973 326.829 299.837V298.914C326.829 298.786 326.933 298.675 327.068 298.675C327.195 298.675 327.307 298.778 327.307 298.914V299.837C327.307 299.973 327.195 300.076 327.068 300.076Z" fill="#DADADA"/>
<path d="M302.797 395.886H298.938V403.794H302.797V395.886Z" fill="#282F39"/>
<path d="M302.797 295.298H298.938V303.206H302.797V295.298Z" fill="#133265"/>
<path d="M414.711 336.499V341.173C415.729 341.173 416.557 342.909 416.557 345.059V354.041C416.557 356.183 415.729 357.927 414.711 357.927V362.601C416.954 362.601 418.768 358.771 418.768 354.041V345.059C418.776 340.329 416.954 336.499 414.711 336.499Z" fill="#133265"/>
<path d="M389.66 221.163C389.66 213.36 383.343 207.037 375.547 207.037H342.247C334.451 207.037 328.134 213.36 328.134 221.163V228.155H336.368V223.544C336.368 219.069 339.995 215.438 344.466 215.438H373.32C377.791 215.438 381.418 219.069 381.418 223.544V228.155H389.652V221.163H389.66Z" fill="#133265"/>
<path d="M387.989 228.163H382.938V274.276H387.989V228.163Z" fill="#DADADA"/>
<path d="M334.856 228.163H329.805V274.276H334.856V228.163Z" fill="#DADADA"/>
<path d="M387.989 228.163H382.938V234.119H387.989V228.163Z" fill="#ADADAD"/>
<path d="M334.856 228.163H329.805V234.119H334.856V228.163Z" fill="#ADADAD"/>
<path d="M184.375 334.978V421.655C184.375 423.98 186.252 425.859 188.575 425.859H308.325C310.648 425.859 312.526 423.98 312.526 421.655V334.978C312.526 332.653 310.64 330.773 308.325 330.773H188.575C186.252 330.773 184.375 332.653 184.375 334.978Z" fill="#6DB0FF"/>
<path opacity="0.5" d="M303.242 367.427C291.564 379.809 278.167 390.121 261.334 394.246C258.589 394.931 255.837 395.624 252.742 395.624C236.593 395.624 219.768 395.966 204.995 390.121C197.517 387.223 189.538 381.784 184.375 374.394V421.655C184.375 423.98 186.252 425.859 188.575 425.859H308.325C310.648 425.859 312.526 423.98 312.526 421.655V356.916C309.662 360.65 306.233 364.106 303.242 367.427Z" fill="#6DB0FF"/>
<path d="M298.461 330.773C298.461 338.553 304.761 344.86 312.534 344.86V334.978C312.534 332.653 310.648 330.773 308.333 330.773H298.461Z" fill="#ACC2E2"/>
<path d="M184.375 334.978V344.86C192.139 344.86 198.448 338.553 198.448 330.773H188.575C186.252 330.773 184.375 332.653 184.375 334.978Z" fill="#ACC2E2"/>
<path d="M298.461 425.859H308.333C310.656 425.859 312.534 423.98 312.534 421.655V411.773C304.753 411.773 298.461 418.087 298.461 425.859Z" fill="#ACC2E2"/>
<path d="M184.375 411.773V421.655C184.375 423.98 186.252 425.859 188.575 425.859H198.448C198.448 418.087 192.139 411.773 184.375 411.773Z" fill="#ACC2E2"/>
<path opacity="0.5" d="M187.74 336.085C187.74 337.04 188.511 337.813 189.466 337.813C190.421 337.813 191.192 337.04 191.192 336.085C191.192 335.129 190.421 334.357 189.466 334.357C188.511 334.357 187.74 335.129 187.74 336.085Z" fill="#787C85"/>
<path opacity="0.5" d="M187.74 420.548C187.74 421.503 188.511 422.276 189.466 422.276C190.421 422.276 191.192 421.503 191.192 420.548C191.192 419.592 190.421 418.82 189.466 418.82C188.511 418.82 187.74 419.592 187.74 420.548Z" fill="#787C85"/>
<g opacity="0.5">
<path opacity="0.5" d="M305.716 336.085C305.716 337.04 306.488 337.813 307.442 337.813C308.397 337.813 309.169 337.04 309.169 336.085C309.169 335.129 308.397 334.357 307.442 334.357C306.488 334.357 305.716 335.129 305.716 336.085Z" fill="#787C85"/>
<path opacity="0.5" d="M305.716 420.548C305.716 421.503 306.488 422.276 307.442 422.276C308.397 422.276 309.169 421.503 309.169 420.548C309.169 419.592 308.397 418.82 307.442 418.82C306.488 418.82 305.716 419.592 305.716 420.548Z" fill="#787C85"/>
</g>
<path d="M230.666 330.773H237.038C237.038 327.843 239.409 325.47 242.337 325.47H254.588C257.515 325.47 259.878 327.843 259.878 330.773H266.25C266.25 324.323 261.023 319.092 254.58 319.092H242.329C235.885 319.092 230.666 324.323 230.666 330.773Z" fill="#133265"/>
<path d="M210.563 425.859H198.447V428.503H210.563V425.859Z" fill="#133265"/>
<path d="M298.461 425.859H286.345V428.503H298.461V425.859Z" fill="#133265"/>
<path d="M220.738 330.773H210.563V425.867H220.738V330.773Z" fill="#ACC2E2"/>
<path d="M222.576 330.773H208.718V335.973C208.718 339.803 211.82 342.909 215.647 342.909C219.473 342.909 222.576 339.803 222.576 335.973V330.773Z" fill="#ACC2E2"/>
<path d="M213.921 336.841C213.921 337.797 214.692 338.569 215.647 338.569C216.601 338.569 217.373 337.797 217.373 336.841C217.373 335.886 216.601 335.113 215.647 335.113C214.692 335.113 213.921 335.886 213.921 336.841Z" fill="#787C85"/>
<path d="M208.718 425.859H222.576V420.659C222.576 416.829 219.473 413.724 215.647 413.724C211.82 413.724 208.718 416.829 208.718 420.659V425.859Z" fill="#ACC2E2"/>
<path d="M217.373 419.791C217.373 418.836 216.601 418.063 215.647 418.063C214.692 418.063 213.921 418.836 213.921 419.791C213.921 420.747 214.692 421.519 215.647 421.519C216.601 421.519 217.373 420.747 217.373 419.791Z" fill="#787C85"/>
<path d="M217.373 398.363C217.373 397.407 216.601 396.635 215.647 396.635C214.692 396.635 213.921 397.407 213.921 398.363C213.921 399.319 214.692 400.091 215.647 400.091C216.601 400.091 217.373 399.319 217.373 398.363Z" fill="#787C85"/>
<path d="M217.373 378.312C217.373 377.357 216.601 376.584 215.647 376.584C214.692 376.584 213.921 377.357 213.921 378.312C213.921 379.268 214.692 380.04 215.647 380.04C216.601 380.04 217.373 379.268 217.373 378.312Z" fill="#787C85"/>
<path d="M217.373 358.269C217.373 357.314 216.601 356.542 215.647 356.542C214.692 356.542 213.921 357.314 213.921 358.269C213.921 359.225 214.692 359.997 215.647 359.997C216.601 359.997 217.373 359.217 217.373 358.269Z" fill="#787C85"/>
<path d="M286.345 330.773H276.17V425.867H286.345V330.773Z" fill="#ACC2E2"/>
<path d="M288.191 330.773H274.333V335.973C274.333 339.803 277.435 342.909 281.262 342.909C285.088 342.909 288.191 339.803 288.191 335.973V330.773Z" fill="#ACC2E2"/>
<path d="M279.535 336.841C279.535 337.797 280.307 338.569 281.262 338.569C282.216 338.569 282.988 337.797 282.988 336.841C282.988 335.886 282.216 335.113 281.262 335.113C280.307 335.113 279.535 335.886 279.535 336.841Z" fill="#787C85"/>
<path d="M274.333 425.859H288.191V420.659C288.191 416.829 285.088 413.724 281.262 413.724C277.435 413.724 274.333 416.829 274.333 420.659V425.859Z" fill="#ACC2E2"/>
<path d="M282.988 419.791C282.988 418.836 282.216 418.063 281.262 418.063C280.307 418.063 279.535 418.836 279.535 419.791C279.535 420.747 280.307 421.519 281.262 421.519C282.216 421.519 282.988 420.747 282.988 419.791Z" fill="#787C85"/>
<path d="M282.988 398.363C282.988 397.407 282.216 396.635 281.262 396.635C280.307 396.635 279.535 397.407 279.535 398.363C279.535 399.319 280.307 400.091 281.262 400.091C282.216 400.091 282.988 399.319 282.988 398.363Z" fill="#787C85"/>
<path d="M282.988 378.312C282.988 377.357 282.216 376.584 281.262 376.584C280.307 376.584 279.535 377.357 279.535 378.312C279.535 379.268 280.307 380.04 281.262 380.04C282.216 380.04 282.988 379.268 282.988 378.312Z" fill="#787C85"/>
<path d="M282.988 358.269C282.988 357.314 282.216 356.542 281.262 356.542C280.307 356.542 279.535 357.314 279.535 358.269C279.535 359.225 280.307 359.997 281.262 359.997C282.216 359.997 282.988 359.217 282.988 358.269Z" fill="#787C85"/>
<path d="M421.494 236.082C421.494 188.761 382.758 150.391 334.966 150.391L334.966 149.391C383.302 149.391 422.494 188.199 422.494 236.082L421.494 236.082ZM334.966 150.391C287.173 150.391 248.438 188.761 248.438 236.082L247.438 236.082C247.438 188.199 286.63 149.391 334.966 149.391L334.966 150.391ZM248.438 235.553C248.438 283.435 209.246 322.243 160.911 322.243L160.911 321.243C208.703 321.243 247.438 282.874 247.438 235.553L248.438 235.553ZM160.911 322.243C112.575 322.243 73.3828 283.435 73.3828 235.553L74.3828 235.553C74.3828 282.874 113.118 321.243 160.911 321.243L160.911 322.243Z" fill="white"/>
<circle r="8.12011" transform="matrix(-4.37114e-08 -1 -1 4.37114e-08 422.421 234.987)" fill="#21CF7B"/>
<circle r="6.97691" transform="matrix(-1 8.74228e-08 8.74228e-08 1 74.2493 232.512)" fill="#21CF7B"/>
<circle r="6.97691" transform="matrix(-1 8.74228e-08 8.74228e-08 1 270.045 178.415)" fill="#21CF7B"/>
<path d="M152.488 139.237C152.488 139.237 129.557 177.493 125.355 176.59C121.153 175.688 80.77 144.069 77 152.5C75.4778 155.904 78.8736 161.868 83.5578 166.552C88.2419 171.236 123.495 201.451 132.863 197.236C142.232 193.02 173.734 141.798 173.734 141.798L152.488 139.237Z" fill="white"/>
<path d="M175.475 144.55C174.07 155.792 164.457 170.383 164.457 170.383C164.457 170.383 153.498 175.93 134.707 161.22C134.707 161.22 144.092 144.55 155.802 133.308C167.512 122.066 176.88 133.309 175.475 144.55Z" fill="#787C85"/>
<path d="M204.155 71.2064C204.155 71.2064 209.18 72.0355 210.02 77.6269C210.844 83.2274 210.832 101.163 200.24 106.461C199.8 106.681 199.2 73.9635 199.2 73.9635L204.155 71.2064Z" fill="#007BFF"/>
<path d="M229.149 428.353C229.149 428.353 232.931 445.186 229.012 447.413C224.234 450.149 184.582 458.213 173.289 450.004C168.664 446.639 176.018 444.022 192.153 441.206C208.28 438.403 210.966 424.011 210.966 424.011L229.149 428.353Z" fill="#133265"/>
<path d="M181.744 424.14L180.583 441.92C180.583 441.92 125.774 449.079 125.198 441.097C124.754 435.034 129.232 435.039 145.559 433.729C161.876 432.431 164.498 417.21 164.498 417.21L181.744 424.14Z" fill="#0E2447"/>
<path d="M159.992 213.595L157.207 256.688L219.037 239.146L159.992 213.595Z" fill="#E0A584"/>
<path d="M219.037 240.763C219.037 240.763 165.146 244.507 157.981 241.867C149.716 308.653 157.981 346.468 160.563 429.063L181.564 426.253L191.143 292.08L192.899 292.511L219.037 240.763Z" fill="#0E2447"/>
<path d="M229.81 430C229.81 430 216.644 430 208.732 430C201.809 382.211 194.158 346.111 189.415 286.632L158.144 241.699C158.144 241.699 173.918 242.563 179.187 242.545C189.252 242.511 225.595 241.699 225.595 241.699C228.562 262.737 221.898 343.382 229.81 430Z" fill="#133265"/>
<path d="M216.364 133.497C216.364 135.839 216.364 154.819 216.364 154.819C216.364 154.819 220.328 196.71 221.485 206.686C223.285 222.222 229.696 257.391 229.696 257.391C211.818 267.262 169.715 268.574 151.701 258.99C153.496 216.13 153.46 148.756 158.612 135.893C163.765 123.031 181.846 123.031 181.846 123.031C190.932 121.787 216.364 131.155 216.364 133.497Z" fill="#ADADAD"/>
<path d="M170.556 141.149C170.556 141.149 178.233 122.045 175.242 117.796C174.484 116.715 171.519 115.966 170.108 114.595C162.482 107.278 162.91 77.2779 168.282 68.0115C172.497 60.7223 169.546 61.9278 187.61 63.0969C205.674 64.266 206.344 83.3057 204.668 94.2721C203.079 104.632 198.374 111.322 192.876 115.06L195.679 139.457L170.556 141.149Z" fill="white"/>
<path d="M199.606 134.015C198.6 127.133 190.54 122.239 181.582 123.092C172.637 123.938 166.198 130.203 167.205 137.084C168.211 143.966 180.193 148.48 185.23 148.007C190.258 147.52 200.613 140.896 199.606 134.015Z" fill="white"/>
<path d="M205.17 94.4748C205.17 94.4748 209.745 91.5337 212.245 94.8101C214.763 98.0765 205.546 103.206 200.632 102.432L205.17 94.4748Z" fill="white"/>
<path d="M204.656 98.7237C202.228 92.3102 205.598 84.6595 202.091 79.0405C199.3 80.6179 195.424 77.8734 194.922 73.9553C194.716 72.4198 194.972 70.8699 194.828 69.3244C194.684 67.7789 193.913 66.0725 192.701 65.8247C192.123 65.7098 191.563 65.9489 191.019 66.1785C186.628 68.0155 180.275 73.3221 175.61 73.9039C171.175 74.4553 165.703 73.7878 163.398 68.7616C161.382 64.3753 162.911 59.0838 164.621 54.7595C165.59 52.2793 168.587 45.5646 170.73 44.8331C173.984 43.726 177.083 47.6066 179.305 51.0773C180.186 47.7966 183.429 46.4287 186.192 47.1722C188.954 47.9158 191.345 50.2011 193.615 52.4318C195.885 54.6625 198.269 56.9758 201.025 57.7474C203.599 58.4744 206.914 58.28 208.129 61.2677C209.585 64.8493 206.214 68.2782 205.94 72.1675C206.009 71.2068 208.897 75.4718 209.046 76.3835C209.512 79.1091 208.376 81.7309 207.91 84.2709C206.918 89.7243 207.498 94.3033 204.656 98.7237Z" fill="#007BFF"/>
<path d="M171.72 99.8445L185.54 99.097C185.55 99.114 177.468 115.324 171.72 99.8445Z" fill="#E45E5E"/>
<path d="M186.899 93.9934C186.954 95.4049 188.667 96.5341 190.716 96.5153C192.766 96.4964 194.4 95.3349 194.346 93.9234C194.291 92.5119 192.578 91.3827 190.529 91.4016C188.479 91.4204 186.844 92.5819 186.899 93.9934Z" fill="#F4B19F"/>
<path d="M166.563 90.75C166.618 92.1615 168.332 93.2906 170.381 93.2718C172.43 93.2529 174.065 92.0914 174.01 90.6799C173.956 89.2684 172.242 88.1393 170.193 88.1581C168.127 88.1864 166.509 89.3385 166.563 90.75Z" fill="#F4B19F"/>
<path d="M178.548 94.6947C178.557 94.5958 178.239 94.4443 177.61 94.348C177.013 94.2336 176.104 94.2463 175.217 93.9174C174.357 93.5974 173.48 92.4415 174.161 91.8275C174.821 91.0607 176.344 91.5758 177.977 91.9825C178.377 92.0887 178.783 92.1679 179.174 92.2562C179.557 92.3715 180.278 92.4404 180.759 92.0789C181.668 91.3381 181.688 90.3403 181.799 89.6208C181.961 88.0741 181.811 86.6545 181.512 85.5052C180.921 83.1797 179.949 82.0062 179.828 82.0966C179.639 82.1783 180.273 83.47 180.604 85.6348C180.751 86.7038 180.806 87.989 180.602 89.3471C180.514 90.0305 180.308 90.7325 179.992 90.9315C179.862 91.004 179.728 91.0315 179.344 90.9162C178.954 90.828 178.554 90.7218 178.164 90.6335C177.357 90.4481 176.616 90.2264 175.738 90.1042C174.887 89.9908 173.864 90.1838 173.259 90.8964C172.559 91.5914 172.676 92.9122 173.232 93.5661C173.749 94.265 174.383 94.6399 174.994 94.8172C176.226 95.1177 177.058 94.8896 177.634 94.8512C178.209 94.8129 178.54 94.7936 178.548 94.6947Z" fill="#E45E5E"/>
<path d="M193.006 114.892C193.006 114.892 186.481 118.571 181.596 118.174C181.596 118.174 186.835 120.524 193.429 118.207L193.006 114.892Z" fill="#EDA091"/>
<path d="M172.181 84.594C172.501 85.007 173.505 84.6349 174.811 84.6853C176.109 84.6787 177.29 85.1095 177.419 84.6958C177.591 84.3201 176.2 82.9484 174.428 82.9081C172.669 82.8916 171.857 84.2142 172.181 84.594Z" fill="#133265"/>
<path d="M190.474 86.7119C190.578 86.377 189.575 85.3732 188.084 84.6404C186.573 83.869 185.285 84.0564 185.36 84.4684C185.424 84.8612 186.512 85.2885 187.835 85.9634C189.176 86.6026 190.381 87.0659 190.474 86.7119Z" fill="#133265"/>
<path d="M194.925 81.4509C195.316 80.7389 194.895 78.8435 191.345 77.9367C187.749 76.9914 185.352 78.8413 185.389 79.6379C185.398 80.4288 186.755 80.814 189.914 81.6583C193.075 82.4589 194.495 82.2281 194.925 81.4509Z" fill="#007BFF"/>
<path d="M177.997 78.6061C177.986 77.9191 176.794 76.5229 173.6 76.8919C170.344 77.2298 169.287 79.4433 169.663 80.0795C170.022 80.7249 171.269 80.6161 174.135 80.3218C176.99 79.9686 178.003 79.3613 177.997 78.6061Z" fill="#007BFF"/>
<path d="M101.238 131.662H89.5435H86.0114H74.3172L78.8756 170.091C78.8756 170.091 81.9622 170.816 86.0114 171.015V171.039C86.6081 171.063 87.1967 171.071 87.7775 171.063C88.3582 171.063 88.9469 171.063 89.5435 171.039V171.015C93.5928 170.816 96.6794 170.091 96.6794 170.091L101.238 131.662Z" fill="#ACC2E2"/>
<path d="M102.662 129.281H72.8932V133.939H102.662V129.281Z" fill="#ADADAD"/>
<path d="M77.1573 155.583H98.3978L100.1 141.233H75.4548L77.1573 155.583Z" fill="#ADADAD"/>
<path d="M72.0077 148.939C72.0799 148.219 72.2243 147.51 72.5027 146.841C74.6789 141.726 83.4763 139.618 88.4268 138.739C89.0044 138.639 89.6644 138.549 90.1286 138.899C90.6236 139.268 90.6855 140.008 90.4276 140.547C90.1698 141.097 89.6541 141.486 89.1385 141.836C85.3534 144.343 80.3307 145.192 77.4326 148.629C80.0625 147.71 82.6925 146.781 85.3328 145.862C87.2408 145.192 89.4479 144.543 91.459 145.162C91.5931 145.202 91.7271 145.252 91.8406 145.332C92.2428 145.612 92.2428 146.231 91.9747 146.641C91.4074 147.49 90.1182 148.119 89.2106 148.549C88.0246 149.108 86.787 149.558 85.5597 150.008C83.105 150.897 80.5782 151.776 78.464 153.324C81.5374 152.295 84.6933 151.496 87.8905 150.937C89.7676 150.607 91.8612 150.397 93.4289 151.446C94.1818 151.946 94.749 152.955 94.254 153.694C93.9755 154.113 93.4495 154.293 92.9545 154.453C88.7053 155.752 83.1463 155.762 79.4541 158.269C81.8674 158.409 84.2808 158.539 86.6941 158.679C87.4161 158.719 88.169 158.769 88.8084 159.098C89.4479 159.428 89.9429 160.137 89.7779 160.827C89.5922 161.606 88.7053 161.995 87.9215 162.205C85.1884 162.944 76.69 163.794 74.452 161.616C72.0386 159.268 72.0696 153.904 71.9767 150.847C71.9458 150.207 71.9458 149.568 72.0077 148.939Z" fill="white"/>
<path d="M199.667 141.948C202.356 128.14 214.559 130.768 217.097 133.85C216.803 131.907 215.347 130.059 213.708 129.032C210.518 127.034 205.864 127.057 202.356 128.14C197.233 129.725 193.319 134.001 191.33 138.882C188.45 145.953 188.88 153.893 189.556 161.497C192.149 190.371 197.798 218.966 206.381 246.645C206.501 247.027 206.636 247.433 206.93 247.696C207.463 248.158 208.275 248.015 208.959 247.832C211.433 247.194 213.907 246.549 216.381 245.912C216.787 245.809 217.216 245.689 217.487 245.371C217.916 244.877 217.797 244.129 217.646 243.492C211.258 216.115 203.438 188.969 200.128 161.051C199.405 154.8 198.466 148.135 199.667 141.948Z" fill="#192231"/>
<path d="M211.718 246.512C211.622 246.177 211.503 245.747 211.36 245.23L211.678 245.142C211.821 245.66 211.94 246.09 212.036 246.424L211.718 246.512ZM211.002 243.948L210.652 242.666L210.97 242.578L211.32 243.86L211.002 243.948ZM210.302 241.383L209.952 240.101L210.27 240.014L210.62 241.296L210.302 241.383ZM209.601 238.819L209.259 237.537L209.578 237.45L209.92 238.732L209.601 238.819ZM208.917 236.255L208.575 234.973L208.893 234.886L209.236 236.168L208.917 236.255ZM208.233 233.691L207.891 232.409L208.209 232.322L208.543 233.604L208.233 233.691ZM207.557 231.127L207.223 229.845L207.541 229.758L207.875 231.04L207.557 231.127ZM206.889 228.563L206.555 227.281L206.873 227.201L207.207 228.484L206.889 228.563ZM206.221 225.991L205.894 224.709L206.213 224.629L206.539 225.911L206.221 225.991ZM205.568 223.419L205.242 222.137L205.56 222.057L205.886 223.339L205.568 223.419ZM204.916 220.855L204.59 219.565L204.908 219.485L205.234 220.775L204.916 220.855ZM204.271 218.283L203.953 217.001L204.271 216.913V216.921L204.59 218.203L204.271 218.283ZM203.627 215.703L203.309 214.413L203.627 214.333L203.937 215.607L203.627 215.703ZM202.991 213.131L202.68 211.841L202.999 211.761L203.309 213.051L202.991 213.131ZM202.37 210.551C202.267 210.121 202.163 209.691 202.06 209.261L202.378 209.181C202.482 209.611 202.585 210.041 202.688 210.471L202.37 210.551ZM201.75 207.971L201.439 206.681L201.758 206.601L202.068 207.891L201.75 207.971ZM201.137 205.391L200.835 204.101L201.153 204.029L201.455 205.319L201.137 205.391ZM200.533 202.811L200.23 201.521L200.548 201.449L200.851 202.739L200.533 202.811ZM199.936 200.231L199.642 198.941L199.968 198.869L200.262 200.159L199.936 200.231ZM199.339 197.643L199.045 196.345L199.371 196.273L199.665 197.563L199.339 197.643ZM198.759 195.055L198.472 193.757L198.798 193.685L199.085 194.975L198.759 195.055ZM198.194 192.467L197.907 191.169L198.233 191.097L198.52 192.395L198.194 192.467ZM197.629 189.863L197.35 188.565L197.677 188.494L197.955 189.792L197.629 189.863ZM197.072 187.267L196.802 185.969L197.128 185.906L197.398 187.204L197.072 187.267ZM196.531 184.679L196.269 183.381L196.595 183.318L196.857 184.616L196.531 184.679ZM196.006 182.083C195.918 181.653 195.831 181.215 195.743 180.785L196.07 180.722C196.157 181.152 196.245 181.59 196.332 182.02L196.006 182.083ZM195.489 179.487L195.234 178.19L195.56 178.126L195.815 179.424L195.489 179.487ZM194.98 176.884C194.9 176.446 194.813 176.016 194.733 175.578L195.059 175.514C195.139 175.944 195.218 176.382 195.306 176.82L194.98 176.884ZM194.487 174.272C194.407 173.834 194.327 173.404 194.248 172.966L194.574 172.91C194.654 173.34 194.733 173.778 194.813 174.216L194.487 174.272ZM194.017 171.66C193.938 171.222 193.858 170.784 193.786 170.354L194.113 170.298C194.192 170.728 194.264 171.166 194.343 171.604L194.017 171.66ZM193.556 169.048C193.484 168.61 193.405 168.172 193.333 167.742L193.659 167.686C193.731 168.116 193.802 168.554 193.882 168.992L193.556 169.048ZM193.118 166.436L192.911 165.13L193.238 165.075L193.444 166.38L193.118 166.436ZM192.705 163.808C192.633 163.362 192.577 162.925 192.514 162.495L192.84 162.447C192.895 162.877 192.959 163.315 193.031 163.753L192.705 163.808ZM192.347 161.181C192.291 160.735 192.243 160.297 192.203 159.859L192.53 159.827C192.577 160.257 192.625 160.695 192.673 161.141L192.347 161.181ZM192.076 158.537C192.036 158.091 192.005 157.645 191.981 157.215L192.315 157.191C192.339 157.621 192.37 158.067 192.41 158.513L192.076 158.537ZM191.917 155.885C191.901 155.439 191.885 154.993 191.877 154.555L192.211 154.548C192.219 154.978 192.227 155.423 192.251 155.869L191.917 155.885ZM192.203 153.234H191.869C191.877 152.78 191.885 152.342 191.901 151.904L192.235 151.92C192.219 152.342 192.211 152.788 192.203 153.234ZM192.307 150.598L191.981 150.574C192.012 150.12 192.044 149.682 192.092 149.252L192.418 149.284C192.37 149.706 192.331 150.152 192.307 150.598ZM192.561 147.97L192.235 147.93C192.291 147.484 192.362 147.046 192.434 146.616L192.76 146.672C192.689 147.094 192.617 147.524 192.561 147.97ZM193.007 145.374L192.681 145.303C192.776 144.865 192.872 144.427 192.983 144.005L193.301 144.084C193.198 144.506 193.094 144.944 193.007 145.374ZM193.659 142.826L193.341 142.73C193.468 142.308 193.611 141.878 193.763 141.464L194.073 141.576C193.922 141.982 193.786 142.404 193.659 142.826ZM194.55 140.35L194.248 140.222C194.423 139.816 194.606 139.41 194.805 139.012L195.099 139.163C194.908 139.545 194.725 139.951 194.55 140.35ZM195.72 138L195.433 137.833C195.656 137.443 195.895 137.061 196.133 136.703L196.412 136.886C196.165 137.244 195.934 137.618 195.72 138ZM197.175 135.819L196.913 135.612C197.183 135.261 197.478 134.919 197.772 134.584L198.019 134.807C197.724 135.134 197.446 135.476 197.175 135.819ZM198.934 133.884L198.703 133.645C199.029 133.342 199.363 133.048 199.713 132.769L199.92 133.032C199.586 133.294 199.252 133.581 198.934 133.884ZM200.978 132.243L200.795 131.973C201.161 131.726 201.543 131.487 201.933 131.272L202.092 131.558C201.71 131.773 201.336 131.996 200.978 132.243ZM203.261 130.969L203.126 130.667C203.532 130.483 203.953 130.316 204.367 130.165L204.478 130.475C204.065 130.627 203.659 130.786 203.261 130.969ZM214.597 130.858C214.271 130.643 213.881 130.444 213.452 130.276L213.571 129.966C214.025 130.141 214.438 130.348 214.78 130.579L214.597 130.858ZM205.727 130.093L205.648 129.775C206.077 129.663 206.523 129.568 206.952 129.496L207.008 129.823C206.578 129.894 206.149 129.99 205.727 130.093ZM212.203 129.902C211.797 129.807 211.36 129.735 210.914 129.687L210.954 129.361C211.415 129.408 211.861 129.488 212.274 129.584L212.203 129.902ZM208.305 129.655L208.281 129.329C208.687 129.297 209.092 129.281 209.482 129.281H209.617L209.609 129.615H209.474C209.1 129.608 208.703 129.623 208.305 129.655Z" fill="#F6A821"/>
<path d="M225.667 142.227C225.667 142.227 248.156 165.885 263.287 241.374C263.573 242.823 262.714 244.257 261.306 244.695C258.824 245.467 257.042 245.857 255.793 246.04C254.314 246.255 252.921 245.3 252.587 243.843C249.811 231.803 236.422 175.043 227.878 161.418C218.308 146.145 225.667 142.227 225.667 142.227Z" fill="#192231"/>
<path d="M211.846 237.952C207.543 238.788 202.515 241.328 200.136 245.167C197.408 249.578 198.633 253.966 199.174 258.743C199.842 264.612 201.091 270.401 202.666 276.095C204.209 281.685 205.204 287.728 207.861 292.928C208.561 294.306 209.301 295.723 210.486 296.719C211.441 297.523 212.634 297.993 213.827 298.359C217.519 299.482 221.703 299.745 225.537 299.561" fill="#192231"/>
<path d="M206.853 239.455C216.828 235.442 241.704 226.515 268.665 225.193C271.378 225.058 273.891 226.627 274.973 229.111C279.15 238.699 285.864 261.297 286.779 277.709C286.922 280.297 285.514 282.726 283.207 283.904C272.101 289.598 238.554 300.921 219.979 300.244C217.433 300.149 215.174 298.58 214.195 296.231C210.273 286.827 204.872 264.013 202.772 246.375C202.406 243.413 204.076 240.57 206.853 239.455Z" fill="#133265"/>
<path d="M231.231 299.284H230.57C230.57 294.952 224.827 265.553 224.763 265.258L225.415 265.131C225.654 266.341 231.231 294.888 231.231 299.284Z" fill="#ACC2E2"/>
<path d="M239.186 298.145H238.526C238.526 289.418 233.212 264.486 233.164 264.239L233.808 264.103C233.864 264.35 239.186 289.354 239.186 298.145Z" fill="#ACC2E2"/>
<path d="M268.732 289.752H268.071C268.071 280.818 261.476 257.016 261.413 256.777L262.049 256.602C262.121 256.833 268.732 280.722 268.732 289.752Z" fill="#ACC2E2"/>
<path d="M276.957 286.646H276.297C276.297 273.348 269.328 254.253 269.257 254.062L269.877 253.831C269.941 254.03 276.957 273.229 276.957 286.646Z" fill="#ACC2E2"/>
<path d="M229.942 269.208C230.746 269.208 231.398 268.555 231.398 267.75C231.398 266.946 230.746 266.293 229.942 266.293C229.138 266.293 228.486 266.946 228.486 267.75C228.486 268.555 229.138 269.208 229.942 269.208Z" fill="#ACC2E2"/>
<path d="M266.878 260.329C267.682 260.329 268.334 259.677 268.334 258.872C268.334 258.067 267.682 257.414 266.878 257.414C266.074 257.414 265.422 258.067 265.422 258.872C265.422 259.677 266.074 260.329 266.878 260.329Z" fill="#ACC2E2"/>
<path d="M205.432 269.662C203.077 269.662 200.436 269.08 200.301 269.048L200.444 268.403C200.484 268.411 204.589 269.319 206.999 268.881C207.564 268.786 263.266 258.983 281.388 248.257L281.723 248.83C272.192 254.468 252.4 259.803 237.483 263.275C221.334 267.042 207.246 269.51 207.11 269.534C206.601 269.622 206.02 269.662 205.432 269.662Z" fill="#ACC2E2"/>
<path d="M256.829 258.207C255.986 258.493 255.143 258.74 254.284 258.955L255.095 262.889C255.262 263.701 255.103 264.529 254.65 265.222C254.196 265.915 253.496 266.393 252.685 266.56L245.103 268.136C244.897 268.176 244.682 268.2 244.467 268.2C243.003 268.2 241.73 267.157 241.436 265.724L240.664 261.989C239.821 262.268 238.97 262.499 238.103 262.658L238.851 266.257C239.4 268.917 241.77 270.844 244.475 270.844C244.865 270.844 245.263 270.804 245.644 270.724L253.226 269.148C254.729 268.837 256.026 267.953 256.869 266.671C257.712 265.389 258.007 263.844 257.689 262.339L256.829 258.207Z" fill="#ACC2E2"/>
<path d="M208.632 148.391C209.525 157.51 226.881 186.631 228.912 196.5C230.943 206.369 233.788 224 233.788 250.589L220.084 260.917C220.084 260.917 223.37 265.157 228.912 260.703C228.912 260.703 230.113 284.395 232.654 285.169C235.194 285.942 234.88 268.448 234.88 268.448C234.88 268.448 238.464 286.17 241.393 287.125C244.322 288.081 241.342 269.11 241.342 269.11C241.342 269.11 246.72 286.123 248.998 285.432C251.276 284.742 245.295 270.999 245.295 270.999C245.295 270.999 253.527 282.087 255.637 280.743C257.747 279.399 247.969 268.491 247.969 268.491C247.969 268.491 250.782 259.622 245.051 252.424C245.051 252.424 250.5 203.5 245.051 191C245.051 191 231.91 154.261 223.153 141.145C214.397 128.03 207.74 139.272 208.632 148.391Z" fill="white"/>
<path d="M204.41 140.732C200.781 148.96 212.645 175.726 211.63 177.229C211.63 177.229 234.783 178.39 240.203 171.094C240.203 171.094 218.04 109.816 204.41 140.732Z" fill="#B6B6B6"/>
<circle cx="12.1904" cy="111.19" r="12.1904" fill="#6DB0FF"/>
<circle cx="441.5" cy="136.5" r="8.5" fill="#6DB0FF"/>
<circle cx="73.5" cy="366.5" r="8.5" fill="#6DB0FF"/>
<defs>
<linearGradient id="paint0_linear" x1="227" y1="0" x2="227" y2="378.475" gradientUnits="userSpaceOnUse">
<stop stop-color="#6DB0FF"/>
<stop offset="0.0718232" stop-color="#76B3FB"/>
<stop offset="0.447514" stop-color="#94BBED"/>
<stop offset="0.801105" stop-color="#A6C0E5"/>
<stop offset="1" stop-color="#ACC2E2"/>
</linearGradient>
</defs>
</svg>
