<svg width="350" height="8" viewBox="0 0 350 8" fill="none" xmlns="http://www.w3.org/2000/svg">
<path d="M2.83573 3.41768C2.83573 4.11387 2.19769 4.68349 1.41787 4.68349C0.638039 4.68349 0 4.11387 0 3.41768C0 2.72149 0.638039 2.15187 1.41787 2.15187C2.19769 2.21516 2.83573 2.72149 2.83573 3.41768Z" fill="#DADADA"/>
<path d="M19.3539 3.48097C19.3539 4.24045 18.6449 4.87336 17.7942 4.87336C16.9435 4.87336 16.2346 4.24045 16.2346 3.48097C16.2346 2.72149 16.9435 2.08858 17.7942 2.08858C18.6449 2.08858 19.3539 2.72149 19.3539 3.48097Z" fill="#DADADA"/>
<path d="M35.872 3.48097C35.872 4.30374 35.0922 4.99994 34.1705 4.99994C33.2489 4.99994 32.4691 4.30374 32.4691 3.48097C32.4691 2.6582 33.2489 1.962 34.1705 2.02529C35.0922 1.962 35.872 2.6582 35.872 3.48097Z" fill="#DADADA"/>
<path d="M52.3901 3.48097C52.3901 4.36703 51.6103 5.06323 50.6178 5.06323C49.6253 5.06323 48.8455 4.36703 48.8455 3.48097C48.7746 2.5949 49.6253 1.89871 50.6178 1.89871C51.6103 1.89871 52.3901 2.5949 52.3901 3.48097Z" fill="#DADADA"/>
<path d="M68.9082 3.48097C68.9082 4.43032 68.0575 5.18981 66.9941 5.18981C65.9307 5.18981 65.08 4.43032 65.08 3.48097C65.08 2.53161 65.9307 1.77213 66.9941 1.77213C68.0575 1.77213 68.9082 2.53161 68.9082 3.48097Z" fill="#DADADA"/>
<path d="M85.4973 3.54426C85.4973 4.55691 84.5756 5.37968 83.4414 5.37968C82.3071 5.37968 81.3855 4.55691 81.3855 3.54426C81.3855 2.53161 82.3071 1.70884 83.4414 1.70884C84.5048 1.64555 85.4973 2.46832 85.4973 3.54426Z" fill="#DADADA"/>
<path d="M102.015 3.54426C102.015 4.6202 101.023 5.50626 99.8177 5.50626C98.6125 5.50626 97.62 4.6202 97.62 3.54426C97.62 2.46832 98.6125 1.58226 99.8177 1.58226C101.023 1.58226 102.015 2.46832 102.015 3.54426Z" fill="#DADADA"/>
<path d="M118.534 3.54426C118.534 4.68349 117.47 5.63284 116.194 5.63284C114.918 5.63284 113.855 4.68349 113.855 3.54426C113.855 2.40503 114.918 1.45568 116.194 1.45568C117.47 1.45568 118.534 2.40503 118.534 3.54426Z" fill="#DADADA"/>
<path d="M135.052 3.54426C135.052 4.74678 133.917 5.75942 132.57 5.75942C131.223 5.75942 130.089 4.74678 130.089 3.54426C130.089 2.34174 131.223 1.3291 132.57 1.3291C133.988 1.3291 135.052 2.34174 135.052 3.54426Z" fill="#DADADA"/>
<path d="M151.57 3.54426C151.57 4.81007 150.365 5.886 148.947 5.886C147.529 5.886 146.324 4.81007 146.324 3.54426C146.324 2.27845 147.529 1.20252 148.947 1.20252C150.435 1.26581 151.57 2.27845 151.57 3.54426Z" fill="#DADADA"/>
<path d="M168.088 3.60755C168.088 4.93665 166.883 6.07587 165.323 6.07587C163.834 6.07587 162.558 4.99994 162.558 3.60755C162.558 2.27845 163.763 1.13923 165.323 1.13923C166.883 1.13923 168.159 2.21516 168.088 3.60755Z" fill="#DADADA"/>
<path d="M184.677 3.60755C184.677 4.99994 183.401 6.13916 181.77 6.13916C180.211 6.13916 178.935 4.99994 178.935 3.54426C178.935 2.15187 180.211 1.01265 181.841 1.01265C183.401 1.01265 184.677 2.21516 184.677 3.60755Z" fill="#DADADA"/>
<path d="M201.195 3.60755C201.195 5.06323 199.848 6.26574 198.218 6.26574C196.587 6.26574 195.24 5.06323 195.24 3.60755C195.24 2.15187 196.587 0.949355 198.218 0.949355C199.848 0.949355 201.195 2.15187 201.195 3.60755Z" fill="#DADADA"/>
<path d="M217.713 3.60755C217.713 5.12652 216.295 6.39233 214.594 6.39233C212.892 6.39233 211.475 5.12652 211.475 3.60755C211.475 2.08858 212.892 0.822775 214.594 0.822775C216.295 0.822775 217.713 2.08858 217.713 3.60755Z" fill="#DADADA"/>
<path d="M234.231 3.67084C234.231 5.31639 232.743 6.5822 230.97 6.5822C229.198 6.5822 227.709 5.2531 227.709 3.67084C227.709 2.08858 229.198 0.759484 230.97 0.759484C232.813 0.759484 234.231 2.02529 234.231 3.67084Z" fill="#DADADA"/>
<path d="M250.749 3.67084C250.749 5.37968 249.19 6.70878 247.347 6.70878C245.432 6.70878 243.944 5.31639 243.944 3.67084C243.944 1.962 245.503 0.632904 247.347 0.632904C249.261 0.632904 250.749 1.962 250.749 3.67084Z" fill="#DADADA"/>
<path d="M267.338 3.67084C267.338 5.44297 265.779 6.83536 263.794 6.83536C261.809 6.83536 260.249 5.44297 260.249 3.67084C260.249 1.89871 261.809 0.506323 263.794 0.506323C265.708 0.506323 267.338 1.962 267.338 3.67084Z" fill="#DADADA"/>
<path d="M283.857 3.67084C283.857 5.50626 282.226 6.96194 280.17 6.96194C278.114 6.96194 276.484 5.50626 276.484 3.67084C276.484 1.83542 278.114 0.379742 280.17 0.379742C282.226 0.443032 283.857 1.89871 283.857 3.67084Z" fill="#DADADA"/>
<path d="M300.375 3.73413C300.375 5.63284 298.673 7.15181 296.546 7.15181C294.42 7.15181 292.718 5.63284 292.718 3.73413C292.718 1.83542 294.42 0.316452 296.546 0.316452C298.673 0.316452 300.375 1.83542 300.375 3.73413Z" fill="#DADADA"/>
<path d="M316.893 3.73413C316.893 5.69613 315.121 7.27839 312.923 7.27839C310.725 7.27839 308.953 5.69613 309.024 3.73413C309.024 1.77213 310.796 0.189871 312.994 0.253161C315.121 0.189871 316.893 1.77213 316.893 3.73413Z" fill="#DADADA"/>
<path d="M333.411 3.73413C333.411 5.75942 331.568 7.34168 329.299 7.34168C327.031 7.34168 325.258 5.69613 325.258 3.67084C325.258 1.64555 327.101 0.0632904 329.37 0.0632904C331.639 0.126581 333.411 1.70884 333.411 3.73413Z" fill="#DADADA"/>
<path d="M350 3.73413C350 5.82271 348.086 7.46826 345.817 7.46826C343.478 7.46826 341.635 5.75942 341.635 3.73413C341.635 1.64555 343.549 0 345.817 0C348.086 0 350 1.70884 350 3.73413Z" fill="#DADADA"/>
</svg>
