<svg width="39" height="39" viewBox="0 0 39 39" fill="none" xmlns="http://www.w3.org/2000/svg">
<circle cx="19.5" cy="19.5" r="19.5" fill="#0F9E48"/>
<path fill-rule="evenodd" clip-rule="evenodd" d="M20.1755 27.932C18.486 27.932 16.9391 27.4328 15.6336 26.5771L12.4465 27.5974L13.4942 24.5529C12.4959 23.198 11.9254 21.5304 11.9254 19.7477C11.9254 19.4844 11.9254 19.2266 11.9473 18.9632C12.3533 14.7998 15.8969 11.5688 20.1755 11.5688C24.5036 11.5688 28.0691 14.8985 28.3818 19.1059C28.4037 19.3198 28.4312 19.5337 28.4312 19.7477C28.4312 24.2677 24.7175 27.932 20.1755 27.932ZM24.3884 21.7224C24.1525 21.6018 22.9622 21.0093 22.7482 20.938C22.5123 20.8667 22.3697 20.8173 22.1997 21.0587C22.0351 21.2946 21.5798 21.8431 21.4372 21.9857C21.2946 22.1503 21.1519 22.1777 20.9161 22.057C20.6802 21.9364 19.8958 21.6786 18.9907 20.8667C18.2556 20.2249 17.7784 19.4624 17.6358 19.1991C17.4931 18.9632 17.6358 18.8426 17.7564 18.7219C17.8497 18.6286 17.9923 18.4366 18.113 18.294C18.1349 18.2721 18.1843 18.2227 18.2063 18.2008C18.2556 18.1075 18.2995 18.0088 18.3489 17.9155C18.4202 17.751 18.3982 17.6083 18.3269 17.4877C18.2776 17.367 17.7784 16.2041 17.5919 15.7268C17.3779 15.2276 17.186 15.3209 17.0433 15.3209C16.9007 15.3209 16.7581 15.299 16.5935 15.299C16.429 15.299 16.1657 15.3703 15.9517 15.6061C15.7378 15.842 15.096 16.4125 15.096 17.5809C15.096 17.8662 15.1454 18.1514 15.2386 18.3873C15.4745 19.243 16.0011 19.9342 16.0944 20.0494C16.215 20.2139 17.7564 22.6879 20.2084 23.6643C22.633 24.6133 22.633 24.3061 23.0883 24.2567C23.5162 24.2074 24.5145 23.6862 24.7065 23.1157C24.9205 22.5672 24.9205 22.0954 24.8492 21.9748C24.7888 21.887 24.6242 21.8431 24.3884 21.7224ZM29.9726 19.5118C29.8574 14.2348 25.5019 10 20.1755 10C14.8985 10 10.5924 14.136 10.3566 19.3198C10.3566 19.4624 10.3566 19.605 10.3566 19.7477C10.3566 21.5798 10.8557 23.3132 11.7608 24.7669L10 30L15.4196 28.2885C16.8239 29.051 18.4366 29.5008 20.1755 29.5008C25.5952 29.5008 29.9726 25.1234 29.9726 19.7532C29.9726 19.6764 29.9726 19.5831 29.9726 19.5118Z" fill="#FEFEFE"/>
</svg>
