<svg width="39" height="39" viewBox="0 0 39 39" fill="none" xmlns="http://www.w3.org/2000/svg">
<circle cx="19.5" cy="19.5" r="19.5" fill="#3C5A99"/>
<g clip-path="url(#clip0)">
<path fill-rule="evenodd" clip-rule="evenodd" d="M16.0454 20.0805V29.751C16.0454 29.8877 16.1577 30.0049 16.2992 30.0049H19.8921C20.0288 30.0049 20.146 29.8926 20.146 29.751V19.9243H22.7479C22.8797 19.9243 22.9871 19.8218 22.9968 19.6949L23.2458 16.7318C23.2604 16.5853 23.1433 16.4584 22.9968 16.4584H20.1411V14.3593C20.1411 13.8662 20.5414 13.466 21.0344 13.466H23.0408C23.1823 13.466 23.2946 13.3537 23.2946 13.2121V10.2538C23.2897 10.1123 23.1774 10 23.0408 10H19.648C17.6612 10 16.0454 11.6109 16.0454 13.6026V16.4584H14.2538C14.1123 16.4584 14 16.5707 14 16.7073V19.6705C14 19.8072 14.1123 19.9243 14.2538 19.9243H16.0503V20.0805H16.0454Z" fill="white"/>
</g>
<defs>
<clipPath id="clip0">
<rect width="9.28972" height="20" fill="white" transform="translate(14 10)"/>
</clipPath>
</defs>
</svg>
