<svg width="39" height="39" viewBox="0 0 39 39" fill="none" xmlns="http://www.w3.org/2000/svg">
<circle cx="19.5" cy="19.5" r="19.5" fill="#33CCFF"/>
<g clip-path="url(#clip0)">
<path d="M32.1995 12.3955C31.4254 12.7429 30.572 12.9563 29.7429 13.0965C30.1392 13.0294 30.7183 12.3162 30.9499 12.0236C31.3034 11.5847 31.6021 11.0788 31.7667 10.5363C31.785 10.4936 31.8033 10.4387 31.7606 10.4083C31.7058 10.39 31.6753 10.3961 31.6326 10.4205C30.7061 10.9203 29.7429 11.28 28.7189 11.536C28.6335 11.5543 28.5726 11.536 28.5177 11.4811C28.4324 11.3836 28.3531 11.2921 28.2617 11.219C27.8289 10.8533 27.3717 10.5668 26.8475 10.3534C26.1648 10.073 25.4211 9.95719 24.6835 10.006C23.9703 10.0547 23.2632 10.2559 22.6293 10.585C21.9953 10.9203 21.4223 11.3775 20.9712 11.9383C20.5019 12.5174 20.1605 13.2001 19.9837 13.9194C19.813 14.6143 19.8252 15.3092 19.9289 16.0102C19.9471 16.126 19.935 16.1443 19.8313 16.126C15.8325 15.5409 12.5165 14.1084 9.82218 11.0361C9.70637 10.9081 9.63931 10.9081 9.54178 11.0483C8.36531 12.8161 8.93221 15.6506 10.4074 17.0465C10.6024 17.2355 10.8036 17.4183 11.023 17.589C10.9438 17.6073 9.96239 17.4976 9.0907 17.0465C8.97488 16.9733 8.91392 17.016 8.90783 17.1501C8.89564 17.3391 8.91392 17.5159 8.93831 17.7231C9.16385 19.5153 10.4074 21.1672 12.102 21.8133C12.3031 21.8987 12.5287 21.9718 12.742 22.0084C12.358 22.0937 11.9557 22.1547 10.8463 22.0693C10.7061 22.045 10.6573 22.112 10.7061 22.2461C11.5412 24.5198 13.3394 25.1964 14.6866 25.5805C14.8694 25.611 15.0462 25.611 15.2291 25.6536C15.2169 25.6719 15.2047 25.6719 15.1986 25.6841C14.7536 26.3668 13.1992 26.8728 12.4799 27.1227C11.1693 27.5799 9.73684 27.7871 8.35312 27.653C8.13368 27.6225 8.08491 27.6225 8.02395 27.653C7.963 27.6896 8.01786 27.7444 8.08491 27.7993C8.36531 27.9883 8.65181 28.1529 8.9444 28.3113C9.82828 28.7807 10.7426 29.1526 11.7058 29.4147C16.6677 30.7862 22.2574 29.7804 25.9819 26.0742C28.9078 23.1666 29.9319 19.1617 29.9319 15.1446C29.9319 14.9861 30.1148 14.9008 30.2306 14.8155C30.9926 14.2425 31.6082 13.5597 32.1751 12.7978C32.3031 12.6271 32.3031 12.4747 32.3031 12.4138C32.3031 12.4016 32.3031 12.3955 32.3031 12.3955C32.3031 12.3345 32.3031 12.3528 32.1995 12.3955Z" fill="white"/>
</g>
<defs>
<clipPath id="clip0">
<rect width="24.3036" height="20" fill="white" transform="translate(8 10)"/>
</clipPath>
</defs>
</svg>
