<svg width="30" height="28" viewBox="0 0 30 28" fill="none" xmlns="http://www.w3.org/2000/svg">
<path d="M26.9327 23.7509H26.4897C26.169 22.1475 24.7259 20.9449 23.0423 20.9449C21.3587 20.9449 19.9156 22.1475 19.5949 23.7509H12.4596C12.1389 22.2276 10.8562 21.0251 9.25272 20.9449L6.92774 5.47173C6.92774 5.31138 6.84757 5.15104 6.7674 5.07087L1.79674 0.180387C1.55623 -0.0601289 1.0752 -0.0601289 0.834683 0.180387C0.594168 0.420902 0.594168 0.901933 0.834683 1.14245L5.56482 5.87258L7.80963 21.1854C6.44671 21.6664 5.48465 22.9492 5.48465 24.4724C5.48465 26.3966 7.08808 28 9.01221 28C10.6958 28 12.1389 26.7974 12.4596 25.194H19.5949C19.9156 26.7974 21.3587 28 23.0423 28C24.7259 28 26.169 26.7974 26.4897 25.194H26.9327C27.3336 25.194 27.6543 24.8733 27.6543 24.4724C27.6543 24.0716 27.3336 23.7509 26.9327 23.7509ZM9.01221 26.5569C7.8898 26.5569 6.92774 25.5948 6.92774 24.4724C6.92774 23.35 7.8898 22.388 9.01221 22.388C10.1346 22.388 11.0967 23.35 11.0967 24.4724C11.0967 25.675 10.1346 26.5569 9.01221 26.5569ZM23.0423 26.5569C21.9199 26.5569 20.9578 25.5948 20.9578 24.4724C20.9578 23.35 21.9199 22.388 23.0423 22.388C24.1647 22.388 25.1267 23.35 25.1267 24.4724C25.1267 25.675 24.1647 26.5569 23.0423 26.5569Z" fill="#007BFF"/>
<path d="M29.2156 5.80513C28.9716 5.48704 28.5682 5.25083 28.0872 5.25598L7.10049 5.24007C6.69966 5.24436 6.30054 5.40899 6.06347 5.73223C5.8264 6.05547 5.67035 6.45803 5.75481 6.858L7.22319 16.704C7.31108 17.4246 7.95757 17.8988 8.59891 17.8919L25.417 17.9524C26.0583 17.9456 26.6152 17.5387 26.7686 16.8957L29.4698 7.08523C29.6259 6.68268 29.5405 6.20254 29.2156 5.80513ZM25.4817 16.5086L8.66363 16.448L7.11508 6.60292L28.1018 6.61882L25.4817 16.5086Z" fill="#007BFF"/>
</svg>
