<svg width="24" height="25" viewBox="0 0 24 25" fill="none" xmlns="http://www.w3.org/2000/svg">
<path d="M22.7692 9.57265H21.265C21.0598 8.68376 20.7179 7.86325 20.2393 7.11111L21.3333 6.01709C21.812 5.53846 21.812 4.78632 21.3333 4.30769L19.6239 2.59829C19.4188 2.39316 19.0769 2.25641 18.8034 2.25641C18.4615 2.25641 18.188 2.39316 17.9829 2.59829L16.8889 3.69231C16.1368 3.21367 15.3162 2.87179 14.4274 2.66667V1.23077C14.4274 0.547008 13.8804 0 13.1966 0H10.8034C10.1197 0 9.57265 0.547008 9.57265 1.23077V2.73504C8.68376 2.94017 7.86324 3.28205 7.11111 3.76068L6.01711 2.66667C5.81198 2.46154 5.47009 2.32479 5.19658 2.32479C4.8547 2.32479 4.58119 2.46154 4.37606 2.66667L2.66666 4.37607C2.18803 4.8547 2.18803 5.60684 2.66666 6.08547L3.76068 7.17949C3.28205 7.93162 2.94017 8.75214 2.73504 9.64102H1.23078C0.547021 9.64102 0 10.188 0 10.8718V13.265C0 13.9487 0.547021 14.4957 1.23078 14.4957H2.73504C2.94017 15.3846 3.28205 16.2051 3.76068 16.9573L2.66666 18.0513C2.18803 18.5299 2.18803 19.282 2.66666 19.7607L4.37606 21.4701C4.58119 21.6752 4.92308 21.812 5.19658 21.812C5.47009 21.812 5.81198 21.6752 6.01711 21.4701L7.11111 20.3761C7.86324 20.8547 8.68376 21.1966 9.57265 21.4017V22.906C9.57265 23.5897 10.1197 24.1367 10.8034 24.1367H13.1966C13.8804 24.1367 14.4274 23.5897 14.4274 22.906V21.1966C15.3162 20.9915 16.1368 20.6496 16.8889 20.1709L17.9829 21.265C18.188 21.4701 18.5299 21.6068 18.8034 21.6068C19.0769 21.6068 19.4188 21.4701 19.6239 21.265L21.3333 19.5556C21.812 19.0769 21.812 18.3248 21.3333 17.8462L20.2393 16.7521C20.7179 16 21.0598 15.1795 21.265 14.2906H22.7692C23.453 14.2906 24 13.7436 24 13.0598V10.6667C24 10.1197 23.453 9.57265 22.7692 9.57265ZM22.7692 13.1966H20.3077C20.1026 14.6325 19.5555 15.9316 18.735 17.0256L20.5128 18.8034L18.8034 20.5128L17.0256 18.735C15.9316 19.5556 14.6325 20.1026 13.1966 20.3077V22.7692H10.8034V20.3077C9.36753 20.1026 8.06838 19.5556 6.97437 18.735L5.19658 20.5128L3.48718 18.8034L5.26497 17.0256C4.44445 15.9316 3.89743 14.6325 3.6923 13.1966H1.23078V10.8034H3.6923C3.89743 9.36752 4.44445 8.06837 5.26497 6.97436L3.48718 5.19658L5.19658 3.48718L6.97437 5.26496C8.06838 4.44444 9.36753 3.89744 10.8034 3.69231V1.23077H13.1966V3.69231C14.6325 3.89744 15.9316 4.44444 17.0256 5.26496L18.8034 3.48718L20.5128 5.19658L18.735 6.97436C19.5555 8.06837 20.1026 9.36752 20.3077 10.8034H22.7692V13.1966Z" fill="#787C85"/>
<path d="M12.0347 6C8.75261 6 6.01758 8.66667 6.01758 12.0171C6.01758 15.3675 8.68424 18.0342 12.0347 18.0342C15.3167 18.0342 18.0517 15.3675 18.0517 12.0171C18.0517 8.66667 15.3167 6 12.0347 6ZM12.0347 16.735C9.368 16.735 7.24834 14.6154 7.24834 11.9487C7.24834 9.28205 9.368 7.16239 12.0347 7.16239C14.7013 7.16239 16.821 9.28205 16.821 11.9487C16.821 14.6154 14.7013 16.735 12.0347 16.735Z" fill="#787C85"/>
</svg>
