<svg width="24" height="25" viewBox="0 0 24 25" fill="none" xmlns="http://www.w3.org/2000/svg">
<path d="M20.5011 16.8671C18.9241 16.8671 17.6213 17.8956 17.1414 19.2669L12.0675 18.4441C12.0675 18.307 12.1361 18.1699 12.1361 18.0327C12.1361 16.5929 11.5876 15.2901 10.7648 14.2616L14.8787 10.1477C15.4958 10.5591 16.1815 10.8334 16.9357 10.8334C18.9241 10.8334 20.5697 9.18778 20.5697 7.19938C20.5697 5.21098 18.9241 3.56541 16.9357 3.56541C14.9473 3.56541 13.3017 5.21098 13.3017 7.19938C13.3017 7.9536 13.576 8.70782 13.9874 9.25635L9.87344 13.3703C8.84495 12.5475 7.54221 11.999 6.10233 11.999C5.9652 11.999 5.82807 11.999 5.69094 12.0675L4.86815 6.99369C6.30803 6.51373 7.26795 5.21098 7.26795 3.63397C7.26795 1.64557 5.62237 0 3.63397 0C1.64557 0 0.0685645 1.71414 0.0685645 3.70254C0.0685645 5.69094 1.64557 7.26795 3.63397 7.26795L4.45676 12.2732C1.91983 12.9589 0 15.2901 0 18.0327C0 21.3239 2.67405 24.0665 6.03376 24.0665C8.77638 24.0665 11.1076 22.2152 11.7933 19.6097L16.7985 20.4325C16.7985 22.4209 18.4441 23.9979 20.364 23.9979C22.3524 23.9979 23.9979 22.3524 23.9979 20.364C24.0665 18.5127 22.4209 16.8671 20.5011 16.8671ZM1.30275 3.70254C1.30275 2.39979 2.39979 1.30275 3.70254 1.30275C5.00528 1.30275 6.10233 2.39979 6.10233 3.70254C6.10233 5.00528 5.00528 6.10233 3.70254 6.10233C2.39979 6.10233 1.30275 5.00528 1.30275 3.70254ZM16.8671 4.86815C18.1699 4.86815 19.2669 5.9652 19.2669 7.26795C19.2669 8.57069 18.1699 9.66774 16.8671 9.66774C15.5644 9.66774 14.4673 8.57069 14.4673 7.26795C14.4673 5.9652 15.5644 4.86815 16.8671 4.86815ZM6.10233 22.9009C3.42828 22.9009 1.30275 20.7754 1.30275 18.1013C1.30275 15.4272 3.42828 13.3017 6.10233 13.3017C8.77639 13.3017 10.9019 15.4272 10.9019 18.1013C10.9019 20.7068 8.70782 22.9009 6.10233 22.9009ZM20.5011 22.9009C19.1983 22.9009 18.1013 21.8038 18.1013 20.5011C18.1013 19.1983 19.1983 18.1013 20.5011 18.1013C21.8038 18.1013 22.9009 19.1983 22.9009 20.5011C22.9009 21.8038 21.8038 22.9009 20.5011 22.9009Z" fill="#787C85"/>
</svg>
