<svg width="24" height="20" viewBox="0 0 24 20" fill="none" xmlns="http://www.w3.org/2000/svg">
<path d="M23.3846 0H0.615391C0.27351 0 0 0.276544 0 0.622223V18.8049C0 19.1506 0.27351 19.4272 0.615391 19.4272H23.3846C23.7265 19.4272 24 19.1506 24 18.8049V0.622223C24 0.276544 23.7265 0 23.3846 0ZM22.7692 18.1827H1.23077V1.24445H22.7692V18.1827Z" fill="#787C85"/>
<path d="M11.6918 13.7255C11.8286 13.7947 11.8969 13.8638 12.0337 13.8638C12.1704 13.8638 12.3072 13.7947 12.3756 13.7255L21.3328 7.0885C21.6063 6.88109 21.6747 6.53541 21.4696 6.25887C21.2645 5.98233 20.9226 5.91319 20.6491 6.12059L12.0337 12.4811L3.4183 6.12059C3.14479 5.91319 2.80292 5.98233 2.59779 6.25887C2.39266 6.53541 2.46103 6.88109 2.73454 7.0885L11.6918 13.7255Z" fill="#787C85"/>
</svg>
