<svg width="25" height="21" viewBox="0 0 25 21" fill="none" xmlns="http://www.w3.org/2000/svg">
<path d="M14.246 18.6487H1.44047V1.44047H14.246V6.56346H15.6864V0.720236C15.6864 0.320105 15.3663 0 14.9662 0H0.720236C0.320105 0 0 0.320105 0 0.720236V19.369C0 19.6891 0.320105 20.0092 0.720236 20.0092H14.9662C15.3663 20.0092 15.6864 19.6891 15.6864 19.2889V13.5257H14.246V18.6487Z" fill="#E45E5E"/>
<path d="M23.9259 9.37249L19.8445 5.21113C19.6045 4.97105 19.1243 4.89102 18.8842 5.21113C18.6441 5.45121 18.5641 5.93137 18.8842 6.17144L21.8452 9.21244H6.72024C6.3201 9.21244 6 9.53255 6 9.93268C6 10.3328 6.3201 10.6529 6.72024 10.6529H21.7652L18.8042 13.6939C18.5641 13.934 18.5641 14.4141 18.8042 14.6542C19.0443 14.8943 19.5244 14.8943 19.7645 14.6542L23.8458 10.4128C24.246 10.0927 24.246 9.61257 23.9259 9.37249Z" fill="#E45E5E"/>
</svg>
