<svg width="24" height="19" viewBox="0 0 24 19" fill="none" xmlns="http://www.w3.org/2000/svg">
<path d="M21.6 0H2.4C1.09714 0 0 1.09714 0 2.4V15.6343C0 16.9371 1.09714 18.0343 2.4 18.0343H21.6C22.9029 18.0343 24 16.9371 24 15.6343V2.4C24 1.02857 22.9029 0 21.6 0ZM22.8343 10.7657H16.8C16.1143 10.7657 15.5657 10.2171 15.5657 9.53143V8.29714C15.5657 7.61143 16.1143 7.06286 16.8 7.06286H22.8343V10.7657ZM22.8343 5.96571H16.8C15.4971 5.96571 14.4 7.06286 14.4 8.36572V9.6C14.4 10.9029 15.4971 12 16.8 12H22.8343V15.6343C22.8343 16.32 22.2857 16.8686 21.6 16.8686H2.4C1.71429 16.8686 1.16572 16.32 1.16572 15.6343V2.4C1.16572 1.71429 1.71429 1.16571 2.4 1.16571H21.6C22.2857 1.16571 22.8343 1.71429 22.8343 2.4V5.96571Z" fill="#787C85"/>
<path d="M17.4179 9.23429C17.7588 9.23429 18.0351 8.95798 18.0351 8.61714C18.0351 8.2763 17.7588 8 17.4179 8C17.0771 8 16.8008 8.2763 16.8008 8.61714C16.8008 8.95798 17.0771 9.23429 17.4179 9.23429Z" fill="#787C85"/>
</svg>
