<svg width="24" height="15" viewBox="0 0 24 15" fill="none" xmlns="http://www.w3.org/2000/svg">
<path d="M23.7943 6.51428C23.5886 6.24 19.2 0 12 0C4.8 0 0.411428 6.24 0.205714 6.51428C-0.0685714 6.92571 -0.0685714 7.47428 0.205714 7.88571C0.411428 8.15999 4.8 14.4 12 14.4C19.2 14.4 23.5886 8.15999 23.7943 7.88571C24.0686 7.47428 24.0686 6.92571 23.7943 6.51428ZM12 13.2343C5.34858 13.2343 1.16573 7.2 1.16573 7.2C1.16573 7.2 5.34858 1.16571 12 1.16571C18.6514 1.16571 22.8343 7.2 22.8343 7.2C22.8343 7.2 18.6514 13.2343 12 13.2343Z" fill="#787C85"/>
<path d="M11.9992 2C9.32493 2 7.19922 4.12571 7.19922 6.8C7.19922 9.47428 9.32493 11.6 11.9992 11.6C14.6735 11.6 16.7992 9.47428 16.7992 6.8C16.7992 4.12571 14.6735 2 11.9992 2ZM11.9992 10.4343C10.0106 10.4343 8.36494 8.78857 8.36494 6.8C8.36494 4.81143 10.0106 3.16571 11.9992 3.16571C13.9878 3.16571 15.6335 4.81143 15.6335 6.8C15.6335 8.78857 13.9878 10.4343 11.9992 10.4343Z" fill="#787C85"/>
</svg>
