<svg width="94" height="51" viewBox="0 0 94 51" fill="none" xmlns="http://www.w3.org/2000/svg">
<path d="M52.0813 1.59532C50.8828 1.29999 49.5694 1.53203 49.6033 1.57686C49.4754 1.53203 49.2299 1.44238 49.0968 1.46875C49.0785 1.48193 49.0576 1.48721 49.0471 1.48721C49.0785 1.50039 49.1098 1.51357 49.1359 1.52676C49.0471 1.5584 49.0158 1.52148 48.9453 1.50039C48.9897 1.56367 48.9845 1.55049 48.9453 1.61641C48.9453 1.62168 48.9505 1.63487 48.9584 1.64278C49.149 1.6876 49.3396 1.77198 49.6059 1.7377V1.72188C49.5485 1.6586 49.4153 1.64541 49.3526 1.59268C49.3396 1.59268 49.3344 1.59268 49.3265 1.59268C49.3265 1.5874 49.3265 1.5874 49.3265 1.57949C49.4989 1.61114 49.6425 1.69551 49.7704 1.77198C49.7887 1.7588 49.8096 1.74561 49.82 1.73243C49.7809 1.8089 49.726 1.82735 49.7574 1.90646C49.4597 1.85636 49.2508 1.75352 49.1411 2.07257C49.1673 2.10422 49.1986 2.13058 49.2299 2.15695C49.2116 2.17014 49.1855 2.17541 49.1673 2.18332C49.162 2.20969 49.1542 2.23342 49.149 2.25979C49.2639 2.3679 49.3318 2.4259 49.4728 2.47864C49.478 2.54192 49.4858 2.59993 49.4989 2.65794C49.538 2.68431 49.538 2.6764 49.5824 2.67113C49.6451 2.72914 49.6007 2.77923 49.632 2.81879C49.7078 2.91371 50.0133 3.06928 50.0759 3.16421C50.102 3.19585 50.0811 3.24858 50.1334 3.2855C50.2404 3.35669 50.3684 3.40152 50.4571 3.47798C50.4963 3.49644 50.4702 3.48326 50.4571 3.52281C50.6739 3.62565 51.0029 3.61246 51.1856 3.72057C51.217 3.75221 51.1987 3.73375 51.1987 3.79176C51.3763 3.84186 51.5669 3.88669 51.7496 3.93942C51.7627 3.93942 51.7758 3.93415 51.794 3.92624C51.7993 3.88141 51.7993 3.88141 51.781 3.83659C51.8959 3.7654 51.9194 3.65201 51.9977 3.56236C51.9585 3.49117 51.9481 3.4859 51.9585 3.38833C52.11 3.36988 52.1622 3.28023 52.2875 3.24858C52.2693 3.17739 52.2823 3.16421 52.217 3.12729C52.2562 3.10092 52.2484 3.11411 52.3006 3.12729C52.3136 3.11411 52.3267 3.10092 52.345 3.08774C52.3006 3.0561 52.2614 3.01655 52.217 2.97963C52.2118 2.97963 52.1988 2.97963 52.1909 2.97963V2.96645C52.2666 2.9849 52.3371 2.99809 52.4181 2.9849C52.4364 2.9849 52.4442 2.97963 52.4494 2.97963C52.4364 2.95326 52.4102 2.92953 52.392 2.90316C52.3972 2.89789 52.405 2.89789 52.405 2.88998C52.5121 2.95326 52.5774 2.96117 52.734 2.96117C52.7393 2.92162 52.7523 2.88471 52.7601 2.85307C52.7862 2.84779 52.8045 2.84779 52.8306 2.83988C52.8045 2.87943 52.7862 2.91107 52.7601 2.94272C52.7654 2.9559 52.7732 2.96908 52.7732 2.97436C53.097 3.04555 53.3111 2.91635 53.6166 2.87152V2.78715C53.9847 2.67904 54.4991 2.90844 54.8542 2.8768C54.9665 2.86889 53.5539 1.95919 52.0813 1.59532Z" fill="#1A1A1A"/>
<path d="M45.2918 2.2598C45.4641 2.28617 45.6913 2.30463 45.874 2.39428C46.0646 2.47865 46.109 2.60522 46.3179 2.63686C46.2683 2.6685 46.2474 2.65005 46.1848 2.63159C46.2291 2.71597 46.2788 2.76079 46.4015 2.77925C46.3754 2.78452 46.3571 2.79243 46.344 2.80562C46.4015 2.85572 46.4328 2.88999 46.5033 2.92691C46.5216 2.92691 46.5425 2.92691 46.5608 2.92691C46.5425 2.8689 46.5555 2.88208 46.5033 2.86363V2.85044C46.9028 2.97173 47.2631 3.25914 47.7149 3.33034C47.7331 3.26706 47.7096 3.2987 47.7645 3.29079C47.7645 3.28551 47.7645 3.2776 47.7645 3.2776C47.6313 3.0983 47.3206 2.90581 47.1039 2.81616C47.1039 2.7898 47.0986 2.78452 47.0908 2.75815C47.1744 2.80825 47.2684 2.85308 47.3519 2.8979C47.3519 2.87945 47.3519 2.85835 47.3519 2.84781C47.5921 2.99547 47.8794 3.16158 48.1248 3.30924C48.1431 3.30397 48.1692 3.30397 48.1875 3.29606C48.1927 3.29606 48.2057 3.29606 48.2136 3.29606V3.28288C48.13 3.23278 48.0856 3.23805 48.023 3.1484C48.0674 3.16158 48.0987 3.17477 48.1379 3.18795C48.1431 3.18795 48.1431 3.18795 48.1509 3.18795C48.1561 3.14313 48.1457 3.12994 48.1118 3.08512C48.117 3.07984 48.117 3.06666 48.1248 3.05875C48.1561 3.07721 48.1509 3.07193 48.164 3.10885C48.2475 3.10357 48.2214 3.09566 48.2658 3.04556C48.2841 3.09566 48.2919 3.09566 48.3285 3.12994C48.3337 3.12994 48.3415 3.12994 48.3415 3.12994C48.3363 3.11148 48.3285 3.09039 48.3154 3.07984C48.3468 3.07984 48.3781 3.07984 48.4094 3.07984C48.4094 3.07457 48.4094 3.06139 48.4094 3.05348C48.3337 2.99547 48.2632 2.94537 48.1561 2.91373C48.1509 2.90845 48.1431 2.89527 48.1431 2.88736C48.1692 2.88208 48.1927 2.88208 48.2188 2.87417C48.2188 2.87417 48.2188 2.8689 48.2188 2.86099C48.1483 2.80298 47.9081 2.60522 47.7358 2.63159C47.7358 2.54721 47.6966 2.44701 47.5974 2.42064C47.6365 2.42064 47.6809 2.42064 47.7123 2.42064C47.7175 2.41537 47.7253 2.40219 47.7253 2.39428C47.7123 2.36791 47.694 2.36264 47.6757 2.33627C47.8533 2.34945 48.0047 2.49711 48.164 2.50239C48.1065 2.68169 48.4564 2.73179 48.5765 2.82935C48.6653 2.81616 48.6653 2.78452 48.7358 2.78452C48.7175 2.77925 48.7045 2.75815 48.6914 2.75288C48.7097 2.70806 48.7045 2.72651 48.7358 2.70278C48.7985 2.72915 48.869 2.75288 48.9395 2.72124C48.9395 2.73442 48.9395 2.75288 48.9395 2.77925C48.9708 2.77925 48.9969 2.77925 49.0282 2.77925C49.0152 2.75288 49.0021 2.73442 48.9891 2.72124C49.0335 2.69487 48.9943 2.70806 49.0465 2.72124C49.0596 2.71597 49.0726 2.71597 49.0857 2.70806C49.0674 2.68169 49.0465 2.65796 49.0361 2.63159C49.1562 2.66323 49.2084 2.65796 49.3076 2.63686C49.2685 2.51557 49.1249 2.47074 48.9839 2.48393C48.9656 2.44438 48.9891 2.46547 49.023 2.44438C48.9786 2.44438 48.9342 2.44438 48.8899 2.4391C48.8403 2.42064 48.8011 2.33627 48.6549 2.33099C48.6862 2.30463 48.6601 2.31781 48.7123 2.30463C48.6679 2.2598 48.54 2.19652 48.4512 2.19652C48.446 2.19124 48.4329 2.18333 48.4251 2.17015C48.4434 2.15697 48.4642 2.15169 48.4825 2.13851C48.3363 2.11214 48.305 2.07523 48.211 2.12532C48.1274 2.05413 48.1353 2.02249 47.9943 2.00403C47.9995 1.99085 48.0125 1.97766 48.0204 1.96448C47.9133 1.93284 47.8036 1.90647 47.6966 1.8801C47.6966 1.87483 47.6966 1.86692 47.6966 1.86692C47.7279 1.86164 47.754 1.86164 47.7801 1.85373C47.7854 1.80364 47.7854 1.82209 47.7671 1.77727C47.8689 1.80364 47.9629 1.82737 48.0726 1.86164C48.0778 1.84846 48.0856 1.84319 48.0987 1.83528C48.036 1.77199 47.9473 1.73244 47.8585 1.73244C47.8585 1.72717 47.8637 1.70607 47.8715 1.69289C47.9159 1.70607 47.9655 1.73244 48.0178 1.74299C48.0178 1.72981 48.023 1.72981 48.0308 1.72981C48.0308 1.71135 48.0308 1.69816 48.0308 1.68498C47.9107 1.59533 47.8846 1.59006 47.694 1.6006C47.7384 1.54259 47.7514 1.56105 47.8271 1.55578V1.5505C47.694 1.44239 47.4903 1.49249 47.3441 1.41075C47.3441 1.41075 47.2161 1.26309 47.1926 1.24991C47.0986 1.1919 46.7488 1.12862 46.6861 1.12071C46.6913 1.10225 46.7044 1.08906 46.7122 1.07588C46.579 1.01787 46.4511 0.980956 46.3127 0.909763H46.2814H46.3127C46.344 0.915036 46.3832 0.915036 46.4198 0.915036C46.4198 0.909763 46.4198 0.896579 46.4198 0.896579C46.3493 0.793744 45.7357 1.04951 45.626 1.21036C45.5816 1.18399 45.874 1.43448 45.7983 1.4213C45.7853 1.43448 45.78 1.44767 45.7591 1.46085H45.733C45.7774 1.52414 46.062 1.51095 46.1273 1.51095C46.1325 1.52414 46.1404 1.53732 46.1404 1.54259C46.096 1.56896 46.0777 1.52414 46.0124 1.54259C45.9994 1.54259 45.9942 1.54259 45.9811 1.54259C46.0203 1.63752 46.109 1.61379 46.203 1.58214C46.2161 1.61379 46.2213 1.65334 46.2344 1.68498C46.1717 1.66652 46.1404 1.65861 46.062 1.65861C46.0881 1.75354 46.2526 1.77463 46.3675 1.7799C46.3728 1.76145 46.3728 1.74826 46.3806 1.72981C46.3362 1.71135 46.2918 1.70344 46.2474 1.69816C46.2526 1.6718 46.2605 1.64806 46.2657 1.6217C46.3414 1.64806 46.3806 1.69289 46.4929 1.71135C46.5111 1.78254 46.532 1.8511 46.5555 1.92229C46.3388 1.94866 46.1247 1.97239 45.9158 1.99348C45.9106 2.00667 45.9028 2.01194 45.8975 2.01985C45.9419 2.06468 45.9915 2.1095 46.0359 2.14906V2.16224C45.8845 2.12269 45.72 2.15697 45.5868 2.13587C45.2892 2.08577 45.0594 1.92493 44.7695 2.10423C44.7748 2.11741 44.7826 2.1306 44.7826 2.14378C44.8583 2.29144 45.1194 2.23343 45.2918 2.2598ZM35.9518 31.8947C36.1163 32.1637 36.2626 32.5407 36.4715 32.7596C36.9153 33.2131 37.6308 33.4583 37.9102 34.0463C38.0433 34.1808 38.1765 34.31 38.3097 34.4445C38.3045 34.5025 38.2966 34.5737 38.2914 34.6291C38.3097 34.8136 38.3932 35.072 38.3619 35.2619C38.3488 35.3515 38.3175 35.4676 38.3306 35.5572C38.3436 35.6284 38.3567 35.6864 38.3697 35.7418C38.3384 35.9264 38.2548 36.1189 38.2548 36.3562C38.1974 36.3746 38.2287 36.3614 38.1608 36.3562C38.1608 36.4194 38.1556 36.4906 38.1556 36.5539H38.2183C38.2 36.6752 38.1869 36.7965 38.1687 36.9178C38.1869 37.0391 38.2 37.1604 38.2131 37.2896C38.2 37.3344 38.1243 37.3529 38.1112 37.4241C38.1165 37.4689 38.1295 37.5269 38.1373 37.5717C38.1191 37.8143 38.0668 38.0332 37.999 38.1808C37.9232 38.3285 37.999 38.4814 37.871 38.5711C37.8893 38.7688 37.9546 38.8664 37.9415 39.0773C37.8919 39.0905 37.9102 39.0905 37.8527 39.0905C37.8136 39.552 38.0433 39.8025 37.9023 40.1479C37.9206 40.1531 37.9728 40.2955 37.952 40.3404C37.8371 40.6489 37.7039 40.9416 37.6804 41.3002C37.6673 41.2817 37.6543 41.2738 37.636 41.2606C37.636 41.3318 37.636 41.3898 37.636 41.4452C37.5968 41.432 37.5603 41.4188 37.5211 41.4056C37.5159 41.4056 37.5081 41.4109 37.5081 41.4188C37.5342 41.6693 37.6543 41.9435 37.7561 42.1624C37.7431 42.4498 37.5733 42.5342 37.7875 42.8664C37.7875 42.8849 37.7875 42.906 37.7875 42.9244C37.7692 42.9112 37.7431 42.898 37.7248 42.8796C37.6804 43.0141 37.7509 43.1538 37.7196 43.3147C37.764 43.3727 37.8136 43.3779 37.8919 43.4096C37.9102 43.4096 37.9232 43.4043 37.9363 43.3964C37.9624 43.2487 37.9493 43.0774 37.8788 42.9666C37.8841 42.9534 37.8971 42.9402 37.905 42.935C37.9363 42.9481 37.9676 42.9666 37.9937 42.9798H38.012C37.999 42.9165 38.0381 42.9297 37.9807 42.9218C37.9937 42.9033 37.999 42.8822 38.0068 42.8638C38.0329 42.8901 38.0512 42.9218 38.0825 42.9481C38.0695 42.9745 38.0512 42.9877 38.0381 43.0062C38.1086 43.0563 38.14 43.2118 38.0512 43.2435C38.0825 43.2619 38.1008 43.283 38.1269 43.3015C38.0877 43.5309 38.1321 43.6996 38.1269 43.9475H38.1008C38.0825 43.8763 38.0251 43.6654 38.0564 43.6469C38.0068 43.5704 37.9546 43.5256 37.8736 43.494C37.824 43.5572 37.7979 43.6469 37.7848 43.7445C37.824 43.784 37.8606 43.8209 37.8997 43.8605C37.8945 43.9238 37.8945 43.9818 37.8867 44.053H37.7927V44.0661C37.8057 44.0925 37.8188 44.1242 37.8318 44.1505C37.8005 44.1769 37.7613 44.2006 37.73 44.2349C37.73 44.2534 37.73 44.2745 37.73 44.2929C37.7613 44.3114 37.7875 44.3246 37.8188 44.343C37.8371 44.3246 37.8632 44.3114 37.8762 44.2929C37.9389 44.343 38.059 44.3641 38.1243 44.4327C38.106 44.4274 38.0851 44.4142 38.0747 44.4142C38.093 44.459 38.0877 44.4458 38.1138 44.4722C38.1008 44.517 38.0877 44.5619 38.0747 44.6067C38.0251 44.575 38.012 44.5619 37.9363 44.5566V44.5698C37.9493 44.583 37.9624 44.5961 37.9755 44.6093C37.9572 44.6225 37.9311 44.6357 37.9128 44.6489C37.9833 44.7886 38.0016 44.9943 38.0903 45.1103C38.153 45.142 38.2183 45.1736 38.281 45.2052C38.2418 45.1921 38.2052 45.1868 38.1739 45.1789V45.1921C38.187 45.2422 38.2 45.3002 38.2131 45.3582C38.2392 45.3634 38.2575 45.3766 38.2888 45.3845C38.3018 45.345 38.3201 45.3002 38.3384 45.2553C38.3515 45.2949 38.3645 45.3265 38.3776 45.3582H38.3279C38.3227 45.3634 38.3149 45.3635 38.3149 45.3714C38.3645 45.4478 38.3776 45.4874 38.3776 45.6008C38.435 45.5876 38.4925 45.5691 38.5421 45.5507C38.5734 45.5823 38.5682 45.5902 38.6256 45.6008C38.6126 45.6192 38.6073 45.6403 38.5995 45.6588C38.5551 45.6456 38.5107 45.6324 38.4611 45.6192C38.4559 45.6245 38.4559 45.6324 38.4481 45.6456C38.4977 45.7352 38.5682 45.7853 38.6517 45.8381C38.6465 45.8196 38.6334 45.7985 38.6256 45.788C38.7092 45.846 38.7771 45.9093 38.8528 45.9805V45.9936C38.7823 45.962 38.7144 45.9304 38.6361 45.8908C38.7301 46.0121 38.8006 46.0517 38.9154 46.0701C38.9024 46.1149 38.9154 46.0754 38.8972 46.1202C39.0042 46.2151 39.4429 46.5105 39.563 46.4841C39.563 46.5342 39.5682 46.4973 39.5499 46.5342C39.6779 46.6634 40.0957 46.8163 40.2915 46.8664V46.8532C40.2602 46.8216 40.2341 46.79 40.2027 46.7504C40.3411 46.8084 40.4377 46.7636 40.5317 46.8532V46.7952C40.6022 46.8084 40.6649 46.8137 40.7223 46.8216H40.7354C40.7406 46.8163 40.7484 46.8084 40.7537 46.7952C40.7537 46.782 40.7484 46.7689 40.7484 46.7504C40.3881 46.7056 40.2602 46.3865 39.9677 46.3022C39.9808 46.2837 39.9938 46.2626 40.0069 46.2441C39.9181 46.1545 39.8111 46.1598 39.7353 46.0648C39.7223 46.0648 39.7171 46.0596 39.7092 46.0517C39.7223 46.0464 39.7353 46.0332 39.7536 46.0253C39.8163 46.0517 39.8868 46.0754 39.9494 46.1149C39.9494 46.1097 39.9494 46.0965 39.9494 46.0886C39.8424 45.9541 39.6701 45.8592 39.6518 45.6271C39.657 45.6139 39.657 45.6087 39.6648 45.5955C39.7275 45.5823 39.7928 45.5691 39.8554 45.5559C39.9051 45.5164 39.8868 45.4346 39.8816 45.3371C39.9703 45.2738 40.1479 45.2342 40.2184 45.1578C40.2445 45.1261 40.2445 45.0365 40.2314 44.9468C40.0095 44.7992 39.6805 44.7544 39.7562 44.4274C39.8581 44.343 39.9964 44.3114 40.1296 44.3641H40.1871C40.174 44.314 40.1923 44.3377 40.1427 44.314C40.174 44.256 40.1871 44.2639 40.2445 44.2428C40.2497 44.1584 40.2262 44.082 40.2001 44.0055C40.2576 43.9211 40.3019 43.8842 40.4403 43.8842C40.409 43.8209 40.3254 43.7998 40.2758 43.755C40.2706 43.7497 40.2628 43.7418 40.2497 43.7418C40.2811 43.7286 40.3124 43.7155 40.3437 43.7023C40.4142 43.7471 40.4377 43.7735 40.4769 43.8499C40.5161 43.8552 40.5526 43.8631 40.5918 43.8684C40.6048 43.8499 40.6179 43.8367 40.6309 43.8236C40.6309 43.7339 40.6257 43.7023 40.5918 43.6574C40.5787 43.6443 40.5735 43.6311 40.5604 43.6179C40.5108 43.6179 40.4586 43.6232 40.4142 43.6311C40.4325 43.6495 40.4586 43.6706 40.4769 43.6812V43.6996C40.4508 43.6864 40.4194 43.6812 40.3881 43.668C40.3385 43.6363 40.3385 43.6047 40.2497 43.5731C40.2053 43.4887 40.2053 43.3305 40.1662 43.2276C40.268 43.0984 40.503 43.3569 40.6414 43.3938C40.7432 43.3885 40.8581 43.3885 40.9652 43.3753C40.9913 43.3252 41.0096 43.2804 41.0357 43.2276C41.0174 43.2329 40.9965 43.2461 40.973 43.254C40.9599 43.2356 40.9417 43.2145 40.9234 43.2039C40.9939 43.1011 41.0827 42.9982 41.0304 42.8638C41.0487 42.877 41.0696 42.8822 41.0879 42.8901H41.1009C41.0879 42.8638 41.0827 42.84 41.0696 42.8137C41.2654 42.8901 42.1349 43.0193 42.3699 42.877C42.4274 42.8506 42.631 42.5948 42.712 42.5315C42.712 42.4683 42.712 42.4023 42.712 42.3391C42.5919 42.2942 42.5397 42.2889 42.5292 42.1466C42.5684 42.1149 42.5997 42.0754 42.6363 42.0437C42.5788 41.8011 42.3386 41.7748 42.2237 41.5823C42.242 41.5638 42.2629 41.5375 42.2812 41.5111C42.2942 41.5111 42.3073 41.5058 42.3203 41.4979C42.3595 41.5559 42.396 41.5744 42.4143 41.6508C42.5031 41.6693 42.5867 41.6904 42.6807 41.7089C42.7564 41.7669 42.8452 41.9277 42.947 41.9462C43.0305 41.9646 43.0932 41.9013 43.182 41.9462C43.2447 41.9778 43.289 42.0543 43.3987 42.0411C43.6703 42.0094 43.7225 41.8802 43.8818 41.7669C43.9836 41.7273 44.0724 41.6825 44.1742 41.6377C44.2447 41.548 44.3126 41.4531 44.3909 41.3634C44.5685 41.287 44.746 41.2026 44.9236 41.1261C45.1403 40.9864 45.2526 40.7227 45.4563 40.5698C45.7043 40.3773 46.0203 40.3404 46.1169 39.9818C46.0986 39.9818 46.0777 39.9765 46.0673 39.9686C46.0986 39.8394 46.1116 39.6601 46.1821 39.4702C46.2448 39.3173 47.1979 38.8295 47.4433 38.9059C47.5008 38.9455 47.5504 38.9903 47.6078 39.0351C47.613 39.0035 47.6209 38.9719 47.6339 38.9323C47.6156 38.927 47.5948 38.927 47.5765 38.9191V38.9059C47.7044 38.8743 47.8245 38.6871 47.9446 38.7266C47.989 38.6871 47.989 38.7003 47.9446 38.6554V38.6159C48.1979 38.6159 48.6862 38.7187 48.9264 38.8348C48.9525 38.8031 48.9525 38.8031 48.9969 38.7846C48.9839 38.5658 49.2371 38.6502 49.4016 38.579C49.5035 38.4893 49.5087 38.2336 49.668 38.1624C49.9212 38.0279 49.9082 37.9514 50.0857 37.8301C50.1615 37.78 50.245 37.7853 50.2946 37.7088C50.4722 37.4082 50.3521 37.2738 50.7255 37.1393C50.7829 36.9336 50.8404 36.7754 50.9526 36.6198C51.0153 36.5566 51.0727 36.4906 51.1302 36.4142C51.1929 36.2349 51.1563 36.0819 51.2242 35.9158C51.2999 35.7365 51.4514 35.6284 51.4722 35.3964C51.6367 35.3014 51.783 35.3331 51.9422 35.2223C52.1772 35.0167 52.4044 34.8136 52.6394 34.608C52.723 34.5895 52.7987 34.5684 52.8875 34.5579C52.9893 34.4682 53.0963 34.3918 53.1982 34.3074C53.5716 34.0648 53.8771 33.8459 54.0285 33.366C54.0285 33.2764 54.0337 33.1815 54.0416 33.0918C54.0807 32.9178 54.2818 31.7787 54.2766 31.7787C43.7434 31.7655 35.9518 31.8947 35.9518 31.8947ZM36.3644 11.9289C36.4662 12.0054 36.7508 11.8445 36.8971 11.8445C36.9545 11.921 37.0877 12.248 37.1634 12.2664C37.2783 12.5301 36.9597 12.6567 36.9911 12.8544C36.9963 12.8544 37.0093 12.8597 37.0224 12.8729C37.072 12.8149 37.0668 12.8228 37.0485 12.7569C37.0616 12.7516 37.0668 12.7516 37.0798 12.7437C37.106 12.8149 37.0746 12.8017 37.1425 12.807C37.0929 12.8465 37.0485 12.8782 36.9911 12.923C36.965 12.9731 37.0041 13.1155 37.0224 13.2368C37.0407 13.242 37.0668 13.25 37.0851 13.2552C37.0981 13.242 37.1033 13.2236 37.1112 13.2051C37.1164 13.2104 37.1242 13.2236 37.1242 13.2315C37.0746 13.3027 37.0746 13.3343 37.0355 13.3976C37.0668 13.4029 37.0537 13.3976 37.0851 13.3844C37.1164 13.4293 37.1295 13.4609 37.1112 13.5374C37.1164 13.7483 37.3331 13.7483 37.2391 13.9724C37.3096 14.0753 37.5498 14.0041 37.6125 14.0173C37.6073 13.8432 37.8214 13.6639 37.8971 13.5057C37.9911 13.2869 37.9023 12.9942 37.9023 12.7384C37.9285 12.7252 37.952 12.72 37.9859 12.7068C37.9546 12.5143 37.9232 12.3165 37.8971 12.124C37.9598 11.3752 38.5499 11.1959 39.14 11.0166C39.4194 10.9269 39.3176 10.6896 39.8241 10.7925C39.9573 10.542 40.3881 10.5947 40.6362 10.5288C40.6414 10.5235 40.6414 10.5103 40.6492 10.5024C40.5996 10.4708 40.6101 10.4892 40.5866 10.4259V10.4128C40.6492 10.3679 40.8581 10.3231 40.9364 10.3231C40.9626 10.2915 40.9861 10.2598 41.0122 10.2203C40.9626 10.157 40.8659 10.1174 40.7589 10.1122C40.7589 10.1069 40.7589 10.099 40.7589 10.099C40.8529 10.1122 40.9364 10.1254 41.0252 10.1438C41.0252 10.1755 41.0252 10.215 41.0252 10.2466C41.0304 10.2414 41.0644 9.96451 41.0696 9.81685C41.0435 9.80366 41.02 9.79839 40.9861 9.79048C40.9417 9.75884 40.9808 9.78521 40.973 9.71929C40.973 9.66128 41.067 9.5268 41.1114 9.46352C41.0722 9.43188 41.1114 9.20775 41.1166 9.14447C41.1793 9.08118 41.2446 9.02317 41.3072 8.97044C41.1479 9.18929 41.2315 9.19457 41.1793 9.45033C41.2237 9.46352 41.2628 9.4767 41.2994 9.48989C41.2237 9.56635 41.1401 9.59272 41.0905 9.69556C41.0905 9.70083 41.0853 9.70874 41.0774 9.72192C41.1036 9.74829 41.0957 9.74038 41.1479 9.75357C41.2237 9.57954 41.5474 9.47143 41.6858 9.24203C41.597 9.15238 41.6414 9.09437 41.6101 8.97307C41.6728 9.03108 41.6989 9.07591 41.7929 9.10755C41.7798 9.13392 41.7615 9.15238 41.7433 9.17875V9.19193C41.9522 9.2183 42.2446 8.94143 42.3386 8.7885C42.3203 8.74367 42.3386 8.76213 42.2942 8.7384C42.2942 8.73313 42.289 8.71994 42.2812 8.71203C42.5292 8.67248 42.8843 8.75158 43.1507 8.72522C43.1245 8.69357 43.1063 8.66193 43.0802 8.63557C42.8765 8.66193 42.6937 8.58547 42.49 8.63029C42.7303 8.43781 43.4718 8.71467 43.7956 8.58547C43.8269 8.66984 43.9105 8.66193 44.0672 8.66984C44.0802 8.64348 44.1063 8.61974 44.1246 8.59338C44.1115 8.56701 44.0985 8.54855 44.0802 8.53009C44.0489 8.60129 44.075 8.60656 43.9967 8.60656C43.9653 8.60129 43.9262 8.59338 43.8896 8.5881C43.8635 8.51164 43.9027 8.39034 43.7564 8.36925C43.7564 8.36398 43.7564 8.35607 43.7564 8.34288C43.8191 8.3297 43.8896 8.31124 43.947 8.29806C43.934 8.27169 43.9157 8.23477 43.8974 8.2084C43.9862 8.1003 44.182 8.0291 44.2656 7.95264C44.4823 7.99219 44.6207 7.98428 44.8374 7.87617C44.8688 7.91572 44.8635 7.90254 44.8635 7.95264C45.1299 7.93418 45.3832 7.95264 45.6625 7.88144C45.6495 7.8498 45.6364 7.81816 45.6234 7.79179C45.6547 7.79179 45.7957 7.8498 45.8401 7.85507C46.049 7.8999 46.4485 7.85507 46.626 7.79707C46.6391 7.80234 46.6443 7.81025 46.6521 7.82871C46.5816 7.83398 46.5242 7.86035 46.4615 7.87353C46.4563 7.87881 46.4485 7.89199 46.4485 7.8999C46.519 7.91308 46.5947 7.93154 46.6652 7.94473C46.4041 7.98428 46.1378 8.0291 45.8793 8.07393C45.874 8.0792 45.874 8.09239 45.8662 8.1003C45.8975 8.09502 45.9289 8.08711 45.9602 8.07393C45.9419 8.08711 45.921 8.09239 45.9028 8.1003C45.8401 8.17676 45.8192 8.18467 45.8192 8.32442C45.8453 8.3297 45.8766 8.3297 45.9028 8.3297C45.9524 8.40089 45.921 8.44572 46.0307 8.45099C46.2213 8.46417 46.3989 8.33497 46.6078 8.32179C46.6339 8.27169 46.613 8.25059 46.6783 8.22686C46.6835 8.24005 46.6965 8.25323 46.7044 8.27169C46.7226 8.25323 46.7435 8.23214 46.7618 8.22159C46.7749 8.31124 46.8245 8.31124 46.895 8.33761C47.0099 8.20841 47.7436 8.36925 47.9603 8.30597C47.9655 8.30597 47.9734 8.30597 47.9864 8.30597C47.9473 8.26114 47.9107 8.24796 47.8219 8.24268C47.8611 8.22423 47.8663 8.2295 47.8924 8.19258C48.0569 8.25059 48.2423 8.21104 48.4747 8.21895V8.1794C48.4799 8.09502 48.3546 8.02647 48.2658 8.01856V8.00537C48.305 7.96055 48.3415 7.92099 48.3729 7.87617C48.3415 7.83134 48.3468 7.85771 48.3468 7.79179C48.3206 7.78652 48.2971 7.77861 48.2632 7.77333C48.13 7.83662 47.8141 7.92099 47.8063 8.11348C47.7123 8.12666 47.6679 8.11875 47.66 8.01065C47.3441 8.04229 47.2161 7.88144 46.955 7.8498C46.9368 7.83134 46.9159 7.7997 46.8976 7.77861C46.9159 7.77861 46.9368 7.77861 46.955 7.77861C46.955 7.77333 46.9603 7.76015 46.9681 7.75224C46.8845 7.7206 46.8088 7.68896 46.72 7.65732C46.6756 7.62567 46.6365 7.49647 46.6051 7.43846C46.6234 7.41209 46.6495 7.39364 46.6678 7.38045C46.6286 7.34881 46.5921 7.33563 46.5164 7.33563V7.30926C46.6626 7.2908 46.7253 7.21433 46.8663 7.15632C46.8715 7.14314 46.8845 7.12468 46.8924 7.10623C46.8924 7.10095 46.8924 7.10095 46.8924 7.09304C46.754 7.13259 46.6313 7.1115 46.4302 7.10623C46.4041 7.0113 46.3284 6.97175 46.2213 6.95329C46.2213 6.94011 46.2161 6.93483 46.2083 6.92692C46.3989 6.94011 46.4615 7.02976 46.6208 7.04822C46.7592 7.02976 46.9054 7.00866 47.0464 6.99021C47.0516 6.97702 47.0516 6.96384 47.0516 6.95065C47.0908 6.91901 47.0516 6.91901 47.0386 6.86628C47.0516 6.87155 47.0699 6.87946 47.0882 6.88474V6.87155C46.7514 6.41802 45.579 6.57096 45.0724 6.66588C44.8635 6.70543 44.7304 6.89528 44.451 6.89528C44.5711 6.77399 45.2892 6.50504 45.5111 6.43384C45.5111 6.43384 45.9602 6.46549 45.9994 6.46021C46.0385 6.42066 46.0751 6.37583 46.1195 6.32574C46.3023 6.23081 46.5764 6.26773 46.8245 6.33101C47.1352 6.42593 47.4407 6.4523 47.7514 6.56041C47.9473 6.6316 48.5374 6.87419 48.741 6.84255C48.9003 6.81618 49.0387 6.77135 49.1849 6.70807C49.5087 6.56832 50.1745 6.91901 50.4017 6.66852C50.42 6.61842 50.4147 6.66324 50.3886 6.59732C50.4017 6.6026 50.4069 6.61051 50.4147 6.61051C50.4539 6.53932 50.4147 6.3231 50.4591 6.24663C50.3834 6.22026 50.2999 6.18862 50.232 6.16225C50.232 6.11743 50.232 6.15698 50.245 6.10424C50.0988 6.09106 50.0936 6.05942 49.997 6.06469C49.9709 5.89857 49.8246 5.84584 49.6549 5.82211C49.6549 5.82211 49.6549 5.81683 49.6549 5.80892C49.775 5.82211 49.8899 5.83529 50.01 5.85375C49.9526 5.7641 49.8011 5.75091 49.7829 5.65599C49.668 5.62435 49.574 5.65072 49.4774 5.59271C49.4277 5.56106 49.4382 5.55315 49.4382 5.50306C49.3807 5.4635 49.2293 5.47669 49.1771 5.43186C49.1196 5.38176 49.1066 5.32903 49.0126 5.29211C48.9943 5.2341 48.9812 5.26574 49.0256 5.22883C49.0204 5.19719 48.7776 5.02316 48.6705 4.99943C48.7149 4.96779 48.7019 4.98097 48.7463 4.98097C48.7515 4.94933 48.7515 4.86495 48.7593 4.77003C48.728 4.75157 48.6966 4.73839 48.6653 4.7252C48.6523 4.71993 48.6966 4.64873 48.6966 4.56436C48.5687 4.51426 48.4303 4.46152 48.4486 4.32177C48.4225 4.32177 48.4042 4.3165 48.3781 4.3165C48.3024 4.1873 47.9838 3.78387 47.9916 3.6573C47.6626 3.74695 47.2318 4.29013 46.767 3.92098C46.6965 3.92625 46.6469 3.80496 46.5007 3.7865C46.4955 3.74695 46.4955 3.71004 46.4876 3.67048C46.4563 3.66521 46.4302 3.6573 46.3989 3.65203C46.438 3.54392 46.4746 3.52282 46.4694 3.3778C46.519 3.35934 46.5634 3.33825 46.6208 3.31452C46.6078 3.29606 46.5947 3.27497 46.5764 3.25123C46.5373 3.26969 46.4929 3.28288 46.4563 3.30133C46.3675 3.1985 46.1639 3.15367 46.0124 3.10885C46.0072 3.10357 45.9994 3.09039 45.9994 3.08248V3.0693C46.0255 3.05084 46.0176 3.05611 46.062 3.04293C46.062 3.04293 46.062 3.03765 46.062 3.02974C45.955 2.93482 45.7383 2.77397 45.6051 2.72124C45.4902 2.72651 45.3832 2.72651 45.263 2.73442C44.9837 2.6395 44.7121 2.52348 44.4249 2.52875C44.3988 2.55512 44.3674 2.58676 44.3413 2.61313C44.3361 2.63159 44.3361 2.64477 44.3283 2.66323C44.3544 2.69487 44.3465 2.69487 44.3909 2.71333C44.3335 2.78452 44.2578 2.82144 44.1429 2.84253C44.2499 2.97173 44.1742 2.99019 44.2317 3.06666C44.1873 3.11148 43.8583 3.24069 43.7382 3.24596C43.7251 3.27233 43.712 3.29606 43.699 3.32243C43.8635 3.37253 44.0149 3.507 44.0228 3.72586C43.8844 4.03964 43.5528 4.09764 43.1533 4.16093C43.0149 4.1662 42.8739 4.1662 42.7355 4.17411H42.7042C42.7172 4.23212 42.7042 4.31386 42.7799 4.34814C42.7094 4.48789 42.5579 4.65665 42.665 4.81485C42.5893 4.86495 42.4927 4.94406 42.3987 4.94406C42.3987 4.98361 42.3987 5.02052 42.3934 5.06007C42.3804 5.06535 42.3621 5.06535 42.3438 5.07326C42.3386 5.02843 42.3125 5.02843 42.2942 4.97042C42.1793 4.98361 42.1219 5.02843 42.0462 5.07326C41.9965 5.0548 41.9522 5.02843 41.9078 5.00998C41.8686 4.79112 41.7302 4.66456 41.6414 4.4668C41.7041 4.40351 41.7694 4.35078 41.819 4.27431C41.819 4.22948 41.8138 4.19784 41.8138 4.1662C41.8895 4.08182 41.9731 4.04491 42.0357 3.94207C41.7511 3.92362 40.9391 3.67312 40.7798 3.51228C40.7171 3.46218 40.7041 3.33297 40.6205 3.26969C40.4926 3.20641 40.3724 3.15367 40.2471 3.09566C40.1087 3.09566 39.9677 3.09566 39.8293 3.10094H39.8032C39.8972 2.99283 39.9625 2.84517 40.0434 2.72388C39.9729 2.69223 39.8711 2.68432 39.7588 2.69223C39.7588 2.67378 39.7588 2.64741 39.7641 2.62895C40.0252 2.31517 40.879 2.00139 41.2472 2.01985C41.2289 2.00139 41.208 1.9803 41.1976 1.96184C41.3255 1.96712 41.4691 1.98821 41.6153 1.96712C41.6649 1.89592 41.6545 1.89592 41.6101 1.83791H41.5709V1.83264C41.7877 1.89592 42.5031 1.88274 42.8269 1.71662C42.8765 1.68498 42.8399 1.70344 42.8269 1.66652C42.9731 1.64015 43.1115 1.60851 43.2525 1.57687H43.2838V1.56896C43.2525 1.54259 43.2394 1.53732 43.1898 1.52414C43.1846 1.51095 43.1846 1.50568 43.1768 1.49777C43.2708 1.50304 43.3674 1.51095 43.4562 1.52414C43.4562 1.59533 43.6598 1.72981 43.7538 1.75354C43.7799 1.72717 43.759 1.75354 43.7669 1.71398C43.7721 1.70871 43.7799 1.7008 43.7799 1.7008C43.7486 1.7008 43.7669 1.69553 43.7303 1.71398C43.712 1.66389 43.699 1.65597 43.6363 1.61115C43.6363 1.60588 43.6363 1.60588 43.6363 1.59797C43.6859 1.61642 43.7303 1.64279 43.7695 1.66125C43.7695 1.6217 43.7643 1.58478 43.7643 1.54523C43.8139 1.58478 43.8661 1.6217 43.9235 1.66125C43.9235 1.64806 43.9235 1.63488 43.9288 1.6217C44.1559 1.56369 44.3727 1.5716 44.5502 1.51359C44.511 1.48195 44.4797 1.44239 44.4432 1.40548C44.4562 1.40021 43.1742 0.682998 41.6911 0.71464C40.7276 0.727824 37.2783 1.91965 34.5523 3.31452C32.466 4.37715 30.8628 5.70345 30.7662 5.80629C29.928 6.53668 29.1369 7.43319 28.7113 8.52746C28.6616 8.57756 28.6173 8.63029 28.565 8.69357C28.5337 8.76477 28.2935 9.39233 28.2935 9.42397C28.3327 9.42397 28.3692 9.42924 28.4084 9.42924C28.3823 9.61382 28.4971 9.62173 28.4397 9.84585C28.3692 10.1781 28.142 10.5815 28.035 10.9401C28.0167 11.0166 27.9462 11.1959 27.9645 11.2935C27.9828 11.4227 28.0272 11.5809 27.9828 11.7417C27.9332 11.8314 27.8809 11.921 27.8313 12.0107C27.7687 12.0107 27.7478 12.0291 27.6799 12.0054C27.6747 12.0107 27.6747 12.0107 27.6668 12.0107C27.6407 12.1952 27.7164 12.306 27.706 12.4642C27.7452 12.4642 27.7321 12.4642 27.7687 12.4378C27.8757 12.7331 27.8183 13.0469 27.6094 13.2447C27.672 13.5136 27.813 13.6666 27.7608 14.0832V14.0964C27.7739 14.0964 27.7791 14.1016 27.7869 14.1016C28.0272 13.8511 27.9697 13.8775 27.9958 13.5585C27.9828 13.5268 27.9775 13.4873 27.9697 13.4635C27.9436 13.4899 27.9253 13.5136 27.907 13.5479C27.9018 13.5479 27.9018 13.5479 27.894 13.5479C27.8627 13.337 28.0715 12.8043 28.1159 12.5802C28.142 12.4325 28.0663 12.1821 28.1029 12.0107C28.1917 11.602 28.236 10.7239 28.5729 10.4681C28.5859 10.4998 28.6042 10.5261 28.6225 10.5631C28.6355 10.5446 28.6538 10.5314 28.6669 10.5235C28.7426 10.7608 28.4502 11.1194 28.4893 11.4385C28.4136 11.4886 28.3823 11.5281 28.33 11.6125C28.3431 11.6178 28.3562 11.631 28.3692 11.6441C28.3953 11.6178 28.4188 11.5861 28.4449 11.5598C28.4449 11.6441 28.4058 11.8999 28.4893 11.9764C28.5076 12.008 28.4893 11.9896 28.5285 11.9817C28.5337 11.9869 28.5415 12.0001 28.5546 12.008C28.5102 12.1029 28.4658 12.1478 28.471 12.2954C28.5024 12.3218 28.4971 12.3139 28.5415 12.3271C28.5285 12.3772 28.5154 12.4352 28.5024 12.4932C28.5207 12.4932 28.5415 12.4879 28.565 12.4879C28.565 12.6672 28.4945 12.7252 28.4058 12.8465C28.424 13.0126 28.4998 13.0522 28.5703 13.1788C28.5206 13.2368 28.5259 13.2684 28.5076 13.3528C28.6355 13.5321 28.8053 14.7371 28.5572 14.9164C28.4998 15.0061 28.4998 14.9797 28.5311 15.0693C28.4867 15.1273 28.4606 15.1194 28.3979 15.1458C28.2073 15.6125 28.6199 15.7338 28.6251 16.1135C28.6564 16.1267 28.6825 16.1531 28.7191 16.1715C28.7191 16.1715 30.2283 16.1214 31.1291 16.1003C31.1605 16.1003 31.0665 16.0687 31.0221 16.037C30.9829 15.9922 30.8054 15.0693 30.8393 14.9349C30.8706 14.89 30.8968 14.8452 30.9281 14.7951C30.8001 14.4998 31.0038 14.1992 31.1187 13.9434C31.2127 13.7061 31.3015 13.482 31.3903 13.2526C31.479 13.1498 31.6514 13.1761 31.701 12.9836C31.7323 12.8544 31.6749 12.7331 31.7401 12.567C31.7976 12.4194 31.9621 12.3745 31.9569 12.1821C32.0456 12.1873 32.1919 12.124 32.2049 12.0528C32.218 12.0212 32.2362 12.0027 32.2493 11.9764C32.2545 12.0265 32.2545 12.008 32.2362 12.0608C32.2989 12.0291 32.2806 12.0159 32.312 12.0212C32.3302 12.0027 32.3511 11.9764 32.3694 11.95C32.3511 11.9316 32.3381 11.9105 32.325 11.8867C32.56 11.9131 32.7376 11.8155 32.9412 11.7022C33.0692 11.7338 33.017 11.6441 33.0039 11.573C33.0352 11.5334 33.0744 11.5229 33.1188 11.4965C33.1188 11.5018 33.124 11.5097 33.1319 11.5097C33.1136 11.5281 33.0927 11.5492 33.0744 11.5677L33.124 11.594C33.1815 11.6441 33.3956 11.5229 33.5287 11.536C33.6489 11.5492 33.923 11.6573 34.017 11.7101C34.0301 11.7101 34.0431 11.7101 34.0562 11.7048C34.0562 11.6916 34.0562 11.6732 34.0562 11.6547C34.0249 11.6547 33.9987 11.6494 33.9674 11.6494C33.9622 11.6362 33.9544 11.6231 33.9544 11.6046C33.9857 11.5914 34.0249 11.5861 34.0562 11.573C34.0692 11.6231 34.1502 11.7022 34.1894 11.7523C34.1841 11.7575 34.1763 11.7654 34.1632 11.7707C34.158 11.7839 34.1502 11.7971 34.1371 11.8103C34.1815 11.8498 34.2259 11.8815 34.2651 11.9131C34.3356 11.8867 34.3982 11.863 34.4557 11.8366C34.4687 11.8683 34.474 11.8999 34.4818 11.9263C34.5836 11.9078 34.5889 11.8551 34.6463 11.7971C34.6959 11.8551 34.7481 11.9368 34.8186 11.9764C34.8317 11.9817 34.8447 11.9896 34.8578 11.9948C34.863 11.9948 34.8709 11.9948 34.8709 11.9948L34.9283 11.9316C34.8839 11.8867 34.8395 11.8472 34.7951 11.7971C34.7899 11.7918 34.7821 11.7839 34.769 11.7707C34.8082 11.7259 34.8395 11.7127 34.9152 11.6995C34.9466 11.6494 34.9335 11.6547 34.9283 11.5703C34.897 11.5888 34.8578 11.6151 34.8265 11.6336C34.8212 11.6336 34.8134 11.6336 34.8134 11.6336C34.8004 11.6204 34.7951 11.6151 34.7873 11.594C34.9962 11.4596 35.2364 11.4912 35.4531 11.5308C35.4662 11.4991 35.4845 11.4675 35.4975 11.4358C35.5106 11.4306 35.5236 11.4227 35.5367 11.4042C35.5367 11.4675 35.5367 11.5255 35.5367 11.5835C35.8422 11.6231 36.0641 11.4991 36.2913 11.7443C36.3383 11.7944 36.3383 11.9026 36.3644 11.9289Z" fill="#1A1A1A"/>
<path d="M45.6092 1.55042C45.5465 1.56887 45.4891 1.58997 45.4316 1.6137C45.4264 1.63216 45.4186 1.65852 45.4134 1.67698V1.69017C45.5074 1.74026 45.8076 1.79827 45.9278 1.73499C45.9539 1.70862 45.9904 1.68489 46.0165 1.65852C46.0165 1.64007 46.0165 1.62688 46.0165 1.6137C45.8808 1.58206 45.7868 1.55042 45.6092 1.55042ZM46.3246 1.59524C46.3508 1.62161 46.3246 1.60051 46.3638 1.62161C46.3508 1.6137 46.3377 1.60051 46.3246 1.59524ZM44.1522 2.2017C44.1339 2.18325 44.1209 2.16215 44.1026 2.13842C44.0321 2.09359 43.9433 2.07514 43.8545 2.08041C43.8676 2.04877 43.8937 2.01713 43.8989 1.98549C43.7919 1.9222 43.583 1.85101 43.5125 1.75608C43.4629 1.71126 43.5255 1.64007 43.4368 1.60315C43.4237 1.61633 43.4185 1.62952 43.4054 1.6427C43.1574 1.61633 42.878 1.74554 42.797 1.91693C42.6769 1.91166 42.5621 1.91166 42.4863 1.96703C42.5621 2.01185 42.7474 1.99867 42.8414 1.99867C42.8153 2.01185 42.8023 2.02504 42.784 2.03822C42.7709 2.06459 42.7579 2.08832 42.7396 2.11469C42.9433 2.15424 43.2723 2.09623 43.3924 2.01185C43.4759 2.03031 43.5517 2.05141 43.6195 2.06986C43.6013 2.08305 43.5752 2.08832 43.5569 2.09623C43.6822 2.20961 43.9172 2.21489 44.1522 2.2017Z" fill="#1A1A1A"/>
<path d="M43.4143 1.71655C43.4012 1.70337 43.3881 1.69019 43.3751 1.677C43.3699 1.70337 43.3568 1.7271 43.3438 1.75347C43.3751 1.74029 43.4064 1.7271 43.4377 1.71392H43.4143V1.71655ZM47.0907 2.21491C47.0724 2.20172 47.0594 2.18854 47.0411 2.17536C47.0907 2.1358 47.0724 2.18063 47.0672 2.11735C46.8949 2.11207 46.921 2.04615 46.7956 2.01451C46.7643 2.0277 46.733 2.04615 46.7016 2.06461C46.7277 2.11471 46.7277 2.12262 46.7016 2.18063C46.8766 2.17799 46.9262 2.18854 47.0907 2.21491ZM48.1952 2.06197C48.19 2.06725 48.19 2.08043 48.1821 2.08834C48.1873 2.08834 48.2004 2.08834 48.2082 2.08834C48.2004 2.08043 48.2004 2.06725 48.1952 2.06197Z" fill="#1A1A1A"/>
<path d="M47.1178 2.16479C47.1439 2.19116 47.1178 2.17007 47.1569 2.19116C47.1439 2.18325 47.1308 2.17007 47.1178 2.16479ZM43.1985 2.2228C43.128 2.24126 43.0601 2.26236 42.9766 2.28609C42.9818 2.31246 42.9896 2.3441 42.9896 2.37046C43.1933 2.35201 43.3839 2.36519 43.5667 2.31246C43.5667 2.29927 43.5719 2.294 43.5797 2.28609C43.4518 2.25972 43.3265 2.24126 43.1985 2.2228Z" fill="#1A1A1A"/>
<path d="M44.7377 2.2334C44.7377 2.24658 44.7377 2.25977 44.7377 2.27295H44.8264V2.25977C44.8029 2.25449 44.769 2.24131 44.7377 2.2334ZM46.7169 2.44698C46.6855 2.37051 46.5785 2.32569 46.4897 2.29932C46.4949 2.33096 46.4949 2.3626 46.5028 2.39424C46.4636 2.39424 46.4192 2.39424 46.3748 2.38897C46.3879 2.40215 46.3879 2.40743 46.3931 2.41534C46.5263 2.43379 46.6411 2.45489 46.743 2.48653C46.7351 2.47071 46.7221 2.45753 46.7169 2.44698ZM44.4974 2.3125C44.4922 2.31778 44.4922 2.33096 44.4844 2.33887C44.5235 2.36524 44.547 2.38897 44.5784 2.41534C44.6175 2.41534 44.6619 2.42852 44.6985 2.43379C44.6985 2.42852 44.7037 2.41534 44.7115 2.41534C44.7115 2.40215 44.7115 2.38897 44.7115 2.37579C44.6437 2.35733 44.5732 2.33096 44.4974 2.3125Z" fill="#1A1A1A"/>
<path d="M44.9282 2.34937C44.8838 2.34409 44.8394 2.33091 44.795 2.323C44.8211 2.38101 44.8524 2.38628 44.9021 2.42583C44.9151 2.42583 44.9412 2.42583 44.9595 2.42583C44.9647 2.41265 44.9647 2.40738 44.9726 2.39947C44.9595 2.38101 44.9464 2.36782 44.9282 2.34937ZM43.9516 2.46539C43.9072 2.48384 43.8576 2.49703 43.8132 2.51548C43.808 2.52867 43.7949 2.54713 43.7871 2.56558C43.8002 2.58404 43.8132 2.60514 43.8263 2.62359C43.9281 2.64205 43.9777 2.58404 44.0665 2.56558C44.0848 2.54713 44.1057 2.53394 44.1161 2.51548C44.0587 2.48384 44.0352 2.47066 43.9516 2.46539ZM46.0196 2.54185C46.0196 2.54713 46.0196 2.56031 46.0196 2.56822C46.0327 2.56295 46.0457 2.56295 46.0588 2.55504C46.0588 2.54976 46.0588 2.54976 46.0588 2.54185C46.0431 2.54185 46.0327 2.54185 46.0196 2.54185Z" fill="#1A1A1A"/>
<path d="M45.391 2.63672C45.4171 2.67627 45.4485 2.68154 45.4929 2.7C45.5111 2.7 45.532 2.7 45.5503 2.7C45.5138 2.671 45.4485 2.6499 45.391 2.63672ZM52.1199 2.94522C52.146 2.97159 52.1198 2.9505 52.159 2.97159C52.1329 2.94522 52.1564 2.96368 52.1199 2.94522ZM44.0098 2.8503C44.015 2.85557 44.028 2.86876 44.0359 2.87667C44.062 2.87667 44.0855 2.87667 44.1247 2.87667V2.86348C44.0803 2.85557 44.0489 2.85557 44.0098 2.8503ZM57.3368 3.88656C57.235 3.9182 57.1854 3.84173 57.0966 3.79163C57.0705 3.79163 57.0522 3.79691 57.0261 3.79691C57.0392 3.81009 57.0574 3.82328 57.0705 3.84173C56.9191 3.87337 56.7337 3.77054 56.577 3.73362C56.5718 3.7389 56.5718 3.74681 56.5639 3.74681C56.5692 3.76527 56.5901 3.78636 56.5953 3.80482C56.5248 3.75472 56.4752 3.70198 56.3733 3.6888V3.70198C56.4047 3.72835 56.4308 3.75208 56.4569 3.78636V3.79954C56.3864 3.77318 56.4073 3.75999 56.3498 3.80482C56.1984 3.68353 56.0652 3.5095 55.812 3.48577C55.8302 3.50422 55.8511 3.53059 55.8746 3.54905C55.8355 3.53587 55.8041 3.52268 55.7597 3.50422C55.7284 3.53587 55.6892 3.56223 55.6579 3.59387C55.6527 3.59915 55.6448 3.61233 55.6448 3.62552C55.8224 3.67034 56 3.71517 56.1723 3.75999C56.0835 3.818 55.9947 3.79163 55.8485 3.76527C55.8433 3.77054 55.8354 3.77845 55.8354 3.77845C55.8354 3.79163 55.8407 3.79691 55.8485 3.80482C56.0966 3.8681 56.1984 3.93929 56.3629 4.02367C56.3629 4.03686 56.3681 4.04213 56.3759 4.05531C56.3316 4.04213 56.2872 4.02895 56.2428 4.01576C56.2376 4.02103 56.2376 4.02895 56.2297 4.02895C56.235 4.05531 56.248 4.07377 56.2558 4.09223C56.6292 4.18715 57.5301 4.64332 57.8408 4.28471V4.26626C57.6815 4.16079 57.4465 4.00785 57.3368 3.88656Z" fill="#1A1A1A"/>
<path d="M46.4453 3.25378C46.4453 3.25906 46.4453 3.27224 46.4453 3.28015C46.4505 3.27488 46.4636 3.26169 46.4714 3.25378C46.4636 3.25378 46.4505 3.25378 46.4453 3.25378ZM47.7117 3.33025C47.7378 3.36189 47.7248 3.35662 47.7744 3.3698C47.7744 3.36453 47.7744 3.36453 47.7744 3.35662C47.7509 3.33552 47.7639 3.33552 47.7117 3.33025ZM48.0224 3.38562C47.9833 3.38035 47.9519 3.36717 47.9154 3.35926C47.9023 3.40408 47.9154 3.39881 47.8214 3.3909C47.8214 3.39617 47.8214 3.40408 47.8214 3.40408C47.8658 3.46209 47.9284 3.49901 47.9989 3.5201C48.0172 3.50164 48.0433 3.48846 48.0694 3.47C48.0485 3.44363 48.0355 3.41199 48.0224 3.38562Z" fill="#1A1A1A"/>
<path d="M46.9573 3.46997C46.939 3.4647 46.9129 3.4647 46.8946 3.45679C46.8764 3.46206 46.8633 3.46997 46.8502 3.48316C46.845 3.49634 46.832 3.50952 46.8241 3.52271C46.8685 3.55435 46.9442 3.54907 47.0069 3.53589C47.0121 3.53062 47.0252 3.52271 47.0252 3.50952C47.0017 3.49634 46.9756 3.48316 46.9573 3.46997ZM68.1177 15.3039C68.0472 15.1694 67.9845 15.0218 67.914 14.882C67.9271 14.9005 67.9401 14.9216 67.9584 14.94C67.9636 14.94 67.9715 14.9453 67.9845 14.9585V14.9242C67.9976 14.8609 67.9219 14.7765 67.8775 14.7053C67.8905 14.7053 67.8958 14.7001 67.9036 14.7001C67.9349 14.7317 67.9663 14.7713 67.9976 14.8029C67.9976 14.8029 68.0028 14.8029 68.0106 14.8029C67.9845 14.7528 67.9663 14.6869 67.948 14.6368C67.9924 14.6816 68.0368 14.7317 68.0942 14.7845C68.0237 14.6315 67.8409 14.323 67.6947 14.2597C67.713 14.2017 67.6895 14.2202 67.7443 14.2334C67.6999 14.0593 67.4388 13.9011 67.4075 13.6454C67.4127 13.6454 67.4127 13.6454 67.4258 13.6454C67.444 13.793 67.5459 13.7535 67.6085 13.8115C67.6085 13.8115 67.6138 13.8115 67.6216 13.8115C67.5641 13.7403 67.5145 13.6585 67.4623 13.5821C67.4884 13.5636 67.5119 13.5425 67.538 13.5241C67.6085 13.474 67.6581 13.619 67.7417 13.619C67.7469 13.677 67.7548 13.6823 67.7678 13.7482C67.7809 13.5821 67.7626 13.3711 67.7365 13.3131C67.666 13.2287 67.6164 13.1075 67.5537 12.9993C67.35 12.6592 67.1986 12.3718 67.0524 11.9736C67.0132 11.8787 65.7703 9.92484 64.1932 8.41923C62.556 6.87671 60.5847 5.8009 60.6108 5.79299C60.5664 5.83781 60.5272 5.87736 60.4593 5.89582C60.4724 5.98547 60.4541 5.99075 60.4907 6.04348C60.4463 6.05667 60.4202 6.07512 60.3705 6.10149C60.4202 6.17796 60.4854 6.22278 60.5298 6.28079C60.5429 6.3388 60.5481 6.38363 60.569 6.42845C60.6891 6.62094 60.9502 6.71059 61.052 6.93999C61.1147 6.95318 61.1147 6.93472 61.1591 6.90835C61.1722 6.96636 61.1983 7.01646 61.2165 7.07447C61.2792 7.15884 61.6422 7.36188 61.7753 7.28541C61.838 7.24586 61.8458 7.15093 61.8197 7.06656C61.8458 7.06128 61.8693 7.0481 61.8954 7.03492C61.8902 7.01646 61.8772 6.99536 61.8693 6.97163C61.8693 6.97163 61.8693 6.96636 61.8693 6.95318C62.2505 7.13775 62.4412 7.62028 62.8328 7.77849C62.8589 7.82859 62.8772 7.87342 62.8955 7.92615C62.825 7.94461 62.8198 7.98416 62.7884 8.02899C62.8642 8.13182 62.9529 8.20829 63.073 8.27157C63.0339 8.32167 63.0469 8.29003 62.979 8.27684C62.979 8.27684 62.979 8.28212 62.979 8.29003C63.0104 8.33486 63.0365 8.35331 63.0939 8.37968C63.12 8.38495 63.1435 8.38495 63.1696 8.38495C63.1696 8.35331 63.1696 8.32167 63.1696 8.28212C63.1305 8.24257 63.0861 8.16083 63.0182 8.13446C63.0182 8.08963 63.013 8.116 63.0443 8.08436C63.0182 8.05272 62.9999 8.01317 62.9608 7.98943C62.9921 8.02899 63.0182 8.05272 63.0443 8.08436C63.0704 8.11073 63.1018 8.12918 63.12 8.16083C63.1697 8.1661 63.2219 8.1661 63.2793 8.17401C63.2845 8.17401 63.2845 8.17401 63.2924 8.17401V8.13446C63.2532 8.08963 63.2167 8.04481 63.1775 7.99998C63.1958 7.96043 63.1958 7.98152 63.1905 7.9367C63.2402 7.94197 63.2976 7.94988 63.342 7.95516C63.3237 7.92352 63.3028 7.89187 63.2845 7.85232C63.3159 7.87869 63.8564 8.36386 63.8303 8.38495C63.7545 8.42451 63.7728 8.46142 63.7911 8.53789C63.7728 8.54316 63.7467 8.55107 63.7284 8.55635C63.6344 8.67236 63.6083 8.56953 63.5013 8.55635C63.4517 8.51152 63.4699 8.54316 63.4882 8.49306C63.4386 8.46142 63.3994 8.41659 63.3603 8.38495C63.3603 8.41132 63.3603 8.42978 63.3603 8.46142C63.3342 8.45615 63.3106 8.45615 63.2845 8.44824C63.2976 8.5247 63.2584 8.49834 63.2402 8.5959C63.214 8.59062 63.1958 8.58271 63.1775 8.57744C63.1514 8.55107 63.1383 8.48252 63.1331 8.44824C63.107 8.4166 63.1148 8.4166 63.0704 8.40341C63.0757 8.42187 63.0835 8.44296 63.0965 8.46142C62.9816 8.46142 62.9007 8.3665 62.8172 8.30058C62.791 8.2953 62.8172 8.2953 62.8302 8.28212C62.7989 8.24257 62.7806 8.22411 62.7153 8.21884C62.7101 8.21356 62.7023 8.20038 62.7023 8.19247C62.7023 8.18719 62.7075 8.17401 62.7153 8.1661C62.8041 8.2162 62.8929 8.28212 62.9817 8.33222C62.932 8.21093 62.8041 8.02371 62.6579 8.07645C62.6187 8.0369 62.6083 7.9367 62.5691 7.87869C62.5874 7.89187 62.6083 7.89715 62.6265 7.91033C62.6265 7.88396 62.6318 7.86551 62.6396 7.84705C62.5117 7.69939 62.3341 7.62292 62.2714 7.41725C62.2453 7.43043 62.214 7.44362 62.1827 7.4568C62.1957 7.49635 62.2009 7.528 62.214 7.56491C62.1957 7.56491 62.1748 7.56491 62.1644 7.56491C62.1383 7.5781 62.12 7.59655 62.0939 7.60446C62.1383 7.84705 62.6265 8.21884 62.6004 8.33485C62.6318 8.33485 62.6709 8.34013 62.7023 8.34804C62.7597 8.45087 62.8093 8.50097 62.8798 8.60381C62.8224 8.62227 62.8407 8.59853 62.8485 8.68027C62.7728 8.65391 62.7597 8.63545 62.6527 8.64863V8.70664C62.59 8.71192 62.5247 8.71983 62.4699 8.7251L62.4438 8.78838C62.4568 8.81475 62.4751 8.84639 62.4934 8.88331C62.543 8.90968 62.5325 8.90176 62.5874 8.88331C62.6187 8.95977 62.65 8.97296 62.637 9.03624C62.6057 9.08634 62.6318 9.06788 62.5743 9.04943C62.5691 9.04943 62.5691 9.04943 62.5613 9.04943C62.5743 9.15226 62.5665 9.16544 62.6109 9.22345C62.5795 9.21818 62.5404 9.21027 62.509 9.205C62.4647 9.07052 62.4072 8.93604 62.3628 8.79629C62.3576 8.79629 62.3498 8.79102 62.3367 8.78311H62.3237C62.368 8.96241 62.5195 9.25773 62.4124 9.36057C62.3419 9.42385 62.2035 9.43703 62.1461 9.52141C62.1774 9.60579 62.2218 9.68753 62.261 9.77718C62.2114 9.81673 62.1774 9.83519 62.1095 9.84837C62.0782 9.8932 62.0469 9.93802 62.1095 9.98285C62.0965 9.99603 62.0834 10.0092 62.0704 10.0224C61.898 10.054 61.7153 9.90638 61.5952 9.86947C61.5821 9.86947 61.5821 9.87474 61.5769 9.88265C61.6604 9.99867 61.7544 10.062 61.804 10.2017C61.8171 10.2149 61.8302 10.2333 61.8432 10.2465V10.2597C61.7362 10.2413 61.6709 10.2202 61.603 10.2782C61.5403 10.2386 61.4881 10.2017 61.4385 10.1622C61.3445 10.207 61.1983 10.1885 61.1225 10.265C61.1173 10.2703 61.1043 10.2703 61.0964 10.2703C61.1147 10.3863 61.2035 10.3731 61.274 10.4311C61.2479 10.4311 61.2244 10.4364 61.1904 10.4443C61.3367 10.5788 61.5455 10.5392 61.7492 10.6183C61.7623 10.6183 62.3968 11.2195 62.402 11.2511C62.3759 11.238 62.3576 11.2195 62.3393 11.201C62.3341 11.2063 62.3263 11.2063 62.3263 11.2142C62.4855 11.4384 62.6631 11.7574 62.6631 12.1819C62.4281 12.2769 61.8772 12.1187 61.5664 12.0791C61.4829 12.0738 61.2818 12.1635 61.1539 12.1187C61.0964 12.1002 61.0703 12.0475 60.9815 12.0738C60.898 12.0554 60.8614 12.1371 60.8928 12.203C60.8301 12.2294 60.7413 12.2294 60.7152 12.2874C60.6969 12.3006 60.6839 12.3059 60.6656 12.319C60.6708 12.4588 60.7492 12.4483 60.7674 12.5485C60.8118 12.5432 60.8066 12.5432 60.8432 12.5221C60.8693 12.7515 61.0077 12.9202 61.0834 13.1444C61.1539 13.3369 61.1147 13.9117 61.0703 14.1121C61.133 14.1701 61.1643 14.207 61.2218 14.2729C61.2479 14.2545 61.2714 14.2413 61.3053 14.2228C61.368 14.4074 61.4254 14.5999 61.4202 14.882C61.5351 14.8425 61.6996 14.9137 61.7701 14.8873C61.8145 14.8741 61.8406 14.8161 61.9215 14.7976C62.1487 14.6895 62.2714 15.2512 62.5169 15.296C62.5665 15.2459 62.7649 15.0534 62.7832 15.0086C62.966 15.0033 63.0939 14.9769 63.2402 15.027C63.2454 15.0086 63.2584 14.9875 63.2715 14.9638C63.3472 14.9769 63.3472 14.9822 63.3864 15.0139C63.4308 14.9189 63.4621 14.7502 63.5065 14.6684C63.5509 14.65 63.5691 14.6421 63.6527 14.6421C63.6527 14.5656 63.5953 14.4364 63.6396 14.2966C63.6658 14.2202 63.7337 14.2202 63.7545 14.1121C63.3498 13.8378 63.7154 13.4792 63.6031 13.2551C63.6736 13.1523 63.7415 13.1918 63.8433 13.1154C63.906 13.0758 63.9713 12.9413 64.0156 12.8912C63.9974 12.7383 63.7624 12.5194 63.8198 12.3586C63.8329 12.3138 63.9034 12.2821 63.9269 12.2294C64.1358 12.2927 64.2637 12.3823 64.4465 12.4588C64.5353 12.3691 64.517 12.203 64.6736 12.1846C64.6867 12.1213 64.6998 12.0633 64.718 11.9921V11.9657C65.0784 12.0369 65.2899 12.5353 65.4726 12.791C65.4726 12.791 65.987 13.2894 66.0053 13.3026C66.0184 13.3078 66.0758 13.2709 66.1202 13.3078C66.1515 13.3579 66.1907 13.4107 66.222 13.4687C66.6085 13.8405 66.7234 13.9486 66.8931 14.5129C66.8539 14.5313 66.773 14.5524 66.7338 14.6157C66.6006 14.6104 66.6006 14.5972 66.5171 14.526C66.4988 14.5577 66.4988 14.5524 66.491 14.5972C66.4727 14.5841 66.4596 14.5709 66.4414 14.5524C66.4361 14.5524 66.4283 14.5524 66.4283 14.5524C66.4231 14.6104 66.41 14.6737 66.4414 14.7317C66.4596 14.7818 66.9479 15.1747 67.0132 15.1984C67.0184 15.1984 67.0263 15.1984 67.0263 15.1984C66.9949 14.9928 66.8931 14.8794 66.8931 14.6289C66.9192 14.6473 66.9427 14.6684 66.9688 14.6869C66.974 14.6869 66.9819 14.6869 66.9819 14.6869C67.0132 14.5841 66.9871 14.4443 66.9427 14.3547C66.9558 14.2782 66.9479 14.2966 67.0001 14.2703C66.9558 14.0962 66.8722 14.0778 66.7834 13.9697C66.7573 13.8616 66.7338 13.7587 66.7077 13.6506C66.7129 13.6454 66.726 13.6374 66.7338 13.6322C66.7913 13.7218 66.9427 13.8748 67.0315 13.9328C66.9558 13.6322 66.6711 13.3817 66.4153 13.2551C66.3839 13.205 66.3709 13.1707 66.3709 13.0758C66.2951 13.031 66.2325 13.0626 66.1489 12.9914C65.9531 12.8306 65.8643 12.5748 65.7103 12.3771C65.5771 12.1978 65.3238 12.1345 65.2533 11.8972C65.2585 11.8655 65.2664 11.8392 65.2664 11.8022C65.2403 11.731 65.1645 11.7126 65.1384 11.6177C65.2089 11.5992 65.2089 11.5781 65.2403 11.528C65.2585 11.5333 65.2794 11.5333 65.2899 11.5333C65.3395 11.5966 65.4413 11.7838 65.4805 11.8787C65.4857 11.884 65.4988 11.8919 65.5066 11.8972L65.5196 11.7943C65.5379 11.8523 65.5693 11.8972 65.5901 11.942C65.6032 11.9473 65.6163 11.9604 65.6293 11.9736C65.6163 11.9288 65.598 11.8893 65.5797 11.8444C65.7076 11.8945 65.752 12.1134 65.8199 12.1898C65.9139 12.3111 66.0601 12.3823 66.1489 12.472C66.1306 12.472 66.1098 12.4667 66.0993 12.4588C66.1306 12.5168 66.1568 12.5353 66.1933 12.588C66.2116 12.588 66.2377 12.588 66.256 12.5933C66.2377 12.5748 66.2116 12.5485 66.1933 12.53C66.1985 12.53 66.2064 12.5247 66.2194 12.5247C66.2455 12.5432 66.269 12.5643 66.2951 12.5827C66.3004 12.5959 66.3004 12.6012 66.3082 12.6144C66.2821 12.6196 66.2586 12.6276 66.2325 12.6328C66.2821 12.6908 66.2769 12.6328 66.3474 12.6724C66.4988 12.7488 66.7416 13.0046 66.8304 13.147C66.9061 13.3448 66.9766 13.5452 67.0576 13.7482C67.1464 13.9143 67.35 14.0883 67.431 14.2729C67.4623 14.2676 67.431 14.2729 67.4701 14.2597C67.4701 14.2729 67.4388 14.3309 67.4701 14.3995C67.5093 14.4575 67.585 14.534 67.6869 14.5524C67.6608 14.6289 67.6607 14.6025 67.6555 14.7133C67.7495 14.853 67.8383 14.9822 67.8958 15.1562C67.9088 15.1747 67.9219 15.1826 67.9349 15.1958C67.9401 15.1958 67.948 15.1958 67.948 15.1958C67.9428 15.1562 67.9349 15.1246 67.9219 15.093C67.9271 15.093 67.9349 15.093 67.9349 15.093C67.9662 15.1641 67.9976 15.2327 68.0289 15.3039C68.0341 15.3092 68.042 15.3171 68.055 15.3171C68.042 15.2854 68.0368 15.2459 68.0289 15.2142C68.055 15.2459 68.0864 15.2775 68.1125 15.3092C68.1099 15.3039 68.1099 15.3039 68.1177 15.3039ZM42.051 4.50623C41.9753 4.46668 41.8865 4.45613 41.7716 4.44295C41.7534 4.45613 41.7273 4.46141 41.709 4.46932C41.7482 4.54578 41.9492 4.61698 42.0458 4.64334H42.0641C42.0745 4.57742 42.0615 4.55106 42.051 4.50623Z" fill="#1A1A1A"/>
<path d="M48.7721 4.91235C48.7982 4.95718 48.7669 4.92554 48.8113 4.95191C48.8165 4.95191 48.8243 4.95191 48.8243 4.95191C48.8296 4.94663 48.8374 4.93872 48.8374 4.92554C48.8165 4.9229 48.7904 4.91763 48.7721 4.91235ZM49.4876 5.56364C49.4928 5.57683 49.5058 5.59001 49.5137 5.60319C49.5267 5.60319 49.5319 5.60319 49.5319 5.60319V5.59001C49.5137 5.58474 49.5006 5.57155 49.4876 5.56364ZM49.0384 5.80095C49.0071 5.80623 48.9758 5.81414 48.9444 5.8326C48.9314 5.91697 48.9314 5.85896 48.9053 5.90906C49.0959 5.89588 49.2656 5.86951 49.4379 5.85896C49.3048 5.84578 49.1716 5.81941 49.0384 5.80095ZM49.9184 6.07518C49.9184 6.11473 49.9053 6.09364 49.9445 6.13319C49.9497 6.12792 49.9628 6.11473 49.9758 6.10155C49.9758 6.10155 49.9758 6.09627 49.9758 6.08836C49.9628 6.08836 49.9445 6.08309 49.9184 6.07518ZM47.0775 6.53135C47.0723 6.53662 47.0723 6.5498 47.0645 6.55771C47.37 6.75547 47.5841 6.91632 47.9914 7.04552C47.9966 7.04025 48.0097 7.03234 48.0175 7.03234C48.0175 7.01915 48.0175 7.00597 48.0175 6.99278C47.8008 6.8003 47.4405 6.5498 47.0775 6.53135ZM50.5085 6.74756C50.5033 6.76075 50.5033 6.7792 50.4954 6.78711C50.5398 6.76866 50.5137 6.8003 50.5346 6.74756C50.5268 6.74756 50.5216 6.74756 50.5085 6.74756ZM62.06 9.41864C62.0548 9.39227 62.0418 9.36063 62.0339 9.33426C61.9634 9.32898 61.9008 9.32107 61.8433 9.3158C61.8694 9.2657 61.9373 9.17605 61.919 9.0864C61.8877 8.95192 61.6475 8.68297 61.4934 8.857C61.4804 8.85172 61.4673 8.84381 61.4543 8.84381C61.3655 8.66451 61.2375 8.45884 61.0234 8.33228C60.9346 8.28745 60.8589 8.25581 60.7754 8.21626C60.5586 8.00531 60.4516 7.8392 60.1095 7.83128C60.1539 7.80492 60.1853 7.78646 60.2244 7.76009C60.1983 7.74163 60.18 7.72054 60.1539 7.70999C60.2035 7.59397 60.1487 7.51223 60.167 7.40149C60.039 7.28547 59.8171 7.31184 59.6526 7.35139C59.6526 7.26701 59.6787 7.30129 59.6082 7.26701C59.6265 7.20373 59.6526 7.17209 59.71 7.13781C59.6918 7.10617 59.6839 7.0798 59.6787 7.04288C59.5403 7.01124 59.3993 7.08244 59.2661 7.0297C59.2348 7.07452 59.24 7.0798 59.2661 7.12462C59.24 7.18263 59.2531 7.18791 59.2975 7.24064C59.2923 7.24592 59.2714 7.24592 59.2661 7.25383C59.2218 7.24855 59.24 7.24064 59.2165 7.28547C59.2426 7.33029 59.2661 7.36985 59.3001 7.41467V7.42786C59.2374 7.38303 59.18 7.34348 59.1225 7.29865C59.0964 7.34875 59.1043 7.32502 59.0651 7.37512C59.1356 7.45159 59.2818 7.50432 59.3575 7.5096C59.3706 7.52805 59.3758 7.54915 59.3836 7.5597C59.3654 7.57288 59.3393 7.58606 59.321 7.59925C59.3523 7.67044 59.3706 7.67044 59.3601 7.75218C59.4045 7.74691 59.4489 7.739 59.4933 7.73372C59.4985 7.71527 59.5116 7.6889 59.5116 7.66253V7.63616H59.5246C59.5508 7.78382 59.6265 7.89193 59.663 8.04487C59.6813 8.04487 59.7022 8.04487 59.7257 8.04487C59.7257 8.03959 59.7309 8.02641 59.7388 8.0185C59.7257 8.00004 59.7205 7.97367 59.6996 7.95521C59.7388 7.97367 59.7623 7.98686 59.7884 8.00531C59.7936 8.00531 59.8014 8.00531 59.8014 8.00531C59.7884 7.96049 59.7753 7.91566 59.7623 7.87084C59.7936 7.8972 59.8328 7.92885 59.8693 7.95521C59.8954 8.01322 59.8954 8.07123 59.8693 8.15297C59.9085 8.18462 59.9581 8.21626 59.9973 8.25581H60.0103C60.0051 8.23735 59.992 8.21626 59.9842 8.20571V8.19253C60.0234 8.20571 60.0599 8.22417 60.1043 8.23735V8.18725C60.1983 8.2268 60.2323 8.20044 60.2949 8.1477C60.3968 8.26372 60.3524 8.44829 60.5743 8.41138C60.5795 8.5274 60.6056 8.56431 60.6448 8.63551C60.5378 8.71988 60.4281 8.65396 60.3158 8.63551C60.3341 8.72516 60.3654 8.7067 60.4176 8.7568C60.3994 8.78317 60.3785 8.80163 60.368 8.82008C60.368 8.83327 60.3733 8.83854 60.3811 8.84645C60.4124 8.83327 60.4516 8.82008 60.4881 8.8069C60.5195 8.85172 60.5639 8.90182 60.603 8.95456C60.5848 9.03894 60.509 9.07585 60.4255 9.08376C60.4124 9.10222 60.3941 9.1154 60.3811 9.12859C60.4255 9.17341 60.4699 9.21297 60.5143 9.24988C60.6657 9.17341 60.7989 9.26834 60.9529 9.32107C60.9973 9.30262 61.0365 9.28152 61.0678 9.27097C61.0495 9.3158 61.0548 9.31053 61.0548 9.36063C60.9608 9.36063 60.872 9.36063 60.7832 9.36063C60.7884 9.48983 60.6996 9.62958 60.6004 9.7245C60.6004 9.73769 60.6004 9.74296 60.6004 9.75087C60.6709 9.75614 60.6761 9.7456 60.7466 9.7957C60.791 9.73769 60.7649 9.69286 60.8668 9.66649C60.9373 9.64804 61.0182 9.68495 61.0887 9.70605C61.0939 9.66122 61.0756 9.57684 61.1148 9.5452C61.1148 9.5452 61.5535 9.58475 61.5639 9.58475C61.577 9.58475 61.5953 9.58475 61.6083 9.58475C61.5953 9.5663 61.5822 9.5452 61.577 9.52147C61.7859 9.53465 61.8877 9.52674 62.0522 9.445C62.0548 9.43709 62.0548 9.42655 62.06 9.41864Z" fill="#1A1A1A"/>
<path d="M51.3264 8.36115C51.2637 8.3427 51.2507 8.40071 51.1358 8.41916C51.1306 8.40071 51.1227 8.37961 51.1227 8.36906C51.1541 8.31105 51.2063 8.27941 51.2742 8.25304C51.2742 8.23986 51.2794 8.22668 51.2872 8.2214C51.282 8.21613 51.2742 8.21613 51.2742 8.20822C51.0966 8.2214 51.0653 8.25832 50.9687 8.32951C50.9556 8.31105 50.9504 8.29787 50.9373 8.27941C50.906 8.27414 50.9321 8.2926 50.8982 8.26623C50.9922 8.17658 51.1958 8.12648 51.235 8.08693C51.2402 8.08165 51.2481 8.07374 51.2611 8.06056C51.2037 8.00255 51.0575 8.01573 50.9504 8.00255C50.9896 7.91817 50.9556 7.97618 50.9452 7.86807C51.0209 7.85489 51.0522 7.8417 51.0966 7.79161C51.0078 7.71514 50.8616 7.63076 50.7363 7.65713C50.6867 7.59385 50.7311 7.5622 50.6475 7.52793C50.6083 7.54111 50.6475 7.55429 50.6031 7.5332C50.5979 7.57275 50.5901 7.55957 50.6162 7.59121C50.5901 7.59121 50.5666 7.58594 50.5326 7.58594C50.4569 7.59121 50.483 7.59121 50.4882 7.52265C50.4256 7.52793 50.4491 7.51738 50.4386 7.55429C50.389 7.52793 50.3629 7.50947 50.3002 7.50947C50.3055 7.49628 50.3185 7.4831 50.3263 7.46992C50.2767 7.44355 50.3133 7.45673 50.2637 7.46992C50.2506 7.45673 50.2454 7.45146 50.2376 7.44355C50.2376 7.42509 50.2376 7.404 50.2376 7.38027C50.2872 7.38027 50.3394 7.38027 50.4021 7.37499V7.36181C50.3133 7.3038 50.2245 7.3038 50.1357 7.23261C50.0522 7.26425 49.9765 7.29589 49.8877 7.32753C49.9268 7.18778 50.1723 7.07176 50.3055 7.04012C50.3185 7.01375 50.3368 6.99529 50.3629 6.96893C50.3185 6.93728 50.3185 6.92937 50.248 6.9241V6.89773C50.3185 6.91619 50.3681 6.93728 50.4438 6.92937C50.4491 6.9241 50.4569 6.91092 50.47 6.90301C50.47 6.88982 50.4752 6.87664 50.483 6.86345C50.4125 6.845 50.3368 6.8239 50.2611 6.80017C50.1853 6.80544 50.0966 6.80544 50.0208 6.80544C49.9634 6.81863 49.8172 6.90037 49.7415 6.93992C49.5952 7.01639 49.5378 7.2036 49.342 7.24843C49.3158 7.29852 49.3237 7.28798 49.342 7.34335V7.35653C49.2845 7.34335 49.3028 7.35126 49.2715 7.32489C49.1827 7.34335 49.1435 7.40927 49.0939 7.46464C49.12 7.49101 49.1513 7.51474 49.1775 7.53584C49.0626 7.51738 48.9242 7.58066 48.791 7.59912C48.7962 7.64922 48.8041 7.69404 48.8171 7.73887C49.0443 7.79688 49.966 7.98145 50.0417 8.06583C50.0235 8.06583 50.0026 8.06056 49.9843 8.06056C50.0731 8.10011 50.1671 8.13175 50.2558 8.16867C50.282 8.1423 50.2741 8.15021 50.282 8.10538C50.3446 8.12384 50.4099 8.15021 50.4647 8.17658C50.3446 8.2214 50.2297 8.25304 50.0391 8.23459C50.0339 8.26095 50.0261 8.27941 50.0208 8.2926C50.3133 8.40862 50.5405 8.27414 50.7937 8.18976C50.812 8.21613 50.8329 8.24777 50.8512 8.26623C50.846 8.38225 50.7807 8.41389 50.705 8.46399C50.7232 8.51409 50.718 8.50354 50.7676 8.53518C50.8303 8.51672 50.8877 8.49563 50.9504 8.47717C50.9243 8.522 50.9112 8.54046 50.9112 8.63011C50.987 8.64856 51.0444 8.66966 51.1149 8.68812C51.222 8.63011 51.2481 8.52727 51.3368 8.46926C51.3342 8.43235 51.3342 8.4007 51.3264 8.36115ZM59.037 7.08231C59.0109 7.07703 58.9926 7.07703 58.9665 7.06912C58.9352 7.10077 58.896 7.14032 58.8594 7.16405C58.9038 7.20887 58.9221 7.22733 58.9299 7.27216C58.9482 7.27743 58.9613 7.28534 58.9743 7.29853C59.0057 7.26688 59.0318 7.24052 59.0683 7.21415C59.0579 7.17196 59.0448 7.12713 59.037 7.08231Z" fill="#1A1A1A"/>
<path d="M50.377 7.04285V7.06921C50.3822 7.06394 50.3952 7.05603 50.4031 7.04285C50.3952 7.04285 50.3848 7.04285 50.377 7.04285ZM58.9753 7.32498C58.957 7.31971 58.9361 7.30653 58.9179 7.29862C58.9048 7.30389 58.8787 7.31707 58.8604 7.32498C58.9179 7.38299 58.944 7.41991 58.9753 7.48583C58.9884 7.4911 59.0066 7.49901 59.0197 7.49901C59.0014 7.44628 58.9884 7.38827 58.9753 7.32498Z" fill="#1A1A1A"/>
<path d="M50.3633 7.09558C50.3763 7.10877 50.3894 7.12195 50.4024 7.13513C50.4155 7.13513 50.4207 7.12986 50.4286 7.12986V7.11668C50.4077 7.10613 50.3894 7.10085 50.3633 7.09558ZM62.3979 7.5412C62.4031 7.55438 62.424 7.56757 62.4292 7.58075C62.4344 7.58075 62.4422 7.58075 62.4422 7.58075C62.4109 7.53593 62.4501 7.56757 62.3979 7.5412Z" fill="#1A1A1A"/>
<path d="M59.2221 7.49905C59.2352 7.51751 59.2482 7.53069 59.2613 7.54915C59.2665 7.54388 59.2743 7.53069 59.2743 7.52278C59.2587 7.51751 59.2404 7.50432 59.2221 7.49905ZM58.9741 7.51751C58.9741 7.52278 58.9741 7.53597 58.9741 7.54388C58.9871 7.5386 59.0002 7.5386 59.0132 7.53069V7.51751C59.0002 7.51751 58.9871 7.51751 58.9741 7.51751ZM59.2535 7.62034C59.2482 7.62562 59.2482 7.62562 59.2404 7.63353V7.64671C59.2456 7.65198 59.2456 7.65198 59.2535 7.65989C59.2587 7.65989 59.2587 7.65989 59.2665 7.65989C59.2717 7.64671 59.2796 7.63353 59.2796 7.62034C59.2717 7.62034 59.2587 7.62034 59.2535 7.62034ZM59.196 7.65726V7.69681C59.2091 7.69681 59.2143 7.69681 59.2221 7.69681C59.2091 7.65726 59.2221 7.68363 59.196 7.65726ZM49.0075 7.41467C48.9814 7.41467 48.9579 7.41467 48.9239 7.41467C48.9187 7.41467 48.9109 7.41995 48.8978 7.41995C48.8926 7.43313 48.8926 7.44631 48.8848 7.46477C48.9474 7.47796 49.0127 7.48323 49.0675 7.49114C49.0519 7.46477 49.0258 7.44104 49.0075 7.41467Z" fill="#1A1A1A"/>
<path d="M50.8138 7.56226C50.8086 7.58071 50.8008 7.5939 50.8008 7.61236C50.8321 7.61236 50.8713 7.61763 50.9026 7.61763C50.8817 7.55435 50.8896 7.56753 50.8138 7.56226ZM59.5323 7.7732C59.4931 7.8233 59.4879 7.84439 59.4174 7.86285C59.4435 7.94723 59.4618 7.92086 59.5193 7.95777C59.5558 7.92086 59.5767 7.8233 59.5323 7.7732Z" fill="#1A1A1A"/>
<path d="M59.4314 7.78644C59.4262 7.79171 59.4262 7.79171 59.4184 7.79962V7.8128C59.4236 7.81808 59.4367 7.81808 59.4445 7.82599C59.4497 7.82071 59.4575 7.82071 59.4575 7.8128C59.4497 7.80489 59.4367 7.79171 59.4314 7.78644ZM47.0287 7.65196C46.9713 7.62559 46.9895 7.65196 46.9843 7.58868C46.9217 7.52539 46.953 7.54385 46.9713 7.45947C46.9582 7.45947 46.9452 7.4542 46.9321 7.44629C46.8825 7.46475 46.8303 7.48584 46.7728 7.5043C46.7728 7.51748 46.7676 7.52276 46.7598 7.53067C46.906 7.66514 47.0392 7.74161 47.2428 7.82599C47.2872 7.85236 47.2611 7.82599 47.2742 7.86554C47.3055 7.90509 47.3238 7.91036 47.376 7.93673C47.5092 7.91036 47.4909 7.84708 47.6737 7.85236C47.6737 7.84708 47.6789 7.84708 47.6867 7.83917V7.82599C47.5927 7.78644 47.0287 7.65196 47.0287 7.65196ZM59.7291 7.87609H59.6978C59.6978 7.89454 59.6978 7.90773 59.6978 7.92619C59.7239 7.92091 59.7369 7.92091 59.7552 7.913C59.7474 7.89982 59.7343 7.88927 59.7291 7.87609ZM59.8127 8.50364C59.8074 8.49837 59.7996 8.47728 59.7996 8.472C59.8832 8.44563 59.8753 8.40872 59.938 8.37708V8.31379C59.8362 8.21887 59.7552 8.21887 59.6664 8.09494C59.5724 8.03693 59.4837 8.05539 59.4053 8.12658C59.4105 8.09494 59.4105 8.10812 59.4314 8.06857C59.3923 8.05011 59.3557 8.02902 59.3113 8.01847C59.2669 8.05802 59.1964 8.08967 59.1077 8.09494C59.0946 8.18459 59.1024 8.18459 59.0502 8.2426C59.0998 8.2927 59.152 8.28215 59.2147 8.26106C59.1886 8.33752 59.1651 8.31907 59.1651 8.37708C59.0372 8.37708 58.9171 8.38235 58.7917 8.38235C58.7969 8.45882 58.81 8.40872 58.8413 8.45882C58.8283 8.46409 58.8152 8.472 58.8022 8.47728C58.8518 8.52737 58.904 8.5221 58.9797 8.5221C58.9353 8.5722 58.9301 8.58011 58.8909 8.62494C58.9928 8.76469 59.0815 8.67503 59.246 8.72777C59.152 8.79105 59.1834 8.79105 59.1834 8.8807C59.1207 8.94399 59.1259 8.92553 59.1834 8.96508C59.1442 9.02836 59.152 8.99145 59.1651 9.06001C59.1338 9.06001 59.0946 9.05473 59.058 9.05473C59.045 9.0811 59.0398 9.09956 59.0267 9.1312C59.0763 9.11802 59.1338 9.10483 59.186 9.09956C59.1547 9.11802 59.1233 9.14438 59.0842 9.16284C59.2487 9.56627 59.8257 9.04682 60.079 9.05473C60.0659 8.87543 59.9876 8.59329 59.8127 8.50364Z" fill="#1A1A1A"/>
<path d="M50.9928 7.88135C50.9875 7.89453 50.9875 7.90772 50.9797 7.9209C50.9928 7.91563 51.0058 7.91563 51.0189 7.90772C51.011 7.90244 50.998 7.88926 50.9928 7.88135ZM63.3825 8.20831C63.3955 8.22677 63.4007 8.25314 63.4086 8.27159C63.4399 8.28478 63.4712 8.29005 63.5104 8.30323C63.4712 8.24786 63.4451 8.23468 63.3825 8.20831ZM45.6661 7.90772C45.6531 7.92617 45.64 7.93936 45.627 7.95781C45.6322 7.96309 45.64 7.96309 45.6531 7.971C45.6922 7.94463 45.6844 7.95781 45.7027 7.90772C45.6922 7.90772 45.6792 7.90772 45.6661 7.90772Z" fill="#1A1A1A"/>
<path d="M46.6789 7.9657C46.6737 7.98416 46.6737 7.99734 46.6659 8.0158C46.6789 8.02898 46.692 8.03426 46.705 8.04217C46.7886 8.03689 46.8695 8.02371 46.9531 8.0158C46.8643 7.99734 46.7677 7.98416 46.6789 7.9657ZM60.1601 8.3243C60.1548 8.35067 60.1339 8.3744 60.1287 8.40077C60.1339 8.41396 60.1339 8.42714 60.147 8.4456C60.1653 8.43241 60.1914 8.43241 60.2175 8.42714C60.2175 8.41396 60.2227 8.40077 60.2306 8.38759C60.2044 8.36913 60.1862 8.34276 60.1601 8.3243ZM44.7963 7.92615C44.7911 7.97097 44.7833 7.95779 44.8094 7.98943C44.8146 7.98416 44.8277 7.97625 44.8355 7.96306C44.8224 7.95252 44.8094 7.93933 44.7963 7.92615Z" fill="#1A1A1A"/>
<path d="M48.1506 8.06853C48.1454 8.06853 48.1323 8.06853 48.1245 8.06853C48.1193 8.07381 48.1114 8.08699 48.1114 8.0949C48.1506 8.08699 48.1741 8.10545 48.1506 8.06853ZM44.8789 7.97888C44.8789 7.98416 44.8789 7.99734 44.8789 8.00525C44.8841 7.99998 44.8972 7.98679 44.905 7.97888C44.8972 7.97888 44.8841 7.97888 44.8789 7.97888Z" fill="#1A1A1A"/>
<path d="M48.1122 8.10549C48.0939 8.10549 48.0678 8.10549 48.0365 8.10549C48.0103 8.11868 47.9868 8.13713 47.9607 8.15032C48.0103 8.15559 48.0756 8.15559 48.1252 8.15559C48.1252 8.15559 48.1252 8.15032 48.1252 8.14241C48.12 8.13186 48.12 8.11868 48.1122 8.10549ZM49.8695 8.18196C49.8747 8.20042 49.8877 8.22151 49.8956 8.23206C49.9086 8.22678 49.9138 8.21887 49.9217 8.20569C49.906 8.20305 49.8877 8.19514 49.8695 8.18196ZM50.7494 8.2347C50.7311 8.24788 50.7102 8.26106 50.6998 8.27425C50.6946 8.2927 50.6867 8.30589 50.6867 8.31907C50.6998 8.31907 50.7128 8.31907 50.7259 8.31907C50.7442 8.30589 50.7755 8.2927 50.7964 8.27425V8.2347C50.7807 8.2347 50.7703 8.2347 50.7494 8.2347ZM45.8301 8.10022C45.8562 8.1134 45.8353 8.1134 45.8562 8.10022C45.8484 8.10022 45.8353 8.10022 45.8301 8.10022Z" fill="#1A1A1A"/>
<path d="M49.8684 8.25317C49.8632 8.25845 49.8554 8.27163 49.8554 8.27954C49.8684 8.28482 49.8815 8.29273 49.8945 8.29273C49.9076 8.29273 49.9128 8.28745 49.9207 8.27954C49.905 8.27163 49.8867 8.26636 49.8684 8.25317ZM49.918 8.298V8.32437C49.9233 8.31909 49.9442 8.31118 49.9494 8.298C49.9442 8.298 49.9259 8.298 49.918 8.298ZM63.6263 8.66451C63.6524 8.6777 63.6838 8.69088 63.7099 8.70934V8.69616C63.6838 8.66979 63.6838 8.67506 63.6263 8.66451ZM62.6628 8.76471C62.6576 8.76999 62.6576 8.7779 62.6498 8.79108C62.689 8.7779 62.6681 8.79108 62.689 8.76471C62.6837 8.76471 62.6707 8.76471 62.6628 8.76471ZM62.5114 8.83591C62.5062 8.84118 62.5062 8.85436 62.4983 8.86227C62.5036 8.86755 62.5036 8.86755 62.5114 8.87546C62.5166 8.87018 62.5297 8.857 62.5375 8.84909V8.83591C62.5297 8.83591 62.5166 8.83591 62.5114 8.83591ZM62.4931 8.92556V8.96511C62.4983 8.96511 62.5062 8.96511 62.5192 8.96511C62.4983 8.92556 62.5166 8.95193 62.4931 8.92556ZM44.0274 8.50367C44.0274 8.50894 44.0274 8.52213 44.0274 8.53004C44.0326 8.52476 44.0457 8.51158 44.0535 8.50367C44.0483 8.50367 44.0352 8.50367 44.0274 8.50367ZM43.5287 8.55377C43.5235 8.57223 43.5235 8.58541 43.5156 8.59859C43.5339 8.57486 43.5391 8.59332 43.5287 8.55377Z" fill="#1A1A1A"/>
<path d="M43.771 8.6698C43.7448 8.67507 43.7266 8.68826 43.7005 8.69617C43.7005 8.70144 43.7005 8.71463 43.7005 8.72254C43.7448 8.72781 43.7892 8.73572 43.8336 8.73572C43.8336 8.73572 43.8336 8.73045 43.8336 8.72254C43.8075 8.68298 43.8206 8.68826 43.771 8.6698ZM43.0163 8.68298C43.0111 8.68826 42.9981 8.68826 42.9902 8.69617C42.9902 8.70144 42.9902 8.70144 42.9902 8.70935C43.0085 8.70408 43.0346 8.69089 43.0607 8.68298" fill="#1A1A1A"/>
<path d="M43.3709 8.68835C43.397 8.70154 43.3709 8.70154 43.397 8.68835C43.3892 8.68835 43.3761 8.68835 43.3709 8.68835ZM43.2064 8.70154C43.2116 8.70681 43.2247 8.72 43.2325 8.72791H43.2456C43.2247 8.70154 43.243 8.72 43.2064 8.70154ZM43.948 8.76482C43.9427 8.7701 43.9427 8.78328 43.9349 8.79119C43.9532 8.79646 43.9793 8.80965 43.9976 8.81756H44.0106C44.0159 8.81228 44.0237 8.80437 44.0289 8.79119C43.9976 8.77273 43.9976 8.77273 43.948 8.76482ZM28.7435 9.71407C28.6861 9.867 28.6365 9.97775 28.6104 10.1122C28.6104 10.1122 28.6156 10.1122 28.6234 10.1122C28.6782 10.0068 28.8323 9.88546 28.7435 9.71407ZM28.5216 10.2256C28.5607 10.194 28.5399 10.2071 28.5477 10.1755C28.5399 10.194 28.5268 10.2071 28.5216 10.2256ZM40.9609 10.4445C40.9556 10.4497 40.9556 10.4629 40.9478 10.4708H40.9922C40.987 10.4629 40.9739 10.4497 40.9609 10.4445ZM28.2866 11.3199C28.2735 11.3832 28.2552 11.4491 28.2422 11.5176C28.2474 11.5229 28.2474 11.5308 28.2552 11.544L28.2735 11.5387C28.2918 11.4754 28.3049 11.4043 28.3231 11.341C28.3101 11.3331 28.2996 11.3278 28.2866 11.3199ZM65.4791 11.6996C65.4922 11.718 65.5052 11.7391 65.5183 11.7576V11.718C65.5052 11.7101 65.4922 11.7048 65.4791 11.6996Z" fill="#1A1A1A"/>
<path d="M33.4405 11.449C33.4353 11.4674 33.4222 11.4885 33.4144 11.4991C33.4405 11.4727 33.4536 11.4806 33.4405 11.449ZM34.7147 11.4226C34.6703 11.4622 34.6312 11.4674 34.6077 11.5307C34.6965 11.5439 34.7591 11.5307 34.8348 11.5307C34.8348 11.5307 34.8348 11.5254 34.8348 11.5175C34.7983 11.4859 34.7591 11.4542 34.7147 11.4226ZM33.0723 11.6151C33.0671 11.6283 33.0462 11.6415 33.041 11.6546C33.0671 11.6494 33.0802 11.6362 33.0985 11.6283C33.0906 11.6204 33.0802 11.6204 33.0723 11.6151ZM66.1315 12.5749V12.6144C66.1367 12.6144 66.1498 12.6144 66.1576 12.6197C66.1394 12.5749 66.1576 12.6013 66.1315 12.5749Z" fill="#1A1A1A"/>
<path d="M65.0659 12.5168C65.0789 12.5485 65.092 12.5801 65.105 12.6118C65.0789 12.6302 65.0554 12.6513 65.0293 12.6619C65.0293 12.8359 65.1572 13.0653 65.2643 13.1286C65.2774 13.1339 65.2826 13.147 65.2956 13.1602C65.2956 13.1602 65.3009 13.1602 65.3087 13.1602C65.3009 12.9598 65.2069 12.5959 65.0659 12.5168Z" fill="#1A1A1A"/>
<path d="M65.27 12.588C65.2648 12.5933 65.2517 12.5933 65.2439 12.6012V12.6407C65.2621 12.6407 65.2883 12.646 65.3065 12.646C65.2961 12.6012 65.3013 12.6144 65.27 12.588ZM27.6205 13.4001C27.6153 13.4133 27.6153 13.4186 27.6074 13.4265C27.6205 13.445 27.6335 13.4582 27.6518 13.4766C27.657 13.4766 27.657 13.4766 27.6649 13.4713C27.657 13.4081 27.6649 13.4212 27.6205 13.4001Z" fill="#1A1A1A"/>
<path d="M65.7136 14.1069C65.6692 13.7931 65.5308 13.4529 65.3768 13.2367C65.3637 13.2314 65.3507 13.2235 65.3324 13.2183C65.3193 13.2631 65.3141 13.3026 65.3011 13.3396C65.2436 13.3791 65.2619 13.3791 65.1992 13.3448C65.2123 13.5057 65.3716 13.6533 65.4212 13.7878C65.4656 13.8906 65.4342 14.0172 65.4603 14.0884C65.5178 14.12 65.523 14.1649 65.6379 14.1833C65.6327 14.1438 65.6248 14.1069 65.6248 14.0752C65.6562 14.0752 65.664 14.0805 65.7006 14.1069C65.7084 14.1069 65.7084 14.1069 65.7136 14.1069ZM67.5335 13.5426V13.5927C67.5466 13.6059 67.5597 13.6111 67.5727 13.6322C67.5649 13.569 67.5649 13.5742 67.5335 13.5426ZM67.6537 13.6507C67.6589 13.6692 67.6719 13.6902 67.6798 13.7087C67.685 13.7087 67.685 13.7087 67.6928 13.7087C67.6745 13.6586 67.6928 13.6823 67.6537 13.6507Z" fill="#1A1A1A"/>
<path d="M67.5598 13.793C67.5651 13.8193 67.5781 13.8378 67.586 13.8642C67.5677 13.8457 67.5546 13.8325 67.5363 13.8193C67.5546 13.8457 67.5677 13.8826 67.586 13.909C67.599 13.8958 67.6121 13.8826 67.6251 13.8642C67.6042 13.8431 67.586 13.8167 67.5598 13.793ZM67.7061 13.8615V13.9011C67.7243 13.9143 67.7374 13.9327 67.7557 13.9459V13.8958C67.7374 13.8826 67.7243 13.8747 67.7061 13.8615ZM67.8314 14.286V14.3256C67.8575 14.3388 67.8758 14.3441 67.8888 14.3572C67.8758 14.3309 67.8575 14.3098 67.8314 14.286ZM61.207 14.0672C61.2123 14.0936 61.2123 14.1173 61.2253 14.1437C61.2253 14.112 61.2305 14.0936 61.2305 14.0672C61.2253 14.0672 61.2253 14.0672 61.207 14.0672ZM67.5102 14.4759C67.5102 14.5155 67.5102 14.5471 67.5102 14.584C67.5233 14.5972 67.5364 14.6104 67.5494 14.6288C67.5625 14.6341 67.5755 14.642 67.5807 14.6473C67.5938 14.642 67.5938 14.6288 67.599 14.6209C67.5651 14.5735 67.5416 14.5207 67.5102 14.4759Z" fill="#1A1A1A"/>
<path d="M67.7556 14.5551C67.7374 14.5498 67.7165 14.5419 67.706 14.5366C67.7452 14.5762 67.7817 14.6131 67.8209 14.6579C67.8261 14.6447 67.8392 14.6447 67.8522 14.6263C67.8131 14.6052 67.787 14.5788 67.7556 14.5551ZM67.5964 14.708C67.6016 14.7265 67.6016 14.7476 67.6094 14.7581C67.6355 14.7766 67.6486 14.7898 67.6669 14.8029V14.7528C67.6486 14.7397 67.6172 14.7212 67.5964 14.708ZM30.8398 14.7265C30.8398 14.766 30.8398 14.7977 30.8398 14.8425C30.8581 14.8293 30.8712 14.8293 30.8895 14.8293V14.8161C30.879 14.7713 30.8712 14.7528 30.8398 14.7265ZM68.1055 15.3488C68.1186 15.3751 68.1316 15.3989 68.1447 15.4331C68.1499 15.4199 68.1577 15.4147 68.1577 15.4068C68.1369 15.3857 68.1238 15.3672 68.1055 15.3488ZM48.5066 38.629C48.5014 38.6475 48.5014 38.6738 48.4935 38.687C48.5118 38.6738 48.5379 38.6475 48.5562 38.629" fill="#1A1A1A"/>
<path d="M48.0679 38.6555C48.0496 38.6608 48.0365 38.674 48.0235 38.6819C48.0287 38.6951 48.0418 38.7003 48.0496 38.7083H48.1201V38.6951C48.107 38.6819 48.0888 38.6687 48.0679 38.6555ZM48.1775 38.6687C48.1775 38.674 48.1775 38.6872 48.1775 38.6951C48.1828 38.6898 48.1958 38.6819 48.2037 38.6687H48.1775ZM46.0077 39.9924C46.0025 40.0056 46.0025 40.0187 45.9947 40.0319C46.0208 40.0135 45.9999 40.0319 46.0208 39.9924H46.0077ZM45.9816 40.0636C45.9764 40.0767 45.9764 40.0899 45.9633 40.1031C45.9764 40.0978 45.9894 40.0899 45.9947 40.0767C45.9894 40.0715 45.9894 40.0715 45.9816 40.0636ZM44.9998 40.9548C44.9998 40.9152 44.9998 40.8704 44.9998 40.8335C44.9293 40.8335 44.8719 40.852 44.8092 40.8599C44.7387 41.0207 44.569 41.1104 44.428 41.2053V41.2185C44.4541 41.2238 44.4724 41.2369 44.4985 41.2501C44.6264 41.2317 44.7152 41.1789 44.7962 41.1209C44.7962 41.1025 44.7962 41.0761 44.7962 41.0576C44.8797 41.0365 44.9424 40.9917 44.9998 40.9548ZM37.5295 41.3635C37.5556 41.382 37.5347 41.382 37.5556 41.3635H37.5295ZM37.4798 41.7722C37.4746 41.7775 37.4746 41.7907 37.4668 41.7986C37.472 41.8038 37.4851 41.8118 37.4929 41.8118C37.4981 41.8118 37.4981 41.8065 37.506 41.7986C37.4981 41.7933 37.4851 41.7801 37.4798 41.7722ZM40.9422 42.7478C40.9552 42.819 40.9474 42.8322 41.0179 42.8638V42.8506C40.9918 42.7926 41.0101 42.7715 40.9422 42.7478ZM37.9498 43.0932C37.976 43.1381 37.9499 43.1064 37.989 43.1249C37.9942 43.1249 38.0021 43.1196 38.0021 43.1064V43.0932H37.9498ZM37.6261 43.3859C37.6313 43.3991 37.6522 43.4123 37.6574 43.4255H37.707V43.4123C37.6835 43.3938 37.6835 43.3938 37.6261 43.3859ZM37.7279 43.6812V43.7208H37.7671C37.7514 43.7076 37.7384 43.6944 37.7279 43.6812ZM37.8663 43.8737C37.8611 43.879 37.8611 43.8922 37.8532 43.9001H37.8794C37.8715 43.8922 37.8715 43.879 37.8663 43.8737ZM39.0909 45.9621C39.0857 45.9673 39.0857 45.9673 39.0778 45.9752C39.0831 45.9884 39.0961 45.9937 39.1092 46.0016C39.1222 46.0016 39.1353 45.9963 39.1483 45.9884C39.1353 45.9805 39.1144 45.9673 39.0909 45.9621ZM39.3442 46.0834C39.3311 46.0781 39.3181 46.0781 39.2998 46.0702C39.2737 46.0886 39.2502 46.1097 39.2162 46.1203C39.2998 46.1335 39.3363 46.1598 39.3677 46.0807" fill="#1A1A1A"/>
<path d="M39.6598 46.0833C39.6415 46.078 39.6154 46.078 39.5971 46.0701C39.5841 46.0753 39.571 46.0753 39.5527 46.0833C39.5658 46.0885 39.571 46.0885 39.5841 46.0964C39.5971 46.1096 39.6102 46.1228 39.6232 46.136C39.6415 46.1307 39.6546 46.1228 39.6807 46.1096C39.6676 46.1017 39.6676 46.0885 39.6598 46.0833Z" fill="#1A1A1A"/>
<path d="M39.787 46.2994V46.2863C39.6721 46.2731 39.6277 46.281 39.5598 46.2362C39.5468 46.1412 39.5598 46.107 39.458 46.0832C39.4763 46.1782 39.5076 46.2942 39.5024 46.3522C39.5154 46.3575 39.5337 46.3654 39.5468 46.3654C39.5598 46.3337 39.5729 46.3074 39.5859 46.2757C39.5912 46.2757 39.6042 46.281 39.6121 46.2889C39.6382 46.3522 39.6747 46.4102 39.74 46.4418C39.7087 46.4102 39.6904 46.3706 39.6643 46.339V46.3258C39.7034 46.3205 39.7478 46.3074 39.787 46.2994ZM39.5703 46.5051C39.5755 46.5104 39.5755 46.5236 39.5833 46.5315C39.5886 46.5262 39.5886 46.513 39.5964 46.5051H39.5703ZM40.4267 46.7925C40.4215 46.8426 40.4137 46.811 40.4659 46.8321C40.4528 46.8189 40.4398 46.8057 40.4267 46.7925ZM40.821 46.8057C40.8523 46.8505 40.915 46.8453 40.9855 46.8637C40.9907 46.8505 40.9907 46.8453 40.9985 46.8321C40.9333 46.8242 40.8758 46.8136 40.821 46.8057ZM46.2234 0C35.9774 0 27.1832 6.28084 23.4102 15.2328C26.8908 8.97828 34.2515 1.46606 46.2103 1.47924C57.0072 1.48451 65.0808 8.04749 69.0366 15.2459C65.2688 6.28875 56.4693 0 46.2234 0Z" fill="#1A1A1A"/>
<path d="M69.8548 32.617C66.6458 42.534 57.6114 50.2572 46.1669 50.2572C34.0305 50.2572 25.876 42.6448 22.5913 32.8333C26.0092 41.9698 35.2786 48.5196 46.1904 48.5196C57.1727 48.5222 66.5126 41.8617 69.8548 32.617ZM3.83049 31.7785C1.35777 31.7785 0.0443888 30.1833 0.0313332 27.1483L0 20.1872C0 20.1107 0.0574443 20.0475 0.133166 20.0343L2.2821 19.8233C2.32649 19.8181 2.36566 19.8365 2.39699 19.8681C2.42833 19.8945 2.44138 19.9314 2.44138 19.971L2.48055 26.8609C2.48577 28.3718 3.0576 29.1391 4.18038 29.1391C4.26393 29.1391 4.35793 29.1391 4.44671 29.1259C5.76009 28.9967 6.43115 28.0949 6.41809 26.4443L6.38676 19.5623C6.38676 19.4858 6.4442 19.4225 6.51992 19.4093L8.68192 19.1984C8.72631 19.1931 8.76547 19.2116 8.79681 19.2432C8.82814 19.2696 8.8412 19.3065 8.8412 19.3461L8.87253 26.3125C8.88558 28.182 8.32681 31.3698 4.46499 31.7495C4.24304 31.7654 4.03154 31.7785 3.83049 31.7785Z" fill="#1A1A1A"/>
<path d="M11.1835 30.7847C11.1443 30.7847 11.113 30.7715 11.0895 30.7451C11.0581 30.7188 11.0399 30.6819 11.0399 30.6291L10.9824 19.1433C10.9824 19.0589 11.0451 18.9956 11.1208 18.9903L13.416 18.8295C13.4656 18.8295 13.5178 18.8479 13.5491 18.8875L18.4136 25.374L18.3823 18.6264C18.3823 18.55 18.4397 18.4867 18.5207 18.4788L20.3798 18.3443C20.4189 18.3443 20.4555 18.3575 20.4868 18.3839C20.5182 18.4102 20.5312 18.4471 20.5312 18.492L20.5887 29.9858C20.5887 30.0701 20.526 30.1334 20.4503 30.1334L18.5468 30.2732C18.4972 30.2732 18.445 30.2547 18.4136 30.2099L13.1575 23.1776L13.1966 30.5026C13.1966 30.579 13.1392 30.6423 13.0582 30.6502L11.207 30.7847C11.1965 30.7847 11.1965 30.7847 11.1835 30.7847ZM23.3147 29.9989C23.2703 29.9989 23.2389 29.9805 23.2076 29.9541C23.1815 29.9277 23.1632 29.8908 23.1632 29.846L23.1006 18.3918C23.1006 18.3153 23.1632 18.252 23.2389 18.2441L25.7117 18.1149C25.7508 18.1149 25.7952 18.1281 25.8187 18.1545C25.85 18.1808 25.8683 18.2257 25.8683 18.2705L25.9179 29.7194C25.9179 29.8091 25.8553 29.8724 25.7795 29.8724L23.3199 30.0016H23.3147V29.9989ZM32.4144 29.6087C32.3569 29.6087 32.3073 29.577 32.2812 29.5138L27.4506 18.2072C27.4245 18.1571 27.4245 18.1044 27.4559 18.0674C27.482 18.0279 27.5264 18.0042 27.576 17.9963L30.4038 17.9119C30.4665 17.9119 30.5187 17.9435 30.5422 18.0015L33.6938 25.3898L36.9394 17.8011C36.9577 17.7431 37.0099 17.7115 37.0726 17.7115L39.2972 17.6482C39.3547 17.6482 39.3991 17.6667 39.4252 17.7115C39.4513 17.7563 39.4565 17.8064 39.4382 17.8512L34.4797 29.461C34.4536 29.5111 34.404 29.5454 34.3518 29.5454L32.417 29.6087H32.4144ZM41.1694 29.3898C41.0937 29.3898 41.0232 29.3266 41.0232 29.2422L40.9527 17.7879C40.9527 17.7484 40.9709 17.7115 41.0023 17.6798C41.0284 17.6482 41.0649 17.635 41.1041 17.635L50.196 17.6218C50.2795 17.6218 50.3422 17.693 50.3422 17.7748L50.3552 20.0081C50.3605 20.0477 50.337 20.0793 50.3109 20.111C50.2847 20.1373 50.2482 20.1505 50.209 20.1505L43.8693 20.1558L43.8745 22.1466L48.1358 22.1413C48.2194 22.1413 48.2873 22.2046 48.2873 22.281L48.2925 24.5355C48.2977 24.5751 48.2794 24.612 48.2481 24.6436C48.222 24.67 48.1854 24.6884 48.1463 24.6884H43.8928L43.9058 26.8401L50.3109 26.8348C50.3944 26.8348 50.4571 26.8981 50.4571 26.9824L50.4701 29.229C50.4701 29.2738 50.4571 29.3134 50.4257 29.3371C50.3996 29.3635 50.3631 29.3767 50.3187 29.3767L41.1694 29.3898ZM63.0818 29.7353H63.0765L60.1338 29.6509C60.0842 29.6456 60.0398 29.6192 60.0137 29.5744L57.5227 25.2448L55.9117 25.1947L55.93 29.3687C55.93 29.4083 55.9117 29.4452 55.8856 29.4716C55.8595 29.4979 55.8151 29.5111 55.7785 29.5111L53.3006 29.4399C53.217 29.4399 53.1544 29.3767 53.1544 29.2923L53.1047 17.7985C53.1047 17.7589 53.1178 17.7141 53.1491 17.6904C53.1752 17.664 53.2118 17.6456 53.251 17.6508L59.4967 17.8354C61.5699 17.8987 62.7632 19.2303 62.7737 21.4926C62.7867 23.6759 61.6326 24.5856 60.5855 24.9627L63.2097 29.5085C63.2358 29.5586 63.2358 29.6166 63.2097 29.6614C63.1836 29.7089 63.134 29.7353 63.0818 29.7353ZM55.8856 22.6792L57.9013 22.7372C57.9901 22.7372 58.0789 22.7425 58.1624 22.7425C58.9118 22.7425 59.3427 22.6344 59.5777 22.3892C59.7683 22.2046 59.8492 21.9013 59.8492 21.4162C59.844 20.873 59.7422 20.3852 58.5176 20.3456L55.8725 20.2613L55.8856 22.6792ZM69.5442 30.4076C69.385 30.4076 69.2283 30.4024 69.0612 30.3945C67.3039 30.2995 65.4657 29.1894 64.9461 28.8519C64.9017 28.8203 64.8756 28.7755 64.8756 28.7227L64.8625 26.0727C64.8625 26.0226 64.8939 25.9699 64.9461 25.9435C64.9905 25.9172 65.0479 25.9251 65.0923 25.9488C66.6903 27.0246 68.2047 27.7155 69.069 27.7603C69.8811 27.8104 70.419 27.6891 70.6853 27.4149C70.8237 27.2804 70.889 27.1064 70.8811 26.8902C70.8811 26.6265 70.62 26.3786 70.056 26.0886C69.7322 25.9277 69.3327 25.7616 68.915 25.5902C67.1394 24.8546 64.7111 23.8473 64.698 21.134C64.6928 20.2323 64.9774 19.4808 65.5362 18.9059C66.2647 18.1756 67.4266 17.8038 68.7322 17.8697C70.2675 17.9593 72.0927 18.7477 72.9491 19.2645C72.9935 19.2909 73.0196 19.3357 73.0196 19.3938L73.0327 21.962C73.0327 22.0121 73.0013 22.0648 72.957 22.0912C72.9126 22.1176 72.8551 22.1176 72.8055 22.0859C72.2781 21.7405 70.4346 20.5935 68.7348 20.5038C68.1264 20.4722 67.8288 20.6383 67.6956 20.7675C67.5676 20.8967 67.5494 21.0233 67.5494 21.0945C67.5546 21.3766 67.8209 21.6508 68.3797 21.9594C68.7217 22.1439 69.1474 22.3232 69.6043 22.5104C71.3485 23.2593 73.7455 24.2718 73.7507 26.7109C73.756 27.8051 73.4452 28.6753 72.8238 29.3028C72.0927 30.0306 70.996 30.4076 69.5442 30.4076ZM85.0646 31.1301C85.0594 31.1301 85.0594 31.1301 85.0516 31.1301L82.605 30.9455C82.5475 30.9455 82.4979 30.906 82.477 30.8506L81.6519 28.5382L77.67 28.2507L76.8266 30.4208C76.8083 30.4788 76.7431 30.5237 76.6804 30.5105L74.6254 30.3628C74.5811 30.3575 74.5367 30.3312 74.5106 30.2863C74.4844 30.2468 74.4792 30.202 74.4975 30.1571L78.8972 18.8954C78.9233 18.8374 78.9808 18.8005 79.0434 18.8057L80.7615 18.927C80.819 18.927 80.8634 18.9719 80.8895 19.0299L85.2004 30.9324C85.2187 30.9825 85.2135 31.0352 85.1821 31.0721C85.1613 31.1117 85.109 31.1301 85.0646 31.1301ZM78.6439 25.7774L80.6989 25.9304L79.691 23.1143L78.6439 25.7774ZM93.8484 31.9581H93.8353L86.7775 31.291C86.7018 31.2857 86.6444 31.2277 86.6444 31.1512L86.5739 19.5177C86.5739 19.4781 86.6 19.4333 86.6313 19.4096C86.6574 19.3832 86.694 19.37 86.7384 19.37L88.869 19.5678C88.9526 19.5731 89.0022 19.639 89.0022 19.7154L89.0466 28.9284L93.8536 29.3714C93.9293 29.3767 93.9868 29.4478 93.9868 29.5243L93.9998 31.8025C93.9998 31.8473 93.9816 31.8869 93.9502 31.9106C93.9241 31.9449 93.8928 31.9581 93.8484 31.9581Z" fill="#1A1A1A"/>
</svg>
