<svg width="550" height="35" viewBox="0 0 550 35" fill="none" xmlns="http://www.w3.org/2000/svg">
<path d="M14.92 2.04C21.1067 1.93333 24.2 2.98666 24.2 5.2C24.2 7.14668 21.5467 9.19999 16.24 11.36C13.2267 12.5867 9.65335 13.7467 5.52 14.84C2.79999 18.92 1.44 21.32 1.44 22.04C1.44 22.2533 1.54667 22.36 1.76 22.36C1.94667 22.36 2.22 22.22 2.58 21.94C2.94 21.66 3.17333 21.52 3.28 21.52C3.41333 21.52 3.48 21.6133 3.48 21.8C3.48 22.1733 3.24667 22.5533 2.78 22.94C2.31333 23.3267 1.88 23.52 1.48 23.52C0.786663 23.52 0.44 23.1467 0.44 22.4C0.44 21.3867 1.65332 18.9867 4.08 15.2C3.92 15.2533 3.78667 15.28 3.68 15.28C3.25333 15.28 3.04 15.0667 3.04 14.64C3.04 14.08 3.32 13.8 3.88 13.8C4.01333 13.8 4.14667 13.8267 4.28 13.88L5 13.76C6.78668 11.0133 8.41333 8.64001 9.88 6.64C10.4933 5.89333 11.3867 4.74667 12.56 3.2L10.48 3.28C9.22666 3.36 7.36001 3.56 4.88 3.88C2.93332 4.12 1.70667 4.24 1.2 4.24C0.399996 4.24 0 4 0 3.52C0 3.38667 0.0533328 3.24 0.16 3.08C3.09335 2.81333 7.4933 2.48 13.36 2.08C13.52 1.81333 13.7333 1.42667 14 0.92C14.1867 0.306664 14.44 0 14.76 0C15.08 0 15.24 0.266664 15.24 0.8C15.24 1.2 15.1333 1.61333 14.92 2.04ZM6.48 13.44C9.78668 12.5867 12.88 11.56 15.76 10.36C20.4 8.41332 22.72 6.62667 22.72 5C22.72 4.76 22.6667 4.54667 22.56 4.36C22.1333 3.53333 19.9867 3.12 16.12 3.12H14.12C11.5867 6.24002 9.04001 9.67998 6.48 13.44ZM22.12 18.16C22.36 17.4933 22.48 16.8267 22.48 16.16C22.48 14.96 22.2533 14.36 21.8 14.36C21.5333 14.36 21.2933 14.6667 21.08 15.28C20.92 15.7867 20.84 16.2133 20.84 16.56C20.84 17.36 21.2667 17.8933 22.12 18.16ZM28.7314 14.9609C28.7771 14.9682 28.8 15.0212 28.8 15.12C28.8 15.28 28.7067 15.52 28.52 15.84C28.0133 16.7467 27.16 17.5333 25.96 18.2C24.8667 18.7867 23.8533 19.12 22.92 19.2C22.7867 19.4933 22.2533 20.1333 21.32 21.12C20.0667 22.4533 19.0133 23.12 18.16 23.12C17.6267 23.12 17.2067 22.92 16.9 22.52C16.5933 22.12 16.44 21.6533 16.44 21.12C16.44 19.04 17.0533 16.8933 18.28 14.68C18.5467 14.2 18.84 13.96 19.16 13.96C19.32 13.96 19.4 14.08 19.4 14.32C19.4 14.4 19.1267 15.2933 18.58 17C18.0333 18.7067 17.76 19.9867 17.76 20.84C17.76 21.4267 18 21.72 18.48 21.72C18.9867 21.72 19.6667 21.24 20.52 20.28C20.8133 20.0667 21.2133 19.6667 21.72 19.08C20.44 18.68 19.8 17.8133 19.8 16.48C19.8 15.84 19.9933 15.18 20.38 14.5C20.7667 13.82 21.2533 13.48 21.84 13.48C22.4267 13.48 22.8933 13.7333 23.24 14.24C23.5867 14.7467 23.76 15.3067 23.76 15.92C23.76 16.64 23.6133 17.4133 23.32 18.24C24.2 18.2933 25.3467 17.76 26.76 16.64C28.1198 15.5624 28.7761 15.0032 28.7289 14.9624L28.7314 14.9609ZM27.76 14.32C27.76 13.6 28.0667 13.24 28.68 13.24C29.0533 13.24 29.24 13.4133 29.24 13.76C29.24 13.9467 29.1733 14.1867 29.04 14.48H29.24C29.8 14.48 30.48 14.3333 31.28 14.04C31.68 13.88 31.9867 13.7267 32.2 13.58C32.4133 13.4333 32.6267 13.2733 32.84 13.1C33.0533 12.9267 33.2267 12.84 33.36 12.84C34 12.84 34.32 13.0267 34.32 13.4C34.32 13.6133 33.9333 14.2267 33.16 15.24C32.2533 16.44 31.76 17.1067 31.68 17.24C30.64 19.0533 30.12 20.24 30.12 20.8C30.12 21.28 30.3867 21.52 30.92 21.52C31.56 21.52 32.5733 21.0667 33.96 20.16C34.76 19.6267 35.5867 18.8533 36.44 17.84C37.16 16.96 37.8933 16.08 38.64 15.2C38.7733 15.04 38.9067 14.96 39.04 14.96C39.1467 14.96 39.2 15.04 39.2 15.2C39.2 15.28 39.16 15.4 39.08 15.56C38.5733 16.4667 37.6667 17.6133 36.36 19C34.9733 20.44 33.8667 21.3467 33.04 21.72C32.1067 22.1467 31.2533 22.36 30.48 22.36C29.3333 22.36 28.76 21.9733 28.76 21.2C28.76 20.1867 29.7867 18.0533 31.84 14.8C29.6533 15.36 28.5867 15.64 28.64 15.64C28.4 15.64 28.1933 15.48 28.02 15.16C27.8467 14.84 27.76 14.56 27.76 14.32ZM41.44 20.88L39.64 23.48C38.7333 24.7333 37.84 26.2533 36.96 28.04C35.8133 30.3067 35.24 31.9467 35.24 32.96C35.24 33.1733 35.2933 33.28 35.4 33.28C35.7733 33.28 36.4533 32.4267 37.44 30.72C38.1867 29.4667 38.7467 28.4267 39.12 27.6C40 25.6267 40.7733 23.3867 41.44 20.88ZM45.48 12.6C45.7733 12.3867 46.04 12.28 46.28 12.28C46.6267 12.28 46.8 12.4667 46.8 12.84C46.8 13.1333 45.2267 15.5066 42.08 19.96C42.5333 20.1733 43.0267 20.28 43.56 20.28C44.68 20.28 45.72 19.9867 46.68 19.4C48.1467 18.44 49.52 16.8267 50.8 14.56C50.9067 14.3467 51.0267 14.24 51.16 14.24C51.32 14.24 51.4 14.36 51.4 14.6C51.4 15.24 50.7867 16.3067 49.56 17.8C48.44 19.16 47.52 20.04 46.8 20.44C45.7067 21.08 44.6267 21.4 43.56 21.4C43.1067 21.4 42.72 21.3067 42.4 21.12C42.2133 21.8933 41.4533 24.1333 40.12 27.84C39.8267 28.64 39.52 29.36 39.2 30C38.7467 30.8533 38.16 31.7333 37.44 32.64C36.48 33.8933 35.72 34.52 35.16 34.52C34.5467 34.52 34.24 34.04 34.24 33.08C34.24 30.8133 35.5333 27.6667 38.12 23.64C38.8933 22.4133 40.9067 19.6134 44.16 15.24C40.5066 19.1067 38.2133 21.04 37.28 21.04C36.2933 21.04 35.8 20.6 35.8 19.72C35.8 18.52 36.8267 16.74 38.88 14.38C40.9333 12.02 42.5733 10.84 43.8 10.84C44.7867 10.84 45.3467 11.4267 45.48 12.6ZM43.88 12C43 12 41.64 13.0467 39.8 15.14C37.96 17.2333 37.04 18.72 37.04 19.6C37.04 19.7867 37.1467 19.88 37.36 19.88C38.08 19.88 40.1467 18.0933 43.56 14.52C43.7733 14.28 44.12 13.8933 44.6 13.36C44.52 13.2533 44.4667 12.96 44.44 12.48C44.3867 12.16 44.2 12 43.88 12ZM51.56 12.52C51.9867 12.52 52.2 12.7067 52.2 13.08C52.2 13.1867 51.7133 14.26 50.74 16.3C49.7667 18.34 49.28 19.6933 49.28 20.36C49.28 20.6533 49.3867 20.8 49.6 20.8C50.56 20.8 52.8266 18.4934 56.4 13.88C56.4533 13.32 56.6933 13.04 57.12 13.04C57.7067 13.04 58 13.2267 58 13.6C58 13.7333 57.5333 14.8267 56.6 16.88C55.6667 18.9333 55.2 20.2933 55.2 20.96C55.2 21.2267 55.28 21.36 55.44 21.36C56.2133 21.36 57.2 20.8 58.4 19.68C59.0667 19.0133 59.9867 17.96 61.16 16.52C62.0667 15.3733 62.5867 14.8 62.72 14.8C62.8267 14.8 62.88 14.8533 62.88 14.96C62.88 15.12 62.7467 15.3867 62.48 15.76C61.0933 17.7067 60.0667 19.04 59.4 19.76C57.8533 21.4667 56.5333 22.32 55.44 22.32C54.5067 22.32 54.04 21.8533 54.04 20.92C54.04 19.9067 54.4933 18.52 55.4 16.76C54.5733 17.96 53.64 19.0533 52.6 20.04C51.16 21.4267 49.9333 22.12 48.92 22.12C48.4133 22.12 48.16 21.68 48.16 20.8C48.16 19.0133 49.1333 16.3467 51.08 12.8C51.16 12.6133 51.32 12.52 51.56 12.52ZM71.36 15.08C71.36 15.3467 71.2667 15.6267 71.08 15.92C70.0933 17.4133 68.5333 18.92 66.4 20.44C64.0533 22.1467 62.1067 23 60.56 23C60.1333 23 59.7333 22.8533 59.36 22.56C58.9867 22.2667 58.8 21.8933 58.8 21.44C58.8 20.2933 59.48 18.6133 60.84 16.4C62.28 14.0267 63.52 12.84 64.56 12.84C65.0133 12.84 65.4 13.0333 65.72 13.42C66.04 13.8067 66.2 14.24 66.2 14.72C66.2 15.76 65.6267 16.64 64.48 17.36C63.1733 18.1867 61.96 18.72 60.84 18.96C60.28 20.16 60 21.0133 60 21.52C60 21.8667 60.12 22.0267 60.36 22H60.48C62.1067 21.84 64.0133 21.0267 66.2 19.56C68.2 18.2 69.7467 16.76 70.84 15.24C71.0267 15 71.16 14.88 71.24 14.88C71.32 14.88 71.36 14.9467 71.36 15.08ZM65.16 14.4C65.16 14.16 65.0533 14.04 64.84 14.04C63.9867 14.04 62.8933 15.2267 61.56 17.6C62.1733 17.36 62.6 17.2 62.84 17.12C63.2933 16.9067 63.6667 16.64 63.96 16.32C64.76 15.5733 65.16 14.9333 65.16 14.4ZM78.4 7.36C78.6933 7.36 79.1333 7.39333 79.72 7.46C80.3067 7.52667 80.7467 7.56 81.04 7.56C82.3733 7.56 83.7467 7.45333 85.16 7.24L87 3.48C87.16 3.18667 87.3733 3.04 87.64 3.04C88.0933 3.04 88.32 3.30666 88.32 3.84C88.32 4.08 88.2267 4.46666 88.04 5C87.8267 5.61334 87.5867 6.22666 87.32 6.84C87.9333 6.68 88.9067 6.45334 90.24 6.16C93.0933 5.54666 94.9867 5.24 95.92 5.24C96.2667 5.24 96.44 5.36 96.44 5.6C96.44 5.89333 96.1867 6.04 95.68 6.04C95.1733 6.04 93.5067 6.37333 90.68 7.04C89.8267 7.22667 88.5333 7.52 86.8 7.92C86.1067 9.33334 85.1867 10.9867 84.04 12.88C83.3733 13.92 82.76 15.1333 82.2 16.52C81.56 18.1733 81.24 19.48 81.24 20.44C81.24 21.0533 81.4933 21.36 82 21.36C82.9067 21.36 84.2533 20.52 86.04 18.84C87.24 17.72 88.3867 16.48 89.48 15.12C89.6667 14.88 89.8267 14.76 89.96 14.76C90.0667 14.76 90.12 14.84 90.12 15C90.12 15.16 90.0533 15.36 89.92 15.6C89.0667 17.04 87.8933 18.4667 86.4 19.88C84.5867 21.5867 83.0533 22.44 81.8 22.44C80.6533 22.44 80.08 21.76 80.08 20.4C80.08 18.3467 80.8667 15.7733 82.44 12.68L84.6 8.32C83 8.58667 81.5467 8.72 80.24 8.72C78.72 8.72 77.96 8.37334 77.96 7.68C77.96 7.46667 78.1067 7.36 78.4 7.36ZM90.72 12.52C91.1467 12.52 91.36 12.7067 91.36 13.08C91.36 13.1867 90.8733 14.26 89.9 16.3C88.9267 18.34 88.44 19.6933 88.44 20.36C88.44 20.6533 88.5467 20.8 88.76 20.8C89.72 20.8 91.9866 18.4934 95.56 13.88C95.6133 13.32 95.8533 13.04 96.28 13.04C96.8667 13.04 97.16 13.2267 97.16 13.6C97.16 13.7333 96.6933 14.8267 95.76 16.88C94.8267 18.9333 94.36 20.2933 94.36 20.96C94.36 21.2267 94.44 21.36 94.6 21.36C95.3733 21.36 96.36 20.8 97.56 19.68C98.2267 19.0133 99.1467 17.96 100.32 16.52C101.227 15.3733 101.747 14.8 101.88 14.8C101.987 14.8 102.04 14.8533 102.04 14.96C102.04 15.12 101.907 15.3867 101.64 15.76C100.253 17.7067 99.2267 19.04 98.56 19.76C97.0133 21.4667 95.6933 22.32 94.6 22.32C93.6667 22.32 93.2 21.8533 93.2 20.92C93.2 19.9067 93.6533 18.52 94.56 16.76C93.7333 17.96 92.8 19.0533 91.76 20.04C90.32 21.4267 89.0933 22.12 88.08 22.12C87.5733 22.12 87.32 21.68 87.32 20.8C87.32 19.0133 88.2933 16.3467 90.24 12.8C90.32 12.6133 90.48 12.52 90.72 12.52ZM104.96 20.28C106.587 19.72 107.92 18.6133 108.96 16.96C109.12 16.6667 109.393 16.2467 109.78 15.7C110.167 15.1533 110.453 14.88 110.64 14.88C110.72 14.88 110.76 14.9333 110.76 15.04C110.76 15.1733 110.68 15.4 110.52 15.72C108.973 18.68 106.947 20.52 104.44 21.24C103.587 22.4933 102.307 23.12 100.6 23.12C99.4533 23.12 98.88 22.8533 98.88 22.32C98.88 22.2133 98.92 22.1067 99 22C99.1067 21.7867 99.84 21.52 101.2 21.2C102.053 21.0133 102.893 20.8267 103.72 20.64C104.013 20.16 104.16 19.7333 104.16 19.36C104.16 17.9733 103.16 16.6667 101.16 15.44C100.947 15.0933 100.84 14.8 100.84 14.56C100.84 13.9733 101.2 13.68 101.92 13.68C102.32 13.68 102.52 13.8667 102.52 14.24C102.52 14.4267 102.467 14.6533 102.36 14.92C102.947 15.56 103.547 16.2 104.16 16.84C104.827 17.6133 105.16 18.4 105.16 19.2C105.16 19.5467 105.093 19.9067 104.96 20.28ZM100 22.2C100.32 22.3333 100.653 22.4 101 22.4C101.747 22.4 102.4 22.1467 102.96 21.64C102.267 21.72 101.28 21.9067 100 22.2ZM121.16 13.12C121.56 13.12 121.76 13.52 121.76 14.32C121.76 15.0133 121.133 17.48 119.88 21.72C120.733 21.3467 121.96 20.2533 123.56 18.44C125.24 16.4933 126.08 15.0667 126.08 14.16C126.08 13.9733 126.033 13.7133 125.94 13.38C125.847 13.0467 125.8 12.8 125.8 12.64C125.8 12.24 125.947 12.04 126.24 12.04C126.56 12.04 126.82 12.1867 127.02 12.48C127.22 12.7733 127.307 13.08 127.28 13.4V13.6C127.227 14.4533 126.96 15.2933 126.48 16.12C126.213 16.5467 125.653 17.2533 124.8 18.24C123.76 19.4933 123.04 20.3333 122.64 20.76C121.52 21.9867 120.72 22.64 120.24 22.72C120.053 22.7467 119.88 22.76 119.72 22.76C118.973 22.76 118.6 22.4133 118.6 21.72C118.6 21.1067 118.947 19.7867 119.64 17.76C119.8 16.8533 120.08 15.52 120.48 13.76C120.587 13.3333 120.813 13.12 121.16 13.12ZM143.28 14.36C143.28 14.52 143.173 14.8267 142.96 15.28C142.8 15.6 142.387 16.1867 141.72 17.04C139.027 20.56 136.8 22.32 135.04 22.32C133.813 22.32 133.2 21.48 133.2 19.8C133.2 19.08 133.347 18.2533 133.64 17.32C130.653 20.5467 128.613 22.16 127.52 22.16C127.253 22.16 126.987 21.9867 126.72 21.64C126.453 21.2933 126.32 20.9867 126.32 20.72C126.32 20.1867 126.68 19.2133 127.4 17.8C128.013 16.6533 128.56 15.7467 129.04 15.08C130.613 12.92 132.12 11.84 133.56 11.84C134.52 11.84 135 12.2133 135 12.96C135 13.0933 134.947 13.3333 134.84 13.68C134.973 13.6 135.147 13.56 135.36 13.56C135.893 13.56 136.16 13.72 136.16 14.04C136.16 14.0667 136.027 14.44 135.76 15.16C134.853 17.6933 134.4 19.3467 134.4 20.12C134.4 20.7333 134.693 21.04 135.28 21.04C136.027 21.04 137.04 20.4533 138.32 19.28C139.04 18.6133 140.067 17.52 141.4 16C142.44 14.8267 143.027 14.24 143.16 14.24C143.24 14.24 143.28 14.28 143.28 14.36ZM133.8 15.04C133.613 14.8267 133.52 14.6133 133.52 14.4C133.52 14.2667 133.54 14.0867 133.58 13.86C133.62 13.6333 133.64 13.4533 133.64 13.32C133.64 13.08 133.533 12.96 133.32 12.96C132.84 12.96 132.147 13.4133 131.24 14.32C130.547 15.0133 129.987 15.6667 129.56 16.28C129.213 16.7867 128.813 17.48 128.36 18.36C127.827 19.4 127.56 20.12 127.56 20.52C127.587 20.5733 127.6 20.6133 127.6 20.64H127.72C128.68 20.64 130.227 19.48 132.36 17.16C132.6 16.8933 133.08 16.1867 133.8 15.04ZM153.04 14.48C153.04 14.5867 152.96 14.7867 152.8 15.08C151.947 16.5733 150.293 18.1467 147.84 19.8C145.307 21.5067 143.24 22.36 141.64 22.36C140.093 22.36 139.32 21.72 139.32 20.44C139.32 20.1733 139.36 19.8933 139.44 19.6C139.68 18.56 140.473 17.1733 141.82 15.44C143.167 13.7067 144.333 12.5333 145.32 11.92C145.667 11.7067 146 11.6 146.32 11.6C147.173 11.6 147.6 11.96 147.6 12.68C147.6 13.0267 147.46 13.66 147.18 14.58C146.9 15.5 146.667 16.0667 146.48 16.28C146.24 16.5733 145.987 16.72 145.72 16.72C145.507 16.72 145.4 16.6133 145.4 16.4C145.4 16.2667 145.56 15.8133 145.88 15.04C146.2 14.2667 146.36 13.7067 146.36 13.36C146.36 13.0933 146.253 12.96 146.04 12.96C145.64 12.96 144.987 13.4533 144.08 14.44C143.467 15.16 142.933 15.84 142.48 16.48C141.307 18.2667 140.72 19.64 140.72 20.6C140.72 21.0267 140.907 21.24 141.28 21.24C143.093 21.24 145.107 20.5467 147.32 19.16C149.08 18.0133 150.72 16.6133 152.24 14.96C152.587 14.5867 152.827 14.4 152.96 14.4C153.013 14.4 153.04 14.4267 153.04 14.48ZM166.12 14.36C166.12 14.52 166.013 14.8267 165.8 15.28C165.64 15.6 165.227 16.1867 164.56 17.04C161.867 20.56 159.64 22.32 157.88 22.32C156.653 22.32 156.04 21.48 156.04 19.8C156.04 19.08 156.187 18.2533 156.48 17.32C153.493 20.5467 151.453 22.16 150.36 22.16C150.093 22.16 149.827 21.9867 149.56 21.64C149.293 21.2933 149.16 20.9867 149.16 20.72C149.16 20.1867 149.52 19.2133 150.24 17.8C150.853 16.6533 151.4 15.7467 151.88 15.08C153.453 12.92 154.96 11.84 156.4 11.84C157.36 11.84 157.84 12.2133 157.84 12.96C157.84 13.0933 157.787 13.3333 157.68 13.68C157.813 13.6 157.987 13.56 158.2 13.56C158.733 13.56 159 13.72 159 14.04C159 14.0667 158.867 14.44 158.6 15.16C157.693 17.6933 157.24 19.3467 157.24 20.12C157.24 20.7333 157.533 21.04 158.12 21.04C158.867 21.04 159.88 20.4533 161.16 19.28C161.88 18.6133 162.907 17.52 164.24 16C165.28 14.8267 165.867 14.24 166 14.24C166.08 14.24 166.12 14.28 166.12 14.36ZM156.64 15.04C156.453 14.8267 156.36 14.6133 156.36 14.4C156.36 14.2667 156.38 14.0867 156.42 13.86C156.46 13.6333 156.48 13.4533 156.48 13.32C156.48 13.08 156.373 12.96 156.16 12.96C155.68 12.96 154.987 13.4133 154.08 14.32C153.387 15.0133 152.827 15.6667 152.4 16.28C152.053 16.7867 151.653 17.48 151.2 18.36C150.667 19.4 150.4 20.12 150.4 20.52C150.427 20.5733 150.44 20.6133 150.44 20.64H150.56C151.52 20.64 153.067 19.48 155.2 17.16C155.44 16.8933 155.92 16.1867 156.64 15.04ZM175.88 14.48C175.88 14.5867 175.8 14.7867 175.64 15.08C174.787 16.5733 173.133 18.1467 170.68 19.8C168.147 21.5067 166.08 22.36 164.48 22.36C162.933 22.36 162.16 21.72 162.16 20.44C162.16 20.1733 162.2 19.8933 162.28 19.6C162.52 18.56 163.313 17.1733 164.66 15.44C166.007 13.7067 167.173 12.5333 168.16 11.92C168.507 11.7067 168.84 11.6 169.16 11.6C170.013 11.6 170.44 11.96 170.44 12.68C170.44 13.0267 170.3 13.66 170.02 14.58C169.74 15.5 169.507 16.0667 169.32 16.28C169.08 16.5733 168.827 16.72 168.56 16.72C168.347 16.72 168.24 16.6133 168.24 16.4C168.24 16.2667 168.4 15.8133 168.72 15.04C169.04 14.2667 169.2 13.7067 169.2 13.36C169.2 13.0933 169.093 12.96 168.88 12.96C168.48 12.96 167.827 13.4533 166.92 14.44C166.307 15.16 165.773 15.84 165.32 16.48C164.147 18.2667 163.56 19.64 163.56 20.6C163.56 21.0267 163.747 21.24 164.12 21.24C165.933 21.24 167.947 20.5467 170.16 19.16C171.92 18.0133 173.56 16.6133 175.08 14.96C175.427 14.5867 175.667 14.4 175.8 14.4C175.853 14.4 175.88 14.4267 175.88 14.48ZM179.6 9.48C179.6 9.64 179.473 9.84667 179.22 10.1C178.967 10.3533 178.72 10.5867 178.48 10.8C177.867 11.52 177.44 11.88 177.2 11.88C176.987 11.88 176.88 11.7333 176.88 11.44C176.88 10.9333 177.047 10.3667 177.38 9.74C177.713 9.11333 178.107 8.8 178.56 8.8C179.253 8.8 179.6 9.02666 179.6 9.48ZM182.68 14.72C182.68 14.9067 182.56 15.1733 182.32 15.52C180.293 18.6933 178.013 20.8267 175.48 21.92C175 22.1333 174.533 22.24 174.08 22.24C173.12 22.24 172.64 21.7067 172.64 20.64C172.64 20.1067 172.76 19.4533 173 18.68C173.16 18.1467 173.533 17.2133 174.12 15.88C174.813 14.3067 175.293 13.48 175.56 13.4C175.667 13.3467 175.8 13.32 175.96 13.32C176.467 13.32 176.72 13.4933 176.72 13.84C176.72 14.0533 176.267 15.0667 175.36 16.88C174.453 18.6933 174 19.8933 174 20.48C174 20.8267 174.2 21 174.6 21C176.227 21 178.613 19 181.76 15C182.027 14.6533 182.267 14.48 182.48 14.48C182.613 14.48 182.68 14.56 182.68 14.72ZM185.48 18.16C185.72 17.4933 185.84 16.8267 185.84 16.16C185.84 14.96 185.613 14.36 185.16 14.36C184.893 14.36 184.653 14.6667 184.44 15.28C184.28 15.7867 184.2 16.2133 184.2 16.56C184.2 17.36 184.627 17.8933 185.48 18.16ZM192.091 14.9609C192.137 14.9682 192.16 15.0212 192.16 15.12C192.16 15.28 192.067 15.52 191.88 15.84C191.373 16.7467 190.52 17.5333 189.32 18.2C188.227 18.7867 187.213 19.12 186.28 19.2C186.147 19.4933 185.613 20.1333 184.68 21.12C183.427 22.4533 182.373 23.12 181.52 23.12C180.987 23.12 180.567 22.92 180.26 22.52C179.953 22.12 179.8 21.6533 179.8 21.12C179.8 19.04 180.413 16.8933 181.64 14.68C181.907 14.2 182.2 13.96 182.52 13.96C182.68 13.96 182.76 14.08 182.76 14.32C182.76 14.4 182.487 15.2933 181.94 17C181.393 18.7067 181.12 19.9867 181.12 20.84C181.12 21.4267 181.36 21.72 181.84 21.72C182.347 21.72 183.027 21.24 183.88 20.28C184.173 20.0667 184.573 19.6667 185.08 19.08C183.8 18.68 183.16 17.8133 183.16 16.48C183.16 15.84 183.353 15.18 183.74 14.5C184.127 13.82 184.613 13.48 185.2 13.48C185.787 13.48 186.253 13.7333 186.6 14.24C186.947 14.7467 187.12 15.3067 187.12 15.92C187.12 16.64 186.973 17.4133 186.68 18.24C187.56 18.2933 188.707 17.76 190.12 16.64C191.48 15.5624 192.136 15.0032 192.089 14.9624L192.091 14.9609ZM204.76 14.88C204.76 15.1467 204.6 15.5467 204.28 16.08C203.507 17.3333 202.453 18.6267 201.12 19.96C199.44 21.6133 198.093 22.44 197.08 22.44C195.96 22.44 195.4 21.6533 195.4 20.08C195.4 18.9867 195.96 17 197.08 14.12C195.72 15.7733 194.533 17.1733 193.52 18.32C191.493 20.6667 190.253 21.9333 189.8 22.12C189.667 22.1467 189.52 22.16 189.36 22.16C188.773 22.16 188.48 21.9333 188.48 21.48C188.48 21.32 189.04 20.0933 190.16 17.8C191.36 15.2933 192.02 13.88 192.14 13.56C192.26 13.24 192.427 13.08 192.64 13.08C193.067 13.08 193.28 13.3733 193.28 13.96C193.28 14.8933 192.253 17 190.2 20.28C191.267 19.1333 192.6 17.68 194.2 15.92C194.733 15.3067 195.253 14.6933 195.76 14.08C196.64 13.0667 197.16 12.56 197.32 12.56C197.613 12.56 197.933 12.6533 198.28 12.84C198.627 13.0267 198.8 13.24 198.8 13.48C198.8 13.56 198.787 13.64 198.76 13.72C198.333 14.7867 197.893 15.84 197.44 16.88C196.933 18.24 196.68 19.3333 196.68 20.16C196.68 20.88 196.933 21.24 197.44 21.24C198.267 21.24 199.267 20.68 200.44 19.56C201.16 18.8667 202.067 17.8133 203.16 16.4C204.013 15.2533 204.507 14.68 204.64 14.68C204.72 14.68 204.76 14.7467 204.76 14.88ZM213.16 15.08C213.16 15.3467 213.067 15.6267 212.88 15.92C211.893 17.4133 210.333 18.92 208.2 20.44C205.853 22.1467 203.907 23 202.36 23C201.933 23 201.533 22.8533 201.16 22.56C200.787 22.2667 200.6 21.8933 200.6 21.44C200.6 20.2933 201.28 18.6133 202.64 16.4C204.08 14.0267 205.32 12.84 206.36 12.84C206.813 12.84 207.2 13.0333 207.52 13.42C207.84 13.8067 208 14.24 208 14.72C208 15.76 207.427 16.64 206.28 17.36C204.973 18.1867 203.76 18.72 202.64 18.96C202.08 20.16 201.8 21.0133 201.8 21.52C201.8 21.8667 201.92 22.0267 202.16 22H202.28C203.907 21.84 205.813 21.0267 208 19.56C210 18.2 211.547 16.76 212.64 15.24C212.827 15 212.96 14.88 213.04 14.88C213.12 14.88 213.16 14.9467 213.16 15.08ZM206.96 14.4C206.96 14.16 206.853 14.04 206.64 14.04C205.787 14.04 204.693 15.2267 203.36 17.6C203.973 17.36 204.4 17.2 204.64 17.12C205.093 16.9067 205.467 16.64 205.76 16.32C206.56 15.5733 206.96 14.9333 206.96 14.4ZM216.16 20.28C217.787 19.72 219.12 18.6133 220.16 16.96C220.32 16.6667 220.593 16.2467 220.98 15.7C221.367 15.1533 221.653 14.88 221.84 14.88C221.92 14.88 221.96 14.9333 221.96 15.04C221.96 15.1733 221.88 15.4 221.72 15.72C220.173 18.68 218.147 20.52 215.64 21.24C214.787 22.4933 213.507 23.12 211.8 23.12C210.653 23.12 210.08 22.8533 210.08 22.32C210.08 22.2133 210.12 22.1067 210.2 22C210.307 21.7867 211.04 21.52 212.4 21.2C213.253 21.0133 214.093 20.8267 214.92 20.64C215.213 20.16 215.36 19.7333 215.36 19.36C215.36 17.9733 214.36 16.6667 212.36 15.44C212.147 15.0933 212.04 14.8 212.04 14.56C212.04 13.9733 212.4 13.68 213.12 13.68C213.52 13.68 213.72 13.8667 213.72 14.24C213.72 14.4267 213.667 14.6533 213.56 14.92C214.147 15.56 214.747 16.2 215.36 16.84C216.027 17.6133 216.36 18.4 216.36 19.2C216.36 19.5467 216.293 19.9067 216.16 20.28ZM211.2 22.2C211.52 22.3333 211.853 22.4 212.2 22.4C212.947 22.4 213.6 22.1467 214.16 21.64C213.467 21.72 212.48 21.9067 211.2 22.2ZM235.48 20.28C237.107 19.72 238.44 18.6133 239.48 16.96C239.64 16.6667 239.913 16.2467 240.3 15.7C240.687 15.1533 240.973 14.88 241.16 14.88C241.24 14.88 241.28 14.9333 241.28 15.04C241.28 15.1733 241.2 15.4 241.04 15.72C239.493 18.68 237.467 20.52 234.96 21.24C234.107 22.4933 232.827 23.12 231.12 23.12C229.973 23.12 229.4 22.8533 229.4 22.32C229.4 22.2133 229.44 22.1067 229.52 22C229.627 21.7867 230.36 21.52 231.72 21.2C232.573 21.0133 233.413 20.8267 234.24 20.64C234.533 20.16 234.68 19.7333 234.68 19.36C234.68 17.9733 233.68 16.6667 231.68 15.44C231.467 15.0933 231.36 14.8 231.36 14.56C231.36 13.9733 231.72 13.68 232.44 13.68C232.84 13.68 233.04 13.8667 233.04 14.24C233.04 14.4267 232.987 14.6533 232.88 14.92C233.467 15.56 234.067 16.2 234.68 16.84C235.347 17.6133 235.68 18.4 235.68 19.2C235.68 19.5467 235.613 19.9067 235.48 20.28ZM230.52 22.2C230.84 22.3333 231.173 22.4 231.52 22.4C232.267 22.4 232.92 22.1467 233.48 21.64C232.787 21.72 231.8 21.9067 230.52 22.2ZM245.16 9.48C245.16 9.64 245.033 9.84667 244.78 10.1C244.527 10.3533 244.28 10.5867 244.04 10.8C243.427 11.52 243 11.88 242.76 11.88C242.547 11.88 242.44 11.7333 242.44 11.44C242.44 10.9333 242.607 10.3667 242.94 9.74C243.273 9.11333 243.667 8.8 244.12 8.8C244.813 8.8 245.16 9.02666 245.16 9.48ZM248.24 14.72C248.24 14.9067 248.12 15.1733 247.88 15.52C245.853 18.6933 243.573 20.8267 241.04 21.92C240.56 22.1333 240.093 22.24 239.64 22.24C238.68 22.24 238.2 21.7067 238.2 20.64C238.2 20.1067 238.32 19.4533 238.56 18.68C238.72 18.1467 239.093 17.2133 239.68 15.88C240.373 14.3067 240.853 13.48 241.12 13.4C241.227 13.3467 241.36 13.32 241.52 13.32C242.027 13.32 242.28 13.4933 242.28 13.84C242.28 14.0533 241.827 15.0667 240.92 16.88C240.013 18.6933 239.56 19.8933 239.56 20.48C239.56 20.8267 239.76 21 240.16 21C241.787 21 244.173 19 247.32 15C247.587 14.6533 247.827 14.48 248.04 14.48C248.173 14.48 248.24 14.56 248.24 14.72ZM252 20.96C252.347 20.7733 252.867 20.48 253.56 20.08C255.587 18.9333 257.013 17.9067 257.84 17C258.107 16.6267 258.52 16.08 259.08 15.36C259.347 15.04 259.547 14.88 259.68 14.88C259.76 14.88 259.8 14.9333 259.8 15.04C259.8 15.1733 259.72 15.3867 259.56 15.68C258.387 18 255.707 20.1733 251.52 22.2C251.067 23.3467 250.333 25.04 249.32 27.28C248.52 28.9067 247.627 30.3467 246.64 31.6C245.173 33.4667 243.88 34.4 242.76 34.4C242.12 34.4 241.8 33.9333 241.8 33C241.8 31.5333 242.28 29.92 243.24 28.16C244.147 26.5067 245.213 25.1733 246.44 24.16C247.427 23.3333 248.707 22.52 250.28 21.72L252.64 16C251.813 17.28 250.8 18.5333 249.6 19.76C248.027 21.3867 246.747 22.2 245.76 22.2C245.44 22.2 245.14 22.0467 244.86 21.74C244.58 21.4333 244.44 21.12 244.44 20.8C244.44 19.6533 245.347 17.8533 247.16 15.4C249.053 12.84 250.52 11.56 251.56 11.56C252.6 11.56 253.107 12.1733 253.08 13.4V13.56C253.427 13.3467 253.707 13.24 253.92 13.24C254.133 13.24 254.24 13.3733 254.24 13.64C254.24 14.9467 253.493 17.3866 252 20.96ZM245.88 20.76C246.227 20.76 246.853 20.4133 247.76 19.72C248.48 19.1867 249.053 18.7067 249.48 18.28C250.04 17.7467 250.947 16.5333 252.2 14.64C251.987 14.56 251.88 14.4 251.88 14.16C251.88 13.5467 251.893 13.2933 251.92 13.4C251.867 13.08 251.72 12.92 251.48 12.92C250.68 12.92 249.527 13.9733 248.02 16.08C246.513 18.1867 245.76 19.6933 245.76 20.6C245.76 20.7067 245.8 20.76 245.88 20.76ZM243.08 33.36C243.24 33.36 243.48 33.24 243.8 33C244.6 32.44 245.453 31.4933 246.36 30.16C247.16 28.96 247.773 27.84 248.2 26.8L249.68 23.16C248.267 23.9333 247.167 24.7267 246.38 25.54C245.593 26.3533 244.8 27.5067 244 29C243.12 30.6267 242.68 31.8933 242.68 32.8C242.68 33.1733 242.813 33.36 243.08 33.36ZM271.88 14.88C271.88 15.1467 271.72 15.5467 271.4 16.08C270.627 17.3333 269.573 18.6267 268.24 19.96C266.56 21.6133 265.213 22.44 264.2 22.44C263.08 22.44 262.52 21.6533 262.52 20.08C262.52 18.9867 263.08 17 264.2 14.12C262.84 15.7733 261.653 17.1733 260.64 18.32C258.613 20.6667 257.373 21.9333 256.92 22.12C256.787 22.1467 256.64 22.16 256.48 22.16C255.893 22.16 255.6 21.9333 255.6 21.48C255.6 21.32 256.16 20.0933 257.28 17.8C258.48 15.2933 259.14 13.88 259.26 13.56C259.38 13.24 259.547 13.08 259.76 13.08C260.187 13.08 260.4 13.3733 260.4 13.96C260.4 14.8933 259.373 17 257.32 20.28C258.387 19.1333 259.72 17.68 261.32 15.92C261.853 15.3067 262.373 14.6933 262.88 14.08C263.76 13.0667 264.28 12.56 264.44 12.56C264.733 12.56 265.053 12.6533 265.4 12.84C265.747 13.0267 265.92 13.24 265.92 13.48C265.92 13.56 265.907 13.64 265.88 13.72C265.453 14.7867 265.013 15.84 264.56 16.88C264.053 18.24 263.8 19.3333 263.8 20.16C263.8 20.88 264.053 21.24 264.56 21.24C265.387 21.24 266.387 20.68 267.56 19.56C268.28 18.8667 269.187 17.8133 270.28 16.4C271.133 15.2533 271.627 14.68 271.76 14.68C271.84 14.68 271.88 14.7467 271.88 14.88ZM275.8 9.48C275.8 9.64 275.673 9.84667 275.42 10.1C275.167 10.3533 274.92 10.5867 274.68 10.8C274.067 11.52 273.64 11.88 273.4 11.88C273.187 11.88 273.08 11.7333 273.08 11.44C273.08 10.9333 273.247 10.3667 273.58 9.74C273.913 9.11333 274.307 8.8 274.76 8.8C275.453 8.8 275.8 9.02666 275.8 9.48ZM278.88 14.72C278.88 14.9067 278.76 15.1733 278.52 15.52C276.493 18.6933 274.213 20.8267 271.68 21.92C271.2 22.1333 270.733 22.24 270.28 22.24C269.32 22.24 268.84 21.7067 268.84 20.64C268.84 20.1067 268.96 19.4533 269.2 18.68C269.36 18.1467 269.733 17.2133 270.32 15.88C271.013 14.3067 271.493 13.48 271.76 13.4C271.867 13.3467 272 13.32 272.16 13.32C272.667 13.32 272.92 13.4933 272.92 13.84C272.92 14.0533 272.467 15.0667 271.56 16.88C270.653 18.6933 270.2 19.8933 270.2 20.48C270.2 20.8267 270.4 21 270.8 21C272.427 21 274.813 19 277.96 15C278.227 14.6533 278.467 14.48 278.68 14.48C278.813 14.48 278.88 14.56 278.88 14.72ZM281.64 18.2C282.733 18.2267 283.76 17.9467 284.72 17.36C285.333 16.9867 285.973 16.44 286.64 15.72C287.2 15.1333 287.52 14.84 287.6 14.84C287.707 14.84 287.76 14.8533 287.76 14.88C287.76 14.9867 287.667 15.1733 287.48 15.44C286.893 16.4267 286.08 17.2667 285.04 17.96C283.92 18.76 282.84 19.1467 281.8 19.12C279.987 19.0933 278.947 18.64 278.68 17.76C278.733 18.2667 278.76 18.7733 278.76 19.28C278.76 22.24 278.28 24.92 277.32 27.32C275.8 31.1334 274.24 33.04 272.64 33.04C271.84 33.04 271.44 32.5467 271.44 31.56C271.44 29.7733 272.507 26.4134 274.64 21.48C276.4 17.4533 277.973 14.2667 279.36 11.92C280.24 10.4267 281.413 8.74668 282.88 6.88C284.853 4.34665 286.227 3.08 287 3.08C287.4 3.08 287.6 3.4 287.6 4.04C287.6 5.05334 287.107 6.37332 286.12 8C285.373 9.25334 284.52 10.4267 283.56 11.52C282.067 13.2 280.373 14.7067 278.48 16.04C278.933 16.8933 279.347 17.46 279.72 17.74C280.093 18.02 280.733 18.1733 281.64 18.2ZM286.32 4.76C285.947 4.76 284.787 6.14665 282.84 8.92C281.16 11.32 280.067 13 279.56 13.96C280.6 13.0533 281.433 12.2867 282.06 11.66C282.687 11.0333 283.52 9.94667 284.56 8.4C285.76 6.61332 286.36 5.42667 286.36 4.84C286.36 4.78667 286.347 4.76 286.32 4.76ZM272.92 32.08C273.613 32.08 274.507 30.8933 275.6 28.52C276.56 26.52 277.133 24.9867 277.32 23.92C277.613 22.3733 277.76 20.6667 277.76 18.8C277.76 18.32 277.747 17.9067 277.72 17.56C274.173 24.7334 272.4 29.2933 272.4 31.24C272.4 31.8 272.573 32.08 272.92 32.08ZM291.76 9.48C291.76 9.64 291.633 9.84667 291.38 10.1C291.127 10.3533 290.88 10.5867 290.64 10.8C290.027 11.52 289.6 11.88 289.36 11.88C289.147 11.88 289.04 11.7333 289.04 11.44C289.04 10.9333 289.207 10.3667 289.54 9.74C289.873 9.11333 290.267 8.8 290.72 8.8C291.413 8.8 291.76 9.02666 291.76 9.48ZM294.84 14.72C294.84 14.9067 294.72 15.1733 294.48 15.52C292.453 18.6933 290.173 20.8267 287.64 21.92C287.16 22.1333 286.693 22.24 286.24 22.24C285.28 22.24 284.8 21.7067 284.8 20.64C284.8 20.1067 284.92 19.4533 285.16 18.68C285.32 18.1467 285.693 17.2133 286.28 15.88C286.973 14.3067 287.453 13.48 287.72 13.4C287.827 13.3467 287.96 13.32 288.12 13.32C288.627 13.32 288.88 13.4933 288.88 13.84C288.88 14.0533 288.427 15.0667 287.52 16.88C286.613 18.6933 286.16 19.8933 286.16 20.48C286.16 20.8267 286.36 21 286.76 21C288.387 21 290.773 19 293.92 15C294.187 14.6533 294.427 14.48 294.64 14.48C294.773 14.48 294.84 14.56 294.84 14.72ZM304.44 14.48C304.44 14.5867 304.36 14.7867 304.2 15.08C303.347 16.5733 301.693 18.1467 299.24 19.8C296.707 21.5067 294.64 22.36 293.04 22.36C291.493 22.36 290.72 21.72 290.72 20.44C290.72 20.1733 290.76 19.8933 290.84 19.6C291.08 18.56 291.873 17.1733 293.22 15.44C294.567 13.7067 295.733 12.5333 296.72 11.92C297.067 11.7067 297.4 11.6 297.72 11.6C298.573 11.6 299 11.96 299 12.68C299 13.0267 298.86 13.66 298.58 14.58C298.3 15.5 298.067 16.0667 297.88 16.28C297.64 16.5733 297.387 16.72 297.12 16.72C296.907 16.72 296.8 16.6133 296.8 16.4C296.8 16.2667 296.96 15.8133 297.28 15.04C297.6 14.2667 297.76 13.7067 297.76 13.36C297.76 13.0933 297.653 12.96 297.44 12.96C297.04 12.96 296.387 13.4533 295.48 14.44C294.867 15.16 294.333 15.84 293.88 16.48C292.707 18.2667 292.12 19.64 292.12 20.6C292.12 21.0267 292.307 21.24 292.68 21.24C294.493 21.24 296.507 20.5467 298.72 19.16C300.48 18.0133 302.12 16.6133 303.64 14.96C303.987 14.5867 304.227 14.4 304.36 14.4C304.413 14.4 304.44 14.4267 304.44 14.48ZM317.52 14.36C317.52 14.52 317.413 14.8267 317.2 15.28C317.04 15.6 316.627 16.1867 315.96 17.04C313.267 20.56 311.04 22.32 309.28 22.32C308.053 22.32 307.44 21.48 307.44 19.8C307.44 19.08 307.587 18.2533 307.88 17.32C304.893 20.5467 302.853 22.16 301.76 22.16C301.493 22.16 301.227 21.9867 300.96 21.64C300.693 21.2933 300.56 20.9867 300.56 20.72C300.56 20.1867 300.92 19.2133 301.64 17.8C302.253 16.6533 302.8 15.7467 303.28 15.08C304.853 12.92 306.36 11.84 307.8 11.84C308.76 11.84 309.24 12.2133 309.24 12.96C309.24 13.0933 309.187 13.3333 309.08 13.68C309.213 13.6 309.387 13.56 309.6 13.56C310.133 13.56 310.4 13.72 310.4 14.04C310.4 14.0667 310.267 14.44 310 15.16C309.093 17.6933 308.64 19.3467 308.64 20.12C308.64 20.7333 308.933 21.04 309.52 21.04C310.267 21.04 311.28 20.4533 312.56 19.28C313.28 18.6133 314.307 17.52 315.64 16C316.68 14.8267 317.267 14.24 317.4 14.24C317.48 14.24 317.52 14.28 317.52 14.36ZM308.04 15.04C307.853 14.8267 307.76 14.6133 307.76 14.4C307.76 14.2667 307.78 14.0867 307.82 13.86C307.86 13.6333 307.88 13.4533 307.88 13.32C307.88 13.08 307.773 12.96 307.56 12.96C307.08 12.96 306.387 13.4133 305.48 14.32C304.787 15.0133 304.227 15.6667 303.8 16.28C303.453 16.7867 303.053 17.48 302.6 18.36C302.067 19.4 301.8 20.12 301.8 20.52C301.827 20.5733 301.84 20.6133 301.84 20.64H301.96C302.92 20.64 304.467 19.48 306.6 17.16C306.84 16.8933 307.32 16.1867 308.04 15.04ZM329.72 14.88C329.72 15.1467 329.56 15.5467 329.24 16.08C328.467 17.3333 327.413 18.6267 326.08 19.96C324.4 21.6133 323.053 22.44 322.04 22.44C320.92 22.44 320.36 21.6533 320.36 20.08C320.36 18.9867 320.92 17 322.04 14.12C320.68 15.7733 319.493 17.1733 318.48 18.32C316.453 20.6667 315.213 21.9333 314.76 22.12C314.627 22.1467 314.48 22.16 314.32 22.16C313.733 22.16 313.44 21.9333 313.44 21.48C313.44 21.32 314 20.0933 315.12 17.8C316.32 15.2933 316.98 13.88 317.1 13.56C317.22 13.24 317.387 13.08 317.6 13.08C318.027 13.08 318.24 13.3733 318.24 13.96C318.24 14.8933 317.213 17 315.16 20.28C316.227 19.1333 317.56 17.68 319.16 15.92C319.693 15.3067 320.213 14.6933 320.72 14.08C321.6 13.0667 322.12 12.56 322.28 12.56C322.573 12.56 322.893 12.6533 323.24 12.84C323.587 13.0267 323.76 13.24 323.76 13.48C323.76 13.56 323.747 13.64 323.72 13.72C323.293 14.7867 322.853 15.84 322.4 16.88C321.893 18.24 321.64 19.3333 321.64 20.16C321.64 20.88 321.893 21.24 322.4 21.24C323.227 21.24 324.227 20.68 325.4 19.56C326.12 18.8667 327.027 17.8133 328.12 16.4C328.973 15.2533 329.467 14.68 329.6 14.68C329.68 14.68 329.72 14.7467 329.72 14.88ZM359.24 15.24C359.24 15.48 359.107 15.8 358.84 16.2C358.12 17.2933 356.907 18.5733 355.2 20.04C353.253 21.72 351.8 22.56 350.84 22.56C349.88 22.56 349.4 21.7733 349.4 20.2C349.4 18.8933 349.827 17.1867 350.68 15.08C348.653 17.1067 346.52 19.16 344.28 21.24C344.147 21.2933 344 21.32 343.84 21.32C343.253 21.32 342.96 21.1467 342.96 20.8C342.96 20.6667 343.533 18.8 344.68 15.2L341.68 18.2C340.373 19.56 339.013 20.9333 337.6 22.32H337.4C336.6 22.32 336.2 22.16 336.2 21.84C336.2 21.7067 337.133 19.7067 339 15.84C339.213 15.3867 339.453 14.8533 339.72 14.24C339.827 13.6533 340.08 13.36 340.48 13.36C340.987 13.36 341.24 13.6133 341.24 14.12C341.24 14.3333 340.74 15.3533 339.74 17.18C338.74 19.0067 338.24 20.0133 338.24 20.2C338.293 20.2 339.4 19.0867 341.56 16.86C343.72 14.6333 344.867 13.52 345 13.52C345.213 13.52 345.48 13.6 345.8 13.76C346.12 13.92 346.28 14.1067 346.28 14.32C346.28 14.3733 346.187 14.7067 346 15.32C345.2 17.9867 344.8 19.3733 344.8 19.48V19.52C344.853 19.52 345.927 18.46 348.02 16.34C350.113 14.22 351.293 13.12 351.56 13.04H351.8C352.333 13.04 352.6 13.2667 352.6 13.72C352.6 13.88 352.413 14.44 352.04 15.4C351.08 17.8267 350.6 19.48 350.6 20.36C350.6 21.0533 350.84 21.4 351.32 21.4C351.88 21.4 352.907 20.7867 354.4 19.56C355.52 18.6533 356.453 17.8133 357.2 17.04C357.627 16.56 358.053 16.0133 358.48 15.4C358.693 15.1067 358.88 14.96 359.04 14.96C359.173 14.96 359.24 15.0533 359.24 15.24ZM359.88 12.52C360.307 12.52 360.52 12.7067 360.52 13.08C360.52 13.1867 360.033 14.26 359.06 16.3C358.087 18.34 357.6 19.6933 357.6 20.36C357.6 20.6533 357.707 20.8 357.92 20.8C358.88 20.8 361.147 18.4934 364.72 13.88C364.773 13.32 365.013 13.04 365.44 13.04C366.027 13.04 366.32 13.2267 366.32 13.6C366.32 13.7333 365.853 14.8267 364.92 16.88C363.987 18.9333 363.52 20.2933 363.52 20.96C363.52 21.2267 363.6 21.36 363.76 21.36C364.533 21.36 365.52 20.8 366.72 19.68C367.387 19.0133 368.307 17.96 369.48 16.52C370.387 15.3733 370.907 14.8 371.04 14.8C371.147 14.8 371.2 14.8533 371.2 14.96C371.2 15.12 371.067 15.3867 370.8 15.76C369.413 17.7067 368.387 19.04 367.72 19.76C366.173 21.4667 364.853 22.32 363.76 22.32C362.827 22.32 362.36 21.8533 362.36 20.92C362.36 19.9067 362.813 18.52 363.72 16.76C362.893 17.96 361.96 19.0533 360.92 20.04C359.48 21.4267 358.253 22.12 357.24 22.12C356.733 22.12 356.48 21.68 356.48 20.8C356.48 19.0133 357.453 16.3467 359.4 12.8C359.48 12.6133 359.64 12.52 359.88 12.52ZM381.16 14.48C381.16 14.5867 381.08 14.7867 380.92 15.08C380.067 16.5733 378.413 18.1467 375.96 19.8C373.427 21.5067 371.36 22.36 369.76 22.36C368.213 22.36 367.44 21.72 367.44 20.44C367.44 20.1733 367.48 19.8933 367.56 19.6C367.8 18.56 368.593 17.1733 369.94 15.44C371.287 13.7067 372.453 12.5333 373.44 11.92C373.787 11.7067 374.12 11.6 374.44 11.6C375.293 11.6 375.72 11.96 375.72 12.68C375.72 13.0267 375.58 13.66 375.3 14.58C375.02 15.5 374.787 16.0667 374.6 16.28C374.36 16.5733 374.107 16.72 373.84 16.72C373.627 16.72 373.52 16.6133 373.52 16.4C373.52 16.2667 373.68 15.8133 374 15.04C374.32 14.2667 374.48 13.7067 374.48 13.36C374.48 13.0933 374.373 12.96 374.16 12.96C373.76 12.96 373.107 13.4533 372.2 14.44C371.587 15.16 371.053 15.84 370.6 16.48C369.427 18.2667 368.84 19.64 368.84 20.6C368.84 21.0267 369.027 21.24 369.4 21.24C371.213 21.24 373.227 20.5467 375.44 19.16C377.2 18.0133 378.84 16.6133 380.36 14.96C380.707 14.5867 380.947 14.4 381.08 14.4C381.133 14.4 381.16 14.4267 381.16 14.48ZM386.12 21.6C387.587 21.6 389.853 19.5067 392.92 15.32C393.133 15.0267 393.307 14.88 393.44 14.88C393.52 14.88 393.56 14.9467 393.56 15.08C393.56 15.24 393.48 15.44 393.32 15.68C392.547 16.9867 391.493 18.3333 390.16 19.72C388.48 21.5067 387.147 22.4 386.16 22.4C384.747 22.4 384.067 21.44 384.12 19.52C384.147 18.2933 384.773 16.44 386 13.96C384.267 15.1067 382.613 16.6933 381.04 18.72C380.693 19.1733 380.393 19.6133 380.14 20.04C379.887 20.4667 379.627 20.8933 379.36 21.32C378.96 21.96 378.64 22.3067 378.4 22.36C378.293 22.3867 378.16 22.4 378 22.4C377.52 22.4 377.28 22.16 377.28 21.68C377.28 21.28 378.16 19.2267 379.92 15.52C381.413 12.3733 382.493 10.16 383.16 8.88C385.907 3.73331 387.773 1.16 388.76 1.16C389.4 1.16 389.72 1.53333 389.72 2.28C389.72 3.42667 388.573 5.62665 386.28 8.88C384.573 11.3333 382.947 13.4267 381.4 15.16C381.347 15.24 380.72 16.5733 379.52 19.16C382.56 15.08 384.773 13.04 386.16 13.04C386.88 13.04 387.24 13.32 387.24 13.88C387.24 14.0133 386.887 14.8867 386.18 16.5C385.473 18.1133 385.12 19.36 385.12 20.24C385.12 21.1467 385.453 21.6 386.12 21.6ZM388.88 2.36C388.88 2.14667 388.827 2.04 388.72 2.04C388.133 2.04 386.187 5.39997 382.88 12.12C386.88 6.75997 388.88 3.50667 388.88 2.36ZM396.92 18.16C397.16 17.4933 397.28 16.8267 397.28 16.16C397.28 14.96 397.053 14.36 396.6 14.36C396.333 14.36 396.093 14.6667 395.88 15.28C395.72 15.7867 395.64 16.2133 395.64 16.56C395.64 17.36 396.067 17.8933 396.92 18.16ZM403.531 14.9609C403.577 14.9682 403.6 15.0212 403.6 15.12C403.6 15.28 403.507 15.52 403.32 15.84C402.813 16.7467 401.96 17.5333 400.76 18.2C399.667 18.7867 398.653 19.12 397.72 19.2C397.587 19.4933 397.053 20.1333 396.12 21.12C394.867 22.4533 393.813 23.12 392.96 23.12C392.427 23.12 392.007 22.92 391.7 22.52C391.393 22.12 391.24 21.6533 391.24 21.12C391.24 19.04 391.853 16.8933 393.08 14.68C393.347 14.2 393.64 13.96 393.96 13.96C394.12 13.96 394.2 14.08 394.2 14.32C394.2 14.4 393.927 15.2933 393.38 17C392.833 18.7067 392.56 19.9867 392.56 20.84C392.56 21.4267 392.8 21.72 393.28 21.72C393.787 21.72 394.467 21.24 395.32 20.28C395.613 20.0667 396.013 19.6667 396.52 19.08C395.24 18.68 394.6 17.8133 394.6 16.48C394.6 15.84 394.793 15.18 395.18 14.5C395.567 13.82 396.053 13.48 396.64 13.48C397.227 13.48 397.693 13.7333 398.04 14.24C398.387 14.7467 398.56 15.3067 398.56 15.92C398.56 16.64 398.413 17.4133 398.12 18.24C399 18.2933 400.147 17.76 401.56 16.64C402.92 15.5624 403.576 15.0032 403.529 14.9624L403.531 14.9609ZM419.8 18.36C422.067 17.8267 423.987 16.5333 425.56 14.48C425.773 14.2133 425.92 14.08 426 14.08C426.08 14.08 426.12 14.1467 426.12 14.28C426.12 14.4667 426.027 14.72 425.84 15.04C424.88 16.9067 422.627 18.4 419.08 19.52C417.56 21.7867 415.96 22.92 414.28 22.92C413.293 22.92 412.8 22.5067 412.8 21.68C412.8 20.9067 413.547 20.2533 415.04 19.72C416.107 19.4 417.187 19.0933 418.28 18.8C419.64 16.4 420.32 14.7333 420.32 13.8C420.32 13.3467 420.133 13.12 419.76 13.12C419.573 13.12 419.347 13.1733 419.08 13.28C417.96 13.7067 416.8 14.56 415.6 15.84C414.507 17.04 413.707 18.24 413.2 19.44C412.293 21.4933 411.08 24.1467 409.56 27.4C409.133 28.3333 408.44 29.68 407.48 31.44C406.973 32.16 406.613 32.52 406.4 32.52C406.293 32.52 406.213 32.4933 406.16 32.44C406.107 32.3867 406.08 32.3333 406.08 32.28C406.08 31.56 407.013 29.2134 408.88 25.24C410.747 21.2666 412.053 18.8 412.8 17.84C413.013 17.5467 413.353 16.7067 413.82 15.32C414.287 13.9333 414.573 13.1467 414.68 12.96C414.787 12.7733 414.92 12.68 415.08 12.68C415.427 12.68 415.6 12.8667 415.6 13.24C415.6 13.3733 415.36 14.0667 414.88 15.32C417.2 13.0267 418.933 11.88 420.08 11.88C421.093 11.88 421.6 12.4933 421.6 13.72C421.6 14.7333 421 16.28 419.8 18.36ZM414.4 22C415.467 22 416.507 21.3333 417.52 20C415.067 20.7733 413.84 21.32 413.84 21.64C413.84 21.88 414.027 22 414.4 22ZM439.2 14.36C439.2 14.52 439.093 14.8267 438.88 15.28C438.72 15.6 438.307 16.1867 437.64 17.04C434.947 20.56 432.72 22.32 430.96 22.32C429.733 22.32 429.12 21.48 429.12 19.8C429.12 19.08 429.267 18.2533 429.56 17.32C426.573 20.5467 424.533 22.16 423.44 22.16C423.173 22.16 422.907 21.9867 422.64 21.64C422.373 21.2933 422.24 20.9867 422.24 20.72C422.24 20.1867 422.6 19.2133 423.32 17.8C423.933 16.6533 424.48 15.7467 424.96 15.08C426.533 12.92 428.04 11.84 429.48 11.84C430.44 11.84 430.92 12.2133 430.92 12.96C430.92 13.0933 430.867 13.3333 430.76 13.68C430.893 13.6 431.067 13.56 431.28 13.56C431.813 13.56 432.08 13.72 432.08 14.04C432.08 14.0667 431.947 14.44 431.68 15.16C430.773 17.6933 430.32 19.3467 430.32 20.12C430.32 20.7333 430.613 21.04 431.2 21.04C431.947 21.04 432.96 20.4533 434.24 19.28C434.96 18.6133 435.987 17.52 437.32 16C438.36 14.8267 438.947 14.24 439.08 14.24C439.16 14.24 439.2 14.28 439.2 14.36ZM429.72 15.04C429.533 14.8267 429.44 14.6133 429.44 14.4C429.44 14.2667 429.46 14.0867 429.5 13.86C429.54 13.6333 429.56 13.4533 429.56 13.32C429.56 13.08 429.453 12.96 429.24 12.96C428.76 12.96 428.067 13.4133 427.16 14.32C426.467 15.0133 425.907 15.6667 425.48 16.28C425.133 16.7867 424.733 17.48 424.28 18.36C423.747 19.4 423.48 20.12 423.48 20.52C423.507 20.5733 423.52 20.6133 423.52 20.64H423.64C424.6 20.64 426.147 19.48 428.28 17.16C428.52 16.8933 429 16.1867 429.72 15.04ZM437.76 14.32C437.76 13.6 438.067 13.24 438.68 13.24C439.053 13.24 439.24 13.4133 439.24 13.76C439.24 13.9467 439.173 14.1867 439.04 14.48H439.24C439.8 14.48 440.48 14.3333 441.28 14.04C441.68 13.88 441.987 13.7267 442.2 13.58C442.413 13.4333 442.627 13.2733 442.84 13.1C443.053 12.9267 443.227 12.84 443.36 12.84C444 12.84 444.32 13.0267 444.32 13.4C444.32 13.6133 443.933 14.2267 443.16 15.24C442.253 16.44 441.76 17.1067 441.68 17.24C440.64 19.0533 440.12 20.24 440.12 20.8C440.12 21.28 440.387 21.52 440.92 21.52C441.56 21.52 442.573 21.0667 443.96 20.16C444.76 19.6267 445.587 18.8533 446.44 17.84C447.16 16.96 447.893 16.08 448.64 15.2C448.773 15.04 448.907 14.96 449.04 14.96C449.147 14.96 449.2 15.04 449.2 15.2C449.2 15.28 449.16 15.4 449.08 15.56C448.573 16.4667 447.667 17.6133 446.36 19C444.973 20.44 443.867 21.3467 443.04 21.72C442.107 22.1467 441.253 22.36 440.48 22.36C439.333 22.36 438.76 21.9733 438.76 21.2C438.76 20.1867 439.787 18.0533 441.84 14.8C439.653 15.36 438.587 15.64 438.64 15.64C438.4 15.64 438.193 15.48 438.02 15.16C437.847 14.84 437.76 14.56 437.76 14.32ZM462.52 14.36C462.52 14.52 462.413 14.8267 462.2 15.28C462.04 15.6 461.627 16.1867 460.96 17.04C458.267 20.56 456.04 22.32 454.28 22.32C453.053 22.32 452.44 21.48 452.44 19.8C452.44 19.08 452.587 18.2533 452.88 17.32C449.893 20.5467 447.853 22.16 446.76 22.16C446.493 22.16 446.227 21.9867 445.96 21.64C445.693 21.2933 445.56 20.9867 445.56 20.72C445.56 20.1867 445.92 19.2133 446.64 17.8C447.253 16.6533 447.8 15.7467 448.28 15.08C449.853 12.92 451.36 11.84 452.8 11.84C453.76 11.84 454.24 12.2133 454.24 12.96C454.24 13.0933 454.187 13.3333 454.08 13.68C454.213 13.6 454.387 13.56 454.6 13.56C455.133 13.56 455.4 13.72 455.4 14.04C455.4 14.0667 455.267 14.44 455 15.16C454.093 17.6933 453.64 19.3467 453.64 20.12C453.64 20.7333 453.933 21.04 454.52 21.04C455.267 21.04 456.28 20.4533 457.56 19.28C458.28 18.6133 459.307 17.52 460.64 16C461.68 14.8267 462.267 14.24 462.4 14.24C462.48 14.24 462.52 14.28 462.52 14.36ZM453.04 15.04C452.853 14.8267 452.76 14.6133 452.76 14.4C452.76 14.2667 452.78 14.0867 452.82 13.86C452.86 13.6333 452.88 13.4533 452.88 13.32C452.88 13.08 452.773 12.96 452.56 12.96C452.08 12.96 451.387 13.4133 450.48 14.32C449.787 15.0133 449.227 15.6667 448.8 16.28C448.453 16.7867 448.053 17.48 447.6 18.36C447.067 19.4 446.8 20.12 446.8 20.52C446.827 20.5733 446.84 20.6133 446.84 20.64H446.96C447.92 20.64 449.467 19.48 451.6 17.16C451.84 16.8933 452.32 16.1867 453.04 15.04ZM485.44 14.88C485.44 15.1467 485.28 15.5467 484.96 16.08C484.187 17.3333 483.133 18.6267 481.8 19.96C480.12 21.6133 478.773 22.44 477.76 22.44C476.64 22.44 476.08 21.6533 476.08 20.08C476.08 18.9867 476.64 17 477.76 14.12C476.4 15.7733 475.213 17.1733 474.2 18.32C472.173 20.6667 470.933 21.9333 470.48 22.12C470.347 22.1467 470.2 22.16 470.04 22.16C469.453 22.16 469.16 21.9333 469.16 21.48C469.16 21.32 469.72 20.0933 470.84 17.8C472.04 15.2933 472.7 13.88 472.82 13.56C472.94 13.24 473.107 13.08 473.32 13.08C473.747 13.08 473.96 13.3733 473.96 13.96C473.96 14.8933 472.933 17 470.88 20.28C471.947 19.1333 473.28 17.68 474.88 15.92C475.413 15.3067 475.933 14.6933 476.44 14.08C477.32 13.0667 477.84 12.56 478 12.56C478.293 12.56 478.613 12.6533 478.96 12.84C479.307 13.0267 479.48 13.24 479.48 13.48C479.48 13.56 479.467 13.64 479.44 13.72C479.013 14.7867 478.573 15.84 478.12 16.88C477.613 18.24 477.36 19.3333 477.36 20.16C477.36 20.88 477.613 21.24 478.12 21.24C478.947 21.24 479.947 20.68 481.12 19.56C481.84 18.8667 482.747 17.8133 483.84 16.4C484.693 15.2533 485.187 14.68 485.32 14.68C485.4 14.68 485.44 14.7467 485.44 14.88ZM488.52 18.16C488.76 17.4933 488.88 16.8267 488.88 16.16C488.88 14.96 488.653 14.36 488.2 14.36C487.933 14.36 487.693 14.6667 487.48 15.28C487.32 15.7867 487.24 16.2133 487.24 16.56C487.24 17.36 487.667 17.8933 488.52 18.16ZM495.131 14.9609C495.177 14.9682 495.2 15.0212 495.2 15.12C495.2 15.28 495.107 15.52 494.92 15.84C494.413 16.7467 493.56 17.5333 492.36 18.2C491.267 18.7867 490.253 19.12 489.32 19.2C489.187 19.4933 488.653 20.1333 487.72 21.12C486.467 22.4533 485.413 23.12 484.56 23.12C484.027 23.12 483.607 22.92 483.3 22.52C482.993 22.12 482.84 21.6533 482.84 21.12C482.84 19.04 483.453 16.8933 484.68 14.68C484.947 14.2 485.24 13.96 485.56 13.96C485.72 13.96 485.8 14.08 485.8 14.32C485.8 14.4 485.527 15.2933 484.98 17C484.433 18.7067 484.16 19.9867 484.16 20.84C484.16 21.4267 484.4 21.72 484.88 21.72C485.387 21.72 486.067 21.24 486.92 20.28C487.213 20.0667 487.613 19.6667 488.12 19.08C486.84 18.68 486.2 17.8133 486.2 16.48C486.2 15.84 486.393 15.18 486.78 14.5C487.167 13.82 487.653 13.48 488.24 13.48C488.827 13.48 489.293 13.7333 489.64 14.24C489.987 14.7467 490.16 15.3067 490.16 15.92C490.16 16.64 490.013 17.4133 489.72 18.24C490.6 18.2933 491.747 17.76 493.16 16.64C494.52 15.5624 495.176 15.0032 495.129 14.9624L495.131 14.9609ZM497.8 20.28C499.427 19.72 500.76 18.6133 501.8 16.96C501.96 16.6667 502.233 16.2467 502.62 15.7C503.007 15.1533 503.293 14.88 503.48 14.88C503.56 14.88 503.6 14.9333 503.6 15.04C503.6 15.1733 503.52 15.4 503.36 15.72C501.813 18.68 499.787 20.52 497.28 21.24C496.427 22.4933 495.147 23.12 493.44 23.12C492.293 23.12 491.72 22.8533 491.72 22.32C491.72 22.2133 491.76 22.1067 491.84 22C491.947 21.7867 492.68 21.52 494.04 21.2C494.893 21.0133 495.733 20.8267 496.56 20.64C496.853 20.16 497 19.7333 497 19.36C497 17.9733 496 16.6667 494 15.44C493.787 15.0933 493.68 14.8 493.68 14.56C493.68 13.9733 494.04 13.68 494.76 13.68C495.16 13.68 495.36 13.8667 495.36 14.24C495.36 14.4267 495.307 14.6533 495.2 14.92C495.787 15.56 496.387 16.2 497 16.84C497.667 17.6133 498 18.4 498 19.2C498 19.5467 497.933 19.9067 497.8 20.28ZM492.84 22.2C493.16 22.3333 493.493 22.4 493.84 22.4C494.587 22.4 495.24 22.1467 495.8 21.64C495.107 21.72 494.12 21.9067 492.84 22.2ZM506.64 18.16C506.88 17.4933 507 16.8267 507 16.16C507 14.96 506.773 14.36 506.32 14.36C506.053 14.36 505.813 14.6667 505.6 15.28C505.44 15.7867 505.36 16.2133 505.36 16.56C505.36 17.36 505.787 17.8933 506.64 18.16ZM513.251 14.9609C513.297 14.9682 513.32 15.0212 513.32 15.12C513.32 15.28 513.227 15.52 513.04 15.84C512.533 16.7467 511.68 17.5333 510.48 18.2C509.387 18.7867 508.373 19.12 507.44 19.2C507.307 19.4933 506.773 20.1333 505.84 21.12C504.587 22.4533 503.533 23.12 502.68 23.12C502.147 23.12 501.727 22.92 501.42 22.52C501.113 22.12 500.96 21.6533 500.96 21.12C500.96 19.04 501.573 16.8933 502.8 14.68C503.067 14.2 503.36 13.96 503.68 13.96C503.84 13.96 503.92 14.08 503.92 14.32C503.92 14.4 503.647 15.2933 503.1 17C502.553 18.7067 502.28 19.9867 502.28 20.84C502.28 21.4267 502.52 21.72 503 21.72C503.507 21.72 504.187 21.24 505.04 20.28C505.333 20.0667 505.733 19.6667 506.24 19.08C504.96 18.68 504.32 17.8133 504.32 16.48C504.32 15.84 504.513 15.18 504.9 14.5C505.287 13.82 505.773 13.48 506.36 13.48C506.947 13.48 507.413 13.7333 507.76 14.24C508.107 14.7467 508.28 15.3067 508.28 15.92C508.28 16.64 508.133 17.4133 507.84 18.24C508.72 18.2933 509.867 17.76 511.28 16.64C512.64 15.5624 513.296 15.0032 513.249 14.9624L513.251 14.9609ZM509.76 7.36C510.053 7.36 510.493 7.39333 511.08 7.46C511.667 7.52667 512.107 7.56 512.4 7.56C513.733 7.56 515.107 7.45333 516.52 7.24L518.36 3.48C518.52 3.18667 518.733 3.04 519 3.04C519.453 3.04 519.68 3.30666 519.68 3.84C519.68 4.08 519.587 4.46666 519.4 5C519.187 5.61334 518.947 6.22666 518.68 6.84C519.293 6.68 520.267 6.45334 521.6 6.16C524.453 5.54666 526.347 5.24 527.28 5.24C527.627 5.24 527.8 5.36 527.8 5.6C527.8 5.89333 527.547 6.04 527.04 6.04C526.533 6.04 524.867 6.37333 522.04 7.04C521.187 7.22667 519.893 7.52 518.16 7.92C517.467 9.33334 516.547 10.9867 515.4 12.88C514.733 13.92 514.12 15.1333 513.56 16.52C512.92 18.1733 512.6 19.48 512.6 20.44C512.6 21.0533 512.853 21.36 513.36 21.36C514.267 21.36 515.613 20.52 517.4 18.84C518.6 17.72 519.747 16.48 520.84 15.12C521.027 14.88 521.187 14.76 521.32 14.76C521.427 14.76 521.48 14.84 521.48 15C521.48 15.16 521.413 15.36 521.28 15.6C520.427 17.04 519.253 18.4667 517.76 19.88C515.947 21.5867 514.413 22.44 513.16 22.44C512.013 22.44 511.44 21.76 511.44 20.4C511.44 18.3467 512.227 15.7733 513.8 12.68L515.96 8.32C514.36 8.58667 512.907 8.72 511.6 8.72C510.08 8.72 509.32 8.37334 509.32 7.68C509.32 7.46667 509.467 7.36 509.76 7.36ZM520.28 14.32C520.28 13.6 520.587 13.24 521.2 13.24C521.573 13.24 521.76 13.4133 521.76 13.76C521.76 13.9467 521.693 14.1867 521.56 14.48H521.76C522.32 14.48 523 14.3333 523.8 14.04C524.2 13.88 524.507 13.7267 524.72 13.58C524.933 13.4333 525.147 13.2733 525.36 13.1C525.573 12.9267 525.747 12.84 525.88 12.84C526.52 12.84 526.84 13.0267 526.84 13.4C526.84 13.6133 526.453 14.2267 525.68 15.24C524.773 16.44 524.28 17.1067 524.2 17.24C523.16 19.0533 522.64 20.24 522.64 20.8C522.64 21.28 522.907 21.52 523.44 21.52C524.08 21.52 525.093 21.0667 526.48 20.16C527.28 19.6267 528.107 18.8533 528.96 17.84C529.68 16.96 530.413 16.08 531.16 15.2C531.293 15.04 531.427 14.96 531.56 14.96C531.667 14.96 531.72 15.04 531.72 15.2C531.72 15.28 531.68 15.4 531.6 15.56C531.093 16.4667 530.187 17.6133 528.88 19C527.493 20.44 526.387 21.3467 525.56 21.72C524.627 22.1467 523.773 22.36 523 22.36C521.853 22.36 521.28 21.9733 521.28 21.2C521.28 20.1867 522.307 18.0533 524.36 14.8C522.173 15.36 521.107 15.64 521.16 15.64C520.92 15.64 520.713 15.48 520.54 15.16C520.367 14.84 520.28 14.56 520.28 14.32ZM534.84 18.16C535.08 17.4933 535.2 16.8267 535.2 16.16C535.2 14.96 534.973 14.36 534.52 14.36C534.253 14.36 534.013 14.6667 533.8 15.28C533.64 15.7867 533.56 16.2133 533.56 16.56C533.56 17.36 533.987 17.8933 534.84 18.16ZM541.451 14.9609C541.497 14.9682 541.52 15.0212 541.52 15.12C541.52 15.28 541.427 15.52 541.24 15.84C540.733 16.7467 539.88 17.5333 538.68 18.2C537.587 18.7867 536.573 19.12 535.64 19.2C535.507 19.4933 534.973 20.1333 534.04 21.12C532.787 22.4533 531.733 23.12 530.88 23.12C530.347 23.12 529.927 22.92 529.62 22.52C529.313 22.12 529.16 21.6533 529.16 21.12C529.16 19.04 529.773 16.8933 531 14.68C531.267 14.2 531.56 13.96 531.88 13.96C532.04 13.96 532.12 14.08 532.12 14.32C532.12 14.4 531.847 15.2933 531.3 17C530.753 18.7067 530.48 19.9867 530.48 20.84C530.48 21.4267 530.72 21.72 531.2 21.72C531.707 21.72 532.387 21.24 533.24 20.28C533.533 20.0667 533.933 19.6667 534.44 19.08C533.16 18.68 532.52 17.8133 532.52 16.48C532.52 15.84 532.713 15.18 533.1 14.5C533.487 13.82 533.973 13.48 534.56 13.48C535.147 13.48 535.613 13.7333 535.96 14.24C536.307 14.7467 536.48 15.3067 536.48 15.92C536.48 16.64 536.333 17.4133 536.04 18.24C536.92 18.2933 538.067 17.76 539.48 16.64C540.84 15.5624 541.496 15.0032 541.449 14.9624L541.451 14.9609ZM544.12 20.28C545.747 19.72 547.08 18.6133 548.12 16.96C548.28 16.6667 548.553 16.2467 548.94 15.7C549.327 15.1533 549.613 14.88 549.8 14.88C549.88 14.88 549.92 14.9333 549.92 15.04C549.92 15.1733 549.84 15.4 549.68 15.72C548.133 18.68 546.107 20.52 543.6 21.24C542.747 22.4933 541.467 23.12 539.76 23.12C538.613 23.12 538.04 22.8533 538.04 22.32C538.04 22.2133 538.08 22.1067 538.16 22C538.267 21.7867 539 21.52 540.36 21.2C541.213 21.0133 542.053 20.8267 542.88 20.64C543.173 20.16 543.32 19.7333 543.32 19.36C543.32 17.9733 542.32 16.6667 540.32 15.44C540.107 15.0933 540 14.8 540 14.56C540 13.9733 540.36 13.68 541.08 13.68C541.48 13.68 541.68 13.8667 541.68 14.24C541.68 14.4267 541.627 14.6533 541.52 14.92C542.107 15.56 542.707 16.2 543.32 16.84C543.987 17.6133 544.32 18.4 544.32 19.2C544.32 19.5467 544.253 19.9067 544.12 20.28ZM539.16 22.2C539.48 22.3333 539.813 22.4 540.16 22.4C540.907 22.4 541.56 22.1467 542.12 21.64C541.427 21.72 540.44 21.9067 539.16 22.2Z" fill="#8C8888"/>
</svg>
