<svg width="222" height="92" viewBox="0 0 222 92" fill="none" xmlns="http://www.w3.org/2000/svg">
<path d="M14.92 2.5964C21.1067 2.48973 24.2 3.54305 24.2 5.7564C24.2 7.70307 21.5467 9.75639 16.24 11.9164C13.2267 13.1431 9.65335 14.3031 5.52 15.3964C2.79999 19.4764 1.44 21.8764 1.44 22.5964C1.44 22.8097 1.54667 22.9164 1.76 22.9164C1.94667 22.9164 2.22 22.7764 2.58 22.4964C2.94 22.2164 3.17333 22.0764 3.28 22.0764C3.41333 22.0764 3.48 22.1697 3.48 22.3564C3.48 22.7297 3.24667 23.1097 2.78 23.4964C2.31333 23.8831 1.88 24.0764 1.48 24.0764C0.786663 24.0764 0.44 23.7031 0.44 22.9564C0.44 21.9431 1.65332 19.5431 4.08 15.7564C3.92 15.8097 3.78667 15.8364 3.68 15.8364C3.25333 15.8364 3.04 15.6231 3.04 15.1964C3.04 14.6364 3.32 14.3564 3.88 14.3564C4.01333 14.3564 4.14667 14.3831 4.28 14.4364L5 14.3164C6.78668 11.5697 8.41333 9.19641 9.88 7.1964C10.4933 6.44973 11.3867 5.30307 12.56 3.7564L10.48 3.8364C9.22666 3.9164 7.36001 4.11639 4.88 4.4364C2.93332 4.6764 1.70667 4.7964 1.2 4.7964C0.399996 4.7964 0 4.5564 0 4.0764C0 3.94306 0.0533328 3.7964 0.16 3.6364C3.09335 3.36973 7.4933 3.0364 13.36 2.6364C13.52 2.36973 13.7333 1.98307 14 1.4764C14.1867 0.86306 14.44 0.556396 14.76 0.556396C15.08 0.556396 15.24 0.82306 15.24 1.3564C15.24 1.7564 15.1333 2.16973 14.92 2.5964ZM6.48 13.9964C9.78668 13.1431 12.88 12.1164 15.76 10.9164C20.4 8.96972 22.72 7.18307 22.72 5.5564C22.72 5.31639 22.6667 5.10306 22.56 4.9164C22.1333 4.08973 19.9867 3.6764 16.12 3.6764H14.12C11.5867 6.79641 9.04001 10.2364 6.48 13.9964ZM22.12 18.7164C22.36 18.0497 22.48 17.3831 22.48 16.7164C22.48 15.5164 22.2533 14.9164 21.8 14.9164C21.5333 14.9164 21.2933 15.2231 21.08 15.8364C20.92 16.3431 20.84 16.7697 20.84 17.1164C20.84 17.9164 21.2667 18.4497 22.12 18.7164ZM28.7314 15.5173C28.7771 15.5245 28.8 15.5776 28.8 15.6764C28.8 15.8364 28.7067 16.0764 28.52 16.3964C28.0133 17.3031 27.16 18.0897 25.96 18.7564C24.8667 19.3431 23.8533 19.6764 22.92 19.7564C22.7867 20.0497 22.2533 20.6897 21.32 21.6764C20.0667 23.0097 19.0133 23.6764 18.16 23.6764C17.6267 23.6764 17.2067 23.4764 16.9 23.0764C16.5933 22.6764 16.44 22.2097 16.44 21.6764C16.44 19.5964 17.0533 17.4497 18.28 15.2364C18.5467 14.7564 18.84 14.5164 19.16 14.5164C19.32 14.5164 19.4 14.6364 19.4 14.8764C19.4 14.9564 19.1267 15.8497 18.58 17.5564C18.0333 19.2631 17.76 20.5431 17.76 21.3964C17.76 21.9831 18 22.2764 18.48 22.2764C18.9867 22.2764 19.6667 21.7964 20.52 20.8364C20.8133 20.6231 21.2133 20.2231 21.72 19.6364C20.44 19.2364 19.8 18.3697 19.8 17.0364C19.8 16.3964 19.9933 15.7364 20.38 15.0564C20.7667 14.3764 21.2533 14.0364 21.84 14.0364C22.4267 14.0364 22.8933 14.2897 23.24 14.7964C23.5867 15.3031 23.76 15.8631 23.76 16.4764C23.76 17.1964 23.6133 17.9697 23.32 18.7964C24.2 18.8497 25.3467 18.3164 26.76 17.1964C28.1198 16.1188 28.7761 15.5596 28.7289 15.5188L28.7314 15.5173ZM27.76 14.8764C27.76 14.1564 28.0667 13.7964 28.68 13.7964C29.0533 13.7964 29.24 13.9697 29.24 14.3164C29.24 14.5031 29.1733 14.7431 29.04 15.0364H29.24C29.8 15.0364 30.48 14.8897 31.28 14.5964C31.68 14.4364 31.9867 14.2831 32.2 14.1364C32.4133 13.9897 32.6267 13.8297 32.84 13.6564C33.0533 13.4831 33.2267 13.3964 33.36 13.3964C34 13.3964 34.32 13.5831 34.32 13.9564C34.32 14.1697 33.9333 14.7831 33.16 15.7964C32.2533 16.9964 31.76 17.6631 31.68 17.7964C30.64 19.6097 30.12 20.7964 30.12 21.3564C30.12 21.8364 30.3867 22.0764 30.92 22.0764C31.56 22.0764 32.5733 21.6231 33.96 20.7164C34.76 20.1831 35.5867 19.4097 36.44 18.3964C37.16 17.5164 37.8933 16.6364 38.64 15.7564C38.7733 15.5964 38.9067 15.5164 39.04 15.5164C39.1467 15.5164 39.2 15.5964 39.2 15.7564C39.2 15.8364 39.16 15.9564 39.08 16.1164C38.5733 17.0231 37.6667 18.1697 36.36 19.5564C34.9733 20.9964 33.8667 21.9031 33.04 22.2764C32.1067 22.7031 31.2533 22.9164 30.48 22.9164C29.3333 22.9164 28.76 22.5297 28.76 21.7564C28.76 20.7431 29.7867 18.6097 31.84 15.3564C29.6533 15.9164 28.5867 16.1964 28.64 16.1964C28.4 16.1964 28.1933 16.0364 28.02 15.7164C27.8467 15.3964 27.76 15.1164 27.76 14.8764ZM41.44 21.4364L39.64 24.0364C38.7333 25.2897 37.84 26.8097 36.96 28.5964C35.8133 30.8631 35.24 32.5031 35.24 33.5164C35.24 33.7297 35.2933 33.8364 35.4 33.8364C35.7733 33.8364 36.4533 32.9831 37.44 31.2764C38.1867 30.0231 38.7467 28.9831 39.12 28.1564C40 26.1831 40.7733 23.9431 41.44 21.4364ZM45.48 13.1564C45.7733 12.9431 46.04 12.8364 46.28 12.8364C46.6267 12.8364 46.8 13.0231 46.8 13.3964C46.8 13.6897 45.2267 16.063 42.08 20.5164C42.5333 20.7297 43.0267 20.8364 43.56 20.8364C44.68 20.8364 45.72 20.5431 46.68 19.9564C48.1467 18.9964 49.52 17.3831 50.8 15.1164C50.9067 14.9031 51.0267 14.7964 51.16 14.7964C51.32 14.7964 51.4 14.9164 51.4 15.1564C51.4 15.7964 50.7867 16.8631 49.56 18.3564C48.44 19.7164 47.52 20.5964 46.8 20.9964C45.7067 21.6364 44.6267 21.9564 43.56 21.9564C43.1067 21.9564 42.72 21.8631 42.4 21.6764C42.2133 22.4497 41.4533 24.6897 40.12 28.3964C39.8267 29.1964 39.52 29.9164 39.2 30.5564C38.7467 31.4097 38.16 32.2897 37.44 33.1964C36.48 34.4497 35.72 35.0764 35.16 35.0764C34.5467 35.0764 34.24 34.5964 34.24 33.6364C34.24 31.3697 35.5333 28.2231 38.12 24.1964C38.8933 22.9697 40.9067 20.1698 44.16 15.7964C40.5066 19.6631 38.2133 21.5964 37.28 21.5964C36.2933 21.5964 35.8 21.1564 35.8 20.2764C35.8 19.0764 36.8267 17.2964 38.88 14.9364C40.9333 12.5764 42.5733 11.3964 43.8 11.3964C44.7867 11.3964 45.3467 11.9831 45.48 13.1564ZM43.88 12.5564C43 12.5564 41.64 13.6031 39.8 15.6964C37.96 17.7897 37.04 19.2764 37.04 20.1564C37.04 20.3431 37.1467 20.4364 37.36 20.4364C38.08 20.4364 40.1467 18.6497 43.56 15.0764C43.7733 14.8364 44.12 14.4497 44.6 13.9164C44.52 13.8097 44.4667 13.5164 44.44 13.0364C44.3867 12.7164 44.2 12.5564 43.88 12.5564ZM51.56 13.0764C51.9867 13.0764 52.2 13.2631 52.2 13.6364C52.2 13.7431 51.7133 14.8164 50.74 16.8564C49.7667 18.8964 49.28 20.2497 49.28 20.9164C49.28 21.2097 49.3867 21.3564 49.6 21.3564C50.56 21.3564 52.8266 19.0498 56.4 14.4364C56.4533 13.8764 56.6933 13.5964 57.12 13.5964C57.7067 13.5964 58 13.7831 58 14.1564C58 14.2897 57.5333 15.3831 56.6 17.4364C55.6667 19.4897 55.2 20.8497 55.2 21.5164C55.2 21.7831 55.28 21.9164 55.44 21.9164C56.2133 21.9164 57.2 21.3564 58.4 20.2364C59.0667 19.5697 59.9867 18.5164 61.16 17.0764C62.0667 15.9297 62.5867 15.3564 62.72 15.3564C62.8267 15.3564 62.88 15.4097 62.88 15.5164C62.88 15.6764 62.7467 15.9431 62.48 16.3164C61.0933 18.2631 60.0667 19.5964 59.4 20.3164C57.8533 22.0231 56.5333 22.8764 55.44 22.8764C54.5067 22.8764 54.04 22.4097 54.04 21.4764C54.04 20.4631 54.4933 19.0764 55.4 17.3164C54.5733 18.5164 53.64 19.6097 52.6 20.5964C51.16 21.9831 49.9333 22.6764 48.92 22.6764C48.4133 22.6764 48.16 22.2364 48.16 21.3564C48.16 19.5697 49.1333 16.9031 51.08 13.3564C51.16 13.1697 51.32 13.0764 51.56 13.0764ZM71.36 15.6364C71.36 15.9031 71.2667 16.1831 71.08 16.4764C70.0933 17.9697 68.5333 19.4764 66.4 20.9964C64.0533 22.7031 62.1067 23.5564 60.56 23.5564C60.1333 23.5564 59.7333 23.4097 59.36 23.1164C58.9867 22.8231 58.8 22.4497 58.8 21.9964C58.8 20.8497 59.48 19.1697 60.84 16.9564C62.28 14.5831 63.52 13.3964 64.56 13.3964C65.0133 13.3964 65.4 13.5897 65.72 13.9764C66.04 14.3631 66.2 14.7964 66.2 15.2764C66.2 16.3164 65.6267 17.1964 64.48 17.9164C63.1733 18.7431 61.96 19.2764 60.84 19.5164C60.28 20.7164 60 21.5697 60 22.0764C60 22.4231 60.12 22.5831 60.36 22.5564H60.48C62.1067 22.3964 64.0133 21.5831 66.2 20.1164C68.2 18.7564 69.7467 17.3164 70.84 15.7964C71.0267 15.5564 71.16 15.4364 71.24 15.4364C71.32 15.4364 71.36 15.5031 71.36 15.6364ZM65.16 14.9564C65.16 14.7164 65.0533 14.5964 64.84 14.5964C63.9867 14.5964 62.8933 15.7831 61.56 18.1564C62.1733 17.9164 62.6 17.7564 62.84 17.6764C63.2933 17.4631 63.6667 17.1964 63.96 16.8764C64.76 16.1297 65.16 15.4897 65.16 14.9564ZM78.4 7.9164C78.6933 7.9164 79.1333 7.94973 79.72 8.0164C80.3067 8.08306 80.7467 8.1164 81.04 8.1164C82.3733 8.1164 83.7467 8.00973 85.16 7.7964L87 4.0364C87.16 3.74306 87.3733 3.5964 87.64 3.5964C88.0933 3.5964 88.32 3.86306 88.32 4.3964C88.32 4.6364 88.2267 5.02306 88.04 5.5564C87.8267 6.16973 87.5867 6.78306 87.32 7.3964C87.9333 7.2364 88.9067 7.00973 90.24 6.7164C93.0933 6.10306 94.9867 5.7964 95.92 5.7964C96.2667 5.7964 96.44 5.9164 96.44 6.1564C96.44 6.44973 96.1867 6.5964 95.68 6.5964C95.1733 6.5964 93.5067 6.92973 90.68 7.5964C89.8267 7.78306 88.5333 8.07639 86.8 8.4764C86.1067 9.88974 85.1867 11.5431 84.04 13.4364C83.3733 14.4764 82.76 15.6897 82.2 17.0764C81.56 18.7297 81.24 20.0364 81.24 20.9964C81.24 21.6097 81.4933 21.9164 82 21.9164C82.9067 21.9164 84.2533 21.0764 86.04 19.3964C87.24 18.2764 88.3867 17.0364 89.48 15.6764C89.6667 15.4364 89.8267 15.3164 89.96 15.3164C90.0667 15.3164 90.12 15.3964 90.12 15.5564C90.12 15.7164 90.0533 15.9164 89.92 16.1564C89.0667 17.5964 87.8933 19.0231 86.4 20.4364C84.5867 22.1431 83.0533 22.9964 81.8 22.9964C80.6533 22.9964 80.08 22.3164 80.08 20.9564C80.08 18.9031 80.8667 16.3297 82.44 13.2364L84.6 8.8764C83 9.14306 81.5467 9.2764 80.24 9.2764C78.72 9.2764 77.96 8.92973 77.96 8.2364C77.96 8.02306 78.1067 7.9164 78.4 7.9164ZM90.72 13.0764C91.1467 13.0764 91.36 13.2631 91.36 13.6364C91.36 13.7431 90.8733 14.8164 89.9 16.8564C88.9267 18.8964 88.44 20.2497 88.44 20.9164C88.44 21.2097 88.5467 21.3564 88.76 21.3564C89.72 21.3564 91.9866 19.0498 95.56 14.4364C95.6133 13.8764 95.8533 13.5964 96.28 13.5964C96.8667 13.5964 97.16 13.7831 97.16 14.1564C97.16 14.2897 96.6933 15.3831 95.76 17.4364C94.8267 19.4897 94.36 20.8497 94.36 21.5164C94.36 21.7831 94.44 21.9164 94.6 21.9164C95.3733 21.9164 96.36 21.3564 97.56 20.2364C98.2267 19.5697 99.1467 18.5164 100.32 17.0764C101.227 15.9297 101.747 15.3564 101.88 15.3564C101.987 15.3564 102.04 15.4097 102.04 15.5164C102.04 15.6764 101.907 15.9431 101.64 16.3164C100.253 18.2631 99.2267 19.5964 98.56 20.3164C97.0133 22.0231 95.6933 22.8764 94.6 22.8764C93.6667 22.8764 93.2 22.4097 93.2 21.4764C93.2 20.4631 93.6533 19.0764 94.56 17.3164C93.7333 18.5164 92.8 19.6097 91.76 20.5964C90.32 21.9831 89.0933 22.6764 88.08 22.6764C87.5733 22.6764 87.32 22.2364 87.32 21.3564C87.32 19.5697 88.2933 16.9031 90.24 13.3564C90.32 13.1697 90.48 13.0764 90.72 13.0764ZM104.96 20.8364C106.587 20.2764 107.92 19.1697 108.96 17.5164C109.12 17.2231 109.393 16.8031 109.78 16.2564C110.167 15.7097 110.453 15.4364 110.64 15.4364C110.72 15.4364 110.76 15.4897 110.76 15.5964C110.76 15.7297 110.68 15.9564 110.52 16.2764C108.973 19.2364 106.947 21.0764 104.44 21.7964C103.587 23.0497 102.307 23.6764 100.6 23.6764C99.4533 23.6764 98.88 23.4097 98.88 22.8764C98.88 22.7697 98.92 22.6631 99 22.5564C99.1067 22.3431 99.84 22.0764 101.2 21.7564C102.053 21.5697 102.893 21.3831 103.72 21.1964C104.013 20.7164 104.16 20.2897 104.16 19.9164C104.16 18.5297 103.16 17.2231 101.16 15.9964C100.947 15.6497 100.84 15.3564 100.84 15.1164C100.84 14.5297 101.2 14.2364 101.92 14.2364C102.32 14.2364 102.52 14.4231 102.52 14.7964C102.52 14.9831 102.467 15.2097 102.36 15.4764C102.947 16.1164 103.547 16.7564 104.16 17.3964C104.827 18.1697 105.16 18.9564 105.16 19.7564C105.16 20.1031 105.093 20.4631 104.96 20.8364ZM100 22.7564C100.32 22.8897 100.653 22.9564 101 22.9564C101.747 22.9564 102.4 22.7031 102.96 22.1964C102.267 22.2764 101.28 22.4631 100 22.7564ZM121.16 13.6764C121.56 13.6764 121.76 14.0764 121.76 14.8764C121.76 15.5697 121.133 18.0364 119.88 22.2764C120.733 21.9031 121.96 20.8097 123.56 18.9964C125.24 17.0497 126.08 15.6231 126.08 14.7164C126.08 14.5297 126.033 14.2697 125.94 13.9364C125.847 13.6031 125.8 13.3564 125.8 13.1964C125.8 12.7964 125.947 12.5964 126.24 12.5964C126.56 12.5964 126.82 12.7431 127.02 13.0364C127.22 13.3297 127.307 13.6364 127.28 13.9564V14.1564C127.227 15.0097 126.96 15.8497 126.48 16.6764C126.213 17.1031 125.653 17.8097 124.8 18.7964C123.76 20.0497 123.04 20.8897 122.64 21.3164C121.52 22.5431 120.72 23.1964 120.24 23.2764C120.053 23.3031 119.88 23.3164 119.72 23.3164C118.973 23.3164 118.6 22.9697 118.6 22.2764C118.6 21.6631 118.947 20.3431 119.64 18.3164C119.8 17.4097 120.08 16.0764 120.48 14.3164C120.587 13.8897 120.813 13.6764 121.16 13.6764ZM143.28 14.9164C143.28 15.0764 143.173 15.3831 142.96 15.8364C142.8 16.1564 142.387 16.7431 141.72 17.5964C139.027 21.1164 136.8 22.8764 135.04 22.8764C133.813 22.8764 133.2 22.0364 133.2 20.3564C133.2 19.6364 133.347 18.8097 133.64 17.8764C130.653 21.1031 128.613 22.7164 127.52 22.7164C127.253 22.7164 126.987 22.5431 126.72 22.1964C126.453 21.8497 126.32 21.5431 126.32 21.2764C126.32 20.7431 126.68 19.7697 127.4 18.3564C128.013 17.2097 128.56 16.3031 129.04 15.6364C130.613 13.4764 132.12 12.3964 133.56 12.3964C134.52 12.3964 135 12.7697 135 13.5164C135 13.6497 134.947 13.8897 134.84 14.2364C134.973 14.1564 135.147 14.1164 135.36 14.1164C135.893 14.1164 136.16 14.2764 136.16 14.5964C136.16 14.6231 136.027 14.9964 135.76 15.7164C134.853 18.2497 134.4 19.9031 134.4 20.6764C134.4 21.2897 134.693 21.5964 135.28 21.5964C136.027 21.5964 137.04 21.0097 138.32 19.8364C139.04 19.1697 140.067 18.0764 141.4 16.5564C142.44 15.3831 143.027 14.7964 143.16 14.7964C143.24 14.7964 143.28 14.8364 143.28 14.9164ZM133.8 15.5964C133.613 15.3831 133.52 15.1697 133.52 14.9564C133.52 14.8231 133.54 14.6431 133.58 14.4164C133.62 14.1897 133.64 14.0097 133.64 13.8764C133.64 13.6364 133.533 13.5164 133.32 13.5164C132.84 13.5164 132.147 13.9697 131.24 14.8764C130.547 15.5697 129.987 16.2231 129.56 16.8364C129.213 17.3431 128.813 18.0364 128.36 18.9164C127.827 19.9564 127.56 20.6764 127.56 21.0764C127.587 21.1297 127.6 21.1697 127.6 21.1964H127.72C128.68 21.1964 130.227 20.0364 132.36 17.7164C132.6 17.4497 133.08 16.7431 133.8 15.5964ZM153.04 15.0364C153.04 15.1431 152.96 15.3431 152.8 15.6364C151.947 17.1297 150.293 18.7031 147.84 20.3564C145.307 22.0631 143.24 22.9164 141.64 22.9164C140.093 22.9164 139.32 22.2764 139.32 20.9964C139.32 20.7297 139.36 20.4497 139.44 20.1564C139.68 19.1164 140.473 17.7297 141.82 15.9964C143.167 14.2631 144.333 13.0897 145.32 12.4764C145.667 12.2631 146 12.1564 146.32 12.1564C147.173 12.1564 147.6 12.5164 147.6 13.2364C147.6 13.5831 147.46 14.2164 147.18 15.1364C146.9 16.0564 146.667 16.6231 146.48 16.8364C146.24 17.1297 145.987 17.2764 145.72 17.2764C145.507 17.2764 145.4 17.1697 145.4 16.9564C145.4 16.8231 145.56 16.3697 145.88 15.5964C146.2 14.8231 146.36 14.2631 146.36 13.9164C146.36 13.6497 146.253 13.5164 146.04 13.5164C145.64 13.5164 144.987 14.0097 144.08 14.9964C143.467 15.7164 142.933 16.3964 142.48 17.0364C141.307 18.8231 140.72 20.1964 140.72 21.1564C140.72 21.5831 140.907 21.7964 141.28 21.7964C143.093 21.7964 145.107 21.1031 147.32 19.7164C149.08 18.5697 150.72 17.1697 152.24 15.5164C152.587 15.1431 152.827 14.9564 152.96 14.9564C153.013 14.9564 153.04 14.9831 153.04 15.0364ZM166.12 14.9164C166.12 15.0764 166.013 15.3831 165.8 15.8364C165.64 16.1564 165.227 16.7431 164.56 17.5964C161.867 21.1164 159.64 22.8764 157.88 22.8764C156.653 22.8764 156.04 22.0364 156.04 20.3564C156.04 19.6364 156.187 18.8097 156.48 17.8764C153.493 21.1031 151.453 22.7164 150.36 22.7164C150.093 22.7164 149.827 22.5431 149.56 22.1964C149.293 21.8497 149.16 21.5431 149.16 21.2764C149.16 20.7431 149.52 19.7697 150.24 18.3564C150.853 17.2097 151.4 16.3031 151.88 15.6364C153.453 13.4764 154.96 12.3964 156.4 12.3964C157.36 12.3964 157.84 12.7697 157.84 13.5164C157.84 13.6497 157.787 13.8897 157.68 14.2364C157.813 14.1564 157.987 14.1164 158.2 14.1164C158.733 14.1164 159 14.2764 159 14.5964C159 14.6231 158.867 14.9964 158.6 15.7164C157.693 18.2497 157.24 19.9031 157.24 20.6764C157.24 21.2897 157.533 21.5964 158.12 21.5964C158.867 21.5964 159.88 21.0097 161.16 19.8364C161.88 19.1697 162.907 18.0764 164.24 16.5564C165.28 15.3831 165.867 14.7964 166 14.7964C166.08 14.7964 166.12 14.8364 166.12 14.9164ZM156.64 15.5964C156.453 15.3831 156.36 15.1697 156.36 14.9564C156.36 14.8231 156.38 14.6431 156.42 14.4164C156.46 14.1897 156.48 14.0097 156.48 13.8764C156.48 13.6364 156.373 13.5164 156.16 13.5164C155.68 13.5164 154.987 13.9697 154.08 14.8764C153.387 15.5697 152.827 16.2231 152.4 16.8364C152.053 17.3431 151.653 18.0364 151.2 18.9164C150.667 19.9564 150.4 20.6764 150.4 21.0764C150.427 21.1297 150.44 21.1697 150.44 21.1964H150.56C151.52 21.1964 153.067 20.0364 155.2 17.7164C155.44 17.4497 155.92 16.7431 156.64 15.5964ZM175.88 15.0364C175.88 15.1431 175.8 15.3431 175.64 15.6364C174.787 17.1297 173.133 18.7031 170.68 20.3564C168.147 22.0631 166.08 22.9164 164.48 22.9164C162.933 22.9164 162.16 22.2764 162.16 20.9964C162.16 20.7297 162.2 20.4497 162.28 20.1564C162.52 19.1164 163.313 17.7297 164.66 15.9964C166.007 14.2631 167.173 13.0897 168.16 12.4764C168.507 12.2631 168.84 12.1564 169.16 12.1564C170.013 12.1564 170.44 12.5164 170.44 13.2364C170.44 13.5831 170.3 14.2164 170.02 15.1364C169.74 16.0564 169.507 16.6231 169.32 16.8364C169.08 17.1297 168.827 17.2764 168.56 17.2764C168.347 17.2764 168.24 17.1697 168.24 16.9564C168.24 16.8231 168.4 16.3697 168.72 15.5964C169.04 14.8231 169.2 14.2631 169.2 13.9164C169.2 13.6497 169.093 13.5164 168.88 13.5164C168.48 13.5164 167.827 14.0097 166.92 14.9964C166.307 15.7164 165.773 16.3964 165.32 17.0364C164.147 18.8231 163.56 20.1964 163.56 21.1564C163.56 21.5831 163.747 21.7964 164.12 21.7964C165.933 21.7964 167.947 21.1031 170.16 19.7164C171.92 18.5697 173.56 17.1697 175.08 15.5164C175.427 15.1431 175.667 14.9564 175.8 14.9564C175.853 14.9564 175.88 14.9831 175.88 15.0364ZM179.6 10.0364C179.6 10.1964 179.473 10.4031 179.22 10.6564C178.967 10.9097 178.72 11.1431 178.48 11.3564C177.867 12.0764 177.44 12.4364 177.2 12.4364C176.987 12.4364 176.88 12.2897 176.88 11.9964C176.88 11.4897 177.047 10.9231 177.38 10.2964C177.713 9.66973 178.107 9.3564 178.56 9.3564C179.253 9.3564 179.6 9.58306 179.6 10.0364ZM182.68 15.2764C182.68 15.4631 182.56 15.7297 182.32 16.0764C180.293 19.2497 178.013 21.3831 175.48 22.4764C175 22.6897 174.533 22.7964 174.08 22.7964C173.12 22.7964 172.64 22.2631 172.64 21.1964C172.64 20.6631 172.76 20.0097 173 19.2364C173.16 18.7031 173.533 17.7697 174.12 16.4364C174.813 14.8631 175.293 14.0364 175.56 13.9564C175.667 13.9031 175.8 13.8764 175.96 13.8764C176.467 13.8764 176.72 14.0497 176.72 14.3964C176.72 14.6097 176.267 15.6231 175.36 17.4364C174.453 19.2497 174 20.4497 174 21.0364C174 21.3831 174.2 21.5564 174.6 21.5564C176.227 21.5564 178.613 19.5564 181.76 15.5564C182.027 15.2097 182.267 15.0364 182.48 15.0364C182.613 15.0364 182.68 15.1164 182.68 15.2764ZM185.48 18.7164C185.72 18.0497 185.84 17.3831 185.84 16.7164C185.84 15.5164 185.613 14.9164 185.16 14.9164C184.893 14.9164 184.653 15.2231 184.44 15.8364C184.28 16.3431 184.2 16.7697 184.2 17.1164C184.2 17.9164 184.627 18.4497 185.48 18.7164ZM192.091 15.5173C192.137 15.5245 192.16 15.5776 192.16 15.6764C192.16 15.8364 192.067 16.0764 191.88 16.3964C191.373 17.3031 190.52 18.0897 189.32 18.7564C188.227 19.3431 187.213 19.6764 186.28 19.7564C186.147 20.0497 185.613 20.6897 184.68 21.6764C183.427 23.0097 182.373 23.6764 181.52 23.6764C180.987 23.6764 180.567 23.4764 180.26 23.0764C179.953 22.6764 179.8 22.2097 179.8 21.6764C179.8 19.5964 180.413 17.4497 181.64 15.2364C181.907 14.7564 182.2 14.5164 182.52 14.5164C182.68 14.5164 182.76 14.6364 182.76 14.8764C182.76 14.9564 182.487 15.8497 181.94 17.5564C181.393 19.2631 181.12 20.5431 181.12 21.3964C181.12 21.9831 181.36 22.2764 181.84 22.2764C182.347 22.2764 183.027 21.7964 183.88 20.8364C184.173 20.6231 184.573 20.2231 185.08 19.6364C183.8 19.2364 183.16 18.3697 183.16 17.0364C183.16 16.3964 183.353 15.7364 183.74 15.0564C184.127 14.3764 184.613 14.0364 185.2 14.0364C185.787 14.0364 186.253 14.2897 186.6 14.7964C186.947 15.3031 187.12 15.8631 187.12 16.4764C187.12 17.1964 186.973 17.9697 186.68 18.7964C187.56 18.8497 188.707 18.3164 190.12 17.1964C191.48 16.1188 192.136 15.5596 192.089 15.5188L192.091 15.5173ZM204.76 15.4364C204.76 15.7031 204.6 16.1031 204.28 16.6364C203.507 17.8897 202.453 19.1831 201.12 20.5164C199.44 22.1697 198.093 22.9964 197.08 22.9964C195.96 22.9964 195.4 22.2097 195.4 20.6364C195.4 19.5431 195.96 17.5564 197.08 14.6764C195.72 16.3297 194.533 17.7297 193.52 18.8764C191.493 21.2231 190.253 22.4897 189.8 22.6764C189.667 22.7031 189.52 22.7164 189.36 22.7164C188.773 22.7164 188.48 22.4897 188.48 22.0364C188.48 21.8764 189.04 20.6497 190.16 18.3564C191.36 15.8497 192.02 14.4364 192.14 14.1164C192.26 13.7964 192.427 13.6364 192.64 13.6364C193.067 13.6364 193.28 13.9297 193.28 14.5164C193.28 15.4497 192.253 17.5564 190.2 20.8364C191.267 19.6897 192.6 18.2364 194.2 16.4764C194.733 15.8631 195.253 15.2497 195.76 14.6364C196.64 13.6231 197.16 13.1164 197.32 13.1164C197.613 13.1164 197.933 13.2097 198.28 13.3964C198.627 13.5831 198.8 13.7964 198.8 14.0364C198.8 14.1164 198.787 14.1964 198.76 14.2764C198.333 15.3431 197.893 16.3964 197.44 17.4364C196.933 18.7964 196.68 19.8897 196.68 20.7164C196.68 21.4364 196.933 21.7964 197.44 21.7964C198.267 21.7964 199.267 21.2364 200.44 20.1164C201.16 19.4231 202.067 18.3697 203.16 16.9564C204.013 15.8097 204.507 15.2364 204.64 15.2364C204.72 15.2364 204.76 15.3031 204.76 15.4364ZM213.16 15.6364C213.16 15.9031 213.067 16.1831 212.88 16.4764C211.893 17.9697 210.333 19.4764 208.2 20.9964C205.853 22.7031 203.907 23.5564 202.36 23.5564C201.933 23.5564 201.533 23.4097 201.16 23.1164C200.787 22.8231 200.6 22.4497 200.6 21.9964C200.6 20.8497 201.28 19.1697 202.64 16.9564C204.08 14.5831 205.32 13.3964 206.36 13.3964C206.813 13.3964 207.2 13.5897 207.52 13.9764C207.84 14.3631 208 14.7964 208 15.2764C208 16.3164 207.427 17.1964 206.28 17.9164C204.973 18.7431 203.76 19.2764 202.64 19.5164C202.08 20.7164 201.8 21.5697 201.8 22.0764C201.8 22.4231 201.92 22.5831 202.16 22.5564H202.28C203.907 22.3964 205.813 21.5831 208 20.1164C210 18.7564 211.547 17.3164 212.64 15.7964C212.827 15.5564 212.96 15.4364 213.04 15.4364C213.12 15.4364 213.16 15.5031 213.16 15.6364ZM206.96 14.9564C206.96 14.7164 206.853 14.5964 206.64 14.5964C205.787 14.5964 204.693 15.7831 203.36 18.1564C203.973 17.9164 204.4 17.7564 204.64 17.6764C205.093 17.4631 205.467 17.1964 205.76 16.8764C206.56 16.1297 206.96 15.4897 206.96 14.9564ZM216.16 20.8364C217.787 20.2764 219.12 19.1697 220.16 17.5164C220.32 17.2231 220.593 16.8031 220.98 16.2564C221.367 15.7097 221.653 15.4364 221.84 15.4364C221.92 15.4364 221.96 15.4897 221.96 15.5964C221.96 15.7297 221.88 15.9564 221.72 16.2764C220.173 19.2364 218.147 21.0764 215.64 21.7964C214.787 23.0497 213.507 23.6764 211.8 23.6764C210.653 23.6764 210.08 23.4097 210.08 22.8764C210.08 22.7697 210.12 22.6631 210.2 22.5564C210.307 22.3431 211.04 22.0764 212.4 21.7564C213.253 21.5697 214.093 21.3831 214.92 21.1964C215.213 20.7164 215.36 20.2897 215.36 19.9164C215.36 18.5297 214.36 17.2231 212.36 15.9964C212.147 15.6497 212.04 15.3564 212.04 15.1164C212.04 14.5297 212.4 14.2364 213.12 14.2364C213.52 14.2364 213.72 14.4231 213.72 14.7964C213.72 14.9831 213.667 15.2097 213.56 15.4764C214.147 16.1164 214.747 16.7564 215.36 17.3964C216.027 18.1697 216.36 18.9564 216.36 19.7564C216.36 20.1031 216.293 20.4631 216.16 20.8364ZM211.2 22.7564C211.52 22.8897 211.853 22.9564 212.2 22.9564C212.947 22.9564 213.6 22.7031 214.16 22.1964C213.467 22.2764 212.48 22.4631 211.2 22.7564Z" fill="#8C8888"/>
<path d="M30.095 49.8366C31.7217 49.2766 33.055 48.1699 34.095 46.5166C34.255 46.2232 34.5283 45.8032 34.915 45.2566C35.3017 44.7099 35.5883 44.4366 35.775 44.4366C35.855 44.4366 35.895 44.4899 35.895 44.5966C35.895 44.7299 35.815 44.9566 35.655 45.2766C34.1083 48.2366 32.0817 50.0766 29.575 50.7966C28.7217 52.0499 27.4417 52.6766 25.735 52.6766C24.5883 52.6766 24.015 52.4099 24.015 51.8766C24.015 51.7699 24.055 51.6632 24.135 51.5566C24.2417 51.3432 24.975 51.0766 26.335 50.7566C27.1884 50.5699 28.0283 50.3832 28.855 50.1966C29.1483 49.7166 29.295 49.2899 29.295 48.9166C29.295 47.5299 28.295 46.2232 26.295 44.9966C26.0817 44.6499 25.975 44.3566 25.975 44.1166C25.975 43.5299 26.335 43.2366 27.055 43.2366C27.455 43.2366 27.655 43.4232 27.655 43.7966C27.655 43.9832 27.6017 44.2099 27.495 44.4766C28.0817 45.1166 28.6817 45.7565 29.295 46.3966C29.9617 47.1699 30.295 47.9566 30.295 48.7566C30.295 49.1032 30.2283 49.4632 30.095 49.8366ZM25.135 51.7566C25.455 51.8899 25.7883 51.9566 26.135 51.9566C26.8817 51.9566 27.535 51.7032 28.095 51.1966C27.4017 51.2766 26.415 51.4632 25.135 51.7566ZM39.775 39.0366C39.775 39.1966 39.6484 39.4032 39.395 39.6566C39.1417 39.9099 38.895 40.1432 38.655 40.3566C38.0417 41.0766 37.615 41.4366 37.375 41.4366C37.1617 41.4366 37.055 41.2899 37.055 40.9966C37.055 40.4899 37.2217 39.9232 37.555 39.2966C37.8884 38.6699 38.2817 38.3566 38.735 38.3566C39.4284 38.3566 39.775 38.5832 39.775 39.0366ZM42.855 44.2766C42.855 44.4632 42.735 44.7299 42.495 45.0766C40.4683 48.2499 38.1884 50.3832 35.655 51.4766C35.175 51.6899 34.7084 51.7966 34.255 51.7966C33.295 51.7966 32.815 51.2632 32.815 50.1966C32.815 49.6632 32.935 49.0099 33.175 48.2366C33.335 47.7032 33.7083 46.7699 34.295 45.4366C34.9883 43.8632 35.4683 43.0366 35.735 42.9566C35.8417 42.9032 35.975 42.8766 36.135 42.8766C36.6417 42.8766 36.895 43.0499 36.895 43.3966C36.895 43.6099 36.4417 44.6232 35.535 46.4366C34.6283 48.2499 34.175 49.4499 34.175 50.0366C34.175 50.3832 34.375 50.5566 34.775 50.5566C36.4017 50.5566 38.7883 48.5566 41.935 44.5566C42.2017 44.2099 42.4417 44.0366 42.655 44.0366C42.7883 44.0366 42.855 44.1166 42.855 44.2766ZM46.615 50.5166C46.9617 50.3299 47.4817 50.0366 48.175 49.6366C50.2017 48.4899 51.6283 47.4632 52.455 46.5566C52.7217 46.1832 53.135 45.6366 53.695 44.9166C53.9617 44.5966 54.1617 44.4366 54.295 44.4366C54.375 44.4366 54.415 44.4899 54.415 44.5966C54.415 44.7299 54.335 44.9432 54.175 45.2366C53.0017 47.5566 50.3217 49.7299 46.135 51.7566C45.6817 52.9032 44.9484 54.5965 43.935 56.8366C43.135 58.4632 42.2417 59.9032 41.255 61.1566C39.7883 63.0232 38.495 63.9566 37.375 63.9566C36.735 63.9566 36.415 63.4899 36.415 62.5566C36.415 61.0899 36.895 59.4766 37.855 57.7166C38.7617 56.0632 39.8283 54.7299 41.055 53.7166C42.0417 52.8899 43.3217 52.0766 44.895 51.2766L47.255 45.5566C46.4283 46.8366 45.415 48.0899 44.215 49.3166C42.6417 50.9432 41.3617 51.7566 40.375 51.7566C40.055 51.7566 39.755 51.6032 39.475 51.2966C39.195 50.9899 39.055 50.6766 39.055 50.3566C39.055 49.2099 39.9617 47.4099 41.775 44.9566C43.6684 42.3965 45.135 41.1166 46.175 41.1166C47.215 41.1166 47.7217 41.7299 47.695 42.9566V43.1166C48.0417 42.9032 48.3217 42.7966 48.535 42.7966C48.7484 42.7966 48.855 42.9299 48.855 43.1966C48.855 44.5032 48.1084 46.9432 46.615 50.5166ZM40.495 50.3166C40.8417 50.3166 41.4683 49.9699 42.375 49.2766C43.095 48.7432 43.6683 48.2632 44.095 47.8366C44.655 47.3032 45.5617 46.0899 46.815 44.1966C46.6017 44.1166 46.495 43.9566 46.495 43.7166C46.495 43.1032 46.5083 42.8499 46.535 42.9566C46.4817 42.6366 46.335 42.4766 46.095 42.4766C45.295 42.4766 44.1417 43.5299 42.635 45.6366C41.1283 47.7432 40.375 49.2499 40.375 50.1566C40.375 50.2632 40.415 50.3166 40.495 50.3166ZM37.695 62.9166C37.855 62.9166 38.095 62.7966 38.415 62.5566C39.215 61.9966 40.0683 61.0499 40.975 59.7166C41.775 58.5165 42.3883 57.3966 42.815 56.3566L44.295 52.7166C42.8817 53.4899 41.7817 54.2832 40.995 55.0966C40.2083 55.9099 39.415 57.0632 38.615 58.5566C37.735 60.1832 37.295 61.4499 37.295 62.3566C37.295 62.7299 37.4283 62.9166 37.695 62.9166ZM66.495 44.4366C66.495 44.7032 66.335 45.1032 66.015 45.6366C65.2417 46.8899 64.1884 48.1832 62.855 49.5166C61.175 51.1699 59.8284 51.9966 58.815 51.9966C57.695 51.9966 57.135 51.2099 57.135 49.6366C57.135 48.5432 57.695 46.5566 58.815 43.6766C57.455 45.3299 56.2684 46.7299 55.255 47.8766C53.2283 50.2232 51.9883 51.4899 51.535 51.6766C51.4017 51.7032 51.255 51.7166 51.095 51.7166C50.5083 51.7166 50.215 51.4899 50.215 51.0366C50.215 50.8766 50.775 49.6499 51.895 47.3566C53.095 44.8499 53.755 43.4366 53.875 43.1166C53.995 42.7966 54.1617 42.6366 54.375 42.6366C54.8017 42.6366 55.015 42.9299 55.015 43.5166C55.015 44.4499 53.9884 46.5565 51.935 49.8366C53.0017 48.6899 54.335 47.2366 55.935 45.4766C56.4684 44.8632 56.9883 44.2499 57.495 43.6366C58.375 42.6232 58.895 42.1166 59.055 42.1166C59.3484 42.1166 59.6683 42.2099 60.015 42.3966C60.3617 42.5832 60.535 42.7966 60.535 43.0366C60.535 43.1166 60.5217 43.1966 60.495 43.2766C60.0683 44.3432 59.6283 45.3965 59.175 46.4366C58.6683 47.7966 58.415 48.8899 58.415 49.7166C58.415 50.4366 58.6683 50.7966 59.175 50.7966C60.0017 50.7966 61.0017 50.2366 62.175 49.1166C62.895 48.4232 63.8017 47.3699 64.895 45.9566C65.7483 44.8099 66.2417 44.2366 66.375 44.2366C66.455 44.2366 66.495 44.3032 66.495 44.4366ZM70.415 39.0366C70.415 39.1966 70.2884 39.4032 70.035 39.6566C69.7817 39.9099 69.535 40.1432 69.295 40.3566C68.6817 41.0766 68.255 41.4366 68.015 41.4366C67.8017 41.4366 67.695 41.2899 67.695 40.9966C67.695 40.4899 67.8617 39.9232 68.195 39.2966C68.5284 38.6699 68.9217 38.3566 69.375 38.3566C70.0684 38.3566 70.415 38.5832 70.415 39.0366ZM73.495 44.2766C73.495 44.4632 73.375 44.7299 73.135 45.0766C71.1083 48.2499 68.8284 50.3832 66.295 51.4766C65.815 51.6899 65.3483 51.7966 64.895 51.7966C63.935 51.7966 63.455 51.2632 63.455 50.1966C63.455 49.6632 63.575 49.0099 63.815 48.2366C63.975 47.7032 64.3483 46.7699 64.935 45.4366C65.6283 43.8632 66.1083 43.0366 66.375 42.9566C66.4817 42.9032 66.615 42.8766 66.775 42.8766C67.2817 42.8766 67.535 43.0499 67.535 43.3966C67.535 43.6099 67.0817 44.6232 66.175 46.4366C65.2683 48.2499 64.815 49.4499 64.815 50.0366C64.815 50.3832 65.015 50.5566 65.415 50.5566C67.0417 50.5566 69.4283 48.5566 72.575 44.5566C72.8417 44.2099 73.0817 44.0366 73.295 44.0366C73.4283 44.0366 73.495 44.1166 73.495 44.2766ZM76.255 47.7566C77.3484 47.7832 78.375 47.5032 79.335 46.9166C79.9483 46.5432 80.5883 45.9966 81.255 45.2766C81.815 44.6899 82.135 44.3966 82.215 44.3966C82.3217 44.3966 82.375 44.4099 82.375 44.4366C82.375 44.5432 82.2817 44.7299 82.095 44.9966C81.5083 45.9832 80.695 46.8232 79.655 47.5166C78.535 48.3166 77.455 48.7032 76.415 48.6766C74.6017 48.6499 73.5617 48.1966 73.295 47.3166C73.3483 47.8232 73.375 48.3299 73.375 48.8366C73.375 51.7966 72.895 54.4765 71.935 56.8766C70.415 60.6899 68.855 62.5966 67.255 62.5966C66.455 62.5966 66.055 62.1032 66.055 61.1166C66.055 59.3299 67.1217 55.9699 69.255 51.0366C71.015 47.0099 72.5883 43.8232 73.975 41.4766C74.855 39.9832 76.0283 38.3032 77.495 36.4366C79.4684 33.9032 80.8417 32.6366 81.615 32.6366C82.015 32.6366 82.215 32.9566 82.215 33.5966C82.215 34.6099 81.7217 35.9299 80.735 37.5566C79.9883 38.8099 79.135 39.9832 78.175 41.0766C76.6817 42.7566 74.9884 44.2632 73.095 45.5966C73.5484 46.4499 73.9617 47.0166 74.335 47.2966C74.7084 47.5766 75.3483 47.7299 76.255 47.7566ZM80.935 34.3166C80.5617 34.3166 79.4017 35.7032 77.455 38.4766C75.775 40.8766 74.6817 42.5566 74.175 43.5166C75.215 42.6099 76.0483 41.8432 76.675 41.2166C77.3017 40.5899 78.135 39.5032 79.175 37.9566C80.375 36.1699 80.975 34.9832 80.975 34.3966C80.975 34.3432 80.9617 34.3166 80.935 34.3166ZM67.535 61.6366C68.2284 61.6366 69.1217 60.4499 70.215 58.0766C71.175 56.0765 71.7483 54.5432 71.935 53.4766C72.2283 51.9299 72.375 50.2232 72.375 48.3566C72.375 47.8766 72.3617 47.4632 72.335 47.1166C68.7883 54.2899 67.015 58.8499 67.015 60.7966C67.015 61.3566 67.1884 61.6366 67.535 61.6366ZM86.375 39.0366C86.375 39.1966 86.2484 39.4032 85.995 39.6566C85.7417 39.9099 85.495 40.1432 85.255 40.3566C84.6417 41.0766 84.215 41.4366 83.975 41.4366C83.7617 41.4366 83.655 41.2899 83.655 40.9966C83.655 40.4899 83.8217 39.9232 84.155 39.2966C84.4883 38.6699 84.8817 38.3566 85.335 38.3566C86.0284 38.3566 86.375 38.5832 86.375 39.0366ZM89.455 44.2766C89.455 44.4632 89.335 44.7299 89.095 45.0766C87.0683 48.2499 84.7884 50.3832 82.255 51.4766C81.775 51.6899 81.3084 51.7966 80.855 51.7966C79.895 51.7966 79.415 51.2632 79.415 50.1966C79.415 49.6632 79.535 49.0099 79.775 48.2366C79.935 47.7032 80.3083 46.7699 80.895 45.4366C81.5883 43.8632 82.0683 43.0366 82.335 42.9566C82.4417 42.9032 82.575 42.8766 82.735 42.8766C83.2417 42.8766 83.495 43.0499 83.495 43.3966C83.495 43.6099 83.0417 44.6232 82.135 46.4366C81.2283 48.2499 80.775 49.4499 80.775 50.0366C80.775 50.3832 80.975 50.5566 81.375 50.5566C83.0017 50.5566 85.3883 48.5566 88.535 44.5566C88.8017 44.2099 89.0417 44.0366 89.255 44.0366C89.3883 44.0366 89.455 44.1166 89.455 44.2766ZM99.055 44.0366C99.055 44.1432 98.975 44.3432 98.815 44.6366C97.9617 46.1299 96.3084 47.7032 93.855 49.3566C91.3217 51.0632 89.255 51.9166 87.655 51.9166C86.1083 51.9166 85.335 51.2766 85.335 49.9966C85.335 49.7299 85.375 49.4499 85.455 49.1566C85.695 48.1166 86.4883 46.7299 87.835 44.9966C89.1817 43.2632 90.3483 42.0899 91.335 41.4766C91.6817 41.2632 92.015 41.1566 92.335 41.1566C93.1884 41.1566 93.615 41.5166 93.615 42.2366C93.615 42.5832 93.475 43.2165 93.195 44.1366C92.915 45.0566 92.6817 45.6232 92.495 45.8366C92.255 46.1299 92.0017 46.2766 91.735 46.2766C91.5217 46.2766 91.415 46.1699 91.415 45.9566C91.415 45.8232 91.575 45.3699 91.895 44.5966C92.215 43.8232 92.375 43.2632 92.375 42.9166C92.375 42.6499 92.2683 42.5166 92.055 42.5166C91.655 42.5166 91.0017 43.0099 90.095 43.9966C89.4817 44.7166 88.9484 45.3965 88.495 46.0366C87.3217 47.8232 86.735 49.1966 86.735 50.1566C86.735 50.5832 86.9217 50.7966 87.295 50.7966C89.1084 50.7966 91.1217 50.1032 93.335 48.7166C95.095 47.5699 96.735 46.1699 98.255 44.5166C98.6017 44.1432 98.8417 43.9566 98.975 43.9566C99.0284 43.9566 99.055 43.9832 99.055 44.0366ZM112.135 43.9166C112.135 44.0766 112.028 44.3832 111.815 44.8366C111.655 45.1566 111.242 45.7432 110.575 46.5966C107.882 50.1166 105.655 51.8766 103.895 51.8766C102.668 51.8766 102.055 51.0366 102.055 49.3566C102.055 48.6366 102.202 47.8099 102.495 46.8766C99.5083 50.1032 97.4684 51.7166 96.375 51.7166C96.1083 51.7166 95.8417 51.5432 95.575 51.1966C95.3083 50.8499 95.175 50.5432 95.175 50.2766C95.175 49.7432 95.535 48.7699 96.255 47.3566C96.8683 46.2099 97.415 45.3032 97.895 44.6366C99.4684 42.4765 100.975 41.3966 102.415 41.3966C103.375 41.3966 103.855 41.7699 103.855 42.5166C103.855 42.6499 103.802 42.8899 103.695 43.2366C103.828 43.1566 104.002 43.1166 104.215 43.1166C104.748 43.1166 105.015 43.2766 105.015 43.5966C105.015 43.6232 104.882 43.9965 104.615 44.7166C103.708 47.2499 103.255 48.9032 103.255 49.6766C103.255 50.2899 103.548 50.5966 104.135 50.5966C104.882 50.5966 105.895 50.0099 107.175 48.8366C107.895 48.1699 108.922 47.0766 110.255 45.5566C111.295 44.3832 111.882 43.7966 112.015 43.7966C112.095 43.7966 112.135 43.8366 112.135 43.9166ZM102.655 44.5966C102.468 44.3832 102.375 44.1699 102.375 43.9566C102.375 43.8232 102.395 43.6432 102.435 43.4166C102.475 43.1899 102.495 43.0099 102.495 42.8766C102.495 42.6366 102.388 42.5166 102.175 42.5166C101.695 42.5166 101.002 42.9699 100.095 43.8766C99.4017 44.5699 98.8417 45.2232 98.415 45.8366C98.0683 46.3432 97.6684 47.0365 97.215 47.9166C96.6817 48.9566 96.415 49.6766 96.415 50.0766C96.4417 50.1299 96.455 50.1699 96.455 50.1966H96.575C97.535 50.1966 99.0817 49.0366 101.215 46.7166C101.455 46.4499 101.935 45.7432 102.655 44.5966ZM124.335 44.4366C124.335 44.7032 124.175 45.1032 123.855 45.6366C123.082 46.8899 122.028 48.1832 120.695 49.5166C119.015 51.1699 117.668 51.9966 116.655 51.9966C115.535 51.9966 114.975 51.2099 114.975 49.6366C114.975 48.5432 115.535 46.5566 116.655 43.6766C115.295 45.3299 114.108 46.7299 113.095 47.8766C111.068 50.2232 109.828 51.4899 109.375 51.6766C109.242 51.7032 109.095 51.7166 108.935 51.7166C108.348 51.7166 108.055 51.4899 108.055 51.0366C108.055 50.8766 108.615 49.6499 109.735 47.3566C110.935 44.8499 111.595 43.4366 111.715 43.1166C111.835 42.7966 112.002 42.6366 112.215 42.6366C112.642 42.6366 112.855 42.9299 112.855 43.5166C112.855 44.4499 111.828 46.5565 109.775 49.8366C110.842 48.6899 112.175 47.2366 113.775 45.4766C114.308 44.8632 114.828 44.2499 115.335 43.6366C116.215 42.6232 116.735 42.1166 116.895 42.1166C117.188 42.1166 117.508 42.2099 117.855 42.3966C118.202 42.5832 118.375 42.7966 118.375 43.0366C118.375 43.1166 118.362 43.1966 118.335 43.2766C117.908 44.3432 117.468 45.3965 117.015 46.4366C116.508 47.7966 116.255 48.8899 116.255 49.7166C116.255 50.4366 116.508 50.7966 117.015 50.7966C117.842 50.7966 118.842 50.2366 120.015 49.1166C120.735 48.4232 121.642 47.3699 122.735 45.9566C123.588 44.8099 124.082 44.2366 124.215 44.2366C124.295 44.2366 124.335 44.3032 124.335 44.4366ZM153.855 44.7966C153.855 45.0366 153.722 45.3566 153.455 45.7566C152.735 46.8499 151.522 48.1299 149.815 49.5966C147.868 51.2766 146.415 52.1166 145.455 52.1166C144.495 52.1166 144.015 51.3299 144.015 49.7566C144.015 48.4499 144.442 46.7432 145.295 44.6366C143.268 46.6632 141.135 48.7165 138.895 50.7966C138.762 50.8499 138.615 50.8766 138.455 50.8766C137.868 50.8766 137.575 50.7032 137.575 50.3566C137.575 50.2232 138.148 48.3566 139.295 44.7566L136.295 47.7566C134.988 49.1166 133.628 50.4899 132.215 51.8766H132.015C131.215 51.8766 130.815 51.7166 130.815 51.3966C130.815 51.2632 131.748 49.2632 133.615 45.3966C133.828 44.9432 134.068 44.4099 134.335 43.7966C134.442 43.2099 134.695 42.9166 135.095 42.9166C135.602 42.9166 135.855 43.1699 135.855 43.6766C135.855 43.8899 135.355 44.9099 134.355 46.7366C133.355 48.5632 132.855 49.5699 132.855 49.7566C132.908 49.7566 134.015 48.6432 136.175 46.4166C138.335 44.1899 139.482 43.0766 139.615 43.0766C139.828 43.0766 140.095 43.1566 140.415 43.3166C140.735 43.4766 140.895 43.6632 140.895 43.8766C140.895 43.9299 140.802 44.2632 140.615 44.8766C139.815 47.5432 139.415 48.9299 139.415 49.0366V49.0766C139.468 49.0766 140.542 48.0166 142.635 45.8966C144.728 43.7765 145.908 42.6766 146.175 42.5966H146.415C146.948 42.5966 147.215 42.8232 147.215 43.2766C147.215 43.4366 147.028 43.9965 146.655 44.9566C145.695 47.3832 145.215 49.0365 145.215 49.9166C145.215 50.6099 145.455 50.9566 145.935 50.9566C146.495 50.9566 147.522 50.3432 149.015 49.1166C150.135 48.2099 151.068 47.3699 151.815 46.5966C152.242 46.1166 152.668 45.5699 153.095 44.9566C153.308 44.6632 153.495 44.5166 153.655 44.5166C153.788 44.5166 153.855 44.6099 153.855 44.7966ZM154.495 42.0766C154.922 42.0766 155.135 42.2632 155.135 42.6366C155.135 42.7432 154.648 43.8165 153.675 45.8566C152.702 47.8966 152.215 49.2499 152.215 49.9166C152.215 50.2099 152.322 50.3566 152.535 50.3566C153.495 50.3566 155.762 48.0499 159.335 43.4366C159.388 42.8766 159.628 42.5966 160.055 42.5966C160.642 42.5966 160.935 42.7832 160.935 43.1566C160.935 43.2899 160.468 44.3832 159.535 46.4366C158.602 48.4899 158.135 49.8499 158.135 50.5166C158.135 50.7832 158.215 50.9166 158.375 50.9166C159.148 50.9166 160.135 50.3566 161.335 49.2366C162.002 48.5699 162.922 47.5166 164.095 46.0766C165.002 44.9299 165.522 44.3566 165.655 44.3566C165.762 44.3566 165.815 44.4099 165.815 44.5166C165.815 44.6766 165.682 44.9432 165.415 45.3166C164.028 47.2632 163.002 48.5966 162.335 49.3166C160.788 51.0232 159.468 51.8766 158.375 51.8766C157.442 51.8766 156.975 51.4099 156.975 50.4766C156.975 49.4632 157.428 48.0766 158.335 46.3166C157.508 47.5166 156.575 48.6099 155.535 49.5966C154.095 50.9832 152.868 51.6766 151.855 51.6766C151.348 51.6766 151.095 51.2366 151.095 50.3566C151.095 48.5699 152.068 45.9032 154.015 42.3566C154.095 42.1699 154.255 42.0766 154.495 42.0766ZM175.775 44.0366C175.775 44.1432 175.695 44.3432 175.535 44.6366C174.682 46.1299 173.028 47.7032 170.575 49.3566C168.042 51.0632 165.975 51.9166 164.375 51.9166C162.828 51.9166 162.055 51.2766 162.055 49.9966C162.055 49.7299 162.095 49.4499 162.175 49.1566C162.415 48.1166 163.208 46.7299 164.555 44.9966C165.902 43.2632 167.068 42.0899 168.055 41.4766C168.402 41.2632 168.735 41.1566 169.055 41.1566C169.908 41.1566 170.335 41.5166 170.335 42.2366C170.335 42.5832 170.195 43.2165 169.915 44.1366C169.635 45.0566 169.402 45.6232 169.215 45.8366C168.975 46.1299 168.722 46.2766 168.455 46.2766C168.242 46.2766 168.135 46.1699 168.135 45.9566C168.135 45.8232 168.295 45.3699 168.615 44.5966C168.935 43.8232 169.095 43.2632 169.095 42.9166C169.095 42.6499 168.988 42.5166 168.775 42.5166C168.375 42.5166 167.722 43.0099 166.815 43.9966C166.202 44.7166 165.668 45.3965 165.215 46.0366C164.042 47.8232 163.455 49.1966 163.455 50.1566C163.455 50.5832 163.642 50.7966 164.015 50.7966C165.828 50.7966 167.842 50.1032 170.055 48.7166C171.815 47.5699 173.455 46.1699 174.975 44.5166C175.322 44.1432 175.562 43.9566 175.695 43.9566C175.748 43.9566 175.775 43.9832 175.775 44.0366ZM180.735 51.1566C182.202 51.1566 184.468 49.0632 187.535 44.8766C187.748 44.5832 187.922 44.4366 188.055 44.4366C188.135 44.4366 188.175 44.5032 188.175 44.6366C188.175 44.7966 188.095 44.9966 187.935 45.2366C187.162 46.5432 186.108 47.8899 184.775 49.2766C183.095 51.0632 181.762 51.9566 180.775 51.9566C179.362 51.9566 178.682 50.9966 178.735 49.0766C178.762 47.8499 179.388 45.9966 180.615 43.5166C178.882 44.6632 177.228 46.2499 175.655 48.2766C175.308 48.7299 175.008 49.1699 174.755 49.5966C174.502 50.0232 174.242 50.4499 173.975 50.8766C173.575 51.5166 173.255 51.8632 173.015 51.9166C172.908 51.9432 172.775 51.9566 172.615 51.9566C172.135 51.9566 171.895 51.7166 171.895 51.2366C171.895 50.8366 172.775 48.7832 174.535 45.0766C176.028 41.9299 177.108 39.7166 177.775 38.4366C180.522 33.2899 182.388 30.7166 183.375 30.7166C184.015 30.7166 184.335 31.0899 184.335 31.8366C184.335 32.9832 183.188 35.1832 180.895 38.4366C179.188 40.8899 177.562 42.9832 176.015 44.7166C175.962 44.7966 175.335 46.1299 174.135 48.7166C177.175 44.6365 179.388 42.5966 180.775 42.5966C181.495 42.5966 181.855 42.8766 181.855 43.4366C181.855 43.5699 181.502 44.4432 180.795 46.0566C180.088 47.6699 179.735 48.9165 179.735 49.7966C179.735 50.7032 180.068 51.1566 180.735 51.1566ZM183.495 31.9166C183.495 31.7032 183.442 31.5966 183.335 31.5966C182.748 31.5966 180.802 34.9565 177.495 41.6766C181.495 36.3165 183.495 33.0632 183.495 31.9166ZM191.535 47.7166C191.775 47.0499 191.895 46.3832 191.895 45.7166C191.895 44.5165 191.668 43.9166 191.215 43.9166C190.948 43.9166 190.708 44.2232 190.495 44.8366C190.335 45.3432 190.255 45.7699 190.255 46.1166C190.255 46.9166 190.682 47.4499 191.535 47.7166ZM198.146 44.5174C198.192 44.5247 198.215 44.5778 198.215 44.6766C198.215 44.8366 198.122 45.0766 197.935 45.3966C197.428 46.3032 196.575 47.0899 195.375 47.7566C194.282 48.3432 193.268 48.6766 192.335 48.7566C192.202 49.0499 191.668 49.6899 190.735 50.6766C189.482 52.0099 188.428 52.6766 187.575 52.6766C187.042 52.6766 186.622 52.4766 186.315 52.0766C186.008 51.6766 185.855 51.2099 185.855 50.6766C185.855 48.5965 186.468 46.4499 187.695 44.2366C187.962 43.7566 188.255 43.5166 188.575 43.5166C188.735 43.5166 188.815 43.6366 188.815 43.8766C188.815 43.9566 188.542 44.8499 187.995 46.5566C187.448 48.2632 187.175 49.5432 187.175 50.3966C187.175 50.9832 187.415 51.2766 187.895 51.2766C188.402 51.2766 189.082 50.7966 189.935 49.8366C190.228 49.6232 190.628 49.2232 191.135 48.6366C189.855 48.2366 189.215 47.3699 189.215 46.0366C189.215 45.3965 189.408 44.7366 189.795 44.0566C190.182 43.3765 190.668 43.0366 191.255 43.0366C191.842 43.0366 192.308 43.2899 192.655 43.7966C193.002 44.3032 193.175 44.8632 193.175 45.4766C193.175 46.1966 193.028 46.9699 192.735 47.7966C193.615 47.8499 194.762 47.3166 196.175 46.1966C197.535 45.119 198.191 44.5598 198.144 44.519L198.146 44.5174Z" fill="black"/>
<path d="M30.095 49.8366C31.7217 49.2766 33.055 48.1699 34.095 46.5166C34.255 46.2232 34.5283 45.8032 34.915 45.2566C35.3017 44.7099 35.5883 44.4366 35.775 44.4366C35.855 44.4366 35.895 44.4899 35.895 44.5966C35.895 44.7299 35.815 44.9566 35.655 45.2766C34.1083 48.2366 32.0817 50.0766 29.575 50.7966C28.7217 52.0499 27.4417 52.6766 25.735 52.6766C24.5883 52.6766 24.015 52.4099 24.015 51.8766C24.015 51.7699 24.055 51.6632 24.135 51.5566C24.2417 51.3432 24.975 51.0766 26.335 50.7566C27.1884 50.5699 28.0283 50.3832 28.855 50.1966C29.1483 49.7166 29.295 49.2899 29.295 48.9166C29.295 47.5299 28.295 46.2232 26.295 44.9966C26.0817 44.6499 25.975 44.3566 25.975 44.1166C25.975 43.5299 26.335 43.2366 27.055 43.2366C27.455 43.2366 27.655 43.4232 27.655 43.7966C27.655 43.9832 27.6017 44.2099 27.495 44.4766C28.0817 45.1166 28.6817 45.7565 29.295 46.3966C29.9617 47.1699 30.295 47.9566 30.295 48.7566C30.295 49.1032 30.2283 49.4632 30.095 49.8366ZM25.135 51.7566C25.455 51.8899 25.7883 51.9566 26.135 51.9566C26.8817 51.9566 27.535 51.7032 28.095 51.1966C27.4017 51.2766 26.415 51.4632 25.135 51.7566ZM39.775 39.0366C39.775 39.1966 39.6484 39.4032 39.395 39.6566C39.1417 39.9099 38.895 40.1432 38.655 40.3566C38.0417 41.0766 37.615 41.4366 37.375 41.4366C37.1617 41.4366 37.055 41.2899 37.055 40.9966C37.055 40.4899 37.2217 39.9232 37.555 39.2966C37.8884 38.6699 38.2817 38.3566 38.735 38.3566C39.4284 38.3566 39.775 38.5832 39.775 39.0366ZM42.855 44.2766C42.855 44.4632 42.735 44.7299 42.495 45.0766C40.4683 48.2499 38.1884 50.3832 35.655 51.4766C35.175 51.6899 34.7084 51.7966 34.255 51.7966C33.295 51.7966 32.815 51.2632 32.815 50.1966C32.815 49.6632 32.935 49.0099 33.175 48.2366C33.335 47.7032 33.7083 46.7699 34.295 45.4366C34.9883 43.8632 35.4683 43.0366 35.735 42.9566C35.8417 42.9032 35.975 42.8766 36.135 42.8766C36.6417 42.8766 36.895 43.0499 36.895 43.3966C36.895 43.6099 36.4417 44.6232 35.535 46.4366C34.6283 48.2499 34.175 49.4499 34.175 50.0366C34.175 50.3832 34.375 50.5566 34.775 50.5566C36.4017 50.5566 38.7883 48.5566 41.935 44.5566C42.2017 44.2099 42.4417 44.0366 42.655 44.0366C42.7883 44.0366 42.855 44.1166 42.855 44.2766ZM46.615 50.5166C46.9617 50.3299 47.4817 50.0366 48.175 49.6366C50.2017 48.4899 51.6283 47.4632 52.455 46.5566C52.7217 46.1832 53.135 45.6366 53.695 44.9166C53.9617 44.5966 54.1617 44.4366 54.295 44.4366C54.375 44.4366 54.415 44.4899 54.415 44.5966C54.415 44.7299 54.335 44.9432 54.175 45.2366C53.0017 47.5566 50.3217 49.7299 46.135 51.7566C45.6817 52.9032 44.9484 54.5965 43.935 56.8366C43.135 58.4632 42.2417 59.9032 41.255 61.1566C39.7883 63.0232 38.495 63.9566 37.375 63.9566C36.735 63.9566 36.415 63.4899 36.415 62.5566C36.415 61.0899 36.895 59.4766 37.855 57.7166C38.7617 56.0632 39.8283 54.7299 41.055 53.7166C42.0417 52.8899 43.3217 52.0766 44.895 51.2766L47.255 45.5566C46.4283 46.8366 45.415 48.0899 44.215 49.3166C42.6417 50.9432 41.3617 51.7566 40.375 51.7566C40.055 51.7566 39.755 51.6032 39.475 51.2966C39.195 50.9899 39.055 50.6766 39.055 50.3566C39.055 49.2099 39.9617 47.4099 41.775 44.9566C43.6684 42.3965 45.135 41.1166 46.175 41.1166C47.215 41.1166 47.7217 41.7299 47.695 42.9566V43.1166C48.0417 42.9032 48.3217 42.7966 48.535 42.7966C48.7484 42.7966 48.855 42.9299 48.855 43.1966C48.855 44.5032 48.1084 46.9432 46.615 50.5166ZM40.495 50.3166C40.8417 50.3166 41.4683 49.9699 42.375 49.2766C43.095 48.7432 43.6683 48.2632 44.095 47.8366C44.655 47.3032 45.5617 46.0899 46.815 44.1966C46.6017 44.1166 46.495 43.9566 46.495 43.7166C46.495 43.1032 46.5083 42.8499 46.535 42.9566C46.4817 42.6366 46.335 42.4766 46.095 42.4766C45.295 42.4766 44.1417 43.5299 42.635 45.6366C41.1283 47.7432 40.375 49.2499 40.375 50.1566C40.375 50.2632 40.415 50.3166 40.495 50.3166ZM37.695 62.9166C37.855 62.9166 38.095 62.7966 38.415 62.5566C39.215 61.9966 40.0683 61.0499 40.975 59.7166C41.775 58.5165 42.3883 57.3966 42.815 56.3566L44.295 52.7166C42.8817 53.4899 41.7817 54.2832 40.995 55.0966C40.2083 55.9099 39.415 57.0632 38.615 58.5566C37.735 60.1832 37.295 61.4499 37.295 62.3566C37.295 62.7299 37.4283 62.9166 37.695 62.9166ZM66.495 44.4366C66.495 44.7032 66.335 45.1032 66.015 45.6366C65.2417 46.8899 64.1884 48.1832 62.855 49.5166C61.175 51.1699 59.8284 51.9966 58.815 51.9966C57.695 51.9966 57.135 51.2099 57.135 49.6366C57.135 48.5432 57.695 46.5566 58.815 43.6766C57.455 45.3299 56.2684 46.7299 55.255 47.8766C53.2283 50.2232 51.9883 51.4899 51.535 51.6766C51.4017 51.7032 51.255 51.7166 51.095 51.7166C50.5083 51.7166 50.215 51.4899 50.215 51.0366C50.215 50.8766 50.775 49.6499 51.895 47.3566C53.095 44.8499 53.755 43.4366 53.875 43.1166C53.995 42.7966 54.1617 42.6366 54.375 42.6366C54.8017 42.6366 55.015 42.9299 55.015 43.5166C55.015 44.4499 53.9884 46.5565 51.935 49.8366C53.0017 48.6899 54.335 47.2366 55.935 45.4766C56.4684 44.8632 56.9883 44.2499 57.495 43.6366C58.375 42.6232 58.895 42.1166 59.055 42.1166C59.3484 42.1166 59.6683 42.2099 60.015 42.3966C60.3617 42.5832 60.535 42.7966 60.535 43.0366C60.535 43.1166 60.5217 43.1966 60.495 43.2766C60.0683 44.3432 59.6283 45.3965 59.175 46.4366C58.6683 47.7966 58.415 48.8899 58.415 49.7166C58.415 50.4366 58.6683 50.7966 59.175 50.7966C60.0017 50.7966 61.0017 50.2366 62.175 49.1166C62.895 48.4232 63.8017 47.3699 64.895 45.9566C65.7483 44.8099 66.2417 44.2366 66.375 44.2366C66.455 44.2366 66.495 44.3032 66.495 44.4366ZM70.415 39.0366C70.415 39.1966 70.2884 39.4032 70.035 39.6566C69.7817 39.9099 69.535 40.1432 69.295 40.3566C68.6817 41.0766 68.255 41.4366 68.015 41.4366C67.8017 41.4366 67.695 41.2899 67.695 40.9966C67.695 40.4899 67.8617 39.9232 68.195 39.2966C68.5284 38.6699 68.9217 38.3566 69.375 38.3566C70.0684 38.3566 70.415 38.5832 70.415 39.0366ZM73.495 44.2766C73.495 44.4632 73.375 44.7299 73.135 45.0766C71.1083 48.2499 68.8284 50.3832 66.295 51.4766C65.815 51.6899 65.3483 51.7966 64.895 51.7966C63.935 51.7966 63.455 51.2632 63.455 50.1966C63.455 49.6632 63.575 49.0099 63.815 48.2366C63.975 47.7032 64.3483 46.7699 64.935 45.4366C65.6283 43.8632 66.1083 43.0366 66.375 42.9566C66.4817 42.9032 66.615 42.8766 66.775 42.8766C67.2817 42.8766 67.535 43.0499 67.535 43.3966C67.535 43.6099 67.0817 44.6232 66.175 46.4366C65.2683 48.2499 64.815 49.4499 64.815 50.0366C64.815 50.3832 65.015 50.5566 65.415 50.5566C67.0417 50.5566 69.4283 48.5566 72.575 44.5566C72.8417 44.2099 73.0817 44.0366 73.295 44.0366C73.4283 44.0366 73.495 44.1166 73.495 44.2766ZM76.255 47.7566C77.3484 47.7832 78.375 47.5032 79.335 46.9166C79.9483 46.5432 80.5883 45.9966 81.255 45.2766C81.815 44.6899 82.135 44.3966 82.215 44.3966C82.3217 44.3966 82.375 44.4099 82.375 44.4366C82.375 44.5432 82.2817 44.7299 82.095 44.9966C81.5083 45.9832 80.695 46.8232 79.655 47.5166C78.535 48.3166 77.455 48.7032 76.415 48.6766C74.6017 48.6499 73.5617 48.1966 73.295 47.3166C73.3483 47.8232 73.375 48.3299 73.375 48.8366C73.375 51.7966 72.895 54.4765 71.935 56.8766C70.415 60.6899 68.855 62.5966 67.255 62.5966C66.455 62.5966 66.055 62.1032 66.055 61.1166C66.055 59.3299 67.1217 55.9699 69.255 51.0366C71.015 47.0099 72.5883 43.8232 73.975 41.4766C74.855 39.9832 76.0283 38.3032 77.495 36.4366C79.4684 33.9032 80.8417 32.6366 81.615 32.6366C82.015 32.6366 82.215 32.9566 82.215 33.5966C82.215 34.6099 81.7217 35.9299 80.735 37.5566C79.9883 38.8099 79.135 39.9832 78.175 41.0766C76.6817 42.7566 74.9884 44.2632 73.095 45.5966C73.5484 46.4499 73.9617 47.0166 74.335 47.2966C74.7084 47.5766 75.3483 47.7299 76.255 47.7566ZM80.935 34.3166C80.5617 34.3166 79.4017 35.7032 77.455 38.4766C75.775 40.8766 74.6817 42.5566 74.175 43.5166C75.215 42.6099 76.0483 41.8432 76.675 41.2166C77.3017 40.5899 78.135 39.5032 79.175 37.9566C80.375 36.1699 80.975 34.9832 80.975 34.3966C80.975 34.3432 80.9617 34.3166 80.935 34.3166ZM67.535 61.6366C68.2284 61.6366 69.1217 60.4499 70.215 58.0766C71.175 56.0765 71.7483 54.5432 71.935 53.4766C72.2283 51.9299 72.375 50.2232 72.375 48.3566C72.375 47.8766 72.3617 47.4632 72.335 47.1166C68.7883 54.2899 67.015 58.8499 67.015 60.7966C67.015 61.3566 67.1884 61.6366 67.535 61.6366ZM86.375 39.0366C86.375 39.1966 86.2484 39.4032 85.995 39.6566C85.7417 39.9099 85.495 40.1432 85.255 40.3566C84.6417 41.0766 84.215 41.4366 83.975 41.4366C83.7617 41.4366 83.655 41.2899 83.655 40.9966C83.655 40.4899 83.8217 39.9232 84.155 39.2966C84.4883 38.6699 84.8817 38.3566 85.335 38.3566C86.0284 38.3566 86.375 38.5832 86.375 39.0366ZM89.455 44.2766C89.455 44.4632 89.335 44.7299 89.095 45.0766C87.0683 48.2499 84.7884 50.3832 82.255 51.4766C81.775 51.6899 81.3084 51.7966 80.855 51.7966C79.895 51.7966 79.415 51.2632 79.415 50.1966C79.415 49.6632 79.535 49.0099 79.775 48.2366C79.935 47.7032 80.3083 46.7699 80.895 45.4366C81.5883 43.8632 82.0683 43.0366 82.335 42.9566C82.4417 42.9032 82.575 42.8766 82.735 42.8766C83.2417 42.8766 83.495 43.0499 83.495 43.3966C83.495 43.6099 83.0417 44.6232 82.135 46.4366C81.2283 48.2499 80.775 49.4499 80.775 50.0366C80.775 50.3832 80.975 50.5566 81.375 50.5566C83.0017 50.5566 85.3883 48.5566 88.535 44.5566C88.8017 44.2099 89.0417 44.0366 89.255 44.0366C89.3883 44.0366 89.455 44.1166 89.455 44.2766ZM99.055 44.0366C99.055 44.1432 98.975 44.3432 98.815 44.6366C97.9617 46.1299 96.3084 47.7032 93.855 49.3566C91.3217 51.0632 89.255 51.9166 87.655 51.9166C86.1083 51.9166 85.335 51.2766 85.335 49.9966C85.335 49.7299 85.375 49.4499 85.455 49.1566C85.695 48.1166 86.4883 46.7299 87.835 44.9966C89.1817 43.2632 90.3483 42.0899 91.335 41.4766C91.6817 41.2632 92.015 41.1566 92.335 41.1566C93.1884 41.1566 93.615 41.5166 93.615 42.2366C93.615 42.5832 93.475 43.2165 93.195 44.1366C92.915 45.0566 92.6817 45.6232 92.495 45.8366C92.255 46.1299 92.0017 46.2766 91.735 46.2766C91.5217 46.2766 91.415 46.1699 91.415 45.9566C91.415 45.8232 91.575 45.3699 91.895 44.5966C92.215 43.8232 92.375 43.2632 92.375 42.9166C92.375 42.6499 92.2683 42.5166 92.055 42.5166C91.655 42.5166 91.0017 43.0099 90.095 43.9966C89.4817 44.7166 88.9484 45.3965 88.495 46.0366C87.3217 47.8232 86.735 49.1966 86.735 50.1566C86.735 50.5832 86.9217 50.7966 87.295 50.7966C89.1084 50.7966 91.1217 50.1032 93.335 48.7166C95.095 47.5699 96.735 46.1699 98.255 44.5166C98.6017 44.1432 98.8417 43.9566 98.975 43.9566C99.0284 43.9566 99.055 43.9832 99.055 44.0366ZM112.135 43.9166C112.135 44.0766 112.028 44.3832 111.815 44.8366C111.655 45.1566 111.242 45.7432 110.575 46.5966C107.882 50.1166 105.655 51.8766 103.895 51.8766C102.668 51.8766 102.055 51.0366 102.055 49.3566C102.055 48.6366 102.202 47.8099 102.495 46.8766C99.5083 50.1032 97.4684 51.7166 96.375 51.7166C96.1083 51.7166 95.8417 51.5432 95.575 51.1966C95.3083 50.8499 95.175 50.5432 95.175 50.2766C95.175 49.7432 95.535 48.7699 96.255 47.3566C96.8683 46.2099 97.415 45.3032 97.895 44.6366C99.4684 42.4765 100.975 41.3966 102.415 41.3966C103.375 41.3966 103.855 41.7699 103.855 42.5166C103.855 42.6499 103.802 42.8899 103.695 43.2366C103.828 43.1566 104.002 43.1166 104.215 43.1166C104.748 43.1166 105.015 43.2766 105.015 43.5966C105.015 43.6232 104.882 43.9965 104.615 44.7166C103.708 47.2499 103.255 48.9032 103.255 49.6766C103.255 50.2899 103.548 50.5966 104.135 50.5966C104.882 50.5966 105.895 50.0099 107.175 48.8366C107.895 48.1699 108.922 47.0766 110.255 45.5566C111.295 44.3832 111.882 43.7966 112.015 43.7966C112.095 43.7966 112.135 43.8366 112.135 43.9166ZM102.655 44.5966C102.468 44.3832 102.375 44.1699 102.375 43.9566C102.375 43.8232 102.395 43.6432 102.435 43.4166C102.475 43.1899 102.495 43.0099 102.495 42.8766C102.495 42.6366 102.388 42.5166 102.175 42.5166C101.695 42.5166 101.002 42.9699 100.095 43.8766C99.4017 44.5699 98.8417 45.2232 98.415 45.8366C98.0683 46.3432 97.6684 47.0365 97.215 47.9166C96.6817 48.9566 96.415 49.6766 96.415 50.0766C96.4417 50.1299 96.455 50.1699 96.455 50.1966H96.575C97.535 50.1966 99.0817 49.0366 101.215 46.7166C101.455 46.4499 101.935 45.7432 102.655 44.5966ZM124.335 44.4366C124.335 44.7032 124.175 45.1032 123.855 45.6366C123.082 46.8899 122.028 48.1832 120.695 49.5166C119.015 51.1699 117.668 51.9966 116.655 51.9966C115.535 51.9966 114.975 51.2099 114.975 49.6366C114.975 48.5432 115.535 46.5566 116.655 43.6766C115.295 45.3299 114.108 46.7299 113.095 47.8766C111.068 50.2232 109.828 51.4899 109.375 51.6766C109.242 51.7032 109.095 51.7166 108.935 51.7166C108.348 51.7166 108.055 51.4899 108.055 51.0366C108.055 50.8766 108.615 49.6499 109.735 47.3566C110.935 44.8499 111.595 43.4366 111.715 43.1166C111.835 42.7966 112.002 42.6366 112.215 42.6366C112.642 42.6366 112.855 42.9299 112.855 43.5166C112.855 44.4499 111.828 46.5565 109.775 49.8366C110.842 48.6899 112.175 47.2366 113.775 45.4766C114.308 44.8632 114.828 44.2499 115.335 43.6366C116.215 42.6232 116.735 42.1166 116.895 42.1166C117.188 42.1166 117.508 42.2099 117.855 42.3966C118.202 42.5832 118.375 42.7966 118.375 43.0366C118.375 43.1166 118.362 43.1966 118.335 43.2766C117.908 44.3432 117.468 45.3965 117.015 46.4366C116.508 47.7966 116.255 48.8899 116.255 49.7166C116.255 50.4366 116.508 50.7966 117.015 50.7966C117.842 50.7966 118.842 50.2366 120.015 49.1166C120.735 48.4232 121.642 47.3699 122.735 45.9566C123.588 44.8099 124.082 44.2366 124.215 44.2366C124.295 44.2366 124.335 44.3032 124.335 44.4366ZM153.855 44.7966C153.855 45.0366 153.722 45.3566 153.455 45.7566C152.735 46.8499 151.522 48.1299 149.815 49.5966C147.868 51.2766 146.415 52.1166 145.455 52.1166C144.495 52.1166 144.015 51.3299 144.015 49.7566C144.015 48.4499 144.442 46.7432 145.295 44.6366C143.268 46.6632 141.135 48.7165 138.895 50.7966C138.762 50.8499 138.615 50.8766 138.455 50.8766C137.868 50.8766 137.575 50.7032 137.575 50.3566C137.575 50.2232 138.148 48.3566 139.295 44.7566L136.295 47.7566C134.988 49.1166 133.628 50.4899 132.215 51.8766H132.015C131.215 51.8766 130.815 51.7166 130.815 51.3966C130.815 51.2632 131.748 49.2632 133.615 45.3966C133.828 44.9432 134.068 44.4099 134.335 43.7966C134.442 43.2099 134.695 42.9166 135.095 42.9166C135.602 42.9166 135.855 43.1699 135.855 43.6766C135.855 43.8899 135.355 44.9099 134.355 46.7366C133.355 48.5632 132.855 49.5699 132.855 49.7566C132.908 49.7566 134.015 48.6432 136.175 46.4166C138.335 44.1899 139.482 43.0766 139.615 43.0766C139.828 43.0766 140.095 43.1566 140.415 43.3166C140.735 43.4766 140.895 43.6632 140.895 43.8766C140.895 43.9299 140.802 44.2632 140.615 44.8766C139.815 47.5432 139.415 48.9299 139.415 49.0366V49.0766C139.468 49.0766 140.542 48.0166 142.635 45.8966C144.728 43.7765 145.908 42.6766 146.175 42.5966H146.415C146.948 42.5966 147.215 42.8232 147.215 43.2766C147.215 43.4366 147.028 43.9965 146.655 44.9566C145.695 47.3832 145.215 49.0365 145.215 49.9166C145.215 50.6099 145.455 50.9566 145.935 50.9566C146.495 50.9566 147.522 50.3432 149.015 49.1166C150.135 48.2099 151.068 47.3699 151.815 46.5966C152.242 46.1166 152.668 45.5699 153.095 44.9566C153.308 44.6632 153.495 44.5166 153.655 44.5166C153.788 44.5166 153.855 44.6099 153.855 44.7966ZM154.495 42.0766C154.922 42.0766 155.135 42.2632 155.135 42.6366C155.135 42.7432 154.648 43.8165 153.675 45.8566C152.702 47.8966 152.215 49.2499 152.215 49.9166C152.215 50.2099 152.322 50.3566 152.535 50.3566C153.495 50.3566 155.762 48.0499 159.335 43.4366C159.388 42.8766 159.628 42.5966 160.055 42.5966C160.642 42.5966 160.935 42.7832 160.935 43.1566C160.935 43.2899 160.468 44.3832 159.535 46.4366C158.602 48.4899 158.135 49.8499 158.135 50.5166C158.135 50.7832 158.215 50.9166 158.375 50.9166C159.148 50.9166 160.135 50.3566 161.335 49.2366C162.002 48.5699 162.922 47.5166 164.095 46.0766C165.002 44.9299 165.522 44.3566 165.655 44.3566C165.762 44.3566 165.815 44.4099 165.815 44.5166C165.815 44.6766 165.682 44.9432 165.415 45.3166C164.028 47.2632 163.002 48.5966 162.335 49.3166C160.788 51.0232 159.468 51.8766 158.375 51.8766C157.442 51.8766 156.975 51.4099 156.975 50.4766C156.975 49.4632 157.428 48.0766 158.335 46.3166C157.508 47.5166 156.575 48.6099 155.535 49.5966C154.095 50.9832 152.868 51.6766 151.855 51.6766C151.348 51.6766 151.095 51.2366 151.095 50.3566C151.095 48.5699 152.068 45.9032 154.015 42.3566C154.095 42.1699 154.255 42.0766 154.495 42.0766ZM175.775 44.0366C175.775 44.1432 175.695 44.3432 175.535 44.6366C174.682 46.1299 173.028 47.7032 170.575 49.3566C168.042 51.0632 165.975 51.9166 164.375 51.9166C162.828 51.9166 162.055 51.2766 162.055 49.9966C162.055 49.7299 162.095 49.4499 162.175 49.1566C162.415 48.1166 163.208 46.7299 164.555 44.9966C165.902 43.2632 167.068 42.0899 168.055 41.4766C168.402 41.2632 168.735 41.1566 169.055 41.1566C169.908 41.1566 170.335 41.5166 170.335 42.2366C170.335 42.5832 170.195 43.2165 169.915 44.1366C169.635 45.0566 169.402 45.6232 169.215 45.8366C168.975 46.1299 168.722 46.2766 168.455 46.2766C168.242 46.2766 168.135 46.1699 168.135 45.9566C168.135 45.8232 168.295 45.3699 168.615 44.5966C168.935 43.8232 169.095 43.2632 169.095 42.9166C169.095 42.6499 168.988 42.5166 168.775 42.5166C168.375 42.5166 167.722 43.0099 166.815 43.9966C166.202 44.7166 165.668 45.3965 165.215 46.0366C164.042 47.8232 163.455 49.1966 163.455 50.1566C163.455 50.5832 163.642 50.7966 164.015 50.7966C165.828 50.7966 167.842 50.1032 170.055 48.7166C171.815 47.5699 173.455 46.1699 174.975 44.5166C175.322 44.1432 175.562 43.9566 175.695 43.9566C175.748 43.9566 175.775 43.9832 175.775 44.0366ZM180.735 51.1566C182.202 51.1566 184.468 49.0632 187.535 44.8766C187.748 44.5832 187.922 44.4366 188.055 44.4366C188.135 44.4366 188.175 44.5032 188.175 44.6366C188.175 44.7966 188.095 44.9966 187.935 45.2366C187.162 46.5432 186.108 47.8899 184.775 49.2766C183.095 51.0632 181.762 51.9566 180.775 51.9566C179.362 51.9566 178.682 50.9966 178.735 49.0766C178.762 47.8499 179.388 45.9966 180.615 43.5166C178.882 44.6632 177.228 46.2499 175.655 48.2766C175.308 48.7299 175.008 49.1699 174.755 49.5966C174.502 50.0232 174.242 50.4499 173.975 50.8766C173.575 51.5166 173.255 51.8632 173.015 51.9166C172.908 51.9432 172.775 51.9566 172.615 51.9566C172.135 51.9566 171.895 51.7166 171.895 51.2366C171.895 50.8366 172.775 48.7832 174.535 45.0766C176.028 41.9299 177.108 39.7166 177.775 38.4366C180.522 33.2899 182.388 30.7166 183.375 30.7166C184.015 30.7166 184.335 31.0899 184.335 31.8366C184.335 32.9832 183.188 35.1832 180.895 38.4366C179.188 40.8899 177.562 42.9832 176.015 44.7166C175.962 44.7966 175.335 46.1299 174.135 48.7166C177.175 44.6365 179.388 42.5966 180.775 42.5966C181.495 42.5966 181.855 42.8766 181.855 43.4366C181.855 43.5699 181.502 44.4432 180.795 46.0566C180.088 47.6699 179.735 48.9165 179.735 49.7966C179.735 50.7032 180.068 51.1566 180.735 51.1566ZM183.495 31.9166C183.495 31.7032 183.442 31.5966 183.335 31.5966C182.748 31.5966 180.802 34.9565 177.495 41.6766C181.495 36.3165 183.495 33.0632 183.495 31.9166ZM191.535 47.7166C191.775 47.0499 191.895 46.3832 191.895 45.7166C191.895 44.5165 191.668 43.9166 191.215 43.9166C190.948 43.9166 190.708 44.2232 190.495 44.8366C190.335 45.3432 190.255 45.7699 190.255 46.1166C190.255 46.9166 190.682 47.4499 191.535 47.7166ZM198.146 44.5174C198.192 44.5247 198.215 44.5778 198.215 44.6766C198.215 44.8366 198.122 45.0766 197.935 45.3966C197.428 46.3032 196.575 47.0899 195.375 47.7566C194.282 48.3432 193.268 48.6766 192.335 48.7566C192.202 49.0499 191.668 49.6899 190.735 50.6766C189.482 52.0099 188.428 52.6766 187.575 52.6766C187.042 52.6766 186.622 52.4766 186.315 52.0766C186.008 51.6766 185.855 51.2099 185.855 50.6766C185.855 48.5965 186.468 46.4499 187.695 44.2366C187.962 43.7566 188.255 43.5166 188.575 43.5166C188.735 43.5166 188.815 43.6366 188.815 43.8766C188.815 43.9566 188.542 44.8499 187.995 46.5566C187.448 48.2632 187.175 49.5432 187.175 50.3966C187.175 50.9832 187.415 51.2766 187.895 51.2766C188.402 51.2766 189.082 50.7966 189.935 49.8366C190.228 49.6232 190.628 49.2232 191.135 48.6366C189.855 48.2366 189.215 47.3699 189.215 46.0366C189.215 45.3965 189.408 44.7366 189.795 44.0566C190.182 43.3765 190.668 43.0366 191.255 43.0366C191.842 43.0366 192.308 43.2899 192.655 43.7966C193.002 44.3032 193.175 44.8632 193.175 45.4766C193.175 46.1966 193.028 46.9699 192.735 47.7966C193.615 47.8499 194.762 47.3166 196.175 46.1966C197.535 45.119 198.191 44.5598 198.144 44.519L198.146 44.5174Z" fill="#8C8888"/>
<path d="M50.48 76.9164C52.7467 76.3831 54.6667 75.0898 56.24 73.0364C56.4533 72.7698 56.6 72.6364 56.68 72.6364C56.76 72.6364 56.8 72.7031 56.8 72.8364C56.8 73.0231 56.7067 73.2764 56.52 73.5964C55.56 75.4631 53.3067 76.9564 49.76 78.0764C48.24 80.3431 46.64 81.4764 44.96 81.4764C43.9733 81.4764 43.48 81.0631 43.48 80.2364C43.48 79.4631 44.2267 78.8098 45.72 78.2764C46.7867 77.9564 47.8667 77.6498 48.96 77.3564C50.32 74.9564 51 73.2898 51 72.3564C51 71.9031 50.8133 71.6764 50.44 71.6764C50.2533 71.6764 50.0267 71.7298 49.76 71.8364C48.64 72.2631 47.48 73.1164 46.28 74.3964C45.1867 75.5964 44.3867 76.7964 43.88 77.9964C42.9733 80.0498 41.76 82.7031 40.24 85.9564C39.8133 86.8898 39.12 88.2364 38.16 89.9964C37.6533 90.7164 37.2933 91.0764 37.08 91.0764C36.9733 91.0764 36.8933 91.0498 36.84 90.9964C36.7867 90.9431 36.76 90.8898 36.76 90.8364C36.76 90.1164 37.6933 87.7698 39.56 83.7964C41.4267 79.8231 42.7333 77.3564 43.48 76.3964C43.6933 76.1031 44.0333 75.2631 44.5 73.8764C44.9667 72.4898 45.2533 71.7031 45.36 71.5164C45.4667 71.3298 45.6 71.2364 45.76 71.2364C46.1067 71.2364 46.28 71.4231 46.28 71.7964C46.28 71.9298 46.04 72.6231 45.56 73.8764C47.88 71.5831 49.6133 70.4364 50.76 70.4364C51.7733 70.4364 52.28 71.0498 52.28 72.2764C52.28 73.2898 51.68 74.8364 50.48 76.9164ZM45.08 80.5564C46.1467 80.5564 47.1867 79.8898 48.2 78.5564C45.7467 79.3298 44.52 79.8764 44.52 80.1964C44.52 80.4364 44.7067 80.5564 45.08 80.5564ZM69.88 72.9164C69.88 73.0764 69.7733 73.3831 69.56 73.8364C69.4 74.1564 68.9867 74.7431 68.32 75.5964C65.6267 79.1165 63.4 80.8764 61.64 80.8764C60.4133 80.8764 59.8 80.0364 59.8 78.3564C59.8 77.6364 59.9467 76.8098 60.24 75.8764C57.2533 79.1031 55.2133 80.7164 54.12 80.7164C53.8533 80.7164 53.5867 80.5431 53.32 80.1964C53.0533 79.8498 52.92 79.5431 52.92 79.2764C52.92 78.7431 53.28 77.7698 54 76.3564C54.6133 75.2098 55.16 74.3031 55.64 73.6364C57.2134 71.4764 58.72 70.3964 60.16 70.3964C61.12 70.3964 61.6 70.7698 61.6 71.5164C61.6 71.6498 61.5467 71.8898 61.44 72.2364C61.5733 72.1564 61.7467 72.1164 61.96 72.1164C62.4933 72.1164 62.76 72.2764 62.76 72.5964C62.76 72.6231 62.6267 72.9964 62.36 73.7164C61.4533 76.2498 61 77.9031 61 78.6764C61 79.2898 61.2933 79.5964 61.88 79.5964C62.6267 79.5964 63.64 79.0098 64.92 77.8364C65.64 77.1698 66.6667 76.0764 68 74.5564C69.04 73.3831 69.6267 72.7964 69.76 72.7964C69.84 72.7964 69.88 72.8364 69.88 72.9164ZM60.4 73.5964C60.2133 73.3831 60.12 73.1698 60.12 72.9564C60.12 72.8231 60.14 72.6431 60.18 72.4164C60.22 72.1898 60.24 72.0098 60.24 71.8764C60.24 71.6364 60.1333 71.5164 59.92 71.5164C59.44 71.5164 58.7467 71.9698 57.84 72.8764C57.1467 73.5698 56.5867 74.2231 56.16 74.8364C55.8133 75.3431 55.4133 76.0364 54.96 76.9164C54.4267 77.9564 54.16 78.6764 54.16 79.0764C54.1867 79.1298 54.2 79.1698 54.2 79.1964H54.32C55.28 79.1964 56.8267 78.0364 58.96 75.7164C59.2 75.4498 59.68 74.7431 60.4 73.5964ZM68.44 72.8764C68.44 72.1564 68.7467 71.7964 69.36 71.7964C69.7333 71.7964 69.92 71.9698 69.92 72.3164C69.92 72.5031 69.8533 72.7431 69.72 73.0364H69.92C70.48 73.0364 71.16 72.8898 71.96 72.5964C72.36 72.4364 72.6667 72.2831 72.88 72.1364C73.0933 71.9898 73.3067 71.8298 73.52 71.6564C73.7333 71.4831 73.9067 71.3964 74.04 71.3964C74.68 71.3964 75 71.5831 75 71.9564C75 72.1698 74.6133 72.7831 73.84 73.7964C72.9333 74.9964 72.44 75.6631 72.36 75.7964C71.32 77.6098 70.8 78.7964 70.8 79.3564C70.8 79.8364 71.0667 80.0764 71.6 80.0764C72.24 80.0764 73.2533 79.6231 74.64 78.7164C75.44 78.1831 76.2667 77.4098 77.12 76.3964C77.84 75.5164 78.5733 74.6364 79.32 73.7564C79.4533 73.5964 79.5867 73.5164 79.72 73.5164C79.8267 73.5164 79.88 73.5964 79.88 73.7564C79.88 73.8364 79.84 73.9564 79.76 74.1164C79.2533 75.0231 78.3467 76.1698 77.04 77.5564C75.6533 78.9964 74.5467 79.9031 73.72 80.2764C72.7867 80.7031 71.9334 80.9164 71.16 80.9164C70.0133 80.9164 69.44 80.5298 69.44 79.7564C69.44 78.7431 70.4667 76.6098 72.52 73.3564C70.3333 73.9164 69.2667 74.1964 69.32 74.1964C69.08 74.1964 68.8733 74.0364 68.7 73.7164C68.5267 73.3964 68.44 73.1164 68.44 72.8764ZM93.2 72.9164C93.2 73.0764 93.0933 73.3831 92.88 73.8364C92.72 74.1564 92.3067 74.7431 91.64 75.5964C88.9467 79.1165 86.72 80.8764 84.96 80.8764C83.7333 80.8764 83.12 80.0364 83.12 78.3564C83.12 77.6364 83.2667 76.8098 83.56 75.8764C80.5733 79.1031 78.5334 80.7164 77.44 80.7164C77.1733 80.7164 76.9067 80.5431 76.64 80.1964C76.3733 79.8498 76.24 79.5431 76.24 79.2764C76.24 78.7431 76.6 77.7698 77.32 76.3564C77.9333 75.2098 78.48 74.3031 78.96 73.6364C80.5334 71.4764 82.04 70.3964 83.48 70.3964C84.44 70.3964 84.92 70.7698 84.92 71.5164C84.92 71.6498 84.8667 71.8898 84.76 72.2364C84.8933 72.1564 85.0667 72.1164 85.28 72.1164C85.8133 72.1164 86.08 72.2764 86.08 72.5964C86.08 72.6231 85.9467 72.9964 85.68 73.7164C84.7733 76.2498 84.32 77.9031 84.32 78.6764C84.32 79.2898 84.6133 79.5964 85.2 79.5964C85.9467 79.5964 86.96 79.0098 88.24 77.8364C88.96 77.1698 89.9867 76.0764 91.32 74.5564C92.36 73.3831 92.9467 72.7964 93.08 72.7964C93.16 72.7964 93.2 72.8364 93.2 72.9164ZM83.72 73.5964C83.5333 73.3831 83.44 73.1698 83.44 72.9564C83.44 72.8231 83.46 72.6431 83.5 72.4164C83.54 72.1898 83.56 72.0098 83.56 71.8764C83.56 71.6364 83.4533 71.5164 83.24 71.5164C82.76 71.5164 82.0667 71.9698 81.16 72.8764C80.4667 73.5698 79.9067 74.2231 79.48 74.8364C79.1333 75.3431 78.7333 76.0364 78.28 76.9164C77.7467 77.9564 77.48 78.6764 77.48 79.0764C77.5067 79.1298 77.52 79.1698 77.52 79.1964H77.64C78.6 79.1964 80.1467 78.0364 82.28 75.7164C82.52 75.4498 83 74.7431 83.72 73.5964ZM116.12 73.4364C116.12 73.7031 115.96 74.1031 115.64 74.6364C114.867 75.8898 113.813 77.1831 112.48 78.5164C110.8 80.1698 109.453 80.9964 108.44 80.9964C107.32 80.9964 106.76 80.2098 106.76 78.6364C106.76 77.5431 107.32 75.5564 108.44 72.6764C107.08 74.3298 105.893 75.7298 104.88 76.8764C102.853 79.2231 101.613 80.4898 101.16 80.6764C101.027 80.7031 100.88 80.7164 100.72 80.7164C100.133 80.7164 99.84 80.4898 99.84 80.0364C99.84 79.8764 100.4 78.6498 101.52 76.3564C102.72 73.8498 103.38 72.4364 103.5 72.1164C103.62 71.7964 103.787 71.6364 104 71.6364C104.427 71.6364 104.64 71.9298 104.64 72.5164C104.64 73.4498 103.613 75.5564 101.56 78.8364C102.627 77.6898 103.96 76.2364 105.56 74.4764C106.093 73.8631 106.613 73.2498 107.12 72.6364C108 71.6231 108.52 71.1164 108.68 71.1164C108.973 71.1164 109.293 71.2098 109.64 71.3964C109.987 71.5831 110.16 71.7964 110.16 72.0364C110.16 72.1164 110.147 72.1964 110.12 72.2764C109.693 73.3431 109.253 74.3964 108.8 75.4364C108.293 76.7964 108.04 77.8898 108.04 78.7164C108.04 79.4364 108.293 79.7964 108.8 79.7964C109.627 79.7964 110.627 79.2364 111.8 78.1164C112.52 77.4231 113.427 76.3698 114.52 74.9564C115.373 73.8098 115.867 73.2364 116 73.2364C116.08 73.2364 116.12 73.3031 116.12 73.4364ZM119.2 76.7164C119.44 76.0498 119.56 75.3831 119.56 74.7164C119.56 73.5164 119.333 72.9164 118.88 72.9164C118.613 72.9164 118.373 73.2231 118.16 73.8364C118 74.3431 117.92 74.7698 117.92 75.1164C117.92 75.9164 118.347 76.4498 119.2 76.7164ZM125.811 73.5173C125.857 73.5246 125.88 73.5776 125.88 73.6764C125.88 73.8364 125.787 74.0764 125.6 74.3964C125.093 75.3031 124.24 76.0898 123.04 76.7564C121.947 77.3431 120.933 77.6764 120 77.7564C119.867 78.0498 119.333 78.6898 118.4 79.6764C117.147 81.0098 116.093 81.6764 115.24 81.6764C114.707 81.6764 114.287 81.4764 113.98 81.0764C113.673 80.6764 113.52 80.2098 113.52 79.6764C113.52 77.5964 114.133 75.4498 115.36 73.2364C115.627 72.7564 115.92 72.5164 116.24 72.5164C116.4 72.5164 116.48 72.6364 116.48 72.8764C116.48 72.9564 116.207 73.8498 115.66 75.5564C115.113 77.2631 114.84 78.5431 114.84 79.3964C114.84 79.9831 115.08 80.2764 115.56 80.2764C116.067 80.2764 116.747 79.7964 117.6 78.8364C117.893 78.6231 118.293 78.2231 118.8 77.6364C117.52 77.2364 116.88 76.3698 116.88 75.0364C116.88 74.3964 117.073 73.7364 117.46 73.0564C117.847 72.3764 118.333 72.0364 118.92 72.0364C119.507 72.0364 119.973 72.2898 120.32 72.7964C120.667 73.3031 120.84 73.8631 120.84 74.4764C120.84 75.1964 120.693 75.9698 120.4 76.7964C121.28 76.8498 122.427 76.3164 123.84 75.1964C125.2 74.1189 125.856 73.5597 125.809 73.5188L125.811 73.5173ZM128.48 78.8364C130.107 78.2764 131.44 77.1698 132.48 75.5164C132.64 75.2231 132.913 74.8031 133.3 74.2564C133.687 73.7098 133.973 73.4364 134.16 73.4364C134.24 73.4364 134.28 73.4898 134.28 73.5964C134.28 73.7298 134.2 73.9564 134.04 74.2764C132.493 77.2365 130.467 79.0764 127.96 79.7964C127.107 81.0498 125.827 81.6764 124.12 81.6764C122.973 81.6764 122.4 81.4098 122.4 80.8764C122.4 80.7698 122.44 80.6631 122.52 80.5564C122.627 80.3431 123.36 80.0764 124.72 79.7564C125.573 79.5698 126.413 79.3831 127.24 79.1964C127.533 78.7164 127.68 78.2898 127.68 77.9164C127.68 76.5298 126.68 75.2231 124.68 73.9964C124.467 73.6498 124.36 73.3564 124.36 73.1164C124.36 72.5298 124.72 72.2364 125.44 72.2364C125.84 72.2364 126.04 72.4231 126.04 72.7964C126.04 72.9831 125.987 73.2098 125.88 73.4764C126.467 74.1164 127.067 74.7564 127.68 75.3964C128.347 76.1698 128.68 76.9564 128.68 77.7564C128.68 78.1031 128.613 78.4631 128.48 78.8364ZM123.52 80.7564C123.84 80.8898 124.173 80.9564 124.52 80.9564C125.267 80.9564 125.92 80.7031 126.48 80.1964C125.787 80.2764 124.8 80.4631 123.52 80.7564ZM137.32 76.7164C137.56 76.0498 137.68 75.3831 137.68 74.7164C137.68 73.5164 137.453 72.9164 137 72.9164C136.733 72.9164 136.493 73.2231 136.28 73.8364C136.12 74.3431 136.04 74.7698 136.04 75.1164C136.04 75.9164 136.467 76.4498 137.32 76.7164ZM143.931 73.5173C143.977 73.5246 144 73.5776 144 73.6764C144 73.8364 143.907 74.0764 143.72 74.3964C143.213 75.3031 142.36 76.0898 141.16 76.7564C140.067 77.3431 139.053 77.6764 138.12 77.7564C137.987 78.0498 137.453 78.6898 136.52 79.6764C135.267 81.0098 134.213 81.6764 133.36 81.6764C132.827 81.6764 132.407 81.4764 132.1 81.0764C131.793 80.6764 131.64 80.2098 131.64 79.6764C131.64 77.5964 132.253 75.4498 133.48 73.2364C133.747 72.7564 134.04 72.5164 134.36 72.5164C134.52 72.5164 134.6 72.6364 134.6 72.8764C134.6 72.9564 134.327 73.8498 133.78 75.5564C133.233 77.2631 132.96 78.5431 132.96 79.3964C132.96 79.9831 133.2 80.2764 133.68 80.2764C134.187 80.2764 134.867 79.7964 135.72 78.8364C136.013 78.6231 136.413 78.2231 136.92 77.6364C135.64 77.2364 135 76.3698 135 75.0364C135 74.3964 135.193 73.7364 135.58 73.0564C135.967 72.3764 136.453 72.0364 137.04 72.0364C137.627 72.0364 138.093 72.2898 138.44 72.7964C138.787 73.3031 138.96 73.8631 138.96 74.4764C138.96 75.1964 138.813 75.9698 138.52 76.7964C139.4 76.8498 140.547 76.3164 141.96 75.1964C143.32 74.1189 143.976 73.5597 143.929 73.5188L143.931 73.5173ZM140.44 65.9164C140.733 65.9164 141.173 65.9498 141.76 66.0164C142.347 66.0831 142.787 66.1164 143.08 66.1164C144.413 66.1164 145.787 66.0098 147.2 65.7964L149.04 62.0364C149.2 61.7431 149.413 61.5964 149.68 61.5964C150.133 61.5964 150.36 61.8631 150.36 62.3964C150.36 62.6364 150.267 63.0231 150.08 63.5564C149.867 64.1698 149.627 64.7831 149.36 65.3964C149.973 65.2364 150.947 65.0098 152.28 64.7164C155.133 64.1031 157.027 63.7964 157.96 63.7964C158.307 63.7964 158.48 63.9164 158.48 64.1564C158.48 64.4498 158.227 64.5964 157.72 64.5964C157.213 64.5964 155.547 64.9298 152.72 65.5964C151.867 65.7831 150.573 66.0764 148.84 66.4764C148.147 67.8898 147.227 69.5431 146.08 71.4364C145.413 72.4764 144.8 73.6898 144.24 75.0764C143.6 76.7298 143.28 78.0364 143.28 78.9964C143.28 79.6098 143.533 79.9164 144.04 79.9164C144.947 79.9164 146.293 79.0764 148.08 77.3964C149.28 76.2764 150.427 75.0364 151.52 73.6764C151.707 73.4364 151.867 73.3164 152 73.3164C152.107 73.3164 152.16 73.3964 152.16 73.5564C152.16 73.7164 152.093 73.9164 151.96 74.1564C151.107 75.5964 149.933 77.0231 148.44 78.4364C146.627 80.1431 145.093 80.9964 143.84 80.9964C142.693 80.9964 142.12 80.3164 142.12 78.9564C142.12 76.9031 142.907 74.3298 144.48 71.2364L146.64 66.8764C145.04 67.1431 143.587 67.2764 142.28 67.2764C140.76 67.2764 140 66.9298 140 66.2364C140 66.0231 140.147 65.9164 140.44 65.9164ZM150.96 72.8764C150.96 72.1564 151.267 71.7964 151.88 71.7964C152.253 71.7964 152.44 71.9698 152.44 72.3164C152.44 72.5031 152.373 72.7431 152.24 73.0364H152.44C153 73.0364 153.68 72.8898 154.48 72.5964C154.88 72.4364 155.187 72.2831 155.4 72.1364C155.613 71.9898 155.827 71.8298 156.04 71.6564C156.253 71.4831 156.427 71.3964 156.56 71.3964C157.2 71.3964 157.52 71.5831 157.52 71.9564C157.52 72.1698 157.133 72.7831 156.36 73.7964C155.453 74.9964 154.96 75.6631 154.88 75.7964C153.84 77.6098 153.32 78.7964 153.32 79.3564C153.32 79.8364 153.587 80.0764 154.12 80.0764C154.76 80.0764 155.773 79.6231 157.16 78.7164C157.96 78.1831 158.787 77.4098 159.64 76.3964C160.36 75.5164 161.093 74.6364 161.84 73.7564C161.973 73.5964 162.107 73.5164 162.24 73.5164C162.347 73.5164 162.4 73.5964 162.4 73.7564C162.4 73.8364 162.36 73.9564 162.28 74.1164C161.773 75.0231 160.867 76.1698 159.56 77.5564C158.173 78.9964 157.067 79.9031 156.24 80.2764C155.307 80.7031 154.453 80.9164 153.68 80.9164C152.533 80.9164 151.96 80.5298 151.96 79.7564C151.96 78.7431 152.987 76.6098 155.04 73.3564C152.853 73.9164 151.787 74.1964 151.84 74.1964C151.6 74.1964 151.393 74.0364 151.22 73.7164C151.047 73.3964 150.96 73.1164 150.96 72.8764ZM165.52 76.7164C165.76 76.0498 165.88 75.3831 165.88 74.7164C165.88 73.5164 165.653 72.9164 165.2 72.9164C164.933 72.9164 164.693 73.2231 164.48 73.8364C164.32 74.3431 164.24 74.7698 164.24 75.1164C164.24 75.9164 164.667 76.4498 165.52 76.7164ZM172.131 73.5173C172.177 73.5246 172.2 73.5776 172.2 73.6764C172.2 73.8364 172.107 74.0764 171.92 74.3964C171.413 75.3031 170.56 76.0898 169.36 76.7564C168.267 77.3431 167.253 77.6764 166.32 77.7564C166.187 78.0498 165.653 78.6898 164.72 79.6764C163.467 81.0098 162.413 81.6764 161.56 81.6764C161.027 81.6764 160.607 81.4764 160.3 81.0764C159.993 80.6764 159.84 80.2098 159.84 79.6764C159.84 77.5964 160.453 75.4498 161.68 73.2364C161.947 72.7564 162.24 72.5164 162.56 72.5164C162.72 72.5164 162.8 72.6364 162.8 72.8764C162.8 72.9564 162.527 73.8498 161.98 75.5564C161.433 77.2631 161.16 78.5431 161.16 79.3964C161.16 79.9831 161.4 80.2764 161.88 80.2764C162.387 80.2764 163.067 79.7964 163.92 78.8364C164.213 78.6231 164.613 78.2231 165.12 77.6364C163.84 77.2364 163.2 76.3698 163.2 75.0364C163.2 74.3964 163.393 73.7364 163.78 73.0564C164.167 72.3764 164.653 72.0364 165.24 72.0364C165.827 72.0364 166.293 72.2898 166.64 72.7964C166.987 73.3031 167.16 73.8631 167.16 74.4764C167.16 75.1964 167.013 75.9698 166.72 76.7964C167.6 76.8498 168.747 76.3164 170.16 75.1964C171.52 74.1189 172.176 73.5597 172.129 73.5188L172.131 73.5173ZM174.8 78.8364C176.427 78.2764 177.76 77.1698 178.8 75.5164C178.96 75.2231 179.233 74.8031 179.62 74.2564C180.007 73.7098 180.293 73.4364 180.48 73.4364C180.56 73.4364 180.6 73.4898 180.6 73.5964C180.6 73.7298 180.52 73.9564 180.36 74.2764C178.813 77.2365 176.787 79.0764 174.28 79.7964C173.427 81.0498 172.147 81.6764 170.44 81.6764C169.293 81.6764 168.72 81.4098 168.72 80.8764C168.72 80.7698 168.76 80.6631 168.84 80.5564C168.947 80.3431 169.68 80.0764 171.04 79.7564C171.893 79.5698 172.733 79.3831 173.56 79.1964C173.853 78.7164 174 78.2898 174 77.9164C174 76.5298 173 75.2231 171 73.9964C170.787 73.6498 170.68 73.3564 170.68 73.1164C170.68 72.5298 171.04 72.2364 171.76 72.2364C172.16 72.2364 172.36 72.4231 172.36 72.7964C172.36 72.9831 172.307 73.2098 172.2 73.4764C172.787 74.1164 173.387 74.7564 174 75.3964C174.667 76.1698 175 76.9564 175 77.7564C175 78.1031 174.933 78.4631 174.8 78.8364ZM169.84 80.7564C170.16 80.8898 170.493 80.9564 170.84 80.9564C171.587 80.9564 172.24 80.7031 172.8 80.1964C172.107 80.2764 171.12 80.4631 169.84 80.7564Z" fill="black"/>
<path d="M50.48 76.9164C52.7467 76.3831 54.6667 75.0898 56.24 73.0364C56.4533 72.7698 56.6 72.6364 56.68 72.6364C56.76 72.6364 56.8 72.7031 56.8 72.8364C56.8 73.0231 56.7067 73.2764 56.52 73.5964C55.56 75.4631 53.3067 76.9564 49.76 78.0764C48.24 80.3431 46.64 81.4764 44.96 81.4764C43.9733 81.4764 43.48 81.0631 43.48 80.2364C43.48 79.4631 44.2267 78.8098 45.72 78.2764C46.7867 77.9564 47.8667 77.6498 48.96 77.3564C50.32 74.9564 51 73.2898 51 72.3564C51 71.9031 50.8133 71.6764 50.44 71.6764C50.2533 71.6764 50.0267 71.7298 49.76 71.8364C48.64 72.2631 47.48 73.1164 46.28 74.3964C45.1867 75.5964 44.3867 76.7964 43.88 77.9964C42.9733 80.0498 41.76 82.7031 40.24 85.9564C39.8133 86.8898 39.12 88.2364 38.16 89.9964C37.6533 90.7164 37.2933 91.0764 37.08 91.0764C36.9733 91.0764 36.8933 91.0498 36.84 90.9964C36.7867 90.9431 36.76 90.8898 36.76 90.8364C36.76 90.1164 37.6933 87.7698 39.56 83.7964C41.4267 79.8231 42.7333 77.3564 43.48 76.3964C43.6933 76.1031 44.0333 75.2631 44.5 73.8764C44.9667 72.4898 45.2533 71.7031 45.36 71.5164C45.4667 71.3298 45.6 71.2364 45.76 71.2364C46.1067 71.2364 46.28 71.4231 46.28 71.7964C46.28 71.9298 46.04 72.6231 45.56 73.8764C47.88 71.5831 49.6133 70.4364 50.76 70.4364C51.7733 70.4364 52.28 71.0498 52.28 72.2764C52.28 73.2898 51.68 74.8364 50.48 76.9164ZM45.08 80.5564C46.1467 80.5564 47.1867 79.8898 48.2 78.5564C45.7467 79.3298 44.52 79.8764 44.52 80.1964C44.52 80.4364 44.7067 80.5564 45.08 80.5564ZM69.88 72.9164C69.88 73.0764 69.7733 73.3831 69.56 73.8364C69.4 74.1564 68.9867 74.7431 68.32 75.5964C65.6267 79.1165 63.4 80.8764 61.64 80.8764C60.4133 80.8764 59.8 80.0364 59.8 78.3564C59.8 77.6364 59.9467 76.8098 60.24 75.8764C57.2533 79.1031 55.2133 80.7164 54.12 80.7164C53.8533 80.7164 53.5867 80.5431 53.32 80.1964C53.0533 79.8498 52.92 79.5431 52.92 79.2764C52.92 78.7431 53.28 77.7698 54 76.3564C54.6133 75.2098 55.16 74.3031 55.64 73.6364C57.2134 71.4764 58.72 70.3964 60.16 70.3964C61.12 70.3964 61.6 70.7698 61.6 71.5164C61.6 71.6498 61.5467 71.8898 61.44 72.2364C61.5733 72.1564 61.7467 72.1164 61.96 72.1164C62.4933 72.1164 62.76 72.2764 62.76 72.5964C62.76 72.6231 62.6267 72.9964 62.36 73.7164C61.4533 76.2498 61 77.9031 61 78.6764C61 79.2898 61.2933 79.5964 61.88 79.5964C62.6267 79.5964 63.64 79.0098 64.92 77.8364C65.64 77.1698 66.6667 76.0764 68 74.5564C69.04 73.3831 69.6267 72.7964 69.76 72.7964C69.84 72.7964 69.88 72.8364 69.88 72.9164ZM60.4 73.5964C60.2133 73.3831 60.12 73.1698 60.12 72.9564C60.12 72.8231 60.14 72.6431 60.18 72.4164C60.22 72.1898 60.24 72.0098 60.24 71.8764C60.24 71.6364 60.1333 71.5164 59.92 71.5164C59.44 71.5164 58.7467 71.9698 57.84 72.8764C57.1467 73.5698 56.5867 74.2231 56.16 74.8364C55.8133 75.3431 55.4133 76.0364 54.96 76.9164C54.4267 77.9564 54.16 78.6764 54.16 79.0764C54.1867 79.1298 54.2 79.1698 54.2 79.1964H54.32C55.28 79.1964 56.8267 78.0364 58.96 75.7164C59.2 75.4498 59.68 74.7431 60.4 73.5964ZM68.44 72.8764C68.44 72.1564 68.7467 71.7964 69.36 71.7964C69.7333 71.7964 69.92 71.9698 69.92 72.3164C69.92 72.5031 69.8533 72.7431 69.72 73.0364H69.92C70.48 73.0364 71.16 72.8898 71.96 72.5964C72.36 72.4364 72.6667 72.2831 72.88 72.1364C73.0933 71.9898 73.3067 71.8298 73.52 71.6564C73.7333 71.4831 73.9067 71.3964 74.04 71.3964C74.68 71.3964 75 71.5831 75 71.9564C75 72.1698 74.6133 72.7831 73.84 73.7964C72.9333 74.9964 72.44 75.6631 72.36 75.7964C71.32 77.6098 70.8 78.7964 70.8 79.3564C70.8 79.8364 71.0667 80.0764 71.6 80.0764C72.24 80.0764 73.2533 79.6231 74.64 78.7164C75.44 78.1831 76.2667 77.4098 77.12 76.3964C77.84 75.5164 78.5733 74.6364 79.32 73.7564C79.4533 73.5964 79.5867 73.5164 79.72 73.5164C79.8267 73.5164 79.88 73.5964 79.88 73.7564C79.88 73.8364 79.84 73.9564 79.76 74.1164C79.2533 75.0231 78.3467 76.1698 77.04 77.5564C75.6533 78.9964 74.5467 79.9031 73.72 80.2764C72.7867 80.7031 71.9334 80.9164 71.16 80.9164C70.0133 80.9164 69.44 80.5298 69.44 79.7564C69.44 78.7431 70.4667 76.6098 72.52 73.3564C70.3333 73.9164 69.2667 74.1964 69.32 74.1964C69.08 74.1964 68.8733 74.0364 68.7 73.7164C68.5267 73.3964 68.44 73.1164 68.44 72.8764ZM93.2 72.9164C93.2 73.0764 93.0933 73.3831 92.88 73.8364C92.72 74.1564 92.3067 74.7431 91.64 75.5964C88.9467 79.1165 86.72 80.8764 84.96 80.8764C83.7333 80.8764 83.12 80.0364 83.12 78.3564C83.12 77.6364 83.2667 76.8098 83.56 75.8764C80.5733 79.1031 78.5334 80.7164 77.44 80.7164C77.1733 80.7164 76.9067 80.5431 76.64 80.1964C76.3733 79.8498 76.24 79.5431 76.24 79.2764C76.24 78.7431 76.6 77.7698 77.32 76.3564C77.9333 75.2098 78.48 74.3031 78.96 73.6364C80.5334 71.4764 82.04 70.3964 83.48 70.3964C84.44 70.3964 84.92 70.7698 84.92 71.5164C84.92 71.6498 84.8667 71.8898 84.76 72.2364C84.8933 72.1564 85.0667 72.1164 85.28 72.1164C85.8133 72.1164 86.08 72.2764 86.08 72.5964C86.08 72.6231 85.9467 72.9964 85.68 73.7164C84.7733 76.2498 84.32 77.9031 84.32 78.6764C84.32 79.2898 84.6133 79.5964 85.2 79.5964C85.9467 79.5964 86.96 79.0098 88.24 77.8364C88.96 77.1698 89.9867 76.0764 91.32 74.5564C92.36 73.3831 92.9467 72.7964 93.08 72.7964C93.16 72.7964 93.2 72.8364 93.2 72.9164ZM83.72 73.5964C83.5333 73.3831 83.44 73.1698 83.44 72.9564C83.44 72.8231 83.46 72.6431 83.5 72.4164C83.54 72.1898 83.56 72.0098 83.56 71.8764C83.56 71.6364 83.4533 71.5164 83.24 71.5164C82.76 71.5164 82.0667 71.9698 81.16 72.8764C80.4667 73.5698 79.9067 74.2231 79.48 74.8364C79.1333 75.3431 78.7333 76.0364 78.28 76.9164C77.7467 77.9564 77.48 78.6764 77.48 79.0764C77.5067 79.1298 77.52 79.1698 77.52 79.1964H77.64C78.6 79.1964 80.1467 78.0364 82.28 75.7164C82.52 75.4498 83 74.7431 83.72 73.5964ZM116.12 73.4364C116.12 73.7031 115.96 74.1031 115.64 74.6364C114.867 75.8898 113.813 77.1831 112.48 78.5164C110.8 80.1698 109.453 80.9964 108.44 80.9964C107.32 80.9964 106.76 80.2098 106.76 78.6364C106.76 77.5431 107.32 75.5564 108.44 72.6764C107.08 74.3298 105.893 75.7298 104.88 76.8764C102.853 79.2231 101.613 80.4898 101.16 80.6764C101.027 80.7031 100.88 80.7164 100.72 80.7164C100.133 80.7164 99.84 80.4898 99.84 80.0364C99.84 79.8764 100.4 78.6498 101.52 76.3564C102.72 73.8498 103.38 72.4364 103.5 72.1164C103.62 71.7964 103.787 71.6364 104 71.6364C104.427 71.6364 104.64 71.9298 104.64 72.5164C104.64 73.4498 103.613 75.5564 101.56 78.8364C102.627 77.6898 103.96 76.2364 105.56 74.4764C106.093 73.8631 106.613 73.2498 107.12 72.6364C108 71.6231 108.52 71.1164 108.68 71.1164C108.973 71.1164 109.293 71.2098 109.64 71.3964C109.987 71.5831 110.16 71.7964 110.16 72.0364C110.16 72.1164 110.147 72.1964 110.12 72.2764C109.693 73.3431 109.253 74.3964 108.8 75.4364C108.293 76.7964 108.04 77.8898 108.04 78.7164C108.04 79.4364 108.293 79.7964 108.8 79.7964C109.627 79.7964 110.627 79.2364 111.8 78.1164C112.52 77.4231 113.427 76.3698 114.52 74.9564C115.373 73.8098 115.867 73.2364 116 73.2364C116.08 73.2364 116.12 73.3031 116.12 73.4364ZM119.2 76.7164C119.44 76.0498 119.56 75.3831 119.56 74.7164C119.56 73.5164 119.333 72.9164 118.88 72.9164C118.613 72.9164 118.373 73.2231 118.16 73.8364C118 74.3431 117.92 74.7698 117.92 75.1164C117.92 75.9164 118.347 76.4498 119.2 76.7164ZM125.811 73.5173C125.857 73.5246 125.88 73.5776 125.88 73.6764C125.88 73.8364 125.787 74.0764 125.6 74.3964C125.093 75.3031 124.24 76.0898 123.04 76.7564C121.947 77.3431 120.933 77.6764 120 77.7564C119.867 78.0498 119.333 78.6898 118.4 79.6764C117.147 81.0098 116.093 81.6764 115.24 81.6764C114.707 81.6764 114.287 81.4764 113.98 81.0764C113.673 80.6764 113.52 80.2098 113.52 79.6764C113.52 77.5964 114.133 75.4498 115.36 73.2364C115.627 72.7564 115.92 72.5164 116.24 72.5164C116.4 72.5164 116.48 72.6364 116.48 72.8764C116.48 72.9564 116.207 73.8498 115.66 75.5564C115.113 77.2631 114.84 78.5431 114.84 79.3964C114.84 79.9831 115.08 80.2764 115.56 80.2764C116.067 80.2764 116.747 79.7964 117.6 78.8364C117.893 78.6231 118.293 78.2231 118.8 77.6364C117.52 77.2364 116.88 76.3698 116.88 75.0364C116.88 74.3964 117.073 73.7364 117.46 73.0564C117.847 72.3764 118.333 72.0364 118.92 72.0364C119.507 72.0364 119.973 72.2898 120.32 72.7964C120.667 73.3031 120.84 73.8631 120.84 74.4764C120.84 75.1964 120.693 75.9698 120.4 76.7964C121.28 76.8498 122.427 76.3164 123.84 75.1964C125.2 74.1189 125.856 73.5597 125.809 73.5188L125.811 73.5173ZM128.48 78.8364C130.107 78.2764 131.44 77.1698 132.48 75.5164C132.64 75.2231 132.913 74.8031 133.3 74.2564C133.687 73.7098 133.973 73.4364 134.16 73.4364C134.24 73.4364 134.28 73.4898 134.28 73.5964C134.28 73.7298 134.2 73.9564 134.04 74.2764C132.493 77.2365 130.467 79.0764 127.96 79.7964C127.107 81.0498 125.827 81.6764 124.12 81.6764C122.973 81.6764 122.4 81.4098 122.4 80.8764C122.4 80.7698 122.44 80.6631 122.52 80.5564C122.627 80.3431 123.36 80.0764 124.72 79.7564C125.573 79.5698 126.413 79.3831 127.24 79.1964C127.533 78.7164 127.68 78.2898 127.68 77.9164C127.68 76.5298 126.68 75.2231 124.68 73.9964C124.467 73.6498 124.36 73.3564 124.36 73.1164C124.36 72.5298 124.72 72.2364 125.44 72.2364C125.84 72.2364 126.04 72.4231 126.04 72.7964C126.04 72.9831 125.987 73.2098 125.88 73.4764C126.467 74.1164 127.067 74.7564 127.68 75.3964C128.347 76.1698 128.68 76.9564 128.68 77.7564C128.68 78.1031 128.613 78.4631 128.48 78.8364ZM123.52 80.7564C123.84 80.8898 124.173 80.9564 124.52 80.9564C125.267 80.9564 125.92 80.7031 126.48 80.1964C125.787 80.2764 124.8 80.4631 123.52 80.7564ZM137.32 76.7164C137.56 76.0498 137.68 75.3831 137.68 74.7164C137.68 73.5164 137.453 72.9164 137 72.9164C136.733 72.9164 136.493 73.2231 136.28 73.8364C136.12 74.3431 136.04 74.7698 136.04 75.1164C136.04 75.9164 136.467 76.4498 137.32 76.7164ZM143.931 73.5173C143.977 73.5246 144 73.5776 144 73.6764C144 73.8364 143.907 74.0764 143.72 74.3964C143.213 75.3031 142.36 76.0898 141.16 76.7564C140.067 77.3431 139.053 77.6764 138.12 77.7564C137.987 78.0498 137.453 78.6898 136.52 79.6764C135.267 81.0098 134.213 81.6764 133.36 81.6764C132.827 81.6764 132.407 81.4764 132.1 81.0764C131.793 80.6764 131.64 80.2098 131.64 79.6764C131.64 77.5964 132.253 75.4498 133.48 73.2364C133.747 72.7564 134.04 72.5164 134.36 72.5164C134.52 72.5164 134.6 72.6364 134.6 72.8764C134.6 72.9564 134.327 73.8498 133.78 75.5564C133.233 77.2631 132.96 78.5431 132.96 79.3964C132.96 79.9831 133.2 80.2764 133.68 80.2764C134.187 80.2764 134.867 79.7964 135.72 78.8364C136.013 78.6231 136.413 78.2231 136.92 77.6364C135.64 77.2364 135 76.3698 135 75.0364C135 74.3964 135.193 73.7364 135.58 73.0564C135.967 72.3764 136.453 72.0364 137.04 72.0364C137.627 72.0364 138.093 72.2898 138.44 72.7964C138.787 73.3031 138.96 73.8631 138.96 74.4764C138.96 75.1964 138.813 75.9698 138.52 76.7964C139.4 76.8498 140.547 76.3164 141.96 75.1964C143.32 74.1189 143.976 73.5597 143.929 73.5188L143.931 73.5173ZM140.44 65.9164C140.733 65.9164 141.173 65.9498 141.76 66.0164C142.347 66.0831 142.787 66.1164 143.08 66.1164C144.413 66.1164 145.787 66.0098 147.2 65.7964L149.04 62.0364C149.2 61.7431 149.413 61.5964 149.68 61.5964C150.133 61.5964 150.36 61.8631 150.36 62.3964C150.36 62.6364 150.267 63.0231 150.08 63.5564C149.867 64.1698 149.627 64.7831 149.36 65.3964C149.973 65.2364 150.947 65.0098 152.28 64.7164C155.133 64.1031 157.027 63.7964 157.96 63.7964C158.307 63.7964 158.48 63.9164 158.48 64.1564C158.48 64.4498 158.227 64.5964 157.72 64.5964C157.213 64.5964 155.547 64.9298 152.72 65.5964C151.867 65.7831 150.573 66.0764 148.84 66.4764C148.147 67.8898 147.227 69.5431 146.08 71.4364C145.413 72.4764 144.8 73.6898 144.24 75.0764C143.6 76.7298 143.28 78.0364 143.28 78.9964C143.28 79.6098 143.533 79.9164 144.04 79.9164C144.947 79.9164 146.293 79.0764 148.08 77.3964C149.28 76.2764 150.427 75.0364 151.52 73.6764C151.707 73.4364 151.867 73.3164 152 73.3164C152.107 73.3164 152.16 73.3964 152.16 73.5564C152.16 73.7164 152.093 73.9164 151.96 74.1564C151.107 75.5964 149.933 77.0231 148.44 78.4364C146.627 80.1431 145.093 80.9964 143.84 80.9964C142.693 80.9964 142.12 80.3164 142.12 78.9564C142.12 76.9031 142.907 74.3298 144.48 71.2364L146.64 66.8764C145.04 67.1431 143.587 67.2764 142.28 67.2764C140.76 67.2764 140 66.9298 140 66.2364C140 66.0231 140.147 65.9164 140.44 65.9164ZM150.96 72.8764C150.96 72.1564 151.267 71.7964 151.88 71.7964C152.253 71.7964 152.44 71.9698 152.44 72.3164C152.44 72.5031 152.373 72.7431 152.24 73.0364H152.44C153 73.0364 153.68 72.8898 154.48 72.5964C154.88 72.4364 155.187 72.2831 155.4 72.1364C155.613 71.9898 155.827 71.8298 156.04 71.6564C156.253 71.4831 156.427 71.3964 156.56 71.3964C157.2 71.3964 157.52 71.5831 157.52 71.9564C157.52 72.1698 157.133 72.7831 156.36 73.7964C155.453 74.9964 154.96 75.6631 154.88 75.7964C153.84 77.6098 153.32 78.7964 153.32 79.3564C153.32 79.8364 153.587 80.0764 154.12 80.0764C154.76 80.0764 155.773 79.6231 157.16 78.7164C157.96 78.1831 158.787 77.4098 159.64 76.3964C160.36 75.5164 161.093 74.6364 161.84 73.7564C161.973 73.5964 162.107 73.5164 162.24 73.5164C162.347 73.5164 162.4 73.5964 162.4 73.7564C162.4 73.8364 162.36 73.9564 162.28 74.1164C161.773 75.0231 160.867 76.1698 159.56 77.5564C158.173 78.9964 157.067 79.9031 156.24 80.2764C155.307 80.7031 154.453 80.9164 153.68 80.9164C152.533 80.9164 151.96 80.5298 151.96 79.7564C151.96 78.7431 152.987 76.6098 155.04 73.3564C152.853 73.9164 151.787 74.1964 151.84 74.1964C151.6 74.1964 151.393 74.0364 151.22 73.7164C151.047 73.3964 150.96 73.1164 150.96 72.8764ZM165.52 76.7164C165.76 76.0498 165.88 75.3831 165.88 74.7164C165.88 73.5164 165.653 72.9164 165.2 72.9164C164.933 72.9164 164.693 73.2231 164.48 73.8364C164.32 74.3431 164.24 74.7698 164.24 75.1164C164.24 75.9164 164.667 76.4498 165.52 76.7164ZM172.131 73.5173C172.177 73.5246 172.2 73.5776 172.2 73.6764C172.2 73.8364 172.107 74.0764 171.92 74.3964C171.413 75.3031 170.56 76.0898 169.36 76.7564C168.267 77.3431 167.253 77.6764 166.32 77.7564C166.187 78.0498 165.653 78.6898 164.72 79.6764C163.467 81.0098 162.413 81.6764 161.56 81.6764C161.027 81.6764 160.607 81.4764 160.3 81.0764C159.993 80.6764 159.84 80.2098 159.84 79.6764C159.84 77.5964 160.453 75.4498 161.68 73.2364C161.947 72.7564 162.24 72.5164 162.56 72.5164C162.72 72.5164 162.8 72.6364 162.8 72.8764C162.8 72.9564 162.527 73.8498 161.98 75.5564C161.433 77.2631 161.16 78.5431 161.16 79.3964C161.16 79.9831 161.4 80.2764 161.88 80.2764C162.387 80.2764 163.067 79.7964 163.92 78.8364C164.213 78.6231 164.613 78.2231 165.12 77.6364C163.84 77.2364 163.2 76.3698 163.2 75.0364C163.2 74.3964 163.393 73.7364 163.78 73.0564C164.167 72.3764 164.653 72.0364 165.24 72.0364C165.827 72.0364 166.293 72.2898 166.64 72.7964C166.987 73.3031 167.16 73.8631 167.16 74.4764C167.16 75.1964 167.013 75.9698 166.72 76.7964C167.6 76.8498 168.747 76.3164 170.16 75.1964C171.52 74.1189 172.176 73.5597 172.129 73.5188L172.131 73.5173ZM174.8 78.8364C176.427 78.2764 177.76 77.1698 178.8 75.5164C178.96 75.2231 179.233 74.8031 179.62 74.2564C180.007 73.7098 180.293 73.4364 180.48 73.4364C180.56 73.4364 180.6 73.4898 180.6 73.5964C180.6 73.7298 180.52 73.9564 180.36 74.2764C178.813 77.2365 176.787 79.0764 174.28 79.7964C173.427 81.0498 172.147 81.6764 170.44 81.6764C169.293 81.6764 168.72 81.4098 168.72 80.8764C168.72 80.7698 168.76 80.6631 168.84 80.5564C168.947 80.3431 169.68 80.0764 171.04 79.7564C171.893 79.5698 172.733 79.3831 173.56 79.1964C173.853 78.7164 174 78.2898 174 77.9164C174 76.5298 173 75.2231 171 73.9964C170.787 73.6498 170.68 73.3564 170.68 73.1164C170.68 72.5298 171.04 72.2364 171.76 72.2364C172.16 72.2364 172.36 72.4231 172.36 72.7964C172.36 72.9831 172.307 73.2098 172.2 73.4764C172.787 74.1164 173.387 74.7564 174 75.3964C174.667 76.1698 175 76.9564 175 77.7564C175 78.1031 174.933 78.4631 174.8 78.8364ZM169.84 80.7564C170.16 80.8898 170.493 80.9564 170.84 80.9564C171.587 80.9564 172.24 80.7031 172.8 80.1964C172.107 80.2764 171.12 80.4631 169.84 80.7564Z" fill="#8C8888"/>
</svg>
