<svg width="201" height="89" viewBox="0 0 201 89" fill="none" xmlns="http://www.w3.org/2000/svg">
<path d="M110.425 67.8492V0.217468H119.776V30.3317H129.231V0H138.516V67.6222H129.231V39.5692H119.776V67.7735L110.425 67.8492Z" fill="white"/>
<path d="M165.623 67.8492H143.206V0.217529H164.706V9.60635H152.528V30.3317H160.877V39.5693H152.528V58.2335H165.623V67.8492Z" fill="white"/>
<path d="M199.633 67.7739H188.287L178.908 49.5541V67.6982H169.698V0.331299H174.974C180.578 1.0665 185.669 3.96877 189.157 8.41534C192.573 12.7457 194.594 16.7988 195.218 20.5745C195.509 22.553 195.658 24.5501 195.662 26.55C195.661 28.4497 195.512 30.3464 195.218 32.2231C194.587 36.0681 191.855 40.4205 187.02 45.2804L199.633 67.7739ZM186.169 26.8053C186.274 23.9327 185.778 21.0697 184.713 18.3998C183.443 15.8199 181.44 13.6722 178.955 12.2257V37.9622C180.152 37.7778 181.285 37.3031 182.256 36.5795C183.226 35.8559 184.005 34.9056 184.524 33.8115C185.653 31.6515 186.218 29.2419 186.169 26.8053V26.8053Z" fill="white"/>
<path d="M0.198608 67.8492V0.217529H5.92834L17.2082 27.3156L28.2327 0.368806H33.9057V67.6223H24.6304V29.0931L16.8111 45.2517L9.54961 29.1782V67.7736L0.198608 67.8492Z" fill="white"/>
<path d="M44.4858 59.538C41.6784 54.5163 39.8496 49.0074 39.0964 43.3038C38.1232 37.1221 38.1009 30.828 39.0302 24.6396C39.652 19.1534 41.3142 13.8361 43.9279 8.97261C47.2372 3.18614 51.8764 0.305517 57.8457 0.33073C63.3611 0.33073 67.7987 3.16723 71.1583 8.84024C73.9422 13.7077 75.7112 19.0887 76.3586 24.6585C76.7268 27.5751 76.9131 30.5118 76.9164 33.4516C76.9145 36.7452 76.6775 40.0345 76.2073 43.2943C75.4517 49.0116 73.6096 54.5317 70.7801 59.5569C66.8469 64.9967 62.4849 67.7166 57.6944 67.7166C52.7967 67.704 48.3938 64.9778 44.4858 59.538ZM63.8213 52.9195C65.4835 49.3323 66.5593 45.5016 67.0076 41.5735C67.3567 38.8455 67.5304 36.0979 67.5276 33.3476C67.5276 31.0973 67.4236 28.847 67.1967 26.5778C66.6199 21.1128 65.769 17.2363 64.6438 14.9104C62.9798 11.5002 60.6507 9.79204 57.6566 9.78574C55.0596 9.78574 52.8282 11.579 50.9624 15.1656C49.7144 17.5389 48.8351 21.3209 48.3339 26.5117C48.0893 28.8106 47.9662 31.1208 47.9652 33.4327C47.9667 36.2491 48.1435 39.0627 48.4947 41.8571C49.125 46.9376 50.2092 50.6881 51.7472 53.1086C53.1844 56.4746 55.1794 58.1387 57.7322 58.1198C60.096 58.1198 62.113 56.3989 63.7834 52.9573L63.8213 52.9195Z" fill="white"/>
<path d="M86.8536 67.8493V9.68204H77.3986V0.293213H105.612V9.68204H96.2991V67.8493H86.8536Z" fill="white"/>
<path d="M0 73.0018H5.12462V88.3094H5.88102V73.0018H10.9962V72.2454H0V73.0018Z" fill="white"/>
<path d="M17.4539 81.0101C18.0216 81.0077 18.5831 80.8923 19.1057 80.6705C19.6283 80.4487 20.1014 80.1251 20.4975 79.7184C20.8936 79.3117 21.2047 78.8303 21.4127 78.302C21.6206 77.7738 21.7213 77.2094 21.7087 76.6419C21.7213 75.4991 21.2807 74.3979 20.4833 73.5792C19.6859 72.7606 18.5967 72.2911 17.4539 72.2737H12.6224V88.3472H13.3694V81.0101H16.4234L20.8767 88.2432L20.9334 88.3377H21.8127L17.3027 81.0101H17.4539ZM13.3977 73.0301H17.4539C18.3811 73.0775 19.2547 73.4792 19.8942 74.1523C20.5337 74.8253 20.8902 75.7182 20.8902 76.6466C20.8902 77.575 20.5337 78.468 19.8942 79.141C19.2547 79.814 18.3811 80.2158 17.4539 80.2632H13.3694L13.3977 73.0301Z" fill="white"/>
<path d="M23.4675 88.0449L23.354 88.3097H24.1577L25.7272 84.4426H34.2367L35.7968 88.3097H36.6099L29.9914 71.7256L23.4675 88.0449ZM26.0392 83.6862L29.9631 73.749L33.8869 83.6862H26.0392Z" fill="white"/>
<path d="M44.0793 86.7494L38.5859 72.3777L38.5387 72.2454H37.735L44.0698 88.8673L50.4992 72.2454H49.705L44.0793 86.7494Z" fill="white"/>
<path d="M53.1655 80.1497H59.368V79.4028H53.1655V73.0018H60.8997V72.2454H52.4186V88.3094H61.0321V87.553H53.1655V80.1497Z" fill="white"/>
<path d="M62.9893 72.2454H62.2423V88.3094H69.7401V87.553H62.9893V72.2454Z" fill="white"/>
<path d="M89.1038 72.5857L89.4442 72.2454H88.3569L81.1238 79.4123V72.2454H80.3768V88.3094H81.1238V80.7171L88.4136 88.2432L88.4703 88.3094H89.5009L81.5398 80.0552L89.1038 72.5857Z" fill="white"/>
<path d="M101.764 86.5893L91.4486 71.6125V88.3101H92.205V74.0425L102.52 89.0003V72.246H101.764V86.5893Z" fill="white"/>
<path d="M112.704 72.1511C108.156 72.1511 104.856 75.5833 104.856 80.3013C104.856 85.0194 108.156 88.4232 112.704 88.4232C117.251 88.4232 120.542 85.0005 120.542 80.3013C120.542 75.6022 117.242 72.1511 112.704 72.1511ZM112.704 87.6668C108.591 87.6668 105.612 84.5655 105.612 80.3013C105.612 76.0371 108.591 72.9075 112.704 72.9075C116.817 72.9075 119.767 76.0182 119.767 80.3013C119.767 84.5845 116.798 87.629 112.704 87.629V87.6668Z" fill="white"/>
<path d="M136.294 86.5792L131.907 75.3088L131.727 74.8455L127.151 86.5697L123.378 72.3966L123.341 72.2454H122.556L127 88.9807L131.727 76.9067L136.228 88.4323L136.445 88.9807L140.908 72.2454H140.133L136.294 86.5792Z" fill="white"/>
<path d="M143.924 72.2454H143.177V88.3094H150.675V87.553H143.924V72.2454Z" fill="white"/>
<path d="M152.575 80.1497H158.778V79.4028H152.575V73.0018H160.31V72.2454H151.828V88.3094H160.451V87.553H152.575V80.1497Z" fill="white"/>
<path d="M165.122 72.2454H161.652V88.3189H165.122C169.556 88.3189 172.771 84.9434 172.771 80.2821C172.771 75.6208 169.556 72.2454 165.122 72.2454ZM162.399 73.0018H165.122C169.121 73.0018 172.024 76.0557 172.024 80.2727C172.024 84.4896 169.121 87.553 165.122 87.553H162.399V73.0018Z" fill="white"/>
<path d="M182.709 80.6794H188.467V84.7923C187.819 85.7394 186.934 86.4999 185.901 86.9977C184.867 87.4955 183.72 87.7131 182.576 87.6288C178.482 87.6288 175.504 84.5276 175.504 80.2634C175.504 75.9991 178.482 72.8695 182.576 72.8695C183.528 72.838 184.476 73.0012 185.362 73.3491C186.248 73.6971 187.053 74.2224 187.729 74.8929L187.871 75.0442L188.382 74.4674L188.249 74.3351C187.497 73.6087 186.609 73.0384 185.635 72.657C184.661 72.2757 183.622 72.0908 182.576 72.1131C178.047 72.1131 174.757 75.5453 174.757 80.2634C174.757 84.9814 178.047 88.3852 182.576 88.3852C183.876 88.4705 185.175 88.207 186.338 87.6218C187.502 87.0367 188.488 86.1512 189.195 85.057V79.8946H182.68L182.709 80.6794Z" fill="white"/>
<path d="M192.277 87.553V80.1497H198.48V79.4028H192.277V73.0018H200.011V72.2454H191.521V88.3094H200.144V87.553H192.277Z" fill="white"/>
</svg>
