<svg width="23" height="25" viewBox="0 0 23 25" fill="none" xmlns="http://www.w3.org/2000/svg">
<path d="M7.2999 23.5596V24.8791H2.45312V18.8422H7.18778V20.1617H4.14346V21.1793H6.82557V22.4557H4.14346V23.5596H7.2999Z" fill="#050505"/>
<path d="M11.2314 24.9998C10.7427 24.9998 10.2684 24.9394 9.80844 24.8187C9.34849 24.698 8.97478 24.537 8.6873 24.3358L9.24787 23.0766C9.5181 23.2549 9.83144 23.3986 10.1879 23.5078C10.5444 23.6171 10.8951 23.6717 11.2401 23.6717C11.8955 23.6717 12.2232 23.5078 12.2232 23.1801C12.2232 23.0076 12.1283 22.8812 11.9386 22.8007C11.7546 22.7144 11.4557 22.6253 11.0417 22.5333C10.5875 22.4356 10.208 22.3321 9.90331 22.2228C9.59859 22.1079 9.33699 21.9267 9.11851 21.6795C8.90003 21.4323 8.79079 21.0988 8.79079 20.6791C8.79079 20.3112 8.89141 19.9806 9.09264 19.6873C9.29387 19.3884 9.59284 19.1526 9.98955 18.9802C10.392 18.8077 10.8836 18.7214 11.4643 18.7214C11.861 18.7214 12.252 18.7674 12.6372 18.8594C13.0224 18.9457 13.3616 19.075 13.6548 19.2475L13.1287 20.5153C12.5538 20.2048 11.9961 20.0496 11.4557 20.0496C11.1164 20.0496 10.8692 20.1013 10.714 20.2048C10.5587 20.3025 10.4811 20.4319 10.4811 20.5929C10.4811 20.7539 10.5731 20.8746 10.7571 20.9551C10.9411 21.0356 11.2372 21.1189 11.6454 21.2052C12.1053 21.3029 12.4848 21.4093 12.7838 21.5243C13.0885 21.6335 13.3501 21.8118 13.5686 22.059C13.7928 22.3005 13.9049 22.631 13.9049 23.0508C13.9049 23.413 13.8043 23.7407 13.6031 24.0339C13.4018 24.3271 13.1 24.5629 12.6975 24.7411C12.2951 24.9136 11.8064 24.9998 11.2314 24.9998Z" fill="#050505"/>
<path d="M18.3158 18.8422C18.862 18.8422 19.3364 18.9342 19.7388 19.1181C20.1413 19.2964 20.4517 19.5551 20.6702 19.8943C20.8887 20.2278 20.9979 20.6216 20.9979 21.0758C20.9979 21.53 20.8887 21.9239 20.6702 22.2573C20.4517 22.5908 20.1413 22.8495 19.7388 23.0335C19.3364 23.2117 18.862 23.3009 18.3158 23.3009H17.2637V24.8791H15.5561V18.8422H18.3158ZM18.2123 21.9555C18.5631 21.9555 18.8275 21.8808 19.0058 21.7313C19.184 21.576 19.2731 21.3576 19.2731 21.0758C19.2731 20.7941 19.184 20.5756 19.0058 20.4204C18.8275 20.2652 18.5631 20.1875 18.2123 20.1875H17.2637V21.9555H18.2123Z" fill="#050505"/>
<path fill-rule="evenodd" clip-rule="evenodd" d="M7.18235 14.1242L7.18235 0.967773L8.40723 0.967773L8.40723 14.1242L7.18235 14.1242Z" fill="#050505"/>
<path fill-rule="evenodd" clip-rule="evenodd" d="M15.0205 14.1242L15.0205 0.967773L16.2454 0.967773L16.2454 14.1242L15.0205 14.1242Z" fill="#050505"/>
<path fill-rule="evenodd" clip-rule="evenodd" d="M19.1089 1.43736H4.34169C3.15094 1.43736 2.18565 2.40265 2.18565 3.59339V11.4989C2.18565 12.6896 3.15094 13.6549 4.34169 13.6549H19.1089C20.2996 13.6549 21.2649 12.6896 21.2649 11.4989V3.59339C21.2649 2.40265 20.2996 1.43736 19.1089 1.43736ZM4.34169 0C2.35711 0 0.748291 1.60882 0.748291 3.59339V11.4989C0.748291 13.4834 2.35711 15.0923 4.34169 15.0923H19.1089C21.0934 15.0923 22.7023 13.4834 22.7023 11.4989V3.59339C22.7023 1.60882 21.0934 0 19.1089 0H4.34169Z" fill="#050505"/>
<circle cx="11.7254" cy="7.54621" r="1.7967" fill="#050505"/>
</svg>
