<svg width="23" height="25" viewBox="0 0 23 25" fill="none" xmlns="http://www.w3.org/2000/svg">
<path d="M5.96054 23.5598V24.8793H1.11377V18.8424H5.84843V20.1619H2.8041V21.1796H5.48621V22.4559H2.8041V23.5598H5.96054Z" fill="#050505"/>
<path d="M13.5142 18.8424V24.8793H12.1085L9.44362 21.6625V24.8793H7.77053V18.8424H9.17627L11.8411 22.0592V18.8424H13.5142Z" fill="#050505"/>
<path d="M19.6258 21.7315H21.1351V24.2325C20.7901 24.4797 20.3934 24.6695 19.9449 24.8017C19.4965 24.9339 19.048 25.0001 18.5996 25.0001C17.9671 25.0001 17.3979 24.8678 16.892 24.6033C16.386 24.3331 15.9893 23.9594 15.7019 23.4822C15.4144 23.005 15.2706 22.4646 15.2706 21.8609C15.2706 21.2572 15.4144 20.7167 15.7019 20.2395C15.9893 19.7623 16.3889 19.3915 16.9006 19.127C17.4123 18.8568 17.9901 18.7217 18.6341 18.7217C19.1975 18.7217 19.7035 18.8165 20.1519 19.0063C20.6004 19.196 20.9741 19.4691 21.2731 19.8256L20.1864 20.8087C19.7782 20.3603 19.2895 20.136 18.7203 20.136C18.2029 20.136 17.786 20.2941 17.4698 20.6104C17.1536 20.9208 16.9955 21.3377 16.9955 21.8609C16.9955 22.1943 17.0673 22.4933 17.2111 22.7578C17.3548 23.0165 17.556 23.2206 17.8148 23.3701C18.0735 23.5138 18.3696 23.5857 18.7031 23.5857C19.0308 23.5857 19.3384 23.5196 19.6258 23.3873V21.7315Z" fill="#050505"/>
<path fill-rule="evenodd" clip-rule="evenodd" d="M18.5771 1.43736H3.80995C2.6192 1.43736 1.65391 2.40265 1.65391 3.59339V11.4989C1.65391 12.6896 2.6192 13.6549 3.80995 13.6549H18.5771C19.7679 13.6549 20.7332 12.6896 20.7332 11.4989V3.59339C20.7332 2.40265 19.7679 1.43736 18.5771 1.43736ZM3.80995 0C1.82537 0 0.216553 1.60882 0.216553 3.59339V11.4989C0.216553 13.4834 1.82537 15.0923 3.80995 15.0923H18.5771C20.5617 15.0923 22.1705 13.4834 22.1705 11.4989V3.59339C22.1705 1.60882 20.5617 0 18.5771 0H3.80995Z" fill="#050505"/>
<path fill-rule="evenodd" clip-rule="evenodd" d="M21.4641 8.62405H0.923096V6.46802H21.4641V8.62405Z" fill="#050505"/>
<path fill-rule="evenodd" clip-rule="evenodd" d="M21.4662 2.67263L1.97258 14.3016L0.920898 12.4194L20.4145 0.790483L21.4662 2.67263Z" fill="#050505"/>
<path fill-rule="evenodd" clip-rule="evenodd" d="M0.920796 2.67263L20.4144 14.3016L21.4661 12.4194L1.97247 0.790483L0.920796 2.67263Z" fill="#050505"/>
<path fill-rule="evenodd" clip-rule="evenodd" d="M10.1157 14.7735L10.1157 0.318848L12.2717 0.318848L12.2717 14.7735L10.1157 14.7735Z" fill="#050505"/>
</svg>
