<svg width="97" height="43" viewBox="0 0 97 43" fill="none" xmlns="http://www.w3.org/2000/svg">
<path d="M53.3521 32.7815V0.10507H57.87V14.6548H62.4382V0H66.9242V32.6718H62.4382V19.1179H57.87V32.7449L53.3521 32.7815Z" fill="#1287A6"/>
<path d="M80.0207 32.7814H69.1895V0.105042H79.5776V4.64127H73.6937V14.6548H77.7274V19.1179H73.6937V28.1356H80.0207V32.7814Z" fill="#1287A6"/>
<path d="M96.4532 32.7451H90.9713L86.4397 23.9422V32.7086H81.9902V0.160095H84.5393C87.2465 0.515308 89.7065 1.91755 91.3916 4.06591C93.0422 6.15815 94.0183 8.11639 94.3198 9.94063C94.4609 10.8966 94.5326 11.8614 94.5345 12.8277C94.5338 13.7455 94.4621 14.6619 94.3198 15.5687C94.0153 17.4264 92.6951 19.5293 90.3592 21.8774L96.4532 32.7451ZM89.948 12.9511C89.9989 11.5631 89.7593 10.1799 89.2445 8.88994C88.631 7.64345 87.6632 6.60576 86.4625 5.9069V18.3416C87.0407 18.2525 87.5882 18.0231 88.0573 17.6735C88.5263 17.3239 88.9026 16.8647 89.1532 16.3361C89.6985 15.2925 89.9719 14.1283 89.948 12.9511V12.9511Z" fill="#1287A6"/>
<path d="M0.0961914 32.7814V0.105042H2.86452L8.31439 13.1975L13.6409 0.178131H16.3818V32.6718H11.9004V14.0563L8.12253 21.8634L4.61415 14.0975V32.7449L0.0961914 32.7814Z" fill="#1287A6"/>
<path d="M21.4936 28.7658C20.1372 26.3396 19.2536 23.678 18.8897 20.9222C18.4195 17.9356 18.4087 14.8945 18.8577 11.9046C19.1581 9.25395 19.9612 6.68489 21.224 4.33509C22.8229 1.53935 25.0644 0.147565 27.9484 0.159747C30.6132 0.159747 32.7572 1.53021 34.3805 4.27113C35.7255 6.62286 36.5802 9.22267 36.893 11.9137C37.0709 13.3229 37.1609 14.7418 37.1625 16.1622C37.1616 17.7535 37.0471 19.3427 36.8199 20.9177C36.4548 23.68 35.5648 26.347 34.1977 28.775C32.2974 31.4032 30.1899 32.7174 27.8753 32.7174C25.509 32.7113 23.3818 31.3941 21.4936 28.7658ZM30.8355 25.5681C31.6387 23.835 32.1584 21.9841 32.375 20.0863C32.5437 18.7682 32.6276 17.4407 32.6263 16.1119C32.6263 15.0247 32.576 13.9375 32.4664 12.8411C32.1877 10.2007 31.7766 8.3277 31.233 7.20392C30.429 5.55632 29.3037 4.731 27.8571 4.72795C26.6023 4.72795 25.5242 5.59439 24.6228 7.32726C24.0198 8.47388 23.5949 10.3012 23.3528 12.8091C23.2346 13.9198 23.1751 15.036 23.1747 16.153C23.1754 17.5138 23.2608 18.8732 23.4305 20.2233C23.735 22.678 24.2588 24.49 25.0019 25.6595C25.6963 27.2858 26.6602 28.0898 27.8936 28.0806C29.0357 28.0806 30.0102 27.2492 30.8173 25.5864L30.8355 25.5681Z" fill="#1287A6"/>
<path d="M41.9627 32.7815V4.67789H37.3945V0.141663H51.0261V4.67789H46.5264V32.7815H41.9627Z" fill="#1287A6"/>
<path d="M0 35.2709H2.47597V42.6668H2.84143V35.2709H5.31283V34.9054H0V35.2709Z" fill="#1287A6"/>
<path d="M8.43348 39.1402C8.70775 39.1391 8.97905 39.0833 9.23153 38.9761C9.48401 38.869 9.71261 38.7126 9.90398 38.5161C10.0954 38.3196 10.2457 38.087 10.3461 37.8318C10.4466 37.5766 10.4952 37.3039 10.4892 37.0297C10.4953 36.4776 10.2824 35.9455 9.89713 35.55C9.51186 35.1544 8.98558 34.9276 8.43348 34.9192H6.09912V42.6851H6.46001V39.1402H7.93554L10.0872 42.6349L10.1146 42.6806H10.5394L8.36038 39.1402H8.43348ZM6.47371 35.2846H8.43348C8.88145 35.3076 9.30351 35.5017 9.61248 35.8268C9.92145 36.152 10.0937 36.5834 10.0937 37.032C10.0937 37.4805 9.92145 37.912 9.61248 38.2371C9.30351 38.5623 8.88145 38.7564 8.43348 38.7793H6.46001L6.47371 35.2846Z" fill="#1287A6"/>
<path d="M11.3385 42.5391L11.2837 42.6671H11.672L12.4303 40.7987H16.5417L17.2955 42.6671H17.6883L14.4906 34.6544L11.3385 42.5391ZM12.5811 40.4332L14.4769 35.632L16.3727 40.4332H12.5811Z" fill="#1287A6"/>
<path d="M21.2967 41.913L18.6426 34.9694L18.6197 34.9054H18.2314L21.2921 42.9363L24.3985 34.9054H24.0148L21.2967 41.913Z" fill="#1287A6"/>
<path d="M25.6871 38.7244H28.6838V38.3635H25.6871V35.2709H29.4239V34.9054H25.3262V42.6668H29.4878V42.3013H25.6871V38.7244Z" fill="#1287A6"/>
<path d="M30.4341 34.9054H30.0732V42.6668H33.6958V42.3013H30.4341V34.9054Z" fill="#1287A6"/>
<path d="M43.0509 35.0699L43.2154 34.9054H42.69L39.1954 38.3681V34.9054H38.8345V42.6668H39.1954V38.9985L42.7174 42.6348L42.7449 42.6668H43.2428L39.3964 38.6787L43.0509 35.0699Z" fill="#1287A6"/>
<path d="M49.167 41.8356L44.1831 34.5996V42.6671H44.5486V35.7736L49.5325 43.0005V34.9057H49.167V41.8356Z" fill="#1287A6"/>
<path d="M54.4527 34.8599C52.2554 34.8599 50.6611 36.5181 50.6611 38.7977C50.6611 41.0772 52.2554 42.7217 54.4527 42.7217C56.65 42.7217 58.2398 41.0681 58.2398 38.7977C58.2398 36.5273 56.6455 34.8599 54.4527 34.8599ZM54.4527 42.3563C52.4656 42.3563 51.0266 40.8579 51.0266 38.7977C51.0266 36.7374 52.4656 35.2253 54.4527 35.2253C56.4399 35.2253 57.8652 36.7283 57.8652 38.7977C57.8652 40.8671 56.4308 42.338 54.4527 42.338V42.3563Z" fill="#1287A6"/>
<path d="M65.8505 41.8308L63.7308 36.3855L63.644 36.1617L61.433 41.8262L59.6103 34.9785L59.5921 34.9054H59.2129L61.3599 42.9911L63.644 37.1575L65.8185 42.7262L65.9236 42.9911L68.0798 34.9054H67.7052L65.8505 41.8308Z" fill="#1287A6"/>
<path d="M69.5376 34.9054H69.1768V42.6668H72.7993V42.3013H69.5376V34.9054Z" fill="#1287A6"/>
<path d="M73.7173 38.7244H76.7141V38.3635H73.7173V35.2709H77.4541V34.9054H73.3564V42.6668H77.5227V42.3013H73.7173V38.7244Z" fill="#1287A6"/>
<path d="M79.7791 34.9054H78.1025V42.6713H79.7791C81.9216 42.6713 83.4748 41.0405 83.4748 38.7884C83.4748 36.5362 81.9216 34.9054 79.7791 34.9054ZM78.4634 35.2709H79.7791C81.7114 35.2709 83.1139 36.7464 83.1139 38.7838C83.1139 40.8212 81.7114 42.3013 79.7791 42.3013H78.4634V35.2709Z" fill="#1287A6"/>
<path d="M88.2759 38.9804H91.058V40.9676C90.7451 41.4252 90.3176 41.7926 89.8181 42.0331C89.3187 42.2737 88.7648 42.3788 88.212 42.3381C86.234 42.3381 84.795 40.8397 84.795 38.7794C84.795 36.7192 86.234 35.2071 88.212 35.2071C88.6717 35.1918 89.1297 35.2707 89.5578 35.4388C89.9859 35.6069 90.3752 35.8607 90.7017 36.1847L90.7702 36.2578L91.0169 35.9791L90.9529 35.9152C90.5895 35.5642 90.1602 35.2887 89.6898 35.1044C89.2193 34.9202 88.7171 34.8309 88.212 34.8416C86.0238 34.8416 84.4341 36.4999 84.4341 38.7794C84.4341 41.059 86.0238 42.7035 88.212 42.7035C88.8399 42.7447 89.4675 42.6174 90.0297 42.3347C90.5919 42.052 91.0684 41.6242 91.4097 41.0955V38.6013H88.2622L88.2759 38.9804Z" fill="#1287A6"/>
<path d="M92.8991 42.3013V38.7244H95.8959V38.3635H92.8991V35.2709H96.6359V34.9054H92.5337V42.6668H96.6999V42.3013H92.8991Z" fill="#1287A6"/>
</svg>
