<svg width="96" height="34" viewBox="0 0 96 34" fill="none" xmlns="http://www.w3.org/2000/svg">
<path d="M53.0588 33.1542V0.598944H57.56V15.0947H62.1113V0.494263H66.5807V33.045H62.1113V19.5413H57.56V33.1178L53.0588 33.1542Z" fill="#6F6B69"/>
<path d="M79.6291 33.1543H68.838V0.598999H79.1876V5.11841H73.3256V15.0948H77.3443V19.5414H73.3256V28.5256H79.6291V33.1543Z" fill="#6F6B69"/>
<path d="M96 33.1179H90.5385L86.0236 24.3476V33.0815H81.5907V0.653687H84.1303C86.8274 1.00758 89.2784 2.40463 90.9572 4.54503C92.6017 6.62951 93.5742 8.58049 93.8746 10.398C94.0151 11.3504 94.0866 12.3117 94.0885 13.2744C94.0878 14.1888 94.0163 15.1018 93.8746 16.0051C93.5712 17.856 92.2558 19.9511 89.9286 22.2904L96 33.1179ZM89.519 13.3973C89.5697 12.0145 89.3309 10.6363 88.8181 9.35117C88.2069 8.1093 87.2427 7.07546 86.0464 6.37919V18.7678C86.6224 18.679 87.1679 18.4505 87.6352 18.1022C88.1025 17.7539 88.4774 17.2964 88.7271 16.7697C89.2704 15.73 89.5428 14.5701 89.519 13.3973V13.3973Z" fill="#6F6B69"/>
<path d="M0 33.1543V0.598999H2.75807L8.18774 13.6429L13.4945 0.671818H16.2253V33.045H11.7605V14.4986L7.99659 22.2767L4.50121 14.5395V33.1178L0 33.1543Z" fill="#6F6B69"/>
<path d="M21.3183 29.1536C19.9669 26.7363 19.0866 24.0846 18.724 21.3391C18.2556 18.3634 18.2448 15.3337 18.6922 12.3548C18.9915 9.71401 19.7916 7.15448 21.0497 4.81339C22.6427 2.02801 24.8758 0.641385 27.7492 0.653521C30.4041 0.653521 32.5402 2.0189 34.1574 4.74967C35.4974 7.09268 36.349 9.68286 36.6606 12.3639C36.8378 13.7679 36.9275 15.1815 36.9291 16.5966C36.9282 18.182 36.8141 19.7653 36.5878 21.3345C36.2241 24.0866 35.3373 26.7437 33.9754 29.1627C32.082 31.7812 29.9824 33.0905 27.6764 33.0905C25.3188 33.0844 23.1995 31.7721 21.3183 29.1536ZM30.6256 25.9677C31.4258 24.241 31.9436 22.397 32.1594 20.5062C32.3274 19.193 32.4111 17.8704 32.4097 16.5466C32.4097 15.4634 32.3597 14.3802 32.2504 13.2879C31.9728 10.6572 31.5632 8.7912 31.0216 7.67158C30.2206 6.03009 29.0994 5.20783 27.6582 5.20479C26.4081 5.20479 25.334 6.06802 24.4359 7.79447C23.8351 8.93684 23.4118 10.7573 23.1706 13.256C23.0529 14.3626 22.9936 15.4747 22.9931 16.5875C22.9939 17.9432 23.079 19.2976 23.248 20.6427C23.5514 23.0883 24.0733 24.8936 24.8136 26.0587C25.5054 27.679 26.4658 28.48 27.6946 28.4709C28.8324 28.4709 29.8034 27.6426 30.6074 25.9859L30.6256 25.9677Z" fill="#6F6B69"/>
<path d="M41.7123 33.1542V5.15479H37.161V0.635376H50.742V5.15479H46.259V33.1542H41.7123Z" fill="#6F6B69"/>
</svg>
