<svg width="97" height="43" viewBox="0 0 97 43" fill="none" xmlns="http://www.w3.org/2000/svg">
<path d="M53.3516 32.7811V0.105069H57.8695V14.6546H62.4376V0H66.9235V32.6714H62.4376V19.1177H57.8695V32.7445L53.3516 32.7811Z" fill="#050505"/>
<path d="M80.0201 32.7811H69.189V0.105164H79.5769V4.64134H73.6932V14.6547H77.7268V19.1178H73.6932V28.1353H80.0201V32.7811Z" fill="#050505"/>
<path d="M96.452 32.7447H90.9702L86.4386 23.9418V32.7081H81.9893V0.160034H84.5383C87.2454 0.515242 89.7055 1.91747 91.3905 4.0658C93.0411 6.15802 94.0172 8.11623 94.3187 9.94045C94.4597 10.8964 94.5315 11.8612 94.5334 12.8275C94.5327 13.7453 94.4609 14.6617 94.3187 15.5684C94.0141 17.4261 92.694 19.529 90.3581 21.877L96.452 32.7447ZM89.947 12.9509C89.9978 11.5629 89.7582 10.1797 89.2435 8.88977C88.6299 7.6433 87.6622 6.60562 86.4615 5.90677V18.3413C87.0396 18.2522 87.5872 18.0228 88.0562 17.6732C88.5253 17.3236 88.9015 16.8645 89.1521 16.3359C89.6974 15.2923 89.9708 14.1281 89.947 12.9509V12.9509Z" fill="#050505"/>
<path d="M0.0957031 32.7811V0.105164H2.864L8.31381 13.1975L13.6403 0.178252H16.3812V32.6715H11.8998V14.0563L8.12194 21.8633L4.6136 14.0974V32.7446L0.0957031 32.7811Z" fill="#050505"/>
<path d="M21.493 28.7656C20.1367 26.3394 19.2531 23.6778 18.8892 20.9221C18.419 17.9355 18.4082 14.8945 18.8572 11.9046C19.1576 9.25396 19.9607 6.68493 21.2235 4.33516C22.8224 1.53945 25.0638 0.147688 27.9478 0.159869C30.6126 0.159869 32.7566 1.53031 34.3798 4.27121C35.7248 6.6229 36.5795 9.22269 36.8923 11.9137C37.0702 13.3229 37.1602 14.7418 37.1618 16.1621C37.1609 17.7534 37.0464 19.3426 36.8192 20.9175C36.4541 23.6799 35.5641 26.3468 34.1971 28.7748C32.2967 31.403 30.1893 32.7171 27.8747 32.7171C25.5084 32.711 23.3812 31.3938 21.493 28.7656ZM30.8349 25.5679C31.638 23.8348 32.1578 21.984 32.3744 20.0861C32.543 18.7681 32.627 17.4406 32.6256 16.1119C32.6256 15.0246 32.5754 13.9374 32.4657 12.8411C32.1871 10.2007 31.7759 8.32772 31.2323 7.20396C30.4283 5.55638 29.303 4.73107 27.8565 4.72802C26.6017 4.72802 25.5237 5.59445 24.6222 7.3273C24.0192 8.47391 23.5944 10.3012 23.3523 12.8091C23.2341 13.9198 23.1746 15.036 23.1741 16.153C23.1748 17.5137 23.2603 18.8731 23.4299 20.2232C23.7345 22.6778 24.2583 24.4898 25.0014 25.6593C25.6957 27.2855 26.6596 28.0895 27.893 28.0804C29.0351 28.0804 30.0096 27.249 30.8166 25.5862L30.8349 25.5679Z" fill="#050505"/>
<path d="M41.9627 32.7811V4.67784H37.3945V0.141663H51.0259V4.67784H46.5263V32.7811H41.9627Z" fill="#050505"/>
<path d="M0 35.2705H2.47594V42.6664H2.84139V35.2705H5.31276V34.9051H0V35.2705Z" fill="#050505"/>
<path d="M8.43296 39.1398C8.70723 39.1387 8.97852 39.0829 9.231 38.9757C9.48348 38.8686 9.71208 38.7122 9.90345 38.5157C10.0948 38.3192 10.2451 38.0866 10.3456 37.8314C10.4461 37.5762 10.4947 37.3035 10.4886 37.0293C10.4947 36.4772 10.2819 35.9451 9.89659 35.5496C9.51133 35.1541 8.98505 34.9272 8.43296 34.9188H6.09863V42.6847H6.45952V39.1398H7.93503L10.0866 42.6344L10.114 42.6801H10.5389L8.35987 39.1398H8.43296ZM6.47322 35.2843H8.43296C8.88092 35.3072 9.30298 35.5013 9.61195 35.8265C9.92091 36.1516 10.0932 36.583 10.0932 37.0316C10.0932 37.4801 9.92091 37.9116 9.61195 38.2367C9.30298 38.5619 8.88092 38.756 8.43296 38.7789H6.45952L6.47322 35.2843Z" fill="#050505"/>
<path d="M11.338 42.5385L11.2832 42.6664H11.6715L12.4298 40.798H16.5411L17.2949 42.6664H17.6877L14.49 34.6539L11.338 42.5385ZM12.5806 40.4326L14.4763 35.6315L16.3721 40.4326H12.5806Z" fill="#050505"/>
<path d="M21.2967 41.9126L18.6426 34.969L18.6197 34.9051H18.2314L21.2921 42.9359L24.3984 34.9051H24.0147L21.2967 41.9126Z" fill="#050505"/>
<path d="M25.6866 38.7241H28.6833V38.3632H25.6866V35.2705H29.4233V34.9051H25.3257V42.6664H29.4873V42.3009H25.6866V38.7241Z" fill="#050505"/>
<path d="M30.4331 34.9051H30.0723V42.6664H33.6948V42.3009H30.4331V34.9051Z" fill="#050505"/>
<path d="M43.0504 35.0695L43.2148 34.9051H42.6895L39.1949 38.3677V34.9051H38.834V42.6664H39.1949V38.9982L42.7169 42.6344L42.7443 42.6664H43.2422L39.3959 38.6784L43.0504 35.0695Z" fill="#050505"/>
<path d="M49.167 41.8352L44.1831 34.5992V42.6666H44.5486V35.7733L49.5324 43.0001V34.9053H49.167V41.8352Z" fill="#050505"/>
<path d="M54.4522 34.8595C52.2549 34.8595 50.6606 36.5177 50.6606 38.7972C50.6606 41.0767 52.2549 42.7213 54.4522 42.7213C56.6495 42.7213 58.2392 41.0676 58.2392 38.7972C58.2392 36.5269 56.6449 34.8595 54.4522 34.8595ZM54.4522 42.3558C52.4651 42.3558 51.0261 40.8575 51.0261 38.7972C51.0261 36.737 52.4651 35.2249 54.4522 35.2249C56.4394 35.2249 57.8646 36.7279 57.8646 38.7972C57.8646 40.8666 56.4302 42.3376 54.4522 42.3376V42.3558Z" fill="#050505"/>
<path d="M65.8499 41.8304L63.7303 36.3852L63.6435 36.1613L61.4325 41.8258L59.6098 34.9782L59.5916 34.9051H59.2124L61.3594 42.9907L63.6435 37.1572L65.8179 42.7258L65.923 42.9907L68.0792 34.9051H67.7046L65.8499 41.8304Z" fill="#050505"/>
<path d="M69.5367 34.9051H69.1758V42.6664H72.7983V42.3009H69.5367V34.9051Z" fill="#050505"/>
<path d="M73.7164 38.7241H76.7131V38.3632H73.7164V35.2705H77.4531V34.9051H73.3555V42.6664H77.5216V42.3009H73.7164V38.7241Z" fill="#050505"/>
<path d="M79.7781 34.9051H78.1016V42.6709H79.7781C81.9205 42.6709 83.4737 41.0401 83.4737 38.788C83.4737 36.5359 81.9205 34.9051 79.7781 34.9051ZM78.4625 35.2705H79.7781C81.7104 35.2705 83.1128 36.7461 83.1128 38.7835C83.1128 40.8208 81.7104 42.3009 79.7781 42.3009H78.4625V35.2705Z" fill="#050505"/>
<path d="M88.2749 38.9799H91.0569V40.967C90.7441 41.4246 90.3165 41.7921 89.8171 42.0326C89.3176 42.2731 88.7638 42.3782 88.211 42.3375C86.233 42.3375 84.794 40.8391 84.794 38.7789C84.794 36.7187 86.233 35.2066 88.211 35.2066C88.6707 35.1913 89.1286 35.2702 89.5567 35.4383C89.9849 35.6064 90.3741 35.8602 90.7006 36.1842L90.7691 36.2573L91.0158 35.9786L90.9519 35.9147C90.5884 35.5637 90.1591 35.2882 89.6887 35.1039C89.2183 34.9197 88.7161 34.8304 88.211 34.8411C86.0228 34.8411 84.4331 36.4994 84.4331 38.7789C84.4331 41.0584 86.0228 42.7029 88.211 42.7029C88.8389 42.7441 89.4664 42.6168 90.0287 42.3341C90.5909 42.0514 91.0673 41.6236 91.4087 41.0949V38.6007H88.2612L88.2749 38.9799Z" fill="#050505"/>
<path d="M92.8982 42.3009V38.7241H95.8949V38.3632H92.8982V35.2705H96.6349V34.9051H92.5327V42.6664H96.6989V42.3009H92.8982Z" fill="#050505"/>
</svg>
