<svg width="97" height="43" viewBox="0 0 97 43" fill="none" xmlns="http://www.w3.org/2000/svg">
<path d="M53.3514 32.7811V0.105069H57.8693V14.6546H62.4375V0H66.9234V32.6714H62.4375V19.1177H57.8693V32.7445L53.3514 32.7811Z" fill="#6F6B69"/>
<path d="M80.0203 32.7812H69.1892V0.105225H79.5772V4.6414H73.6934V14.6548H77.7271V19.1179H73.6934V28.1354H80.0203V32.7812Z" fill="#6F6B69"/>
<path d="M96.4519 32.7448H90.9701L86.4385 23.942V32.7082H81.9891V0.160156H84.5382C87.2453 0.515364 89.7053 1.91759 91.3904 4.06593C93.041 6.15814 94.0171 8.11635 94.3186 9.94057C94.4596 10.8965 94.5314 11.8614 94.5333 12.8276C94.5326 13.7454 94.4608 14.6618 94.3186 15.5685C94.014 17.4262 92.6938 19.5291 90.358 21.8771L96.4519 32.7448ZM89.9469 12.951C89.9977 11.5631 89.7581 10.1798 89.2434 8.88989C88.6298 7.64342 87.6621 6.60574 86.4614 5.90689V18.3414C87.0395 18.2523 87.5871 18.0229 88.0561 17.6733C88.5251 17.3237 88.9014 16.8646 89.152 16.336C89.6973 15.2924 89.9707 14.1282 89.9469 12.951V12.951Z" fill="#6F6B69"/>
<path d="M0.0959473 32.7812V0.105225H2.86425L8.31405 13.1975L13.6405 0.178313H16.3814V32.6716H11.9V14.0564L8.12219 21.8633L4.61385 14.0975V32.7447L0.0959473 32.7812Z" fill="#6F6B69"/>
<path d="M21.4932 28.7655C20.1368 26.3393 19.2532 23.6777 18.8893 20.922C18.4191 17.9353 18.4083 14.8944 18.8573 11.9045C19.1577 9.25384 19.9609 6.68481 21.2236 4.33504C22.8225 1.53933 25.0639 0.147566 27.948 0.159747C30.6127 0.159747 32.7567 1.53019 34.3799 4.27108C35.7249 6.62278 36.5796 9.22257 36.8924 11.9136C37.0703 13.3228 37.1603 14.7416 37.1619 16.162C37.161 17.7533 37.0465 19.3424 36.8193 20.9174C36.4542 23.6797 35.5642 26.3467 34.1972 28.7746C32.2968 31.4029 30.1894 32.717 27.8749 32.717C25.5086 32.7109 23.3813 31.3937 21.4932 28.7655ZM30.835 25.5678C31.6381 23.8347 32.1579 21.9839 32.3745 20.086C32.5432 18.768 32.6271 17.4405 32.6257 16.1117C32.6257 15.0245 32.5755 13.9373 32.4659 12.8409C32.1872 10.2005 31.7761 8.3276 31.2325 7.20384C30.4285 5.55626 29.3032 4.73094 27.8566 4.7279C26.6019 4.7279 25.5238 5.59433 24.6223 7.32718C24.0193 8.47378 23.5945 10.301 23.3524 12.809C23.2342 13.9197 23.1747 15.0359 23.1742 16.1528C23.175 17.5136 23.2604 18.8729 23.4301 20.2231C23.7346 22.6777 24.2584 24.4897 25.0015 25.6592C25.6959 27.2854 26.6597 28.0894 27.8931 28.0803C29.0352 28.0803 30.0097 27.2489 30.8168 25.5861L30.835 25.5678Z" fill="#6F6B69"/>
<path d="M41.9629 32.781V4.67778H37.3948V0.141602H51.0261V4.67778H46.5265V32.781H41.9629Z" fill="#6F6B69"/>
<path d="M0 35.2705H2.47594V42.6663H2.84139V35.2705H5.31276V34.905H0V35.2705Z" fill="#6F6B69"/>
<path d="M8.43284 39.1397C8.70711 39.1385 8.9784 39.0828 9.23088 38.9756C9.48335 38.8684 9.71195 38.7121 9.90333 38.5156C10.0947 38.3191 10.245 38.0865 10.3455 37.8313C10.446 37.5761 10.4946 37.3034 10.4885 37.0292C10.4946 36.4771 10.2817 35.945 9.89647 35.5495C9.5112 35.1539 8.98493 34.9271 8.43284 34.9187H6.09851V42.6846H6.4594V39.1397H7.93491L10.0865 42.6343L10.1139 42.68H10.5388L8.35975 39.1397H8.43284ZM6.4731 35.2842H8.43284C8.8808 35.3071 9.30286 35.5012 9.61182 35.8263C9.92079 36.1515 10.0931 36.5829 10.0931 37.0315C10.0931 37.48 9.92079 37.9114 9.61182 38.2366C9.30286 38.5618 8.8808 38.7559 8.43284 38.7788H6.4594L6.4731 35.2842Z" fill="#6F6B69"/>
<path d="M11.3383 42.5384L11.2834 42.6663H11.6717L12.4301 40.798H16.5414L17.2951 42.6663H17.688L14.4903 34.6538L11.3383 42.5384ZM12.5808 40.4325L14.4766 35.6314L16.3724 40.4325H12.5808Z" fill="#6F6B69"/>
<path d="M21.2968 41.9126L18.6427 34.969L18.6199 34.905H18.2316L21.2922 42.9358L24.3986 34.905H24.0148L21.2968 41.9126Z" fill="#6F6B69"/>
<path d="M25.6867 38.724H28.6834V38.3631H25.6867V35.2705H29.4234V34.905H25.3258V42.6663H29.4874V42.3009H25.6867V38.724Z" fill="#6F6B69"/>
<path d="M30.433 34.905H30.0721V42.6663H33.6947V42.3009H30.433V34.905Z" fill="#6F6B69"/>
<path d="M43.0501 35.0695L43.2146 34.905H42.6893L39.1946 38.3677V34.905H38.8337V42.6663H39.1946V38.9981L42.7167 42.6343L42.7441 42.6663H43.242L39.3956 38.6783L43.0501 35.0695Z" fill="#6F6B69"/>
<path d="M49.167 41.8353L44.1831 34.5994V42.6667H44.5486V35.7734L49.5324 43.0002V34.9054H49.167V41.8353Z" fill="#6F6B69"/>
<path d="M54.4523 34.8596C52.255 34.8596 50.6608 36.5179 50.6608 38.7974C50.6608 41.0769 52.255 42.7214 54.4523 42.7214C56.6496 42.7214 58.2393 41.0677 58.2393 38.7974C58.2393 36.527 56.645 34.8596 54.4523 34.8596ZM54.4523 42.3559C52.4652 42.3559 51.0262 40.8576 51.0262 38.7974C51.0262 36.7371 52.4652 35.2251 54.4523 35.2251C56.4395 35.2251 57.8647 36.728 57.8647 38.7974C57.8647 40.8667 56.4303 42.3377 54.4523 42.3377V42.3559Z" fill="#6F6B69"/>
<path d="M65.8499 41.8303L63.7303 36.3851L63.6435 36.1613L61.4325 41.8258L59.6098 34.9781L59.5916 34.905H59.2124L61.3594 42.9907L63.6435 37.1571L65.8179 42.7257L65.923 42.9907L68.0792 34.905H67.7046L65.8499 41.8303Z" fill="#6F6B69"/>
<path d="M69.5365 34.905H69.1757V42.6663H72.7982V42.3009H69.5365V34.905Z" fill="#6F6B69"/>
<path d="M73.7162 38.724H76.7129V38.3631H73.7162V35.2705H77.453V34.905H73.3553V42.6663H77.5215V42.3009H73.7162V38.724Z" fill="#6F6B69"/>
<path d="M79.7781 34.905H78.1016V42.6709H79.7781C81.9205 42.6709 83.4737 41.0401 83.4737 38.788C83.4737 36.5359 81.9205 34.905 79.7781 34.905ZM78.4625 35.2705H79.7781C81.7104 35.2705 83.1128 36.746 83.1128 38.7834C83.1128 40.8208 81.7104 42.3009 79.7781 42.3009H78.4625V35.2705Z" fill="#6F6B69"/>
<path d="M88.2749 38.9799H91.0569V40.9671C90.7441 41.4247 90.3165 41.7921 89.8171 42.0326C89.3176 42.2731 88.7638 42.3783 88.211 42.3375C86.233 42.3375 84.794 40.8392 84.794 38.779C84.794 36.7187 86.233 35.2067 88.211 35.2067C88.6707 35.1914 89.1286 35.2703 89.5567 35.4384C89.9849 35.6065 90.3741 35.8603 90.7006 36.1842L90.7691 36.2573L91.0158 35.9787L90.9519 35.9147C90.5884 35.5638 90.1591 35.2882 89.6887 35.104C89.2183 34.9197 88.7161 34.8304 88.211 34.8412C86.0228 34.8412 84.4331 36.4994 84.4331 38.779C84.4331 41.0585 86.0228 42.703 88.211 42.703C88.8389 42.7442 89.4664 42.6169 90.0287 42.3342C90.5909 42.0515 91.0673 41.6236 91.4087 41.095V38.6008H88.2612L88.2749 38.9799Z" fill="#6F6B69"/>
<path d="M92.8979 42.3009V38.724H95.8946V38.3631H92.8979V35.2705H96.6347V34.905H92.5325V42.6663H96.6986V42.3009H92.8979Z" fill="#6F6B69"/>
</svg>
