<svg width="105" height="142" viewBox="0 0 105 142" fill="none" xmlns="http://www.w3.org/2000/svg">
<path d="M105 92.4208C105 92.2093 105 91.9978 105 91.8921C105 91.3634 104.894 90.8347 104.789 90.306L104.894 59.2184C104.894 59.8528 105 60.3815 105 60.6988C105 60.1701 105 59.0069 105 57.3151C105 57.2093 105 56.9979 105 56.8921C105 52.874 105 46.7411 105 41.9828C105 41.1368 105 17.3453 105 16.7109C105 15.7592 105 14.9133 104.894 14.2788C104.894 13.2214 104.789 12.4812 104.789 12.0583C104.683 11.1066 104.471 9.83774 104.154 8.46312C103.943 7.82868 103.731 7.19424 103.52 6.66554C103.308 6.13684 102.991 5.60813 102.674 5.07943C102.039 4.02203 101.193 3.07037 100.242 2.33019C100.242 2.33019 100.242 2.33019 100.136 2.33019C98.2326 0.849826 95.8006 0.00390625 93.0514 0.00390625C92.5227 0.00390625 91.8882 0.00390665 91.2538 0.109647C90.9366 0.109647 90.5136 0.215385 90.1964 0.215385C89.7734 0.321126 89.3504 0.426867 89.0332 0.532607C89.0332 0.532607 88.9275 0.532607 88.8217 0.532607C86.0725 1.37853 83.7462 2.96463 82.1601 5.39666L82.0544 5.29091C80.1511 3.70481 77.8248 2.85889 75.0755 2.85889C74.6526 2.85889 74.1239 2.85889 73.7009 2.85889H72.9607C68.9426 2.85889 66.9335 3.17611 65.8761 3.49333C65.4532 3.59907 64.9245 3.81055 64.3958 4.02203C64.29 4.12777 64.1843 4.12777 64.0786 4.23351C63.4441 4.02203 62.8097 3.91629 62.0695 3.91629C61.858 3.91629 61.5408 3.91629 61.2236 3.91629L59.1088 4.12777C57.8399 4.23351 56.571 4.86795 55.6193 5.71387C55.3021 5.60813 55.0906 5.39665 54.7734 5.29091C54.5619 5.18517 54.4562 5.18517 54.2447 5.07943C53.6103 4.86795 52.8701 4.76221 52.1299 4.76221H51.8127H51.284C50.861 4.76221 50.4381 4.76221 50.0151 4.86795C49.1692 4.97369 48.3233 4.97369 47.9003 4.97369C47.0544 4.97369 46.2085 5.18517 45.4683 5.50239C44.8338 5.29091 44.1994 5.07943 43.4592 4.97369C43.2477 4.97369 43.142 4.97369 43.142 4.97369C43.0363 4.97369 42.9305 4.97369 42.9305 4.97369C42.719 4.97369 42.5075 4.97369 42.4018 4.97369L40.1813 5.18517C39.6526 5.29091 39.1239 5.39665 38.5952 5.60813C38.1722 5.71387 37.7492 5.92535 37.432 6.24258C37.3263 6.34832 37.2205 6.45406 37.1148 6.45406C36.9033 6.66554 36.6918 6.87702 36.4804 7.0885C35.6344 6.5598 34.6828 6.13683 33.7311 6.03109C33.5196 6.03109 33.3082 6.03109 33.2024 6.03109C32.9909 6.03109 32.7795 6.03109 32.568 6.03109L28.7613 6.45406C28.2326 6.5598 27.8097 6.66553 27.3867 6.87702C27.1752 6.98276 27.0695 7.0885 26.9637 7.0885C26.5408 6.98276 26.1178 6.98276 25.6949 6.98276C25.4834 6.98276 25.2719 6.98276 24.9547 6.98276L20.4079 7.40572C20.1964 7.40572 19.8792 7.40572 19.5619 7.51146C17.8701 7.82868 16.4955 8.78034 15.5438 10.155C14.4864 8.99182 12.9003 8.25164 11.1027 8.25164C10.8912 8.25164 10.6798 8.25164 10.4683 8.25164C9.1994 8.35738 6.66163 8.6746 6.02719 8.6746C5.60423 8.6746 5.07553 8.78034 4.44109 8.99182C1.79758 9.732 0 11.8468 0 14.4903V36.2728C0 37.013 -1.1975e-06 38.2818 0.74018 39.6565C0.84592 39.868 0.951662 40.0794 1.0574 40.1852C1.0574 40.1852 1.0574 40.1852 1.16314 40.2909C2.00906 41.454 3.1722 42.1942 4.54683 42.5115C4.65257 42.5115 4.75831 42.5115 4.86405 42.6172C5.18127 42.6172 5.49849 42.7229 5.92145 42.7229C5.60423 43.4631 5.49849 44.2033 5.49849 44.9435L5.39275 80.7894C2.96072 81.2124 1.16314 82.7985 0.42296 85.1247C0.21148 85.6534 0.105739 86.0764 0.105739 86.6051C-1.61504e-06 87.2395 0.105739 87.7682 0.105739 88.1912L0 89.883C0 90.306 -1.61504e-06 90.9405 0.105739 91.6806C0.317219 93.4782 1.26888 94.9586 2.53776 96.016C2.00906 96.4389 1.5861 96.8619 1.16314 97.4963C0.95166 97.8136 0.74018 98.1308 0.634439 98.448C0.317219 99.1882 0.211479 99.8226 0.105739 100.246C0.105739 100.457 0.105739 100.563 0.105739 100.774L0 123.297C0 123.931 -1.61504e-06 124.566 0.105739 125.095C0.105739 125.517 0.211479 125.835 0.211479 126.152C0.63444 128.901 2.00906 130.17 3.27794 130.804C3.7009 131.016 4.12387 131.227 4.65257 131.333C4.75831 131.333 4.96979 131.439 5.07553 131.439C5.39275 131.545 5.81571 131.545 6.23867 131.65C8.14199 131.968 10.6798 132.179 10.7855 132.179C10.8912 132.179 10.997 132.179 11.1027 132.179C11.3142 132.179 11.6314 132.179 11.8429 132.179C12.0544 132.179 12.2659 132.073 12.3716 132.073C12.5831 132.073 12.7946 131.968 13.006 131.968C13.006 131.968 13.1118 131.968 13.2175 131.968C14.3807 131.545 15.2266 131.016 15.861 130.276H23.4743C23.8973 131.333 24.5317 132.285 25.4834 133.025C25.6949 133.131 25.8006 133.237 26.0121 133.448C26.1178 133.448 26.1178 133.554 26.2236 133.554C26.6465 133.765 26.9637 133.977 27.3867 134.082C27.8097 134.294 28.1269 134.294 28.1269 134.294C28.3384 134.294 28.6556 134.4 28.8671 134.4L43.6707 136.091C44.7281 136.303 45.6798 136.409 46.6314 136.409C47.0544 136.409 47.3716 136.409 47.6888 136.303C48.9577 136.197 50.1208 135.774 51.0725 135.14C51.4955 134.823 51.8127 134.505 52.1299 134.188C54.139 135.774 56.8882 137.149 60.8006 137.783C60.9063 137.783 61.0121 137.783 61.1178 137.889C61.5408 137.995 61.858 137.995 62.3867 138.101C62.4924 138.101 62.5982 138.101 62.7039 138.101C63.2326 138.206 63.9728 138.206 64.8187 138.206C67.8852 138.206 70.6344 137.466 72.855 136.091L80.2568 136.937C80.7855 138.524 82.0544 139.792 83.7462 140.215L89.3504 141.696C89.5619 141.801 89.7734 141.801 89.9849 141.801C90.3021 141.801 90.7251 141.907 91.0423 141.907C93.4743 141.907 95.5891 140.744 96.6465 138.735C97.0695 137.995 97.281 137.043 97.281 136.197L97.3867 101.832C97.4924 101.832 97.8097 101.832 97.8097 101.832C97.9154 101.832 98.0211 101.832 98.1269 101.832C98.6556 101.832 99.29 101.726 99.8187 101.62C100.876 101.409 101.722 100.986 102.462 100.457C103.837 99.5054 104.471 98.3423 104.789 97.0734C104.894 97.2849 104.894 97.2849 104.894 96.9676V96.6504C105 96.2275 105 95.9102 105 95.4873V92.4208ZM58.4743 87.3453C58.4743 87.2395 58.4743 87.2395 58.5801 87.1338C58.5801 87.2395 58.6858 87.2395 58.6858 87.3453H58.4743ZM26.1178 54.4601V54.6716C26.1178 54.5658 26.1178 54.4601 26.1178 54.4601Z" fill="#1E120D"/>
<path d="M26.7517 21.6807C26.7517 20.5176 26.7517 19.3544 26.7517 18.4027C26.7517 18.0855 26.7517 17.874 26.7517 17.5568C26.7517 15.0191 26.7517 13.3272 26.7517 13.3272C26.7517 13.3272 26.7517 13.2215 26.7517 13.01C26.7517 12.587 26.4344 11.8469 25.377 11.9526L24.4254 12.0583L20.9359 12.3756H20.7245C20.7245 12.3756 20.6187 12.3756 20.513 12.3756C20.1958 12.4813 19.6671 12.6928 19.3498 13.3272C19.2441 13.433 19.2441 13.6444 19.1384 13.8559C18.8211 15.5478 17.0236 25.0644 17.0236 25.0644C17.0236 25.0644 17.0236 25.0644 17.0236 25.1701V25.2759C16.9178 25.5931 16.7063 26.2275 15.7547 26.3333C15.4375 26.3333 15.226 26.2275 15.1202 26.1218C15.0145 26.016 15.0145 26.016 14.9088 25.9103C14.9088 25.9103 14.9088 25.9103 14.9088 25.8046C14.4858 25.1701 14.38 24.2185 14.38 24.2185L12.371 14.2789C12.371 14.2789 12.371 14.0674 12.2652 13.8559C12.0538 13.5387 11.7365 13.3272 10.9964 13.3272C9.62174 13.433 6.44954 13.7502 6.44954 13.7502C6.44954 13.7502 6.13232 13.7502 5.70936 13.8559C5.2864 13.9617 4.86343 14.1731 4.86343 14.7018V36.5901C4.86343 36.5901 4.86343 37.1188 5.07492 37.436C5.07492 37.436 5.07492 37.5417 5.18066 37.5417C5.2864 37.7532 5.49788 37.8589 5.70936 37.8589C6.13232 37.9647 6.8725 37.9647 7.4012 38.0704C7.82416 38.0704 8.14138 38.1762 8.35286 38.1762C8.4586 38.1762 8.56434 38.1762 8.56434 38.1762H8.67008C8.77582 38.1762 8.9873 38.0704 9.09304 37.9647C9.19878 37.8589 9.41026 37.6475 9.41026 37.3302C9.516 36.8015 9.516 34.4753 9.41026 32.9949V32.8892C9.41026 32.2547 9.41026 31.726 9.41026 31.726C9.41026 31.726 9.19878 30.9858 9.93896 30.6686C10.0447 30.6686 10.1504 30.5629 10.3619 30.5629C10.7849 30.4571 11.1021 30.6686 11.3136 30.7744C11.6308 31.0916 11.7365 31.4088 11.7365 31.4088L13.1112 37.7532C13.1112 37.7532 13.1112 37.8589 13.2169 37.8589C13.3226 38.0704 13.6399 38.4934 14.4858 38.5991C14.5915 38.5991 14.803 38.5991 15.0145 38.7049C15.5432 38.8106 16.0719 38.8106 16.4949 38.8106C17.0236 38.9163 17.4465 38.9163 17.4465 38.9163C17.4465 38.9163 17.7637 38.9163 17.9752 38.7049C18.081 38.7049 18.081 38.5991 18.1867 38.5991C18.2924 38.4934 18.3982 38.2819 18.3982 38.0704C18.3982 37.9647 18.5039 37.6475 18.5039 37.2245C18.5039 37.1188 18.5039 37.013 18.6097 36.9073C18.7154 36.1671 18.9269 35.1097 19.1384 34.2638C19.2441 33.9466 19.2441 33.6293 19.3498 33.3121C19.4556 32.9949 19.4556 32.6777 19.4556 32.5719V32.4662C19.4556 32.4662 19.4556 32.4662 19.4556 32.3605C19.4556 32.3605 19.4556 32.2547 19.5613 32.149C19.5613 32.0432 19.6671 32.0432 19.6671 31.9375C19.7728 31.8318 19.9843 31.6203 20.3015 31.6203C20.4072 31.6203 20.4072 31.6203 20.513 31.6203C20.6187 31.6203 20.7245 31.6203 20.8302 31.6203C21.1474 31.6203 21.3589 31.726 21.4646 31.8318C21.6761 31.9375 21.7819 32.149 21.7819 32.3605C21.7819 32.4662 21.7819 32.5719 21.7819 32.6777C21.7819 32.6777 21.7819 32.6777 21.7819 32.7834C21.7819 32.8892 21.7819 32.9949 21.7819 32.9949V33.7351V34.0523V38.2819C21.7819 38.2819 21.7819 38.4934 21.8876 38.8106C21.9933 39.0221 22.0991 39.1278 22.3106 39.2336H22.4163C22.522 39.3393 22.7335 39.3393 22.8393 39.3393C23.2622 39.3393 23.6852 39.445 24.1081 39.445C24.4254 39.445 24.7426 39.5508 24.9541 39.5508C25.0598 39.5508 25.1655 39.5508 25.2713 39.5508C25.5885 39.5508 25.8 39.5508 25.8 39.5508C25.8 39.5508 25.9057 39.5508 26.1172 39.5508C26.3287 39.445 26.6459 39.3393 26.7517 38.9163C26.7517 38.9163 26.7517 38.9163 26.7517 38.8106C26.7517 38.7049 26.7517 38.5991 26.7517 38.4934C26.7517 38.2819 26.7517 37.7532 26.7517 36.8015C26.7517 36.6958 26.7517 36.4843 26.7517 36.3786C26.7517 36.2728 26.7517 36.1671 26.7517 35.9556C26.7517 35.3212 26.7517 34.6867 26.7517 33.8408C26.7517 33.6293 26.7517 33.3121 26.7517 33.1006V32.9949C26.7517 32.3605 26.7517 31.6203 26.7517 30.8801C26.6459 28.1308 26.6459 24.7472 26.7517 21.6807Z" fill="white"/>
<path d="M44.4104 14.9131C44.4104 14.173 44.4104 13.6443 44.4104 13.1156C44.4104 11.8467 44.4104 11.1065 44.4104 10.895C44.4104 10.7893 44.3047 10.5778 44.3047 10.4721C43.9874 10.0491 43.4588 9.94336 43.1415 9.94336C43.0358 9.94336 43.0358 9.94336 43.0358 9.94336C43.0358 9.94336 42.6128 9.94336 41.8726 10.0491C41.5554 10.0491 41.1325 10.1548 40.7095 10.1548C40.498 10.1548 40.3923 10.2606 40.2865 10.2606C40.1808 10.2606 40.0751 10.3663 40.0751 10.3663C40.0751 10.3663 40.0751 10.3663 39.9693 10.3663C39.8636 10.4721 39.7578 10.5778 39.6521 10.6835C39.6521 10.6835 39.6521 10.7893 39.5464 10.7893V10.895C39.4406 11.1065 39.4406 11.318 39.4406 11.318V13.0098V13.8557V26.7561V33.5234C39.4406 33.5234 39.6521 37.0128 36.7971 36.6956C34.0479 36.3784 34.0479 33.6292 34.0479 33.5234C34.0479 33.5234 34.0479 29.7168 34.0479 25.4872C34.0479 19.7772 34.0479 12.9041 34.0479 12.1639C34.0479 12.0582 34.0479 11.9524 33.9421 11.7409C33.9421 11.5295 33.8364 11.4237 33.7307 11.318C33.5192 10.895 33.0962 10.7893 32.9905 10.7893L31.7216 11.0008H31.4044L30.8757 11.1065H30.5584L30.0297 11.2122L29.2896 11.318C28.9723 11.5295 28.8666 11.9524 28.8666 12.2696C28.8666 12.3754 28.8666 12.4811 28.8666 12.4811C28.8666 12.4811 28.8666 13.8557 28.8666 15.8648C28.8666 15.9705 28.8666 16.182 28.8666 16.2878C28.8666 22.1035 28.7609 32.7832 28.8666 33.6292C28.8666 33.9464 28.9723 34.6866 29.1838 35.6382C29.3953 36.4841 29.8183 37.4358 30.5584 38.3875C30.6642 38.4932 30.6642 38.4932 30.7699 38.5989C30.7699 38.7047 30.8757 38.7047 30.8757 38.8104C32.1446 40.0793 34.0479 41.1367 37.1143 41.2425C37.2201 41.2425 37.2201 41.2425 37.3258 41.2425C37.4316 41.2425 37.643 41.2425 37.7488 41.2425C38.066 41.2425 38.3832 41.2425 38.7004 41.2425C38.8062 41.2425 38.9119 41.2425 39.0177 41.2425C40.1808 41.031 41.1325 40.7137 41.8726 40.185C41.9784 40.0793 42.0841 40.0793 42.1899 39.9736C42.2956 39.9736 42.2956 39.8678 42.4013 39.8678C42.8243 39.5506 43.1415 39.1276 43.353 38.7047L43.4587 38.5989C44.7276 36.5899 44.4104 34.1579 44.4104 34.1579C44.4104 34.1579 44.4104 34.0521 44.4104 33.7349C44.4104 33.6292 44.4104 33.4177 44.4104 33.2062C44.4104 32.9947 44.4104 32.7832 44.4104 32.466C44.4104 32.1488 44.4104 31.7258 44.4104 31.3029C44.4104 30.5627 44.4104 29.8225 44.4104 28.9766C44.4104 28.6594 44.4104 28.3421 44.4104 28.0249C44.4104 27.2847 44.4104 26.5446 44.4104 25.8044C44.4104 25.5929 44.4104 25.3814 44.4104 25.1699C44.4104 24.8527 44.4104 24.4298 44.4104 24.1125C44.4104 24.0068 44.4104 23.9011 44.4104 23.6896C44.4104 23.2666 44.4104 22.8437 44.4104 22.4207C44.4104 22.1035 44.4104 21.6805 44.4104 21.3633C44.4104 20.5174 44.4104 19.6715 44.4104 18.8255C44.4104 18.4026 44.4104 17.8739 44.4104 17.4509C44.4104 17.3452 44.4104 17.3452 44.4104 17.2394C44.4104 17.028 44.4104 16.8165 44.4104 16.605C44.4104 16.2878 44.4104 15.9706 44.4104 15.6533C44.4104 15.3361 44.4104 15.1246 44.4104 14.9131Z" fill="white"/>
<path d="M46.7373 37.9644V39.339V40.2907V40.6079C46.7373 40.6079 46.7373 40.7136 46.7373 40.9251C46.7373 41.1366 46.8431 41.4538 46.9488 41.6653C46.9488 41.771 47.0546 41.771 47.0546 41.8768C47.266 42.0883 47.4775 42.2997 47.9005 42.2997L50.121 42.5112C50.121 42.5112 51.3899 42.7227 51.3899 41.4538C51.3899 40.0792 51.3899 39.339 51.3899 39.2333C51.3899 37.2242 51.3899 34.2635 51.3899 31.8315C51.3899 30.9855 51.3899 30.1396 51.3899 29.188C51.3899 28.342 51.3899 27.8133 51.3899 27.8133C51.3899 27.8133 51.2842 27.2846 51.4956 26.8617C51.6014 26.5445 51.9186 26.333 52.3416 26.333C52.7645 26.2272 53.0817 26.4387 53.2932 26.6502C53.6104 26.9674 53.7162 27.6019 53.8219 27.9191C53.8219 27.9191 53.9277 28.1306 53.9277 28.4478C54.5621 30.9855 57.4171 42.194 57.4171 42.194C57.4171 42.194 57.4171 42.617 57.8401 43.0399C58.0515 43.2514 58.5802 43.4629 59.2147 43.5686L62.1754 43.7801H62.2811C62.2811 43.7801 63.2328 43.9916 63.2328 42.617V42.5112C63.2328 42.2998 63.2328 41.0309 63.2328 39.2333C63.2328 38.9161 63.2328 38.5988 63.2328 38.2816C63.2328 37.9644 63.2328 37.6472 63.2328 37.2242C63.2328 35.7439 63.2328 34.052 63.2328 32.2544C63.2328 31.0913 63.2328 29.8224 63.2328 28.4478C63.2328 28.342 63.2328 28.1306 63.2328 28.0248C63.2328 27.7076 63.2328 27.4961 63.2328 27.1789C63.2328 26.1215 63.2328 25.1698 63.2328 24.1124C63.2328 22.7378 63.2328 21.4689 63.2328 20.0943C63.2328 19.6713 63.2328 19.2484 63.2328 18.8254C63.2328 17.5565 63.2328 16.3934 63.2328 15.2303C63.2328 15.0188 63.2328 14.913 63.2328 14.7016C63.2328 14.0671 63.2328 13.4327 63.2328 12.904C63.2328 11.6351 63.2328 10.5777 63.2328 10.049C63.2328 9.73177 63.2328 9.52029 63.2328 9.52029C63.2328 9.52029 63.2328 9.30881 63.1271 9.09733V8.99159C63.1271 8.88585 63.0213 8.78011 62.9156 8.78011C62.7041 8.56863 62.3869 8.46289 61.7524 8.46289C61.541 8.46289 61.3295 8.46289 61.118 8.56863C60.695 8.56863 60.3778 8.67437 60.1663 8.67437C59.7434 8.88585 59.5319 8.88585 59.5319 8.88585C59.5319 8.88585 58.4745 8.88585 58.5802 10.1547C58.5802 10.2605 58.5802 10.3662 58.5802 10.5777C58.5802 10.8949 58.5802 11.4236 58.5802 11.9523C58.5802 12.1638 58.5802 12.2695 58.5802 12.481C58.5802 13.0097 58.5802 13.5384 58.5802 14.1729C58.5802 14.3843 58.5802 14.5958 58.5802 14.7016C58.5802 14.8073 58.5802 14.913 58.5802 15.0188C58.5802 15.336 58.5802 15.6532 58.5802 15.9704C58.5802 17.768 58.5802 19.3541 58.5802 19.3541C58.5802 19.3541 58.5802 21.2575 57.5228 21.5747C57.4171 21.5747 57.3113 21.5747 57.0999 21.5747C56.5712 21.5747 56.3597 21.1517 56.1482 20.7288C56.1482 20.623 56.0425 20.5173 56.0425 20.4115C56.0425 20.2001 55.9367 19.9886 55.9367 19.8828C55.9367 19.7771 55.9367 19.5656 55.831 19.5656C55.831 19.5656 55.831 19.4599 55.7253 19.2484C55.7253 19.1426 55.6195 18.9312 55.6195 18.6139C55.6195 18.4025 55.5138 18.191 55.408 17.9795C55.408 17.9795 55.408 17.9795 55.408 17.8738C55.408 17.6623 55.3023 17.4508 55.3023 17.3451C55.1965 16.9221 55.0908 16.4991 54.9851 16.0762C54.8793 15.759 54.7736 15.4417 54.7736 15.1245C54.6678 14.8073 54.6679 14.4901 54.5621 14.2786C54.5621 14.1729 54.4564 13.9614 54.4564 13.8556C54.0334 12.0581 53.6104 10.5777 53.6104 10.5777C53.6104 10.5777 53.6104 10.472 53.5047 10.3662C53.399 10.2605 53.2932 10.049 52.976 9.94325H52.8703C52.6588 9.83751 52.3416 9.83752 52.0243 9.83752C51.8129 9.83752 51.7071 9.83752 51.4956 9.83752C51.0727 9.83752 50.7555 9.83751 50.3325 9.94325C49.1694 10.049 48.112 10.049 48.112 10.049C48.112 10.049 47.266 9.94325 46.9488 10.7892V10.8949V11.0007C46.9488 11.1064 46.9488 11.1064 46.9488 11.2121C46.9488 11.3179 46.9488 11.5294 46.9488 11.7408V14.913V15.2303V18.0852V18.4025V20.3058V20.9402V25.8043V26.1215V26.2272V26.5445V28.4478V28.9765V31.62V32.4659V37.6472L46.7373 37.9644Z" fill="white"/>
<path d="M65.8762 43.6746C66.0877 43.9919 66.5106 44.3091 67.0393 44.3091C67.7795 44.4148 69.1541 44.5206 70.5288 44.6263C72.2206 44.732 73.9124 44.9435 74.5469 44.9435C74.6526 44.9435 74.7584 44.9435 74.7584 44.9435C74.7584 44.9435 76.3445 45.2607 78.0363 44.3091C78.6707 43.8861 79.4109 43.2517 79.9396 42.3C79.9396 42.1943 80.0454 42.0885 80.0454 42.0885C80.1511 41.9828 80.1511 41.8771 80.2568 41.7713C80.2568 41.6656 80.3626 41.6656 80.3626 41.5598C80.4683 41.3484 80.5741 41.1369 80.6798 40.9254C80.6798 40.8197 80.7855 40.7139 80.7855 40.5024C80.997 39.7623 81.2085 38.8106 81.42 37.7532C81.42 37.6475 81.42 37.5417 81.42 37.436C81.5257 36.9073 81.5257 36.2728 81.5257 35.7441C81.5257 34.8982 81.5257 34.0523 81.5257 33.1006V30.4571V29.6112V28.9768V28.4481L81.42 19.9888V19.3544V14.3846C81.42 14.3846 81.42 14.0674 81.42 13.6444C81.42 13.3272 81.3142 13.01 81.3142 12.6928C81.2085 12.0583 80.8913 11.2124 80.5741 10.4722C80.4683 10.3665 80.3626 10.155 80.2568 10.0493C80.0454 9.73205 79.8339 9.41483 79.5167 9.09761C79.4109 8.99187 79.3052 8.88613 79.0937 8.78039C78.142 8.04021 76.8732 7.40576 75.0756 7.40576C74.6526 7.40576 74.2297 7.40576 73.8067 7.40576C68.3082 7.40576 67.4623 7.82872 67.4623 7.82872C67.4623 7.82872 67.0393 7.93446 66.6164 8.14594C66.5106 8.25168 66.4049 8.25168 66.1934 8.35742C66.0877 8.46317 65.9819 8.46317 65.9819 8.56891C65.8762 8.67465 65.7704 8.78039 65.7704 8.88613C65.6647 9.09761 65.559 9.41483 65.559 9.73205V42.0885C65.559 42.0885 65.559 42.4058 65.559 42.723C65.559 43.0402 65.6647 43.3574 65.8762 43.6746ZM73.1723 39.5508C73.0665 39.5508 72.855 39.5508 72.7493 39.5508H72.6436C72.3263 39.445 72.1149 39.445 72.1149 39.445C72.0091 39.445 71.9034 39.445 71.7976 39.445C71.6919 39.445 71.5862 39.445 71.4804 39.3393C71.2689 39.3393 71.1632 39.2336 71.0575 39.1278C70.5288 38.7049 70.6345 38.0704 70.6345 38.0704V36.9073V36.5901V35.9556V35.7441V30.0342V29.294V28.6595V28.0251V26.6505V24.8529V22.1036V19.1429V18.72V16.0765V15.7592V14.1731C70.6345 14.1731 70.6345 14.1731 70.6345 14.0674C70.6345 13.9617 70.7402 13.5387 71.0575 13.1157C71.2689 12.9043 71.4804 12.6928 71.9034 12.4813C72.0091 12.4813 72.1149 12.3756 72.3263 12.3756C72.4321 12.3756 72.6436 12.2698 72.855 12.2698C72.9608 12.2698 73.1723 12.2698 73.278 12.2698C73.3837 12.2698 73.5952 12.2698 73.701 12.2698C73.9124 12.2698 74.1239 12.2698 74.3354 12.3756C75.6043 12.6928 76.133 13.3272 76.2387 13.9617C76.2387 14.0674 76.2387 14.1731 76.3445 14.2789C76.3445 14.4904 76.3445 14.5961 76.3445 14.5961C76.3445 14.5961 76.4502 17.0281 76.4502 20.3061C76.4502 20.5175 76.4502 20.8348 76.4502 21.0462C76.4502 21.2577 76.4502 21.4692 76.4502 21.7864C76.4502 21.9979 76.4502 22.2094 76.4502 22.3151C76.4502 22.8438 76.4502 23.4783 76.4502 24.007C76.4502 24.1127 76.4502 24.3242 76.4502 24.4299C76.4502 25.6988 76.4502 26.862 76.4502 28.1308C76.4502 28.3423 76.4502 28.4481 76.4502 28.6595C76.4502 30.9858 76.4502 33.2064 76.3445 34.7925C76.3445 34.8982 76.3445 35.1097 76.3445 35.2154C76.3445 35.5327 76.3445 35.7441 76.3445 36.0614C76.3445 36.3786 76.3445 36.5901 76.2387 36.8015C76.2387 37.013 76.133 37.3302 76.133 37.5417C75.8158 38.5991 75.0756 39.1278 74.4411 39.3393C74.1239 39.445 73.8067 39.445 73.5952 39.445C73.4895 39.6565 73.278 39.6565 73.1723 39.5508Z" fill="white"/>
<path d="M90.7249 4.86789C90.4076 4.86789 90.1962 4.97362 89.9847 5.07936H89.8789C87.3412 5.81955 85.9665 7.61713 85.1206 9.20323C85.1206 9.30897 85.0149 9.41471 85.0149 9.41471C84.8034 10.0492 84.5919 10.5779 84.4862 11.1066C84.3804 11.4238 84.3804 11.6353 84.3804 11.8467C84.2747 12.2697 84.2747 12.5869 84.2747 12.5869C84.2747 12.5869 84.2747 13.0099 84.2747 13.8558C84.2747 13.8558 84.2747 13.8558 84.2747 13.9615C84.2747 14.0673 84.2747 14.173 84.2747 14.2788C84.2747 14.3845 84.2747 14.4902 84.2747 14.596C84.2747 15.7591 84.2747 17.2395 84.169 18.9313C84.169 19.0371 84.169 19.2486 84.169 19.3543C84.169 19.883 84.169 20.4117 84.169 20.9404C84.169 21.0461 84.169 21.1519 84.169 21.3634C84.169 22.1035 84.169 22.9495 84.169 23.7954V23.9011C84.169 24.0069 84.169 24.1126 84.169 24.2183C84.169 24.3241 84.169 24.4298 84.169 24.5356C84.169 24.747 84.169 24.9585 84.169 25.17C84.169 25.3815 84.169 25.4872 84.169 25.6987C84.169 26.1217 84.169 26.4389 84.169 26.8618C84.169 27.1791 84.169 27.4963 84.169 27.8135C84.169 28.025 84.169 28.2365 84.169 28.4479C84.0632 31.4087 84.0632 33.9464 84.0632 35.0038C83.9575 38.3875 84.8034 46.5295 92.6282 46.6353C94.32 46.6353 95.5889 46.318 96.6463 45.6836C96.6463 45.6836 96.6463 45.6836 96.752 45.6836C96.8578 45.6836 96.8578 45.5779 96.9635 45.5779C100.347 43.1458 100.136 37.9646 100.136 37.9646C100.136 37.9646 100.241 26.7561 100.136 19.0371C100.136 18.1911 100.136 17.451 100.136 16.7108C100.136 15.8649 100.136 15.0189 100.03 14.2788C100.03 13.4328 99.9242 12.7984 99.9242 12.3754C99.8185 11.5295 99.7128 10.4721 99.3955 9.52045C99.2898 9.09749 99.1841 8.67453 98.9726 8.35731C98.8669 8.04009 98.6554 7.72287 98.4439 7.40565C98.1267 6.87695 97.7037 6.34825 97.175 5.92529C96.0119 4.97363 94.32 4.44492 91.7823 4.76214C91.1478 4.76214 90.9363 4.76215 90.7249 4.86789ZM94.6372 13.9615C94.6372 14.173 94.6372 15.0189 94.6372 16.4993C94.6372 17.028 94.6372 17.6624 94.6372 18.4026C94.6372 18.7198 94.6372 19.1428 94.6372 19.5658C94.6372 19.6715 94.6372 19.883 94.6372 19.9887C94.6372 20.0945 94.6372 20.0945 94.6372 20.2002C94.6372 20.306 94.6372 20.4117 94.6372 20.6232C94.6372 21.9978 94.6372 23.4782 94.6372 25.0643C94.6372 25.2757 94.6372 25.4872 94.6372 25.593C94.6372 25.6987 94.6372 25.8044 94.6372 26.0159C94.6372 26.1217 94.6372 26.2274 94.6372 26.3331C94.6372 26.6504 94.6372 26.9676 94.6372 27.3905C94.6372 28.6594 94.6372 29.9283 94.6372 31.0914C94.6372 33.735 94.6372 35.9555 94.6372 37.0129C94.6372 37.4359 94.6372 37.6473 94.6372 37.6473C94.6372 37.6473 94.6372 37.6473 94.6372 37.7531C94.6372 37.9646 94.5315 38.3875 94.4258 38.9162C94.2143 39.5507 93.8971 40.1851 93.3684 40.6081C93.0511 40.8195 92.6282 41.031 92.0995 40.9253C89.7732 40.6081 89.2445 37.7531 89.2445 37.7531V29.7168V28.8709V27.602V27.3905V24.8528V24.2183V23.3724V23.2667V21.9978V21.8921V21.1519V19.7772V19.0371V15.9706V15.6534V14.596V13.4328C89.2445 13.3271 89.3502 12.5869 89.8789 11.9525C90.3019 11.318 91.0421 10.7893 92.2052 10.7893C93.0511 10.7893 93.5798 11.1066 94.0028 11.4238C94.6372 12.0582 94.743 13.3271 94.6372 13.9615Z" fill="white"/>
<path d="M16.1776 45.8954C16.1776 45.7897 16.2834 45.5782 16.2834 45.3667C16.2834 44.838 16.0719 43.9921 14.6973 43.7806C12.5825 43.4634 12.1595 43.5692 12.1595 43.5692C12.1595 43.5692 11.948 43.5692 11.6308 43.5692C11.3136 43.6749 10.9964 43.7806 10.6791 43.9921C10.4677 44.2036 10.2562 44.5208 10.2562 45.0495V46.2127V47.7988V49.2791V49.4906V50.3365V51.0767V51.6054V52.5571V54.6719V56.3637V57.2096V61.3335V61.4392V68.1009V68.7353V69.687V69.7927V70.1099V71.4846V72.542V72.7535V75.5027V76.6658V77.0888V77.5118V77.7232V78.1462V81.2127V82.5873C10.2562 82.5873 10.1504 83.0103 9.93896 83.5389C9.72748 83.9619 9.41026 84.5964 8.88156 85.0193C8.77582 85.1251 8.67008 85.2308 8.56434 85.2308C8.14138 85.548 7.61268 85.6538 6.97824 85.6538C6.8725 85.6538 6.76676 85.6538 6.66102 85.6538C5.60362 85.7595 5.18065 86.2882 4.96917 86.8169C4.96917 86.9226 4.86343 87.1341 4.86343 87.2399C4.86343 87.6628 4.86343 87.98 4.86343 88.0858V89.0374V90.0948V90.3063C4.86343 90.3063 4.86343 90.6235 4.86343 91.1522C4.96917 91.7867 5.28639 92.7383 6.44954 92.7383C6.76676 92.7383 7.18972 92.7383 7.61268 92.6326C9.09304 92.2096 10.7849 91.8924 12.371 90.7293C13.2169 90.0948 14.0628 89.1432 14.6973 87.7686C14.803 87.4513 15.0145 87.1341 15.1202 86.7112C15.226 86.2882 15.3317 85.8652 15.4375 85.4423C15.5432 85.1251 15.5432 84.8078 15.6489 84.4906C15.6489 84.2791 15.7547 84.0677 15.7547 83.8562C15.7547 83.4332 15.8604 83.0103 15.8604 82.4815C15.8604 82.2701 15.8604 82.0586 15.8604 81.7414C15.8604 81.4241 15.8604 81.1069 15.8604 80.684C15.8604 80.5782 15.8604 80.3667 15.8604 80.261C15.8604 79.9438 15.8604 79.6266 15.8604 79.3093C15.8604 77.9347 15.9662 76.3486 15.9662 74.6568V74.551C15.9662 73.5994 15.9662 72.542 15.9662 71.4846C15.9662 71.2731 15.9662 71.1673 15.9662 70.9559C15.9662 70.2157 15.9662 69.5812 15.9662 68.8411C16.0719 62.0737 16.1776 54.6719 16.1776 50.1251C16.1776 50.1251 16.1776 50.1251 16.1776 50.0193C16.1776 49.4906 16.1776 48.9619 16.1776 48.4332C16.1776 47.2701 16.1776 46.4241 16.1776 46.0012V45.8954Z" fill="white"/>
<path d="M36.7978 54.0371C36.5863 52.3452 35.8462 49.3845 33.5199 47.2697C33.5199 47.2697 33.4141 47.2697 33.4141 47.164C32.1453 46.0008 30.3477 45.1549 28.0214 44.8377C27.5984 44.8377 27.1755 44.7319 26.7525 44.7319C26.541 44.7319 26.4353 44.7319 26.2238 44.7319C25.4836 44.7319 24.8492 44.8377 24.3205 44.8377H24.2147C24.0033 44.8377 23.8975 44.9434 23.686 44.9434C19.245 46.1066 19.1392 50.1247 18.9277 51.9223V53.2969V53.6141V54.2485V59.1126V59.6413V61.5446V61.9676V63.3422V64.1881V65.3513V65.6685V66.5144V67.0431V68.6292V69.5809V70.6383V71.3785V73.3875V73.9162V77.5114V78.886V81.1066C18.9277 81.1066 19.0335 83.4328 20.0909 85.6534C20.1966 85.7591 20.1966 85.8649 20.3024 86.0763C20.3024 86.1821 20.4081 86.2878 20.4081 86.3936C20.9368 87.2395 21.5712 88.0854 22.4172 88.7198C22.6286 88.8256 22.8401 89.0371 23.0516 89.1428C24.109 89.7772 25.3779 90.0945 26.964 89.9887C27.1755 89.9887 27.3869 89.9887 27.5984 89.9887C31.9338 89.46 34.2601 87.451 35.6347 85.0189C35.6347 84.9132 35.7404 84.8075 35.7404 84.7017C36.1634 83.7501 36.4806 82.6927 36.6921 81.6353C36.7978 81.318 36.7978 81.0008 36.7978 80.5779C36.7978 80.4721 36.7978 80.2606 36.7978 80.1549C36.7978 79.2032 36.7978 78.3573 36.7978 77.6171C36.7978 77.2999 36.7978 76.9827 36.7978 76.6655C36.7978 75.7138 36.7978 74.5507 36.7978 73.176C36.7978 71.5899 36.7978 69.8981 36.7978 68.1005V67.9948C36.7978 67.6776 36.7978 67.4661 36.7978 67.1488C36.7978 65.1398 36.7978 63.1307 36.7978 61.4389C36.7978 60.3815 36.7978 59.4298 36.7978 58.5839C36.7978 56.5748 36.7978 55.306 36.7978 55.306C36.7978 55.306 36.9036 54.7772 36.7978 54.0371ZM29.5018 82.9041C29.1845 83.1156 28.7616 83.3271 28.2329 83.4328H28.1271C28.0214 83.4328 28.0214 83.4328 27.9156 83.4328C27.8099 83.4328 27.8099 83.4328 27.7042 83.4328C27.1755 83.5386 26.7525 83.4328 26.3295 83.2214C25.4836 82.7984 25.0607 81.9525 24.8492 81.318C24.7434 81.0008 24.7434 80.7893 24.7434 80.6836C24.7434 80.5779 24.7434 80.4721 24.7434 80.4721L24.8492 53.4026C24.8492 53.2969 24.8492 53.0854 24.9549 52.9797C25.0607 52.6624 25.0607 52.2395 25.3779 51.8165C25.4836 51.7108 25.4836 51.605 25.5894 51.605C26.0123 51.1821 26.7525 50.8649 28.0214 50.9706C28.4444 50.9706 28.7616 51.0763 29.0788 51.2878C29.396 51.3936 29.6075 51.605 29.819 51.8165C30.9821 52.8739 30.9821 54.5658 30.9821 54.5658C30.9821 54.5658 30.9821 54.7772 30.9821 54.9887C30.9821 55.0945 30.9821 55.2002 30.9821 55.4117C30.9821 55.9404 30.9821 56.7863 30.9821 57.738C30.9821 58.2667 30.9821 58.9011 30.9821 59.5356C30.9821 59.9585 30.9821 60.3815 30.9821 60.9102C30.9821 61.0159 30.9821 61.1217 30.9821 61.2274C30.9821 62.9192 30.9821 64.7168 30.9821 66.5144C30.9821 66.6201 30.9821 66.7259 30.9821 66.8316C30.9821 67.0431 30.9821 67.1489 30.9821 67.3603C30.9821 67.4661 30.9821 67.5718 30.9821 67.6775C30.9821 68.1005 30.9821 68.5235 30.9821 68.9464C30.9821 70.0038 30.9821 71.0612 30.9821 72.0129C30.9821 72.1186 30.9821 72.2244 30.9821 72.3301C30.9821 72.4359 30.9821 72.5416 30.9821 72.7531C30.9821 75.6081 30.9821 78.0401 30.9821 78.9918C30.9821 79.0975 30.9821 79.309 30.9821 79.309C30.9821 79.4147 30.9821 79.5205 30.9821 79.6262C30.8764 80.7893 30.6649 82.0582 29.5018 82.9041Z" fill="white"/>
<path d="M53.2927 86.3938C53.3985 86.3938 53.6099 86.1823 53.8214 85.7594C53.9272 85.5479 54.0329 85.3364 54.0329 84.9135C54.0329 84.702 54.1387 84.3847 54.1387 84.1733C54.1387 83.856 54.2444 83.2216 54.4559 82.1642C54.4559 82.0585 54.4559 81.9527 54.4559 81.847C54.5616 80.7896 54.7731 79.5207 55.0903 78.1461C55.0903 77.9346 55.1961 77.7231 55.1961 77.4059C55.3018 76.9829 55.3018 76.56 55.4075 76.137C55.4075 76.0313 55.4075 75.9255 55.4075 75.8198C55.5133 75.0796 55.619 74.3394 55.7248 73.5993C55.7248 73.4935 55.7248 73.3878 55.8305 73.282C56.2535 70.9558 56.6764 68.418 56.9936 65.986C57.0994 65.4573 57.2051 65.0343 57.2051 64.5056C57.6281 62.2851 57.9453 60.1703 58.2625 58.3727V58.2669C58.7912 54.989 59.2142 52.6627 59.2142 52.6627C59.2142 52.6627 59.8486 50.0192 58.3683 49.702C56.1477 49.279 56.1477 49.3848 56.1477 49.3848C56.1477 49.3848 54.8788 48.8561 54.3501 49.8077C54.3501 49.8077 54.3501 49.8077 54.3501 49.9135C54.2444 50.0192 54.2444 50.1249 54.2444 50.3364C54.1387 50.6536 54.0329 51.8168 53.7157 53.5086C53.61 53.8258 53.61 54.2488 53.5042 54.6718C53.2927 55.7292 53.187 56.8923 52.9755 58.1612C52.9755 58.2669 52.9755 58.3727 52.8698 58.4784C52.764 58.9014 52.764 59.3243 52.6583 59.853C52.5525 60.276 52.5526 60.5932 52.4468 61.0162C52.4468 61.2277 52.3411 61.4391 52.3411 61.7564C52.3411 61.9678 52.2353 62.0736 52.2353 62.2851C52.1296 62.708 52.1296 63.0252 52.0239 63.4482C52.0239 63.5539 52.0239 63.7654 51.9181 63.8712C51.9181 63.9769 51.9181 64.1884 51.8124 64.2941C51.7066 65.0343 51.6009 65.6687 51.4951 66.3032C51.2837 67.3606 51.1779 68.3122 51.0722 69.0524C50.8607 70.2156 50.755 70.85 50.755 70.85C50.755 70.85 50.755 71.8017 50.4377 72.4361C50.332 72.6476 50.2263 72.7533 50.1205 72.8591C50.0148 72.9648 49.8033 72.9648 49.5918 72.8591C48.4287 72.3304 48.5344 71.5902 48.2172 70.1098C48.1115 69.7926 48.0057 68.7352 47.7942 67.3606V67.2548C47.7942 66.9376 47.6885 66.5147 47.5828 66.0917C47.5828 65.8802 47.5828 65.7745 47.477 65.563C47.477 65.4573 47.477 65.3515 47.477 65.14C47.477 65.0343 47.477 65.0343 47.477 64.9286C46.7368 59.2186 45.5737 50.7594 45.5737 50.6536C45.5737 50.6536 45.5737 50.5479 45.5737 50.3364C45.468 49.8077 45.2565 48.5388 44.5163 48.0101C44.3048 47.7987 44.0933 47.6929 43.7761 47.6929C41.3441 47.5872 41.3441 47.1642 41.3441 47.1642C41.3441 47.1642 40.3924 46.9527 39.758 47.5872C39.6522 47.6929 39.5465 47.9044 39.4408 48.0101C39.335 48.3274 39.2293 48.7503 39.335 49.279L39.758 51.8168L40.2867 55.0947L40.3924 55.7292L40.6039 57.421L40.7097 58.2669L41.8728 66.1974V66.5147L42.0843 68.3122L42.19 68.8409L42.2958 69.4754V69.6869L42.4015 70.3213L42.5072 70.6385V70.9557L42.613 71.4844L42.7187 72.4361L42.8245 73.1763V73.3878L42.9302 73.9165L43.4589 77.1944L43.5646 77.8289V78.1461L43.7761 79.8379L43.9876 81.0011L44.0933 81.5298L44.1991 82.0585L44.7278 85.7594C44.7278 85.7594 44.7278 86.0766 44.9393 86.2881C45.045 86.4995 45.2565 86.6053 45.468 86.711C45.5737 86.711 45.6794 86.8168 45.7852 86.8168C46.1024 86.9225 46.4196 87.0283 46.9483 87.0283C47.0541 87.0283 47.1598 87.0283 47.2655 87.0283C49.909 87.134 53.187 86.1823 53.187 86.1823C53.187 86.1823 53.2927 86.4996 53.2927 86.3938Z" fill="white"/>
<path d="M64.6075 85.1247C67.674 84.4903 77.0848 83.2214 77.0848 83.2214C77.0848 83.2214 77.1906 83.2214 77.4021 83.1157C77.9308 82.9042 78.7767 82.3755 78.4595 80.8951C78.4595 80.8951 79.0939 78.7803 76.8734 78.7803C76.7676 78.7803 76.6619 78.7803 76.5561 78.7803C76.4504 78.7803 76.3447 78.7803 76.3447 78.7803C75.9217 78.8861 75.4987 78.8861 75.0758 78.9918C74.8643 78.9918 74.6528 79.0976 74.4413 79.0976C72.3265 79.309 70.6347 79.5205 70.6347 79.5205C70.6347 79.5205 70.106 79.6263 69.4715 79.5205C69.1543 79.5205 68.9428 79.4148 68.6256 79.2033C68.3084 78.9918 67.9912 78.5688 68.0969 77.8287C68.0969 77.1942 68.0969 76.454 68.2027 75.7139C68.2027 75.6081 68.2027 75.5024 68.2027 75.3966C68.2027 74.7622 68.2027 74.1278 68.2027 73.5991C68.2027 73.3876 68.2027 73.0704 68.2027 72.8589C68.2027 72.7531 68.2027 72.5417 68.2027 72.4359C68.2027 72.013 68.2027 71.8015 68.2027 71.8015C68.2027 71.8015 67.9912 70.9556 68.5199 70.4269C68.7314 70.1096 69.2601 69.8982 70.0002 69.7924C70.2117 69.7924 70.4232 69.7924 70.5289 69.7924C70.8462 69.7924 71.2691 69.7924 71.5864 69.7924C71.6921 69.7924 71.7978 69.7924 71.9036 69.7924C72.2208 69.7924 72.538 69.7924 72.8552 69.7924C73.1725 69.7924 73.3839 69.7924 73.5954 69.7924C73.7012 69.7924 73.9126 69.7924 74.0184 69.7924C74.1241 69.7924 74.2299 69.7924 74.3356 69.7924C74.4413 69.7924 74.5471 69.7924 74.5471 69.7924C74.6528 69.7924 74.6528 69.7924 74.7586 69.7924C74.8643 69.7924 74.97 69.7924 74.97 69.7924C74.97 69.7924 76.5561 70.5326 76.4504 68.6293C76.3447 66.726 76.4504 66.4087 76.4504 66.4087C76.4504 66.4087 76.4504 66.4087 76.4504 66.303C76.4504 66.1973 76.2389 65.7743 75.816 65.5628C75.393 65.3513 74.7586 65.1399 73.7012 65.2456C71.0576 65.4571 70.106 65.1398 70.106 65.1398C70.106 65.1398 69.7888 65.2456 69.3658 65.0341C68.8371 64.8226 68.2027 64.1882 68.2027 62.1791V62.0734C68.2027 61.8619 68.2027 61.6504 68.2027 61.4389C68.2027 60.1701 68.2027 59.2184 68.2027 58.6897C68.2027 58.0553 68.2027 57.8438 68.2027 57.8438C68.2027 57.8438 68.2027 56.5749 69.2601 55.9405C69.683 55.729 70.2117 55.5175 71.0576 55.6232C71.9036 55.729 72.8552 55.8347 73.7012 56.0462C74.4413 56.1519 75.0758 56.3634 75.7102 56.3634C75.816 56.3634 75.9217 56.3634 76.0274 56.3634C76.2389 56.3634 76.4504 56.3634 76.6619 56.4692C76.8734 56.4692 76.9791 56.4692 77.0848 56.4692C77.6135 56.4692 77.9308 56.2577 78.0365 55.8347V55.729C78.0365 54.8831 78.5652 54.0371 78.5652 53.4027C78.5652 53.2969 78.5652 53.0855 78.4595 52.9797C78.4595 52.9797 78.4595 52.9797 78.4595 52.874C78.3537 52.7682 78.3537 52.6625 78.248 52.6625C77.825 52.3453 77.0848 52.1338 75.816 52.0281C75.7102 52.0281 75.4987 52.0281 75.393 51.9223C74.0184 51.7108 72.6438 51.6051 71.4806 51.3936C71.3749 51.3936 71.1634 51.3936 71.0576 51.2879C70.7404 51.2879 70.5289 51.1821 70.2117 51.1821C68.3084 50.8649 67.0395 50.5477 67.0395 50.5477C67.0395 50.5477 65.0305 50.019 63.6558 50.3362C63.2329 50.442 62.9157 50.6534 62.7042 50.8649C62.1755 51.2879 62.0697 51.7108 62.1755 52.2395V60.593V60.8045V61.7562V62.8136V62.9193V65.1398V65.3513V66.7259V67.0432V68.4178V69.5809V72.7531V73.0704V76.3483V77.4057V80.5779V81.3181V82.0583C62.1755 82.0583 61.964 82.9042 62.1755 83.6444C62.2812 84.1731 62.4927 84.7018 63.1271 85.019C63.5501 85.1247 63.9731 85.2305 64.6075 85.1247Z" fill="white"/>
<path d="M88.1878 67.995C88.7165 68.2065 89.0338 68.7352 89.0338 68.7352L89.1395 68.9466L89.4567 69.8983L89.6682 70.3213L90.3027 71.9074L90.7256 73.0705L91.1486 74.1279L91.2543 74.3394L91.8888 76.137L92.1002 76.7714L93.3691 80.1551L95.6954 79.7321H95.9069L99.8193 79.0977V76.4542V76.137L99.925 57.7382C100.136 56.8923 100.031 56.2578 99.8193 55.8349C99.7135 55.6234 99.6078 55.4119 99.3963 55.3062C98.6561 54.566 97.3872 54.7775 97.3872 54.7775C96.2241 54.566 95.4839 54.566 95.061 54.6717H94.9552C94.215 54.9889 94.4265 55.7291 94.4265 55.7291V56.0463V56.575V57.3152V58.2669V58.9013V59.0071V60.0645V62.4965C94.638 64.1883 92.7347 63.9769 92.7347 63.9769C92.206 63.7654 91.5715 62.4965 90.8314 61.0161C90.7256 60.8047 90.7256 60.6989 90.6199 60.4874C90.5141 60.1702 90.4084 59.9587 90.3027 59.6415C90.1969 59.2185 89.9854 58.7956 89.8797 58.4784C89.8797 58.3726 89.774 58.2669 89.774 58.0554C89.6682 57.7382 89.5625 57.5267 89.4567 57.2095C89.2453 56.4693 89.0338 55.9406 89.0338 55.9406C88.7166 53.2971 87.8706 53.4028 87.8706 53.4028L81.7377 52.4512C80.2573 52.6627 80.786 54.3545 80.786 54.3545V56.8923V57.2095V59.853V60.1702V61.9678V62.3907V67.1491V67.3605V69.5811V69.6868V72.5418V73.0705V79.8379V80.2608C80.786 80.2608 80.6803 80.5781 80.6803 81.001C80.6803 81.1068 80.6803 81.2125 80.6803 81.3182C80.6803 81.6355 80.8918 82.0584 81.209 82.1642C81.3147 82.1642 81.3147 82.2699 81.4205 82.2699H81.5262C81.632 82.2699 81.8434 82.2699 82.0549 82.2699L84.5927 81.9527C86.496 81.7412 86.073 80.1551 86.073 80.1551L86.1788 70.6385C85.9673 68.5237 86.6017 67.995 87.0247 67.7835C87.1304 67.7835 87.2362 67.7835 87.2362 67.7835C87.7649 67.8892 87.9764 67.8892 88.1878 67.995C88.0821 67.995 88.0821 67.995 88.1878 67.995Z" fill="white"/>
<path d="M100.136 92.3153C100.136 92.2095 100.136 92.1038 100.136 92.1038C100.136 91.2579 99.9244 90.8349 99.7129 90.5177C99.7129 90.5177 99.7129 90.5177 99.6072 90.4119C99.3957 90.2005 99.1842 90.0947 98.9727 90.0947C98.867 90.0947 98.867 90.0947 98.7612 90.0947H98.6555H98.444L97.4924 90.2005L93.2628 90.6234L79.9395 91.8923C79.1993 91.998 78.5649 92.1038 78.1419 92.3153C78.0362 92.421 77.9304 92.421 77.8247 92.5267C76.9788 93.0554 77.0845 93.5841 77.0845 93.5841L76.9788 95.9104V96.0162V97.1793C77.0845 99.1884 79.305 98.5539 79.305 98.5539C79.5165 98.5539 79.728 98.5539 79.9395 98.5539C80.4682 98.5539 80.8911 98.4482 81.3141 98.4482H81.4198C83.7461 98.3425 84.8035 98.5539 84.8035 98.5539L84.9093 123.086V123.72V127.844V129.747V132.497V135.457V135.88H85.015L90.6192 137.361C91.7824 137.466 92.2053 137.149 92.4168 136.832C92.5226 136.62 92.5226 136.515 92.5226 136.515L92.734 98.6597C92.8398 98.0252 94.0029 97.6023 95.2718 97.4965C95.589 97.4965 95.9062 97.3908 96.2235 97.3908C96.5407 97.3908 96.8579 97.3908 97.1751 97.3908H97.2809C97.7038 97.3908 98.0211 97.3908 98.0211 97.3908C98.3383 97.3908 98.6555 97.2851 98.9727 97.2851C99.3957 97.1793 99.7129 97.0736 99.9244 96.8621C100.453 96.4391 100.453 96.0162 100.453 96.0162V94.6415V93.2669L100.136 92.3153Z" fill="white"/>
<path d="M73.4891 120.865C72.9604 118.962 72.0087 116.847 70.2111 114.944C70.2111 114.944 69.9997 114.626 69.5767 114.309C69.471 114.098 69.2595 113.992 69.048 113.78C68.5193 113.252 67.9906 112.617 67.3562 112.194C67.3562 112.194 66.7217 111.771 65.8758 111.137C65.7701 111.031 65.6643 111.031 65.5586 110.925C65.1356 110.608 64.6069 110.185 64.184 109.762C61.9634 107.859 59.3199 105.11 59.2142 102.889C59.2142 102.889 58.5797 98.7654 62.5979 98.1309C62.9151 98.0252 63.338 98.0252 63.761 98.0252C63.761 98.0252 63.9725 98.0252 64.3954 98.1309C64.5012 98.1309 64.7127 98.2367 64.9241 98.3424C65.4528 98.6596 66.0873 99.2941 66.4045 100.457C66.616 101.092 66.7217 101.832 66.8275 102.784C66.8275 102.995 66.8275 103.206 66.8275 103.418L73.7006 103.101C73.7006 103.101 73.9121 100.669 73.1719 98.1309C73.0661 97.8137 72.9604 97.4965 72.8547 97.1793C72.1145 95.1702 70.8456 93.3726 68.3078 92.6324C68.0963 92.6324 67.9906 92.5267 67.7791 92.5267C67.7791 92.5267 67.6734 92.5267 67.4619 92.421C66.8275 92.3152 65.4528 92.1037 63.6553 92.2095C60.6945 92.3152 56.7822 92.9497 54.1386 95.6989C53.9272 95.9104 53.7157 96.1219 53.5042 96.3333C53.3985 96.4391 53.3985 96.5448 53.2927 96.5448C53.187 96.6506 53.187 96.7563 53.187 96.7563C52.9755 96.9678 52.8698 97.285 52.764 97.4965C52.6583 97.8137 52.4468 98.0252 52.3411 98.3424C52.1296 98.6596 52.0238 99.0826 51.9181 99.5055C51.9181 99.5055 51.2837 101.515 51.4951 104.052C51.4951 104.37 51.6009 104.793 51.7066 105.11C51.8124 105.638 51.9181 106.167 52.1296 106.696C52.5525 107.753 53.187 108.811 54.1386 109.868C54.3501 110.08 54.4559 110.185 54.6673 110.397C54.6673 110.397 55.3018 110.925 56.3592 111.666C56.4649 111.771 56.5707 111.771 56.5707 111.877C56.6764 111.983 56.7821 112.089 56.9936 112.194C57.2051 112.406 57.4166 112.617 57.7338 112.723C57.8396 112.723 57.8396 112.829 57.9453 112.829C58.474 113.252 59.1084 113.78 59.6371 114.203L59.7429 114.309C59.9544 114.521 60.1658 114.626 60.3773 114.838C60.8003 115.155 61.1175 115.472 61.5405 115.895C63.1266 117.376 64.5012 118.75 64.9241 119.596C64.9241 119.596 69.2595 127.421 62.0692 127.209C62.0692 127.209 58.7912 127.632 58.474 122.134C58.474 121.922 58.474 121.605 58.474 121.288C58.474 121.077 58.474 120.759 58.474 120.548L57.7338 120.442H57.6281L56.5707 120.336H56.1477H55.619H55.3018L51.2837 120.019C51.2837 120.019 48.8516 130.91 61.4347 133.025C61.5405 133.025 61.6462 133.025 61.7519 133.131C62.0692 133.131 62.3864 133.237 62.7036 133.237C62.8093 133.237 63.0208 133.237 63.1266 133.237C63.1266 133.237 71.5858 134.611 73.7006 127.104C73.8063 127.315 74.4408 124.46 73.4891 120.865Z" fill="white"/>
<path d="M37.1148 101.303L39.1238 101.091H39.5468L45.9969 100.563C47.2658 100.563 47.9003 100.14 48.3232 99.7168L48.429 99.611C48.8519 98.8708 48.6404 98.0249 48.5347 97.6019C48.5347 97.4962 48.5347 97.3905 48.5347 97.3905C48.5347 97.179 48.5347 97.0732 48.5347 96.8618C48.5347 96.6503 48.5347 96.5445 48.429 96.3331C48.429 96.2273 48.3232 96.1216 48.3232 96.0158C48.3232 95.9101 48.2175 95.9101 48.2175 95.8044C47.9003 95.2757 47.583 95.1699 47.583 95.1699L46.6314 95.2757L45.6797 95.3814L43.9879 95.5929H43.8821L40.287 96.0158L39.6525 96.1216L29.1843 97.179C28.7613 97.2847 28.4441 97.6019 28.2326 97.8134C28.1269 97.9192 28.1269 98.0249 28.0211 98.2364C27.8096 98.7651 28.0211 99.2938 28.0211 99.2938V108.176V108.81V110.608V111.031V111.454V112.511V112.723V113.78V115.684V118.116V118.433V120.759V127.315V128.267C28.0211 128.69 28.2326 129.007 28.5498 129.218C28.6556 129.218 28.6556 129.324 28.7613 129.324C28.9728 129.43 29.0785 129.535 29.1843 129.535C29.29 129.641 29.3957 129.641 29.3957 129.641L38.7009 130.699L39.6525 130.804L40.287 130.91L44.5166 131.439C45.6797 131.756 46.5256 131.756 47.1601 131.756C47.6888 131.65 48.006 131.545 48.2175 131.439C48.6405 131.122 48.7462 130.804 48.7462 130.804V129.218C48.8519 127.632 48.2175 127.103 47.583 126.786C47.4773 126.786 47.4773 126.68 47.3716 126.68C47.3716 126.68 47.3716 126.68 47.2658 126.68C47.0543 126.575 46.8429 126.575 46.8429 126.575L44.1994 126.363L43.2477 126.258L38.7009 125.835C38.2779 125.835 37.855 125.835 37.5377 125.729C36.1631 125.517 35.6344 124.777 35.5287 124.46V124.354V117.27C35.5287 117.164 35.5287 117.058 35.5287 117.058C35.6344 115.472 37.7492 115.578 37.7492 115.578L43.0362 115.789C43.4592 115.789 43.7764 115.789 44.0936 115.684C45.2568 115.472 45.6797 115.049 45.8912 114.838C45.9969 114.626 45.9969 114.52 45.9969 114.52V111.877C45.9969 110.608 44.8338 110.608 44.8338 110.608L37.9607 110.714C35.8459 110.714 35.6344 109.445 35.6344 109.445V107.753L35.5287 104.264V103.418V103.1V102.995C35.4229 102.043 37.1148 101.303 37.1148 101.303Z" fill="white"/>
<path d="M24.5318 98.5536C24.426 98.4479 24.426 98.4479 24.5318 98.5536C24.3203 98.1306 23.8973 98.1306 23.8973 98.1306C23.7916 98.0249 23.4744 98.0249 23.0514 98.0249C22.9457 98.0249 22.7342 98.0249 22.5227 98.0249C22.417 98.0249 22.3112 98.0249 22.2055 98.0249C18.6103 98.1306 10.5741 99.188 7.71909 99.5053C7.08465 99.611 6.76743 99.611 6.76743 99.611C5.71002 99.611 5.28706 99.9282 4.96984 100.351C4.96984 100.457 4.8641 100.457 4.8641 100.563C4.75836 100.774 4.75836 100.88 4.75836 100.88V108.81V109.022V110.502V111.031V113.04V113.146V123.403C4.75836 124.037 4.75836 124.46 4.8641 124.883C4.8641 125.2 4.8641 125.412 4.96984 125.623C5.18132 126.68 5.3928 126.68 5.3928 126.68C5.49854 126.786 5.71002 126.786 5.9215 126.892C6.02724 126.892 6.13298 126.892 6.23872 126.998C6.4502 127.103 6.76742 127.103 7.08464 127.209C8.77649 127.526 11.1028 127.632 11.1028 127.632C11.2085 127.632 11.2085 127.632 11.3143 127.632C11.42 127.632 11.5257 127.632 11.5257 127.526C12.4774 127.209 12.2659 126.575 12.2659 126.575V126.363V125.412V122.028V120.019V119.279V118.961V118.01C12.2659 117.058 12.6889 116.424 12.9004 116.212C13.0061 116.106 13.0061 116.106 13.0061 116.106H13.2176H19.6677C19.9849 116.106 20.1964 116.106 20.4079 116.106C20.6194 116.106 20.7251 116.001 20.8309 116.001H20.9366C21.4653 115.789 21.6768 115.472 21.7825 115.155C21.7825 115.049 21.8883 114.943 21.8883 114.943V113.04C21.8883 111.877 20.3022 111.877 20.3022 111.877H17.7644H13.852C13.6405 111.877 13.4291 111.877 13.2176 111.771C13.1118 111.771 13.1118 111.771 13.1118 111.771C12.9004 111.771 12.7946 111.665 12.6889 111.56C12.5831 111.454 12.3717 111.348 12.3717 111.242C12.2659 111.031 12.1602 110.819 12.1602 110.714V110.608V109.656V109.445V108.916V108.493V108.07V107.647V107.436V106.907V106.801V106.061V105.955V104.581V104.475C12.0544 104.158 12.1602 103.946 12.3717 103.735C12.7946 103.312 13.6405 102.995 13.9578 102.995C14.0635 102.995 14.0635 102.995 14.0635 102.995L15.2266 102.889H15.6496L17.6587 102.783L19.139 102.677L20.6194 102.572L23.0514 102.36C25.4834 102.149 24.6375 99.5053 24.6375 99.5053C24.6375 98.9766 24.6375 98.7651 24.5318 98.5536Z" fill="white"/>
</svg>
