<svg width="298" height="27" viewBox="0 0 298 27" fill="none" xmlns="http://www.w3.org/2000/svg">
<path d="M109.563 25.7409C105.405 25.7409 102.765 25.6749 99.6627 25.4769V0.528084C102.501 0.330078 106.197 0.330078 109.893 0.330078C120.981 0.330078 124.744 5.14823 124.744 13.0685C124.744 21.3187 120.057 25.7409 109.563 25.7409ZM110.355 7.92032C109.629 7.92032 109.299 7.98632 108.771 8.05232V18.0186C109.101 18.0846 109.167 18.1506 110.289 18.1506C113.985 18.1506 115.305 16.6326 115.305 12.8705C115.305 9.04235 114.051 7.92032 110.355 7.92032Z" fill="#B01630"/>
<path d="M22.9027 3.96013C24.5528 1.51805 27.3909 0 30.757 0C35.7071 0 38.3472 2.90409 38.3472 7.98625V25.4768H29.1729V10.9563C29.1729 9.10829 28.2489 7.72224 26.7308 7.72224C24.9488 7.72224 23.6947 8.77828 23.6947 11.9464V25.5428H14.5865V10.9563C14.5865 9.10829 13.6624 7.72224 12.1444 7.72224C10.3623 7.72224 9.10829 8.77828 9.10829 11.9464V25.5428H0V0.594019H8.25026C8.25026 1.25404 8.25026 2.64008 8.05225 3.96013H8.25026C9.83431 1.51805 12.8044 0 16.1045 0C19.2066 0 21.7807 1.05603 22.9027 3.96013Z" fill="#B01630"/>
<path d="M80.3908 25.5428H71.2825V0.594019H79.5327C79.5327 1.25404 79.5327 2.83809 79.3347 3.96013H79.5327C81.1828 1.51805 84.0209 0 87.387 0C92.3371 0 94.9772 2.90409 94.9772 7.98625V25.4768H85.8689V10.9563C85.8689 9.10829 84.9449 7.72224 83.4269 7.72224C81.6448 7.72224 80.3908 8.77828 80.3908 11.9464V25.5428Z" fill="#B01630"/>
<path d="M57.4879 0.59375H66.5962V25.4765H58.4119C58.4119 24.8165 58.3459 23.2325 58.6099 22.1104H58.4119C56.7619 24.5525 53.9898 26.0706 50.6237 26.0706C46.2675 26.0706 43.0334 22.9025 43.0334 18.0843V0.59375H52.1417V15.1802C52.1417 17.0283 53.0658 18.4143 54.5838 18.4143C56.3659 18.4143 57.5539 17.3583 57.5539 14.1902V0.59375H57.4879Z" fill="#B01630"/>
<path d="M140.122 0C132.202 0 127.252 4.35614 127.252 13.0684C127.252 21.7807 132.202 26.1368 140.122 26.1368C148.043 26.1368 152.993 21.7807 152.993 13.0684C152.993 4.35614 148.043 0 140.122 0ZM140.122 18.4146C137.548 18.4146 136.69 16.6325 136.69 13.0024C136.69 9.3723 137.548 7.59024 140.122 7.59024C142.697 7.59024 143.555 9.3723 143.555 13.0024C143.555 16.6985 142.763 18.4146 140.122 18.4146Z" fill="#B01630"/>
<path d="M168.899 26.1369C166.391 26.1369 163.751 25.6089 162.233 24.7508L164.213 17.6226C165.071 18.0846 166.127 18.4146 166.919 18.4146C168.635 18.4146 169.626 17.5566 169.626 15.3125V0.726074H178.734V16.5006C178.734 22.7708 175.962 26.1369 168.899 26.1369Z" fill="#B01630"/>
<path d="M226.453 25.5429H216.421L207.709 0.660156H217.609L219.589 8.64641C220.249 10.6265 221.041 14.4546 221.569 16.5667H221.701C222.163 14.5866 222.757 10.9565 223.417 8.91042L225.397 0.660156H235.099L226.453 25.5429Z" fill="#B01630"/>
<path d="M258.398 15.6425H244.142C244.406 17.6886 246.056 19.1406 249.62 19.1406C251.996 19.1406 254.504 18.6786 257.012 17.5566L257.804 24.3548C254.768 25.5428 251.204 26.1368 248.168 26.1368C239.39 26.1368 235.033 21.0547 235.033 13.0684C235.099 4.15813 240.446 0 247.508 0C255.23 0 258.728 5.14816 258.728 12.0124C258.728 13.3324 258.662 14.5865 258.398 15.6425ZM247.31 6.53421C245.792 6.53421 244.142 7.78825 244.142 10.2963H250.346C250.478 7.65624 248.894 6.53421 247.31 6.53421Z" fill="#B01630"/>
<path d="M271.599 25.5427H262.49V0.659937H270.741C270.741 1.31996 270.741 2.90401 270.543 4.02604H270.741C272.391 1.58397 275.229 0.065918 278.595 0.065918C283.545 0.065918 286.185 2.97001 286.185 8.05217V25.5427H277.077V10.9563C277.077 9.1082 276.153 7.72216 274.635 7.72216C272.853 7.72216 271.599 8.77819 271.599 11.9463V25.5427V25.5427Z" fill="#B01630"/>
<path d="M194.772 0C186.852 0 181.901 4.35614 181.901 13.0684C181.901 21.7807 186.852 26.1368 194.772 26.1368C202.692 26.1368 207.642 21.7807 207.642 13.0684C207.576 4.35614 202.692 0 194.772 0ZM194.772 18.4806C192.198 18.4806 191.34 16.6985 191.34 13.0684C191.34 9.4383 192.198 7.65624 194.772 7.65624C197.346 7.65624 198.204 9.4383 198.204 13.0684C198.138 16.6985 197.346 18.4806 194.772 18.4806Z" fill="#B01630"/>
<path d="M293.446 17.0288C295.954 17.0288 298 19.0749 298 21.583C298 24.091 295.954 26.1371 293.446 26.1371C290.938 26.1371 288.892 24.091 288.892 21.583C288.892 19.0749 290.938 17.0288 293.446 17.0288ZM293.446 25.3451C295.492 25.3451 297.208 23.629 297.208 21.583C297.208 19.5369 295.558 17.8208 293.446 17.8208C291.334 17.8208 289.684 19.4709 289.684 21.583C289.684 23.629 291.4 25.3451 293.446 25.3451ZM291.73 18.9429H293.776C295.03 18.9429 295.624 19.5369 295.624 20.5269C295.624 21.4509 295.096 21.847 294.37 21.979L295.756 24.157H294.766L293.446 22.045H292.72V24.157H291.73V18.9429ZM292.654 21.1869H293.38C293.974 21.1869 294.634 21.1209 294.634 20.4609C294.634 19.7349 293.974 19.7349 293.38 19.7349H292.654V21.1869Z" fill="#B01630"/>
</svg>
