<svg width="56" height="40" viewBox="0 0 56 40" fill="none" xmlns="http://www.w3.org/2000/svg">
<path d="M4.24047 34.9386C4.24047 33.7658 3.54279 32.9937 2.31051 32.9937H0V39.835H1.17791V36.8835H1.79404L3.49748 39.835H4.8113L3.0535 36.776C3.81461 36.5317 4.24047 35.8475 4.24047 34.9386ZM1.17791 35.7107V34.1665H2.31957C2.81792 34.1665 3.06256 34.4206 3.06256 34.9386C3.06256 35.4566 2.81792 35.7107 2.31957 35.7107H1.17791Z" fill="#09233A"/>
<path d="M6.27958 39.835H10.2935V38.6622H7.45749V36.776H9.65927V35.6032H7.45749V34.1665H10.2029V32.9937H6.27958V39.835Z" fill="#09233A"/>
<path d="M17.1843 39.835V36.3851H14.8647V37.4406H16.0426C15.9611 38.1443 15.4809 38.7404 14.6201 38.7404C13.56 38.7404 12.826 37.9781 12.826 36.4144C12.826 34.8898 13.569 34.0884 14.6473 34.0884C15.3631 34.0884 15.8795 34.5184 16.2057 35.3784L17.284 35.0755C16.9487 33.7756 16.0154 32.9156 14.6473 32.9156C13.8046 32.9156 13.0979 33.2185 12.5089 33.8342C11.9199 34.45 11.63 35.31 11.63 36.4144C11.63 37.5188 11.9109 38.3788 12.4817 38.9945C13.0526 39.6102 13.7412 39.9132 14.5566 39.9132C15.2543 39.9132 15.7617 39.6396 16.097 39.102L16.1967 39.835H17.1843Z" fill="#09233A"/>
<path d="M19.1484 32.9937V39.835H20.3263V32.9937H19.1484ZM19.9095 32.4464L21.1509 31H19.6287L19.0488 32.4464H19.9095Z" fill="#09233A"/>
<path d="M25.9246 34.1568C25.5622 33.326 24.9551 32.9156 24.0943 32.9156C23.596 32.9156 23.1882 33.0915 22.853 33.4531C22.5268 33.8147 22.3637 34.2545 22.3637 34.7725C22.3456 36.0332 23.3241 36.5512 24.0762 36.8933C24.6108 37.1376 25.0185 37.4504 25.0185 37.8511C25.0185 38.4472 24.7467 38.7404 24.194 38.7404C23.596 38.7404 23.1792 38.2811 22.9345 37.3526L21.9831 37.9977C22.0828 38.5352 22.3365 38.9945 22.7352 39.3659C23.1339 39.7275 23.6141 39.9132 24.1668 39.9132C25.3991 39.9132 26.1964 39.1118 26.1964 37.7826C26.2055 36.6001 25.1997 36.0919 24.4386 35.7303C23.9222 35.4664 23.4872 35.1439 23.4872 34.7138C23.4872 34.3522 23.7409 34.0884 24.0943 34.0884C24.4477 34.0884 24.7467 34.3327 24.9732 34.8116L25.9246 34.1568Z" fill="#09233A"/>
<path d="M29.0415 34.1665V39.835H30.2194V34.1665H31.9772V32.9937H27.2837V34.1665H29.0415Z" fill="#09233A"/>
<path d="M37.8654 34.9386C37.8654 33.7658 37.1677 32.9937 35.9354 32.9937H33.6249V39.835H34.8028V36.8835H35.4189L37.1224 39.835H38.4362L36.6784 36.776C37.4395 36.5317 37.8654 35.8475 37.8654 34.9386ZM34.8028 35.7107V34.1665H35.9445C36.4428 34.1665 36.6874 34.4206 36.6874 34.9386C36.6874 35.4566 36.4428 35.7107 35.9445 35.7107H34.8028Z" fill="#09233A"/>
<path d="M45.0141 39.835L42.8666 32.9937H41.6887L39.5413 39.835H40.8098L41.2719 38.2224H43.2834L43.7456 39.835H45.0141ZM42.9482 37.0496H41.6072L42.2777 34.6747L42.9482 37.0496Z" fill="#09233A"/>
<path d="M46.8626 34.1665V39.835H48.0405V34.1665H49.7983V32.9937H45.1048V34.1665H46.8626Z" fill="#09233A"/>
<path d="M51.4461 39.835H55.46V38.6622H52.624V36.776H54.8257V35.6032H52.624V34.1665H55.3694V32.9937H51.4461V39.835Z" fill="#09233A"/>
<path d="M11.0348 16.8979H12.1699V12.4136H13.5256V11.3738H9.71063V12.4136H11.0348V16.8979Z" fill="#1B2543" fill-opacity="0.97"/>
<path d="M16.4579 11.3738H15.3229V16.8979H16.4579V11.3738Z" fill="#1B2543" fill-opacity="0.97"/>
<path d="M21.0298 16.9622C21.6288 16.9622 22.1018 16.8322 22.3225 16.7347L22.1648 15.7599C21.9441 15.8574 21.5658 15.9548 21.219 15.9548C20.21 15.9548 19.611 15.2725 19.611 14.1676C19.611 12.9328 20.3046 12.3479 21.1874 12.3479C21.5973 12.3479 21.9126 12.4454 22.1333 12.5429L22.354 11.5681C22.1648 11.4381 21.7234 11.3081 21.1244 11.3081C19.611 11.3081 18.4129 12.3479 18.4129 14.2326C18.4129 15.7924 19.2957 16.9622 21.0298 16.9622Z" fill="#1B2543" fill-opacity="0.97"/>
<path d="M25.3491 15.0782L25.7905 14.4933L27.0201 16.8654H28.3443L26.6102 13.7134L28.2497 11.3738H26.8625L25.7274 13.1935C25.6013 13.3884 25.5067 13.5834 25.3806 13.8109H25.3491V11.3738H24.2456V16.8979H25.3491V15.0782Z" fill="#1B2543" fill-opacity="0.97"/>
<path d="M33.1685 15.858H31.1191V14.5583H32.9478V13.5509H31.1191V12.3811H33.0739V11.3738H29.9841V16.8979H33.1685V15.858Z" fill="#1B2543" fill-opacity="0.97"/>
<path d="M36.132 16.8979H37.2671V12.4136H38.6228V11.3738H34.8078V12.4136H36.132V16.8979Z" fill="#1B2543" fill-opacity="0.97"/>
<path d="M54.7343 11.8605H55.4595V2.4046C55.4595 1.07232 54.4505 0 53.2209 0H2.23856C1.00893 0 0 1.07232 0 2.4046V11.8605H0.725166C1.86021 11.8605 2.77455 12.8679 2.77455 14.0702C2.77455 15.2725 1.86021 16.2798 0.725166 16.2798H0V25.7357C0 27.068 1.00893 28.1403 2.23856 28.1403H53.2209C54.4505 28.1403 55.4595 27.068 55.4595 25.7357V16.2798H54.7343C53.5993 16.2798 52.6849 15.2725 52.6849 14.0702C52.6849 12.8679 53.5993 11.8605 54.7343 11.8605ZM54.0407 17.742V25.7357C54.0407 26.2231 53.6939 26.5806 53.2524 26.5806H2.23856C1.79715 26.5806 1.45033 26.1906 1.45033 25.7357V17.742C3.02678 17.3846 4.22488 15.8574 4.22488 14.0702C4.22488 12.2505 3.02678 10.7557 1.45033 10.3983V2.4046C1.45033 1.91718 1.79715 1.55974 2.23856 1.55974H53.2209C53.6623 1.55974 54.0091 1.94968 54.0091 2.4046V10.3983C52.4327 10.7557 51.2346 12.283 51.2346 14.0702C51.2661 15.8574 52.4327 17.3846 54.0407 17.742Z" fill="#1B2543" fill-opacity="0.97"/>
<path d="M40.9562 8.3186H7.22024C6.49507 8.3186 5.92755 8.936 5.92755 9.71587V18.4569C5.92755 19.2368 6.49507 19.8542 7.22024 19.8542H40.9562C41.6814 19.8542 42.2489 19.2368 42.2489 18.4569V9.71587C42.2489 8.936 41.6814 8.3186 40.9562 8.3186ZM40.8301 18.2945H7.37788V9.87835H40.8301V18.2945Z" fill="#1B2543" fill-opacity="0.97"/>
<path d="M46.3161 12.9978C45.8431 12.9978 45.4648 13.3877 45.4648 13.8752V14.3626C45.4648 14.85 45.8431 15.2399 46.3161 15.2399C46.789 15.2399 47.1673 14.85 47.1673 14.3626V13.8752C47.1989 13.3877 46.789 12.9978 46.3161 12.9978Z" fill="#1B2543" fill-opacity="0.97"/>
<path d="M46.3161 16.6697C45.8431 16.6697 45.4648 17.0596 45.4648 17.547V18.0344C45.4648 18.5219 45.8431 18.9118 46.3161 18.9118C46.789 18.9118 47.1673 18.5219 47.1673 18.0344V17.547C47.1989 17.0596 46.789 16.6697 46.3161 16.6697Z" fill="#1B2543" fill-opacity="0.97"/>
<path d="M46.3161 9.32593C45.8431 9.32593 45.4648 9.71586 45.4648 10.2033V10.6907C45.4648 11.1781 45.8431 11.568 46.3161 11.568C46.789 11.568 47.1673 11.1781 47.1673 10.6907V10.2033C47.1989 9.74836 46.789 9.32593 46.3161 9.32593Z" fill="#1B2543" fill-opacity="0.97"/>
<path d="M46.3161 23.5911C45.8431 23.5911 45.4648 23.981 45.4648 24.4684V24.9558C45.4648 25.4433 45.8431 25.8332 46.3161 25.8332C46.789 25.8332 47.1673 25.4433 47.1673 24.9558V24.4684C47.1673 23.981 46.789 23.5911 46.3161 23.5911Z" fill="#1B2543" fill-opacity="0.97"/>
<path d="M46.3161 20.0491C45.8431 20.0491 45.4648 20.439 45.4648 20.9264V21.4138C45.4648 21.9013 45.8431 22.2912 46.3161 22.2912C46.789 22.2912 47.1673 21.9013 47.1673 21.4138V20.9264C47.1673 20.439 46.789 20.0491 46.3161 20.0491Z" fill="#1B2543" fill-opacity="0.97"/>
<path d="M46.3161 8.05852C46.789 8.05852 47.1673 7.66859 47.1673 7.18117V6.69376C47.1673 6.20634 46.789 5.81641 46.3161 5.81641C45.8431 5.81641 45.4648 6.20634 45.4648 6.69376V7.18117C45.4963 7.66859 45.8747 8.05852 46.3161 8.05852Z" fill="#1B2543" fill-opacity="0.97"/>
<path d="M46.3161 4.51654C46.789 4.51654 47.1674 4.1266 47.1674 3.63919V3.15177C47.1674 2.66435 46.789 2.27441 46.3161 2.27441C45.8432 2.27441 45.4648 2.66435 45.4648 3.15177V3.63919C45.4963 4.1266 45.8747 4.51654 46.3161 4.51654Z" fill="#1B2543" fill-opacity="0.97"/>
</svg>
